<?xml version="1.0" encoding="UTF-8"?>
<svg id="Capa_1" xmlns="http://www.w3.org/2000/svg" width="500" height="500" version="1.1" viewBox="0 0 500 500">
  <!-- Generator: Adobe Illustrator 30.1.0, SVG Export Plug-In . SVG Version: 2.1.1 Build 136)  -->
  <path d="M142.94,366.3l-48.41-.07,29.04-60.45-82.1-.09c-1.86,5.18-6.14,8.1-11.06,7.68-4.93-.42-9-4.32-9.06-9.76-.05-4.54,3.38-9.17,8.49-10.03,4.75-.8,9.11,2.11,11.48,7.1h84.68s22.81-46.5,22.81-46.5l-19.7-.19-30.22,30.39-73.96.08c-1.65,2.23-3.33,4.65-5.72,5.82-5.65,2.77-11.85-.3-13.72-5.51-2.07-5.77.97-11.82,6.75-13.39s11.15,1.64,12.85,7.93l71.38.06,30.22-30.38,24.62-.08,7.8-15.74-41.8-.09-19.11,18.99-17.18.24c-1.67,4.41-5.5,7.02-9.68,6.62-4.45-.43-7.76-3.78-8.1-8.13s2.41-8.24,6.62-9.42,8.82.8,10.79,5.65l15.27.03,18.98-18.99,46.6-.02,6.76-13.67-81.54.05c-1.8,5-6.02,7.46-10.78,7s-8.94-4.26-9.07-9.52,3.79-9.13,8.29-9.85c5.21-.84,10.08,1.67,11.62,7.21l83.96.02,6.15-12.49-62.11-.05-28.08-27.85-17.88-.13c-1.93,4.82-6.15,7.83-10.72,7.41-5.26-.48-9.19-4.92-9.49-9.43-.36-5.43,3.79-9.85,8.26-10.66,5.55-1.01,10.12,1.92,11.94,7.51l19.87.17,28.1,27.72,62.69.09,6.01-12.09-43.63.05-16.85-16.36c-4.73,1.36-9.55-.3-11.71-3.91-2.59-4.34-1.42-9.28,1.74-12.19,3.63-3.35,8.91-3.08,12.13-.34,3.82,3.25,4.87,8.26,1.98,12.92l14.81,14.78,43.93.02,24.12-48.62,40.71.03,20.46,42.05,71.66,145.57,9.83,19.32h16.51c24.39,0,46.65-11.33,61.05-30.9,5.39-7.32,9.41-14.75,12-23.67,5.82-20.06,5.55-41.56-1.99-61.31-11.43-29.94-40.9-49.16-73.12-48.25l-73.72.04-21.64-42.88,96.67-.02c45.29-.48,87.3,23.74,109.03,63.38,12.97,23.65,18.12,52.41,14.63,79.26-6.03,46.31-37,84.08-80.89,99.63-10.93,3.87-21.35,5.28-32.9,5.25l-56.71-.11-4.22-7.77-57.71.05c-1.62,4.67-5.47,7.06-9.77,6.89s-7.85-3.45-8.81-8.27l-13.35-.02c-1.09,0-2.67-1.25-2.73-2.16-.1-1.5,1.25-2.89,2.8-2.9l14.23-.14c2.41-3.12,5.31-5.2,8.99-4.9,3.71.3,6.75,2.52,8.42,6.52h55.1s-7.34-15.28-7.34-15.28l-39.1-.02c-.86,4.7-4.48,7.42-8.59,7.58-4.54.18-8.17-3.18-8.99-7.02-.98-4.63,2.04-8.3,5.23-9.94,4.9-2.52,8.83.67,11.69,4.11l36.89.17-6.03-12.64-66.21-.03c-1.72,5.01-6.38,7.39-10.78,6.83-5.06-.64-8.14-4.86-8.35-9.31-.23-5.06,3.29-8.93,7.63-9.87,5.26-1.14,9.78,1.88,11.56,7.33h63.35s-9.57-20.01-9.57-20.01l-83.9-.09,20.83-42.8h41.76s-34.72-72.48-34.72-72.48l-88.99,179.22ZM125.4,154.23c0-2.28-1.85-4.13-4.13-4.13s-4.13,1.85-4.13,4.13,1.85,4.13,4.13,4.13,4.13-1.85,4.13-4.13ZM63.7,166.04c0-2.72-2.21-4.93-4.93-4.93s-4.93,2.21-4.93,4.93,2.21,4.93,4.93,4.93,4.93-2.21,4.93-4.93ZM81.66,211.68c0-2.58-2.09-4.67-4.68-4.67s-4.68,2.09-4.68,4.67,2.09,4.67,4.68,4.67,4.68-2.09,4.68-4.67ZM75.89,250.06c0-2.05-1.66-3.7-3.71-3.7s-3.71,1.66-3.71,3.7,1.66,3.7,3.71,3.7,3.71-1.66,3.71-3.7ZM19.8,281.24c0-2.7-2.19-4.89-4.89-4.89s-4.89,2.19-4.89,4.89,2.19,4.89,4.89,4.89,4.89-2.19,4.89-4.89ZM36.07,303.57c0-2.58-2.1-4.68-4.68-4.68s-4.68,2.09-4.68,4.68,2.1,4.68,4.68,4.68,4.68-2.09,4.68-4.68ZM229.31,324.65c0-2.53-2.05-4.59-4.59-4.59s-4.59,2.05-4.59,4.59,2.05,4.59,4.59,4.59,4.59-2.05,4.59-4.59ZM265.01,343.9c0-2.04-1.65-3.69-3.69-3.69s-3.69,1.65-3.69,3.69,1.65,3.69,3.69,3.69,3.69-1.65,3.69-3.69ZM256.48,363.3c0-2.22-1.8-4.02-4.02-4.02s-4.02,1.8-4.02,4.02,1.8,4.02,4.02,4.02,4.02-1.8,4.02-4.02Z"/>
  <path d="M335.14,46.75c-91.74-21.1-193.47,22.1-235.41,107.08l-13.26.09C128.22,59.86,240.68,11.53,339.45,35.17l-4.3,11.57Z"/>
  <path d="M465.31,115.41c-25.81-32.91-60.88-56.74-100.24-70.21l4.83-10.9c42.7,13.89,84.25,43.5,109.72,80.68l-14.32.43Z"/>
  <polygon points="280.97 428.49 271.98 428.58 271.92 413.61 259.71 413.63 259.71 428.43 251.17 428.55 251.12 391.28 259.63 391.2 259.73 405.92 271.88 406.14 272.01 391.21 280.92 391.25 280.97 428.49"/>
  <path d="M328.5,428.66l-.11-15.16c-.01-1.43-2.21-3.07-3.45-3.02-1.31.06-3.98,1.88-4.01,3.39l-.33,14.68-8.54-.05.04-24.18,7.05-.15c.59-.01,1.75,1.59,1.9,1.97,4.21-3.77,10.18-3.42,14.05,1.2,3.3-3.67,7.75-4.59,12.13-3.12,4.05,1.37,6.36,5.8,6.34,10.59l-.04,13.71-8.6.04-.09-14.45c-.01-1.87-1.97-3.66-3.6-3.71-6.22-.18-3.68,12.89-4.22,18.02l-8.53.24Z"/>
  <path d="M73.5,428.59l-.1-14.36c-.01-1.59-1.67-3.8-3.19-3.78-2.71.05-4.57,2.62-4.59,5.07l-.11,12.96-8.47.06v-24.17s7.12-.14,7.12-.14c.57-.01,1.69,1.53,1.8,1.84,4.26-3.67,10.38-3.35,14.19,1.26,3.94-4.05,9.92-5.21,14.44-1.8,2.75,2.08,3.85,5.87,3.84,9.27l-.02,13.74-8.5-.05-.1-14.37c-.01-1.86-2-3.57-3.6-3.71-1.32-.12-3.86,1.7-3.9,3.49l-.36,14.64-8.45.05Z"/>
  <path d="M145.3,419.5l7.77-.11c.82,1.33,1.48,2.8,2.37,3.32,2.2,1.27,6.56.46,6.52-1.65-.01-.66-1.25-1.91-1.91-2.05l-8.26-1.71c-3.45-.72-4.9-3.18-6.41-6.08-.58-1.11-3.81-.68-4.8.07s-2.56,2.84-2.58,4.16l-.12,13.02-8.53.08.03-24.22,7.07-.13c.48,0,1.56,1.36,1.85,1.84,2.09-1.95,5.3-3.09,8.23-1.95l.63,3.38c1.52-1.28,3.17-2.76,4.99-3.23,6.37-1.64,17.17-1.12,17.6,7.34-11.51,1.43-6.81-2.14-10.65-2.7-1.29-.19-3.75.05-4.18,2.39,4.26,2.88,14.23.97,15.46,8.15.59,3.44-.91,7.14-4.58,8.39-6.96,2.38-19.9,2.15-20.5-8.32Z"/>
  <path d="M276.11,461.6l-5.51.3-.14-11.59-4.89-.27c-1.53-.08-2.85,2.55-2.86,4.05v7.84s-11.68-.07-11.68-.07l-2.05-4.95h-9.31s-1.95,4.89-1.95,4.89l-6.08-.11,9.73-24.42c1.49-.49,3.83-.43,5.48.05l9.78,23.2.43-14.83,6.24.11,6.88-.53.42-5.77,5.32-.04.35,5.76c1.66.33,3.02.95,3.17,1.98.31,2.19-.86,2.81-3.12,3.13l-.21,11.27ZM247.31,451.99l-3.28-7.92-2.78,7.95,6.07-.02Z"/>
  <path d="M433.51,97.83c1.88,1.61,2.41,3.19,1.56,4.9-.89,1.79-3.52,1.86-5.22.35-20.05-17.83-43.03-31.4-68.37-40.42-1.75-.62-2.79-1.47-2.96-2.76-.19-1.46.55-4.56,2.76-3.85,26.93,8.77,50.7,23.39,72.23,41.77Z"/>
  <path d="M441.87,428.35l-6.49.32c-.8.04-2.14-.96-2.78-1.81-3.98,2.76-9.1,3.05-13.29.66-4.39-2.5-6.74-7.42-6.18-12.72.49-4.65,3.39-8.39,6.99-10.1,4.32-2.05,9.09-1.23,12.7,1.61l1.52-2.04h7.46s.07,24.08.07,24.08ZM433.3,416.39c0-3.16-2.56-5.72-5.72-5.72s-5.72,2.56-5.72,5.72,2.56,5.72,5.72,5.72,5.72-2.56,5.72-5.72Z"/>
  <path d="M383.5,428.49l-7.66.12-1.46-1.99c-3.88,2.87-8.73,3.37-13.03,1.1s-6.77-6.41-6.71-11.58c.06-4.93,2.59-9.22,6.51-11.2,4.34-2.19,9.44-1.79,13.21,1.28.3-.56,1.42-2.06,2.11-2.04l7,.16.03,24.14ZM370.8,422.13c3.57-.96,4.7-4.83,3.69-7.65-.95-2.66-3.77-4.68-6.86-3.8s-4.45,4.14-3.8,7.07,3.28,5.37,6.96,4.39Z"/>
  <path d="M108.39,417.73c-.05,2.32,1.82,4.28,3.7,4.82,2.89.84,4.89-.3,6.64-2.88,2.08-.26,5.32-.25,8.08-.13-1.61,7.51-9.01,10.5-16.06,9.37-6.07-.97-10.9-5.39-11.46-11.36s3.17-11.48,9.14-13.26c3.32-.99,7.17-1.03,10.45-.02,5.83,1.8,8.96,7.23,8.24,13.17l-18.74.28ZM119.02,413.26c-1.36-4.08-3.75-4.41-6.29-4.12-1.9.21-3.7,1.91-4.33,4.19,3.79.19,7.17.17,10.62-.07Z"/>
  <path d="M226.77,410.51c-7.81-1.87-4.6,13.97-5.34,18.05l-8.68-.02.02-24.18,6.75-.2c.8-.02,1.95,1.29,2.28,2.09,2.94-2.67,6.95-3.43,10.95-1.9,3.2,1.22,5.48,5,5.52,9.25l.16,14.87-8.66.14-.08-13.82c-.01-1.92-1.3-3.88-2.92-4.27Z"/>
  <path d="M210.42,416.33c0,7.43-6.02,13.45-13.46,13.45s-13.46-6.02-13.46-13.45,6.02-13.45,13.46-13.45,13.46,6.02,13.46,13.45ZM202.44,415.8c-.36-3.81-3.36-6.06-6.37-5.5s-4.87,3.29-4.62,6.52c.27,3.42,2.85,5.76,5.79,5.64,3.33-.14,5.56-2.75,5.2-6.66Z"/>
  <path d="M42.87,410.44c-7.33-1.27-4.26,13.94-4.97,18.11h-8.62s.02-24.24.02-24.24l7.33-.1c.57,0,1.65,1.64,1.77,1.98,3.09-2.83,7.12-3.23,10.9-1.7,3.5,1.42,5.28,5.37,5.28,9.68v14.37s-8.5-.07-8.5-.07l-.15-14.36c-.02-1.58-1.68-3.43-3.05-3.67Z"/>
  <path d="M308.91,404.25l.04,24.16-7.29.2c-.55.01-1.78-1.69-1.85-1.81-3.11,1.96-6.21,3.01-9.83,1.9-9.41-2.89-5.63-15.38-6.39-24.38l8.58-.04.06,13.9c0,1.96,1.28,3.92,2.97,4.11,7.36.82,4.61-13.12,5.13-17.96l8.59-.07Z"/>
  <path d="M400.35,410.48c-7.42-1.32-4.36,13.76-5.12,17.97l-8.47.13-.02-24.13,7.34-.27c.56-.02,1.69,1.7,1.78,1.96,3.15-2.71,7.13-3.22,10.87-1.6,3.41,1.48,5.2,5.31,5.19,9.62v14.4s-8.52-.02-8.52-.02v-13.74c0-1.91-1.48-4.03-3.04-4.3Z"/>
  <path d="M104.67,455.97c-.89,4.58-4.78,6.29-8.85,6.33-4.62.05-8.5-2.79-9.1-7.77l-12.77.2c.27,1.79,1.22,3.12,2.65,3.32,4.01.54,1.94-3.55,9.27-1.9-.81,4.3-4.4,6.02-8.45,6.11-3.41.07-6.63-1.33-8.32-3.88-1.88-2.85-2.02-6.75.27-9.61,3.01-3.77,8.4-4.6,12.66-2.55,3.12,1.51,3.95,4.25,4.32,7.55,1.08-4.99,3.9-7.98,8.1-8.54,4.55-.61,9.25,1.34,10.23,6.51-7.1,1.82-5.59-3.03-9.53-1.81-1.61.5-2.67,2.43-2.49,4.31.14,1.54,1.25,3.07,2.61,3.55,3.44,1.21,1.74-3.37,9.42-1.82ZM81.09,451.73c-1.19-2.52-2.33-2.86-4.04-2.79-1.17.05-2.39,1.1-3.1,2.65l7.15.14Z"/>
  <path d="M56.51,266.58c1.1,1.07,1.35,2.44.84,3.55-.4.87-2.66,1.73-3.5.93l-19.63-18.87c-5.04,3.1-10.85,2.07-13.98-2.38-2.94-4.17-2.17-10.1,2.24-13.41,3.65-2.74,8.51-2.71,11.86-.11,3.54,2.75,4.65,7.11,3.12,11.67l19.04,18.6ZM32.92,244.17c0-2.52-2.04-4.56-4.57-4.56s-4.57,2.04-4.57,4.56,2.04,4.56,4.57,4.56,4.57-2.04,4.57-4.56Z"/>
  <path d="M178.33,470.74c-4.52-.34-7.94-2.21-8.49-6.91l5.26.1c1.59,1.95,3.18,3.13,5.34,2.32,1.87-.7,2.93-3.56,2.47-5.47-3.28,1.62-5.97,1.91-8.85.48-2.41-1.2-4.32-3.95-4.53-7.15-.22-3.38,1.43-6.35,4.05-7.91,2.89-1.73,6.38-1.19,9.08.31,2.01-.98,4.03-1.05,6.26-.69l-.1,16.15c-.03,5.54-4.92,9.19-10.5,8.77ZM183.06,453.71c0-2.11-1.71-3.82-3.83-3.82s-3.83,1.71-3.83,3.82,1.71,3.82,3.83,3.82,3.83-1.71,3.83-3.82Z"/>
  <path d="M341.39,460.93c-4.11,1.38-8.54,1-12.49.73v-24.68s7.42-.08,7.42-.08c6.32-.07,11.16,3.94,12.53,9.84,1.24,5.36-1.14,12.07-7.46,14.19ZM334.58,456.53c5.66.71,9.02-2.91,8.78-7.74-.2-4.06-4.39-7.44-8.85-6.48l.07,14.22Z"/>
  <rect x="3.05" y="405.53" width="37.37" height="8.72" transform="translate(-388.16 431.42) rotate(-89.97)"/>
  <path d="M217.6,445.78v15.95s-6.41-.17-6.41-.17c-2.92-.08-5.88,1.93-8.99-.32-2.33-1.69-4.34-4.69-3.99-8.3.3-3.18,2.16-5.74,4.71-6.99,2.77-1.36,5.78-.91,8.21.57,1.97-.8,3.93-.96,6.47-.74ZM211.85,453.7c0-2.1-1.71-3.81-3.81-3.81s-3.81,1.71-3.81,3.81,1.71,3.81,3.81,3.81,3.81-1.71,3.81-3.81Z"/>
  <path d="M216.01,344.81c0,5.21-4.23,9.43-9.44,9.43s-9.44-4.22-9.44-9.43,4.23-9.43,9.44-9.43,9.44,4.22,9.44,9.43ZM210.73,344.75c0-2.35-1.91-4.25-4.25-4.25s-4.25,1.9-4.25,4.25,1.91,4.25,4.25,4.25,4.25-1.9,4.25-4.25Z"/>
  <path d="M382.8,457.96c4.61.69,1.46-3.31,9.6-1.92-.71,4.61-4.67,6.11-8.73,6.27-4.75.18-8.79-2.6-9.49-7.03s2.24-8.87,7.11-9.94c2.66-.59,5.66-.02,7.99,1.47s3.58,4.08,3.45,7.66l-12.46.33c.43,1.55,1.46,3.01,2.53,3.17ZM387.18,451.65c-.32-1.62-1.91-2.74-3.3-2.72-1.68.02-2.82.97-3.53,2.67l6.83.05Z"/>
  <path d="M287.49,458.03c4.84.47,1.54-3.37,9.54-2.02-.78,4.38-4.15,5.92-7.96,6.24-5.28.45-9.73-2.54-10.23-7.72s3.45-9.14,8.87-9.41,10.23,3.25,9.77,9.37l-12.52.26c.31,1.72,1.33,3.17,2.53,3.28ZM292,451.64c-.48-1.62-2.02-2.78-3.33-2.74-1.8.06-3.01.95-3.64,2.69l6.98.05Z"/>
  <polygon points="322.2 445.99 312.69 470.67 306.68 470.66 310.07 462.75 303.34 445.92 309.22 445.76 312.94 456.33 316.42 445.79 322.2 445.99"/>
  <path d="M115.13,449.89c-4.44-1.72-3.43,9.55-3.6,11.97l-5.61.03-.04-16.25c2.3-.22,4.43.02,6.35.77,1.86-.94,4.27-1.7,6.45-1.02,2.04.64,3.96,3.09,3.99,5.5l.14,10.81-5.85.15-.06-9.12c0-.91-.98-2.53-1.77-2.84Z"/>
  <path d="M61.43,461.48c-1.55.39-3.92.38-5.7.09l-.08-19.48-6.81-.13-.19-5.01,19.79-.08.07,5.08-7.03.15-.05,19.37Z"/>
  <path d="M429.42,450.06c1.58,2.9,1.13,6.35-.7,8.75-3.61,4.73-12.33,4.52-15.64-.04-1.9-2.62-2.39-6.09-.6-9.11s5.03-4.53,8.26-4.56,6.84,1.59,8.67,4.96ZM424.79,453.86c0-2.16-1.75-3.91-3.92-3.91s-3.92,1.75-3.92,3.91,1.75,3.91,3.92,3.91,3.92-1.75,3.92-3.91Z"/>
  <path d="M141.45,450.3c1.25,2.95.76,6.31-1.03,8.69-3.16,4.22-11.41,4.55-15.05.15-1.94-2.34-2.61-5.57-1.38-8.4,1.56-3.58,4.97-5.51,8.38-5.62s7.48,1.43,9.07,5.18ZM136.75,453.71c0-2.15-1.74-3.89-3.89-3.89s-3.89,1.74-3.89,3.89,1.74,3.89,3.89,3.89,3.89-1.74,3.89-3.89Z"/>
  <path d="M168.17,450.19c1.32,3.19,1.05,6.22-.79,8.67-3.46,4.6-12.5,4.58-15.68-.38-1.89-2.94-2.11-6.56.04-9.52,1.96-2.69,5.38-4.02,8.73-3.8,2.73.18,6.39,1.86,7.7,5.03ZM163.62,453.82c0-2.17-1.76-3.92-3.92-3.92s-3.92,1.76-3.92,3.92,1.76,3.92,3.92,3.92,3.92-1.76,3.92-3.92Z"/>
  <polygon points="180.82 428.47 172.43 428.53 172.28 404.32 180.79 404.3 180.82 428.47"/>
  <path d="M370.5,461.58c-4.55,1.34-12.85,1.27-13.35-5.52,1.54-.17,3.83-.35,4.95-.18.98.93,1.78,1.77,2.42,2.22.8.56,3.15-.16,3.87-1.34-3.76-3.15-6.84-.47-10.1-4.46-.76-.93-.78-3.48.28-4.54,3.12-3.14,7.74-3.37,11.71-1.72,1.67.69,3.08,2.69,3.1,4.35-6.29,1.99-7.17-4.34-9.97.13l7.22,1.84c1.59.41,3.34,2.81,3.46,4.32.16,2.02-1.42,4.28-3.58,4.91Z"/>
  <path d="M399.95,452.01l-.47,9.9-5.43-.11-.04-15.96c2.26-1.26,4.76.67,6.23.41,1.65-.29,4.5-1.45,6.28-.95,1.44.4,3.81,2.56,3.88,4.28l.47,12.19-5.78.05-.03-9.48c0-.84-1.19-2.35-2-2.51s-3.04,1.1-3.1,2.18Z"/>
  <path d="M149.13,461.63c-1.64.28-3.62.26-5.65.05v-26.89s5.6-.14,5.6-.14l.05,26.98Z"/>
  <path d="M447.15,434.92c-.96.76-3.8.6-5.07.24l3.01-14.39,8.57.18-6.51,13.97Z"/>
  <polygon points="196.92 461.6 191 461.91 190.94 445.64 196.96 445.67 196.92 461.6"/>
  <path d="M356.15,461.58c-1.75.19-4.07.19-5.68.05l-.18-15.92,5.91-.03-.05,15.91Z"/>
  <circle cx="176.55" cy="395.89" r="4.93"/>
  <polygon points="200.19 399.57 193.98 399.59 200.22 389.72 207.22 389.99 200.19 399.57"/>
  <path d="M409.05,442.1c-3.65,2.82-6.66-1.97-8.41-.4-.79.71-3.48,1.77-3.98.87-.61-1.1.61-3.61,1.63-4.27,1.23-.8,3.5-.91,4.88-.4l3.22,1.18c.9-1.37,3.35-2.42,4.26-1.19.74,1-.62,3.46-1.6,4.22Z"/>
  <path d="M221.33,465.75c-.43.91-2.86,1.06-3.65.83l1.78-9.86,6.04.13-4.16,8.9Z"/>
  <circle cx="353.38" cy="440.12" r="3.35"/>
  <path d="M196.68,442.26c-.67.94-3.56.6-4.66.18l3.53-5.47c.67-1.04,3.44-.83,5.08-.23l-3.94,5.52Z"/>
  <metadata>
    <sfw xmlns="http://ns.adobe.com/SaveForWeb/1.0/">
      <slices/>
      <sliceSourceBounds x="4.84" y="29.23" width="490.32" height="441.54" bottomLeftOrigin="true"/>
      <optimizationSettings>
        <targetSettings fileFormat="PNG8Format" targetSettingsID="0">
          <PNG8Format autoReduce="false" ditherAlgorithm="diffusion" ditherPercent="100" interlaced="false" matteColor="#FFFFFF" noMatteColor="false" numColors="256" reductionAlgorithm="perceptual" rolloverMasterPalette="false" transparency="true" webShiftPercent="0">
            <colorTable isExact="false"/>
            <lockedColors/>
            <colorShiftEntries/>
          </PNG8Format>
        </targetSettings>
      </optimizationSettings>
    </sfw>
  </metadata>
</svg>