<?xml version="1.0" encoding="UTF-8"?>
<svg id="Capa_1" xmlns="http://www.w3.org/2000/svg" width="500" height="500" version="1.1" viewBox="0 0 500 500">
  <!-- Generator: Adobe Illustrator 30.1.0, SVG Export Plug-In . SVG Version: 2.1.1 Build 136)  -->
  <path d="M186.58,127.69c11.88,2.29,23.43,5.51,34.65,10.03,5.11,2.06,9.96,4.69,15.13,6.6l-1.94,5.35c-14.69-7.11-30.07-13.15-46.26-15.98-61.36-10.75-123.94,19.06-159.66,68.56-26.57,36.82-30.78,78.86-8.47,119.13,16.86,30.44,49.67,51.69,85.53,42.9.59-.15,2.34-.51,2.42-1.23l-45.45-36.86c-.51-.42-.26-.61-.07-1.06.43-1.03,5.35-6.74,5.01-7l-13.43,1.01c-16.36-.65-39.19-4.46-37.82-25.67,1.33-20.49,31.23-48.66,46.63-61.27,11.81-9.68,24.85-18.74,38.05-26.39.41,1.38,2.82,3.57,1.99,4.89-.42.68-11.58,7.34-13.4,8.59-21.6,14.78-51.72,38.72-63.76,62.2-17.09,33.34,24.86,33.76,46.3,30.69l34.5-45.57v-95.46h93.98l.73.73v94.48l43.5,34.9c.51.42.26.61.07,1.06-.7,1.66-3.82,5.39-5.09,7.16-10.13,14.06-20.77,27.78-30.96,41.8l-44.07-34.56-40.58,55.59h-5.86l-5.14-4.4c-13.71,4.39-28.22,4.39-42.22,1.24-37.22-8.38-60.63-43.98-68.69-79.25l-2.1-14.75c.22-4.67-.29-9.52,0-14.16,3.43-54.25,52.32-102.31,100.09-122.3,10.03-4.2,26.43-9.89,37.09-11h49.31ZM195.37,177h-83.48v87.4h83.48v-87.4ZM188.53,269.78l-70.3.25,26.03,21.63c14.45-6.2,29.86-12.51,43.31-20.67.61-.37,1.24.1.96-1.21ZM120.18,279.06l-10.47-7.82-8.07,10.74c5.84-2.51,11.27-2.13,17.34-2.44.55-.03,1.34.32,1.21-.48ZM208.05,343.5l29.25-40.7-38.27-31.54-30.04,40.26,39.06,31.98ZM186.58,278.08l-37.58,17.82,15.35,12.45,22.23-30.27ZM137.27,294.67c.71-.94-4.31-4.38-5.11-4.89-18.94-11.93-42.16-.74-47.61,20.03,18.17-2.77,35.47-9.14,52.72-15.14ZM92.65,341.27c21.87,23.07,57.44,4.3,54.87-26.32-.5-5.9-3.13-11.25-5.89-16.35-18.73,7.45-38.11,13.72-58.06,17.08-.53,9.33,2.66,18.83,9.07,25.59ZM152.9,312.5c.37,3.46-.27,7.46,0,10.99,1.27-1.49,8.01-9.87,7.85-10.95l-9.79-7.6c-.24.31,1.82,6.4,1.95,7.57ZM78.2,316.65c-.83.17-2.69.23-3.28.62-.98.65-4.01,6.36-5.5,7.44l11.7,9.52-2.92-10.01v-7.57ZM121.65,356.69c-4.29.44-8.4.44-12.69,0l5.14,4.41,7.55-4.41ZM124.09,362.06l-5.36,3.17,2.19,1.7,3.17-4.87Z"/>
  <rect x="376" y="367.43" width="121.56" height="4.88"/>
  <polygon points="334.02 372.31 334.02 349.85 340.85 349.85 346.71 366.45 353.78 350.34 359.89 349.85 359.89 372.31 355.01 372.31 354.76 356.2 348.66 372.31 344.76 372.31 338.65 356.2 338.41 372.31 334.02 372.31"/>
  <path d="M291.54,372.31h-5.37l-1.9-5.57-.77-.32-7.59.27-2.44,5.62h-4.39l9.09-22.49c1.58.25,4.01-.62,5.03.8l8.34,21.69ZM283.24,363.52l-3.17-8.78-3.17,8.78h6.34Z"/>
  <path d="M245.16,372.31l9.49-22.49,4.61.09,8.35,22.4h-5.37l-1.9-5.57-.77-.32-8.01.1-2.02,5.79h-4.39ZM258.84,363.52c.53-.54-2.12-7.62-2.68-8.78l-3.17,8.78h5.86Z"/>
  <path d="M299.84,372.31c-15.02-9.65-2.81-28.29,12.69-21.48-.71,5-3.22,1.85-6.57,1.93s-6.44,2.36-7.25,5.48c-2.28,8.75,5.04,14.06,12.84,10.16-.3,1.53,2.13,3.06,0,3.91h-11.72Z"/>
  <path d="M231.01,372.31c-15.24-8.97-3.24-28.47,12.17-21.44l-.95,3.37c-17.4-7.42-17.34,21.07.03,14.36.62,1.18,1.78,2.99-.02,3.7h-11.23Z"/>
  <polygon points="316.44 372.31 316.44 349.85 330.11 349.85 330.11 353.27 321.32 353.27 321.32 360.11 329.62 360.11 329.62 363.53 321.32 363.53 321.32 372.31 316.44 372.31"/>
  <polygon points="365.26 372.31 365.26 349.85 369.86 349.84 370.14 372.31 365.26 372.31"/>
  <path d="M500,297.61v2.93c-1.91,2.06-5.49,1.99-7.83.68l.51-1.66c.37-.28,3.81,2.19,4.38.23.61-2.07-3.78-3.04-4.2-4.59-1.03-3.88,3.27-4.56,6.17-3.71,1.53,3.3-3.86-.48-3.39,2.89l4.35,3.22Z"/>
  <path d="M276.69,212.44c-11.94,13.13-26.39,24.24-40.6,34.83-1.88,4.59-8.74,11.86-13.13,14.21-8.64,4.63-14.11-4.19-7.6-10.53,2.19-2.13,11.97-7.05,15.05-7.94.66-.19,1.44.28,2.08.1.81-.23,6.03-4.46,7.25-5.37,15.72-11.76,49.97-40.88,52.24-61.04,3.18-28.25-41.74-22.61-58.64-19.59-14.68,2.62-29.11,7.04-43.1,12.06l-1.65-5.31c10.24-3.68,20.68-6.99,31.29-9.48,19.42-4.56,64.76-12.78,75.77,9.5,8.06,16.31-8.5,37.09-18.94,48.56Z"/>
  <path d="M321.32,306.4l3.83.08,3.99,10.66c.69-.06.77-.72.99-1.2.93-2.01,2.49-7.66,3.64-9.06.77-.93,2.6-.35,3.67-.48v15.14l-2.93-.73v-10.01l-4.18,9.73c-.6,1.08-2.28,1.77-2.38.03l-4.18-9.76v10.74h-2.44v-15.14Z"/>
  <path d="M388.2,321.53h-2.93v-8.06c0-1.5-3.91-1.51-3.91.49v7.57h-2.93v-8.06c0-1.5-3.91-1.51-3.91.49v7.57h-2.93v-10.74c2.2.94,5.03-.58,6.56-.48,1.24.08,2.12,1.48,2.86,1.37.98-.15,1.88-1.58,3.96-1.37,1.08.11,3.22,1.72,3.22,2.68v8.54Z"/>
  <path d="M431.65,271.24c1.43.1,2.74-.63,3.16.98,2.08-2.43,5,.03,6.36-.02.64-.02,1.22-.8,1.98-.94,1.95-.36,5.1.3,5.1,2.67v8.06h-2.93v-8.06c0-1.27-3.91-.75-3.91.49v7.57h-2.93v-8.06c0-1.27-3.91-.75-3.91.49v7.57h-2.93v-10.74Z"/>
  <path d="M308.14,341.31c-.85,5.15-6.15,5.15-10.23,4.13l-.02-2.41c3.65,1.7,7.78,1.61,7.32-3.42-9.28,6.41-11.73-11.57-2.21-9.75.81.15,1.28.96,1.96.98.19,0,.85-1.9,3.18-.99-.41,3.49.55,8.14,0,11.47ZM304.6,332.41c-.26-.32-1.88-.98-2.36-.89-3.57,1.11-2.83,8.59,1.03,7.4,2.14-.66,2.47-5.11,1.32-6.51Z"/>
  <path d="M481.45,305.91v15.62l-2.9-.04-.03-1.43c-2.27,2.02-5.81,2.31-7.42-.63-2.94-5.37,2.09-12.01,7.42-7.67v-5.86s2.93,0,2.93,0ZM474.96,312.34c-2.75.83-2.41,7.81,1.34,7.26,3.37-.49,3.13-8.61-1.34-7.26Z"/>
  <path d="M417.5,266.36v15.62c-2.33.9-2.99-1-3.18-.99-.68.02-1.15.82-1.96.98-9.35,1.81-7.41-15.37,2.2-9.75v-5.86s2.93,0,2.93,0ZM410.3,279.9c.63.57,2.07.86,2.81.4,1.58-1.74,2.29-6.54-.49-7.4l-1.84.15c-2.08,1.05-1.95,5.54-.49,6.85Z"/>
  <path d="M278.36,286.38v15.62h-2.93s.24-.98.24-.98c-5.37,3.46-9.89-1.71-7.68-7.19,1.06-2.64,5.39-3.75,7.44-1.59v-5.86s2.93,0,2.93,0ZM272.83,292.83c-3.27.29-3.13,7.8.42,7.69,3.23-.09,3.34-8.03-.42-7.69Z"/>
  <path d="M378.42,267.36l5.39,14.62-3.86-.04-1-3.64c-4.03-.66-6.2-.86-6.93,3.62l-2.86.06c1.09-1.72,5.18-14.1,5.94-14.56.33-.2,3.2-.18,3.32-.06ZM377.95,276.12c.2-.19-.99-4.19-1.23-4.88-.16-.47-.06-1.12-.71-.98l-1.47,5.85h3.42Z"/>
  <path d="M367.21,286.38v15.62c-2.07.82-2.53-1-2.69-.99-.68.02-1.15.82-1.96.98-8.81,1.71-8.23-12.38,0-10.71.95.19,1.24,1.09,2.21.96l-.49-5.86h2.93ZM361.68,292.83c-3.37.3-2.98,8.05.38,7.73s3.38-8.07-.38-7.73Z"/>
  <path d="M312.47,287.42l5.43,14.58-3.33-.08-1.08-3.8-5.77.04c-.78,2.35-.85,4.43-3.97,3.84l5.42-14.59h3.3ZM311.07,290.77c-1.25-.19-.76.11-1.02.69-.23.51-1.6,4.52-1.42,4.68h3.9l-1.47-5.37Z"/>
  <path d="M432.63,287.85l-.53,1.93c-11.62-3.47-11.56,13.05-.02,9.83l.55,1.9c-16.6,4.78-16.3-19.13,0-13.66Z"/>
  <path d="M296.42,269.78c-11.46-4.3-11.73,13.23-.05,9.81l.55,1.9c-16.41,4.9-16.42-19.14-.2-13.69l-.3,1.98Z"/>
  <path d="M311.56,271.24c1.43.1,2.74-.63,3.16.98,1.53-1.77,7.09-1.32,7.09,1.22v8.54h-2.93v-7.57c0-.18-.5-.79-.57-1.14l-2.85.17c-.22.13-.97,1.33-.97,1.46v7.08h-2.93v-10.74Z"/>
  <path d="M452.16,291.26c2.33-.9,2.99,1,3.18.99.69-.02,1.15-.83,1.96-.98,1.54-.29,5.11.3,5.11,2.18v8.54h-2.93v-8.06c-1-1.54-4.39-.71-4.39.98v7.08h-2.93v-10.74Z"/>
  <path d="M284.71,329.83c2.07-.82,2.54,1,2.7,1,1.15.03,2.57-1.69,5.25-.9.85.25,2.3,2.35,2.3,3.07v7.57h-2.93v-7.08c0-2.35-4.39-1.95-4.39-.49v7.57h-2.93v-10.74Z"/>
  <path d="M312.68,315.97c0,3.15-2.55,5.7-5.7,5.7s-5.7-2.55-5.7-5.7,2.55-5.7,5.7-5.7,5.7,2.55,5.7,5.7ZM309,312.87l-2.95-.54c-3.45,1.71-1.31,9.59,2.28,7.19,1.96-1.3,1.37-4.72.67-6.66Z"/>
  <path d="M399.92,321.53l-2.9-.04-.03-1.43c-2.44,2.48-7.17,1.93-6.69-2.14.4-3.38,6.69-3.64,6.69-4.45-1.64-2.21-3.39-1.06-5.36-.25l-.27-1.47c2.63-2.67,8.57-1.39,8.57,2.7v7.08ZM396.99,315.68c-1.74-.49-5.04,1.53-3.69,3.44,1.42,2.01,4.43-1.53,3.69-3.44Z"/>
  <path d="M322.3,329.83c2.33-.9,2.99,1,3.18.99.68-.02,1.15-.82,1.96-.98,1.26-.25,5.11.14,5.11,1.69v9.03h-2.44c-.26-2.31,1.06-8.77-2.18-8.82-4.12-.06-2.32,6.2-2.7,8.82h-2.93v-10.74Z"/>
  <path d="M435.56,321.53c-1.41.08-2.83.31-2.94-1.47-8.04,5.34-9-6.05-.47-5.86l-.22-1.49c-2.2-2-4.89,2.38-4.95-.96,2.31-2.49,8.58-1.37,8.58,2.21v7.57ZM432.63,315.68c-2.5-.25-4.58,1.36-3.38,3.87,2.46.5,3.56-1.78,3.38-3.87Z"/>
  <polygon points="268.6 306.4 268.14 308.62 263.23 308.84 263.23 313.23 268.11 313.23 268.11 315.18 263.69 315.4 263.23 321.54 260.3 321.53 260.3 306.4 268.6 306.4"/>
  <path d="M260.3,340.57c-1.51-.16-3.21.74-3.65-.97-2.22,2.36-6.02,1.86-6.15-1.72-.11-3.09,3.85-4.27,6.38-4.63-.39-2.78-3.17-2.24-4.64-.49-2.42-2.75,2.35-3.23,4.42-2.94,4.96.67,2.21,7.57,3.64,10.76ZM256.88,334.72c-1.53.31-3.45.93-3.46,2.68-.02,3.85,4.78.31,3.46-2.68Z"/>
  <path d="M307.97,280.84c-3.35,3.32-10.14.84-9.62-4.96.92-10.24,17.02-2.37,9.62,4.96ZM305.58,273.33c-3.94-3.54-6.14,6-2.46,7.11s4.46-5.32,2.46-7.11Z"/>
  <path d="M376.49,340.57c-1.47-.17-3.22.74-3.66-.97-3.16,3.63-8.33-.23-5.14-4.16,1.31-1.61,3.52-1.65,5.38-2.19-.6-4.45-5.42.99-5.14-2.45,1.95-1.51,6.29-1.62,7.61.72s-.37,6.46.95,9.05ZM373.07,334.72c-2.13.41-4.09,1.35-3.35,3.84,2.61,1.39,3.77-1.45,3.35-3.84Z"/>
  <path d="M477.9,276.58c0,3.12-2.53,5.66-5.66,5.66s-5.66-2.53-5.66-5.66,2.53-5.66,5.66-5.66,5.66,2.53,5.66,5.66ZM474.01,273.31c-3.73-3.74-6.37,5.94-2.47,7.12,3.64,1.11,4.29-5.3,2.47-7.12Z"/>
  <path d="M354.88,271.36c2.87-.53,5.83.09,7,3.02,3.27,8.23-10.42,11.27-10.8,2.49-.12-2.84.82-4.96,3.8-5.51ZM358.3,273.33c-4.02-3.61-6.17,5.98-2.46,7.11s4.53-5.25,2.46-7.11Z"/>
  <path d="M349.64,321.53c-1.41.08-2.83.3-2.94-1.46-8.42,5.21-9.26-5.97-.48-5.86l-.22-1.49c-1.22-1.66-3.99.59-4.41.52-2.63-.46,1.12-3.1,3.83-2.91,5.54.39,3.13,7.46,4.21,11.21ZM346.71,315.68c-2.01-.21-4.66,1.03-3.69,3.44,2.43,1.64,3.69-1.3,3.69-3.44Z"/>
  <path d="M348.66,302c-.96-.12-2.22.23-3.1,0-.4-.1-.27-1-.57-.99-.65.02-1.25.88-2.41,1.03-6.42.79-3.87-7.78,1.89-7.31.99-4.51-4.81,1.07-5.08-2.47,3.21-1.42,7.88-2.1,8.67,2.3.44,2.47-.43,5.11.6,7.45ZM345.24,296.15l-3.45,1.31c-.92,5.21,4.05,2.82,3.45-1.31Z"/>
  <path d="M404.31,281.98c-2.33.9-2.99-1-3.18-.99-1.08.03-2.09,1.7-4.78.89-1.83-.54-1.77-4.03-.61-5.29,1.32-1.44,6.36-1.37,5.12-3.35-2.34-1.78-5.08,2.22-5.12-1.03,2.28-1.8,8.57-1.33,8.57,2.21v7.57ZM401.38,276.13c-2.11-.35-5.55,2.86-2.92,4.18,1.82.91,3.49-2.55,2.92-4.18Z"/>
  <path d="M457.53,317.63c1.35.19.75-.16.97-.73.36-.89,1.75-5.87,2.02-6.04.31-.19,2.82-.48,2.38.66-.17,1.09-5.24,12.74-5.93,13.61-1.17,1.47-2.58,1.37-4.33,1.29l.03-1.92c7.67-1.16.57-9.45-.52-13.7l2.96-.28,2.42,7.12Z"/>
  <path d="M490.72,302c-1.5-.16-3.21.73-3.65-.97-8.43,4.51-8.01-6.34.23-6.35-.74-3.2-3.29-1.24-5.37-.98-.37-2.64,3.2-2.71,5.1-2.41,5.15.83,2.2,7.42,3.69,10.71ZM487.3,296.15c-1.73-.12-3.29,1.03-3.73,2.68l.8,1.51c2.38.37,3.21-2.2,2.93-4.19Z"/>
  <path d="M320.35,335.69h-7.32c.78,3.24,3.25,4.34,6.11,2.45l.73,1.93c-3.5,1.67-8.27,1.2-9.43-3.01-2.33-8.48,10.7-10.52,9.92-1.38ZM313.51,334.23c1.45-.14,3.33.56,4.38-.73-1.32-3.2-4.61-2.96-4.38.73Z"/>
  <path d="M402.36,300.78c.02.21.67.67.49,1.22-1.28.69-3.23-.79-3.66-.79-.59,0-1.75,1.22-3.89.78-2.48-.5-2.59-4.01-.73-5.59s5.44-.76,4.84-3.15c-1.51-1.29-3.79.6-4.6.45-.54-.1-1.11-.99-.24-1.7,1.65-1.33,7.8-1.08,7.8,1.45,0,2.27-.25,5.17,0,7.32ZM398.79,296.22c-6.19,2.17-.33,7.62,1.13.68l-1.13-.68Z"/>
  <path d="M350.61,335.69h-6.83c.23,3.36,3.74,4.16,6.34,2.44l.5,1.95c-4.99,2.47-10.63.05-9.74-6.07.93-6.41,11.6-5.54,9.73,1.68ZM348.17,334.23c.34-3.64-3.27-3.93-4.4-.74-.27,1.48,3.47.45,4.4.74Z"/>
  <path d="M336.94,297.12h-6.83c.74,3.75,3.32,3.75,6.34,2.44l.37,1.23c-.16,2-7.82,2.45-9.27-1.85-3.08-9.15,10.61-11.09,9.39-1.82ZM330.11,295.16c1.3.51,4.95,1.23,4.33-1.14-1.05-2.28-4.49-1.33-4.33,1.14Z"/>
  <path d="M369.65,316.16l-6.85.23c-.81.45.22,2.26.79,2.67,1.74,1.22,5.33-.51,5.58.78.37,1.96-8.06,3.4-9.53-2.19-2.16-8.22,10.37-10.59,10.02-1.48ZM366.73,314.7c.22-1.55-.23-2.47-1.79-2.81-1.73,0-1.98,1.3-2.6,2.58l4.39.24Z"/>
  <path d="M442.88,297.12c.66,3.15,3.46,4.23,6.11,2.45,3.02,2.83-4.06,2.83-5.76,2.33-1.43-.42-3.07-3.11-3.24-4.59-.88-7.89,10.67-8.42,10.01-.66l-7.12.47ZM447.28,295.65c.23-3.68-3.06-3.93-4.38-.73,1.05,1.28,2.93.59,4.38.73Z"/>
  <path d="M493.65,316.16h-6.83c-.23,3.93,3.39,3.9,6.34,2.93.36,1.64-.91,2.06-2.31,2.32-9.24,1.7-9.36-11.1-1.84-11.12,3.22,0,5.17,2.8,4.64,5.87ZM491.21,314.69c-1.1-5.96-5.79-.2-4.14,0h4.14Z"/>
  <path d="M379.42,297.12h-6.83c.7,3.61,3.38,3.98,6.34,2.44l.5,1.95c-5.25,1.54-10.55.53-9.72-6.05s11.44-5.55,9.72,1.66ZM373.2,293.34c-.28.27-.39.8-.55,1.17-.1,1.73,4,1.47,4.32.39.54-1.81-2.35-2.93-3.77-1.56Z"/>
  <path d="M343.29,277.1h-6.83c-.25,1.28,1,2.59,2.08,3.05,2.2.94,4.73-1.87,4.71.62-.01,1.49-7.99,2.54-9.45-1.74-3.13-9.16,10.71-11.3,9.5-1.93ZM336.46,275.63c1.05-.1,4.48.59,4.33-1.14-.25-2.93-4.91-2.22-4.33,1.14Z"/>
  <path d="M290.57,297.12h-6.83c.37,3.55,3.57,3.96,6.34,2.44l.27,1.47c-2.83,2.11-8.2,1.37-9.31-2.43-2.57-8.82,10.8-10.75,9.54-1.49ZM288.13,295.65c.25-3.45-2.6-3.87-4.39-1.21-.36,1.67,3.45,1.19,4.39,1.21Z"/>
  <path d="M422.38,277.1c.58,2.1,1.7,3.62,4.11,3.41.6-.05,3.13-1.76,2.73.24-.45,2.21-8.64,2.24-9.66-3.04-1.52-7.86,10.52-9.43,9.95-1.08l-7.12.47ZM426.77,275.63c.23-3.68-3.06-3.93-4.38-.73,1.05,1.28,2.93.59,4.38.73Z"/>
  <path d="M405.78,307.38v3.42s2.93,0,2.93,0c.12,1.76-1.77,1.51-2.93,1.46l.07,6.52c.38,1.14,1.91.77,2.86.8l-.22,1.49c-6.74,2.48-5.73-3.93-5.61-8.55l-1.5-.27v-1.46s1.41-.03,1.41-.03l.11-2.85,2.87-.54Z"/>
  <path d="M355.49,307.38v3.42s2.45,0,2.45,0v1.46s-2.45,0-2.45,0l.07,6.53c.38,1.14,1.91.77,2.86.8l-.22,1.49c-6.93,2.42-5.69-3.8-5.61-8.55l-1.5-.27v-1.46s1.41-.03,1.41-.03l.11-2.85,2.87-.54Z"/>
  <path d="M381.99,333.61c.37.38,1.27.45,1.79.88,5.43,4.52-1.14,8.48-5.83,5.59l1.21-1.9c1.77,1.68,5.09,1.02,2.97-1.54-1.02-1.23-2.88-1.12-3.43-2.92-1.16-3.8,3.23-4.5,6.1-3.65l-.28,1.7h-2.92c-.42.49.04,1.49.39,1.85Z"/>
  <path d="M444.83,310.79l-.49,1.95-3.41-.49c-.1,3.26,6.45,3.98,3.64,7.8-1.7,2.31-4.73,1.41-7.06.99-.64-3.82,4.28.37,4.88-2.21.38-1.64-6.53-3.42-3.86-7.27,1.32-1.91,4.45-.96,6.3-.77Z"/>
  <path d="M465.34,271.74l-.82,1.48-4.07.22c-2.75,3.54.18,8.97,4.39,6.11l.28,1.97c-12.2,3.85-11.54-14.08.21-9.77Z"/>
  <path d="M269.08,331.78l-3.11-.45-.79,1.18c1.47,1.91,4.6,2.57,4.44,5.38-.22,4-7.39,3.97-7.39,1.47l.75-1.22c1.01.93,3.31,1.78,3.68-.25,0-1.96-5.55-3.1-4.17-6.09,1-2.15,4.05-2.4,6.11-1.73l.47,1.72Z"/>
  <path d="M299.84,310.8l-.77,1.9c-7.32-2.4-6.81,9.55.76,6.39l.5,1.95c-12.2,3.73-12.57-13.32-.49-10.25Z"/>
  <path d="M283.24,310.79l-.49,1.95c-8.01-1.72-.45,2.57.43,4.21,2.26,4.23-4.68,6.12-7.26,3.35l.74-1.22c1.63.54,2.84,1.42,4.14-.26-.65-2.44-4.3-2.73-4.42-5.34-.17-3.57,4.41-3.34,6.86-2.7Z"/>
  <path d="M424.27,310.85l.06,1.89c-7.87-2.8-7.54,9.24,0,6.35l.49,1.95c-12.08,3.78-12.22-13.29-.55-10.19Z"/>
  <path d="M473.64,291.75c-.25,2.85-4.45.17-5.6,2.93-1.5,3.6,1.67,7.41,5.11,4.87l.28,1.97c-12.14,3.86-11.37-13.81.21-9.77Z"/>
  <path d="M412.13,291.76l-.52,1.44c-1.71-.18-2.7-1.03-3.86.75,0,.98,6.02,2.35,4.13,6.58-1.03,2.3-9.25,2.42-6.32-.97.97.95,3.9,1.49,4.03-.23s-4.88-2.68-4.66-5.3c.29-3.54,4.69-3.09,7.21-2.27Z"/>
  <path d="M348.66,271.24v12.94c0,1.8-2.27,2.63-3.67,3.15-1.92-1.72,0-1.83.25-2.26,1.28-2.19-.03-13.33.48-13.83h2.93Z"/>
  <path d="M393.08,279.54c-.11.88.93,2.02-.31,2.37-11.66,2.41-10.89-13.74.1-10.21.79,2.83-1.46,1.33-2.96,1.44-5.13.39-2.12,10.52,3.17,6.4Z"/>
  <path d="M331.57,271.73c-.26,2.27-4.05.1-4.39,1.71-.4,1.86,6.16,2.3,4.13,7.06-.97,2.28-9.23,2.42-6.34-.96.99.99,3.52,1.7,3.7-.26.21-2.26-4.37-2.48-4.3-5.27.08-3.53,4.83-3.08,7.19-2.28Z"/>
  <rect x="293.01" y="286.38" width="2.93" height="15.62"/>
  <rect x="388.2" y="286.38" width="2.93" height="15.62"/>
  <path d="M248.09,324.95v15.62h-2.93v-14.89c.67-.99,1.88-.75,2.93-.73Z"/>
  <rect x="278.36" y="325.93" width="2.93" height="14.65"/>
  <path d="M353.05,329.83l2.9.04.03,1.43c1.35-1.17,2.85-2.43,4.38-.74l-.98,2.2c-.87-.94-3.4-.2-3.4.73v7.08h-2.93v-10.74Z"/>
  <path d="M319.37,291.26l2.66-.03.27,1.5,1.27-1.41,2.42.42-.28,2.47c-.87-.94-3.41-.2-3.41.73v7.08h-2.93v-10.74Z"/>
  <rect x="475.59" y="291.26" width="2.93" height="10.74"/>
  <rect x="335.48" y="329.83" width="2.93" height="10.74"/>
  <rect x="361.35" y="329.83" width="2.93" height="10.74"/>
  <rect x="451.18" y="271.24" width="2.93" height="10.74"/>
  <path d="M413.59,310.79v10.01c-.67.99-1.88.75-2.93.73v-10.74h2.93Z"/>
  <path d="M288.61,310.79v10.74c-1.05.02-2.26.25-2.93-.73v-10.01h2.93Z"/>
  <rect x="435.07" y="291.26" width="2.44" height="10.74"/>
  <rect x="271.04" y="310.79" width="2.44" height="10.74"/>
  <circle cx="287.26" cy="307.6" r="1.76"/>
  <path d="M364.62,324.55c.94-.27,1.52-.17,2.1.65l-4.62,3.18c-.74-.11-.68-.58-.26-1.22.3-.46,2.34-2.47,2.78-2.6Z"/>
  <circle cx="411.95" cy="307.55" r="1.71"/>
  <path d="M274.28,304.97l1.63,1.18-4.63,3.16c-.63,0-.68-.55-.24-1.21.27-.4,3.02-3.1,3.24-3.14Z"/>
  <circle cx="477.23" cy="288.26" r="1.72"/>
  <circle cx="452.51" cy="268.14" r="1.7"/>
  <path d="M426.13,265.95c.94-.27,1.52-.17,2.1.65l-4.62,3.18c-.76-.13-.67-.59-.26-1.22.3-.46,2.34-2.47,2.78-2.6Z"/>
  <path d="M393.58,308.84c-.69-.61,4.42-5.3,4.88-3.16.2.96-4.01,3.93-4.88,3.16Z"/>
  <circle cx="436.3" cy="288.29" r="1.7"/>
  <circle cx="347.21" cy="268.12" r="1.69"/>
  <path d="M338.34,325.51c1.13,1.8-1.41,4.13-2.65,2.4-1.34-1.88,1.76-3.82,2.65-2.4Z"/>
  <metadata>
    <sfw xmlns="http://ns.adobe.com/SaveForWeb/1.0/">
      <slices/>
      <sliceSourceBounds x="0" y="127.69" width="500" height="244.63" bottomLeftOrigin="true"/>
      <optimizationSettings>
        <targetSettings fileFormat="PNG8Format" targetSettingsID="0">
          <PNG8Format autoReduce="false" ditherAlgorithm="diffusion" ditherPercent="100" interlaced="false" matteColor="#FFFFFF" noMatteColor="false" numColors="256" reductionAlgorithm="perceptual" rolloverMasterPalette="false" transparency="true" webShiftPercent="0">
            <colorTable isExact="false"/>
            <lockedColors/>
            <colorShiftEntries/>
          </PNG8Format>
        </targetSettings>
      </optimizationSettings>
    </sfw>
  </metadata>
</svg>