<?xml version="1.0" encoding="UTF-8"?>
<svg id="Capa_1" xmlns="http://www.w3.org/2000/svg" width="500" height="500" version="1.1" viewBox="0 0 500 500">
  <!-- Generator: Adobe Illustrator 30.1.0, SVG Export Plug-In . SVG Version: 2.1.1 Build 136)  -->
  <defs>
    <style>
      .st0 {
        fill-rule: evenodd;
      }

      .st0, .st1 {
        fill: #1d1d1b;
      }
    </style>
  </defs>
  <g>
    <polygon points="37.17 429.54 44.46 423.21 72.15 78.31 64.13 82.14 37.17 429.54"/>
    <polygon points="54.66 429.54 80.17 429.54 96.2 57.8 80.89 46.43 54.66 429.54"/>
    <polygon points="105.43 97.2 101.54 97.2 93.47 424.3 99.45 420.84 105.43 97.2"/>
    <polygon points="105.43 437.3 120 424.3 122.43 43.76 113.93 33.07 105.43 437.3"/>
    <polygon points="131.67 424.3 137.98 418.35 134.58 97.2 129.24 97.2 131.67 424.3"/>
    <polygon points="143.81 429.54 167.13 424.3 154.99 39.54 140.41 52.02 143.81 429.54"/>
    <polygon points="177.34 424.3 201.14 420.29 173.93 57.85 159.36 69.99 177.34 424.3"/>
    <polygon points="0 432.44 0 443.13 105.43 466.93 240.98 445.2 240.98 434.87 105.43 457.21 0 432.44"/>
  </g>
  <g>
    <path class="st1" d="M299.23,417.09h-21.78l-3.21,8h-11.07l20.2-47.4h10.21l20.2,47.4h-11.35l-3.21-8ZM288.24,389.82l-7.21,18.2h14.64l-7.28-18.2h-.14Z"/>
    <path class="st1" d="M341.07,392.11v9.14h-.36c-1.43-1-3.21-1.57-5.28-1.57-5.71,0-8.28,3.5-8.28,10.99v14.42h-9.35v-33.55h7.78l.43,5.21h.14c1.86-3.93,5.14-5.93,10-5.93,2.14,0,3.93.5,4.93,1.29Z"/>
    <path class="st1" d="M370.27,425.09l-.29-4.5h-.14c-2.21,3.28-5.93,5.21-10.92,5.21-9.5,0-16.42-7.35-16.42-17.49s6.93-17.49,16.42-17.49c4.93,0,8.71,1.86,10.85,5.07h.14l.36-4.35h7.78v33.55h-7.78ZM368.98,408.31c0-5.43-3.5-9.21-8.5-9.21s-8.57,3.78-8.57,9.21,3.5,9.21,8.57,9.21,8.5-3.78,8.5-9.21Z"/>
    <path class="st1" d="M418.82,422.38c0,10.5-7.07,16.99-18.7,16.99-5.64,0-10.49-1.36-13.49-3.64v-9.42h.36c2.5,2.93,7,4.78,11.99,4.78,6.71,0,10.49-3.36,10.49-9.28v-.21h-.14c-2.28,2.36-5.5,3.64-9.64,3.64-9.5,0-16.42-7.07-16.42-17.21s6.93-17.21,16.42-17.21c5,0,8.71,1.86,10.92,5.14h.14l.29-4.43h7.78v30.84ZM409.75,408.03c0-5.43-3.5-8.92-8.5-8.92s-8.57,3.5-8.57,8.92,3.5,8.92,8.57,8.92,8.5-3.5,8.5-8.92Z"/>
    <path class="st1" d="M459.94,408.31c0,10.21-7.42,17.49-17.92,17.49s-17.99-7.28-17.99-17.49,7.43-17.49,17.99-17.49,17.92,7.21,17.92,17.49ZM433.46,408.31c0,5.43,3.5,9.21,8.57,9.21s8.5-3.78,8.5-9.21-3.5-9.21-8.5-9.21-8.57,3.78-8.57,9.21ZM445.16,374.54h9.85l-9.21,12.14h-8.57l7.92-12.14Z"/>
    <path class="st1" d="M497,405.17v19.92h-9.35v-18.78c0-4.64-2.28-7.21-6.21-7.21-4.35,0-6.93,2.93-6.93,8.14v17.85h-9.35v-33.55h7.78l.36,4.78h.14c2-3.5,5.64-5.5,10.5-5.5,8.21,0,13.06,5.28,13.06,14.35Z"/>
  </g>
  <g>
    <path class="st1" d="M251.12,164.91v10.78h-22.63v20.75h-12.09v-54.24h40.6v10.78h-28.51v11.93h22.63Z"/>
    <path class="st1" d="M250.38,239.27h-22.63v11.36h28.51v10.78h-40.6v-54.24h40.6v10.78h-28.51v11.19h22.63v10.13Z"/>
    <path class="st1" d="M253.24,275.32v12.5h-.57c-3.59-3.68-9.72-5.8-16.58-5.8-5.96,0-9.72,2.29-9.72,5.96,0,3.1,2.37,4.49,10.46,5.39,14.3,1.55,19.69,6.45,19.69,16.83s-7.84,16.99-21.73,16.99c-8.9,0-15.85-1.63-20.18-4.74v-12.5h.57c5.06,4.25,11.84,6.53,19.2,6.53,6.62,0,10.13-2.04,10.13-5.96,0-3.27-2.53-4.74-10.78-5.64-13.97-1.55-19.36-6.21-19.36-16.17,0-10.86,8.17-17.4,21.89-17.4,6.78,0,13.64,1.63,16.99,4Z"/>
  </g>
  <g>
    <path class="st1" d="M315.67,87.59c0,16.56-7.76,24.88-23.27,24.88s-22.95-8.32-22.95-24.88v-32.35h11.83v31.5c0,9.59,3.92,14.52,11.43,14.52s11.51-4.92,11.51-14.52v-31.5h11.43v32.35Z"/>
    <path class="st1" d="M332.13,69.76h-.16v41.86h-11.43v-56.38h16.23l20.07,37.87h.16v-37.87h11.43v56.38h-14.23l-22.07-41.86Z"/>
    <path class="st1" d="M410.32,102.11h-24.38l-3.6,9.51h-12.39l22.63-56.38h11.43l22.63,56.38h-12.71l-3.6-9.51ZM398.01,69.67l-8.08,21.65h16.39l-8.16-21.65h-.16Z"/>
    <path class="st1" d="M480.84,111.62v-42.45h-.16l-15.35,42.45h-10.71l-14.87-41.27h-.16v41.27h-11.43v-56.38h17.75l14.23,39.31h.16l14.23-39.31h18.15v56.38h-11.83Z"/>
  </g>
  <g>
    <path class="st0" d="M434.47,246.24v-54.75c0-.17-.13-.3-.29-.3h-105.67c-.17-.01-.3.12-.3.29v54.75c0,.05.01.1.03.14.47,19.11,5.89,36.98,15.68,51.66,9.57,14.35,22.82,24.48,37.32,28.52.05.01.11.01.16,0,14.5-4.04,27.75-14.17,37.32-28.51,9.8-14.69,15.22-32.55,15.7-51.66.02-.04.04-.09.04-.14h0ZM432.32,245.91c-.02.1-.03.19-.04.29-.89,37.61-21.84,69.73-50.96,78.14-29.12-8.42-50.06-40.54-50.94-78.15,0-.09-.02-.19-.04-.29v-52.57s101.97.01,101.97.01v52.58h0Z"/>
    <path class="st0" d="M381.22,311.42c.07.02.14.02.21,0,22.59-8.45,38.87-35.42,39.59-65.58,0-.26.02-.44.03-.57,0-.03,0-39.76,0-39.76,0-.17-.13-.3-.3-.3h-78.85c-.17,0-.3.12-.3.29v39.73c0,.16.02.34.03.6.72,30.16,16.99,57.13,39.58,65.59h0ZM381.33,309.15c-21.41-8.43-36.82-34.46-37.51-63.37,0-.28-.02-.48-.03-.63,0,.02,0-30.38,0-36.88.23.5.48.98.68,1.28.6.9,1.96,3.47,1.96,3.47,0,0,.14,1.17-.31,1.33-.45.15.61.79.91,1.24.3.45,1.06,1.81,1.66,1.96.6.15.75-.6.3-1.36-.45-.75-1.3-2.69-1.3-2.69,0,0-.21-1.08-.66-2.13-.45-1.05-.9-2.41-.9-2.41,0,0,2.5.64,2.8,2,.14.62.93,4.06,1.72,6.15.45,1.21,1.21,2.11,1.96,3.17.75,1.06,2.56,2.71,4.67,3.32,2.11.6,4.52-.75,5.58,0,1.06.75,3.01,2.71,4.37,3.17,1.36.45,4.98,1.21,5.73,2.71.75,1.51,2.56,1.66,3.47,1.81.9.15,3.92,1.36,3.92,4.07l-2.41,4.98s-1.81,1.96-2.11,3.77c-.3,1.81-1.21,2.86.6,5.58,1.81,2.71,3.01,6.03,3.17,8.44.15,2.41,2.41,2.71,3.92,3.77,1.51,1.06,0,2.11-.91,4.37-.9,2.26-.45,6.93-1.36,9.95-.9,3.01-1.96,4.07-1.96,6.48s.15,4.97-.75,7.09c-.9,2.11-.3,4.07-.45,6.33-.15,2.26.45,4.97,1.96,6.93,1.51,1.96,4.98,2.87,4.52-.15-.45-3.02.15-6.94,1.96-8.9l1.81-1.96s-.3-2.86,1.51-4.07c1.81-1.21,3.02-2.11,1.96-2.56-1.06-.45,0-1.51,1.06-1.51s1.51.45,3.92-2.41c2.41-2.86,3.17-3.47,5.58-4.82,2.41-1.36,3.32-4.07,4.83-5.58,1.51-1.51,4.22-2.86,5.88-3.17,1.66-.3,2.56-1.96,2.56-3.92,0-1.96-.6-3.32.75-5.43,1.29-2,.54-2.51,1.75-3.59-3.35,25.11-17.68,46.66-36.8,54.18h0ZM418.89,245.16c-.01.15-.03.36-.03.64-.03,1.2-.09,2.38-.17,3.57-1.13-1.09-2.9-1.82-3.97-3.02-1.21-1.36-2.86-2.26-3.47-2.56-.6-.3-.9-.9-2.56-.6-1.66.3-3.01,0-3.32-1.66-.3-1.66-.15-3.32-1.81-4.22-1.66-.9-2.72-1.96-3.92-2.86-1.21-.9-2.41-2.56-2.86-2.71-.45-.15-3.62.15-3.62.15,0,0-1.81-1.66-4.52-1.06,0,0-1.66-2.56-3.47-1.21-1.81,1.36-3.32,2.26-4.37.9-1.06-1.36-2.86-.75-4.07-.6-1.21.15-2.26-1.96-2.56-2.86-.3-.9,0-2.26-.45-2.26s-2.26.6-3.47-.3c-1.21-.9-.6-1.81-.15-2.56.45-.75,1.06-3.77.75-4.37l-1.36-.15s-1.66-.3-1.96.9c-.3,1.21-2.41,2.41-4.07,1.96-1.66-.45-2.86-1.51-3.47-3.17-.6-1.66-.45-2.71-.15-3.62.3-.91-1.04-2.53-1.49-2.98-.45-.45-.47.28-1.38-1.23-.48-.79-1.15-1.46-1.69-1.92h63.61c0,3.55,0,37.84,0,37.82h0Z"/>
    <path class="st0" d="M352.09,147.8c-2.1-1.01-4.31-.53-5.14.48-.53.64-.85.82-.95.86-.49-.03-3.45-.12-4.68,1.52-.64.85-.7,2.01-.17,3.42,1.81,4.88,2,5.75,2.01,5.79.01.06.04.11.09.16.03.03,3.23,3.13,1.88,6.06-1.5,3.25-1.22,4.01.54,4.93,1.4.74,2.03,1.6,2.03,4.76v.24c0,2.22,0,4.14,1.05,5.19.53.53,1.26.78,2.25.78.72,0,1.32-.29,1.77-.85,1.45-1.81.99-5.99.55-7.94-.38-1.68-1.27-5.62.05-6.61,1.46-1.09,2.08-1.31,2.84-.49.06.07.16.1.25.1.66-.07,1.89-.56,1.81-1.94-.03-.57-.2-1-.31-1.29,0-.02-.01-.03-.02-.05.11.02.28.05.53.11.9.21,1.73-.03,2.24-.65.49-.6.57-1.44.21-2.2-.68-1.45-2.87-5.08-4.44-6.57l-.48-.45q-.94-.88-.88-1.71c.1-1.38-.97-2.66-3-3.64h0ZM356.22,163.63c.04.11.08.21.12.33-1.64-.67-3.2.49-4.08,1.14-2.11,1.57-1.5,5.21-.75,8.5.52,2.31.57,5.43-.19,6.38-.1.12-.16.15-.32.15-.46,0-.78-.08-.94-.24-.51-.51-.51-2.3-.51-3.88v-.24c0-3.55-.79-5.22-3.02-6.4-.31-.16-.45-.26-.52-.31.01-.16.11-.71.8-2.2,1.61-3.5-1.03-6.83-1.96-7.84-.21-.72-.73-2.26-1.96-5.58-.29-.78-.32-1.35-.08-1.66.5-.67,2.29-.84,3.14-.78.14,0,.28,0,.42-.03.43-.09,1.14-.42,2.03-1.51.24-.3,1.53-.65,2.91.01,1.59.77,1.98,1.5,1.96,1.81-.12,1.66.26,2.1,1.46,3.22,0,0,.47.45.47.45,1.33,1.26,3.4,4.66,4.04,6.02.06.13.05.22.03.24-.03.03-.15.07-.37.02-.78-.19-1.75-.42-2.47.4-.68.78-.33,1.67-.2,2.01h0Z"/>
    <path class="st0" d="M348.32,154.63c-.9,0-1.62.73-1.62,1.62s.73,1.62,1.62,1.62,1.62-.73,1.62-1.62-.73-1.62-1.62-1.62h0Z"/>
    <path class="st0" d="M331.47,155.39c-.29.08-7.19,1.89-7.19,6.45s4.46,4.81,4.51,4.81c.12,0,.23-.06.28-.16.05-.1.04-.23-.03-.32-.63-.81-.91-1.48-.81-1.98.12-.61.77-1,1.46-1.41.82-.49,1.76-1.04,1.6-2.11-.31-2.09.55-4.86.56-4.89.03-.1,0-.22-.07-.3-.08-.08-.19-.11-.29-.08h0ZM326.51,163.45c-.25-.44-.38-.98-.38-1.62,0-1.67,1.71-2.9,3.33-3.69-.11.96-.13,1.82-.04,2.58-.17.14-.55.36-.69.45-.74.44-1.82,1.09-2.22,2.28h0Z"/>
    <path class="st0" d="M335.21,163.36c-2.89,1.53-4.78,2.72-4.8,2.74-.1.07-.16.19-.13.3.02.12.11.21.23.24.91.2,8.92,1.98,10.32,1.74.78-.14,2.44-.82,3.12-2.41.63-1.47.25-3.26-1.12-5.33-2.31-4.55-3.7-7.88-3.71-7.91-.06-.13-.2-.21-.34-.18-.07.02-7.47,1.76-6.39,8.84.02.15.15.25.3.25h2.63c.41.11,1,.39,1.04.67.01.1-.04.45-1.13,1.03h0ZM338.19,162.1c-.19-1.57-1.93-2.12-2.46-2.25-.12-.03-.25-.05-.38-.05h-1.21c.13-2.92,2.33-4.37,3.83-5.02.58,1.32,1.69,3.75,3.2,6.71.03.06.06.11.09.16.7,1.05,1.43,2.52.97,3.59-.38.88-1.4,1.25-1.73,1.31-.47.05-2.66-.29-5.66-.89.41-.22.81-.45,1.22-.67.57-.3,2.31-1.22,2.11-2.89h0Z"/>
    <path class="st0" d="M347.98,182.41c-.05-.19-.18-.45-.53-.6l-1.74-.93s-.04-.02-.06-.03c-.04-.01-.95-.24-1.92.72l-7.93,5.76c-.21.17-.87.75-.73,1.28.05.19.21.43.72.52,1.17.21,4.67.62,4.82.64.09,0,1.77.06,2.51-.74.65-.7,4.26-4.94,4.42-5.13.07-.1.63-.85.47-1.5h0ZM341.75,187.75c-.09.06-.56.17-1.03.17l-2.21-.28,6.31-4.58c.07-.05.13-.1.19-.16.09-.09.17-.15.22-.18l.59.31c-1.32,1.55-3.57,4.18-4.07,4.72h0Z"/>
    <path class="st0" d="M344.68,190.05c1.25.16,2.99.32,3.14.33.2.04,1.27.16,2.11-1.42l2.12-4.01c.08-.12.44-.67.25-1.18-.08-.22-.29-.5-.83-.63-1.16-.27-1.53-.38-1.53-.38-.03-.01-1.27-.44-1.88.51-.47.74-3.86,4.83-3.9,4.87-.07.09-.6.79-.36,1.36.13.31.42.49.88.55h0ZM347.98,188.53c-.14-.01-.81-.08-1.61-.16.92-1.12,2.45-3,3.06-3.83.09.03.29.08.65.17-.48.92-1.78,3.38-1.78,3.38-.15.28-.27.4-.33.45h0Z"/>
    <path class="st0" d="M352.72,190.49h2.51c.56,0,1.61-.4,1.61-1.89v-4.35c0-.06-.02-.11-.05-.16-.02-.03-.5-.78-1.59-.7-.88.07-1.53.02-1.53.02-.06,0-.89,0-1.23,1.02-.26.79-1.66,3.86-1.68,3.89-.01.03-.37.8.03,1.44.31.49.96.74,1.92.74h0ZM354.98,188.61s0,.02,0,.03h-2.26s-.04,0-.06,0c.36-.79,1.12-2.5,1.45-3.36.24,0,.54,0,.88-.02v3.34h0Z"/>
    <path class="st0" d="M364.34,190.15l2.26-.2c.1,0,.43-.03.64-.33.2-.3.18-.74-.06-1.31-.53-1.24-3.24-6.78-3.35-7.02,0-.02-.02-.03-.03-.05-.06-.07-.56-.72-1.16-.51-.02,0-.04.01-.05.02l-1.47.89c-.35.16-.84.65-.51,1.56.4,1.08,1.88,5.91,1.89,5.96,0-.01,0-.03,0-.04.06.4.53,1.13,1.85,1.02h0ZM362.56,182.94c.65,1.33,1.87,3.85,2.53,5.28-.39.03-.91.08-.9.08,0,0-.01,0-.02,0-.31-1-1.23-3.99-1.68-5.31l.07-.04h0Z"/>
    <path class="st0" d="M358.2,190.5c.66-.04,3.12-.1,3.15-.1.05,0,.52-.01.79-.39.2-.28.21-.65.05-1.12l-1.89-5.63s0-.02-.01-.04c-.16-.34-.66-.91-1.38-.62-.62.25-1.49.46-1.5.46-.03,0-.05.02-.08.03-.09.05-.4.29-.41,1.05,0,.66.22,5,.23,5.18.03.43.28,1.22,1.05,1.18h0ZM358.97,188.62c-.08-1.52-.16-3.21-.18-4.02,0,0,0,0,0,0l1.34,3.98-1.16.04h0Z"/>
    <path class="st0" d="M369.03,189.72c.87-.11,2.24-.34,2.4-.36.14,0,.83-.06,1.16-.6.28-.46.21-1.1-.21-1.91-1.06-2.04-4.92-8.1-5.16-8.49-.05-.1-.25-.47-.65-.54-.29-.05-.58.07-.86.36.01-.01-1.45,1.33-1.45,1.33-.29.24-.77.94-.35,1.85.5,1.1,3.54,7.37,3.57,7.43,0-.01,0-.02-.01-.03.14.38.64,1.08,1.57.96h0ZM365.66,180.74c.15-.13.37-.34.55-.5,1.04,1.65,3.61,5.75,4.47,7.37-.41.06-1.06.17-1.6.24-.43-.89-2.81-5.82-3.42-7.11h0Z"/>
    <path class="st0" d="M320.92,255.25c-3.99-1.88-7.75-.33-7.75,3.21,0,8.2,16.84,6.98,14.07-7.2-1.59-8.15-6.53-18.61-7.75-33.9-1.22-15.29,6.98-20.27,6.98-20.27v-3.88c-12.96,6.31-10.42,34.12-6.54,47.08,3.88,12.96,1,14.95,1,14.95h0Z"/>
    <path class="st0" d="M449.74,258.47c0-3.54-3.77-5.1-7.75-3.21,0,0-2.88-1.99,1-14.95,3.88-12.96,6.43-40.77-6.53-47.08v3.88s8.2,4.99,6.98,20.27c-1.22,15.29-6.16,25.74-7.76,33.9-2.77,14.18,14.07,15.4,14.07,7.2h0Z"/>
    <path class="st0" d="M315.84,266.84l-7.91,6.45c-9.2-7.1-13.23,1.29-13.23,1.29,3.39-.65,6.13.32,6.13.32-7.1,1.94-5.33,6.45-5.33,6.45,0,0,7.26-4.36,10.33.65,3.95,6.45-.97,11.46-.97,11.46,12.1,0,8.07-16.14,8.07-16.14l10.65-10.49h-7.75Z"/>
    <path class="st0" d="M466.48,274.61s-4.03-8.39-13.23-1.29l-7.91-6.46h-7.75s10.65,10.49,10.65,10.49c0,0-4.04,16.14,8.07,16.14,0,0-4.92-5.01-.97-11.46,3.07-5,10.33-.64,10.33-.64,0,0,1.78-4.52-5.33-6.46,0,0,2.74-.97,6.13-.32h0Z"/>
    <path class="st0" d="M326.22,206.3l.12-6.42c-.23,1.26-1.26,2.18-2.41,2.87-1.15.69-.57,1.49-.57,1.49,2.41-.11,2.87,2.07,2.87,2.07h0Z"/>
    <path class="st0" d="M324.84,222.93c.46,4.36,1.61,2.75,1.61,2.75,0,0-.33-7.2-.46-8.6-.13-1.4-4.39-.66-4.47.8-.08,1.47.8,7.69.8,7.69l1.26-.23-.23-5.39s1.03-1.38,1.49,2.98h0Z"/>
    <path class="st0" d="M325.75,237.96c1.08,1.43,1.22-5.76.87-7.13,0,0-3.23-.97-2.91.71.32,1.68.66,4.59,2.03,6.42h0Z"/>
    <path class="st0" d="M321.66,210.15c0,1.42,4.33.85,4.33.85v-2.29s-4.33-.69-4.33,1.44h0Z"/>
    <path class="st0" d="M325.99,214.56v-2.29s-4.33-.69-4.33,1.44c0,1.42,4.33.85,4.33.85h0Z"/>
    <path class="st0" d="M337.85,293.68c0-.74-.6-1.33-1.33-1.33s-1.33.6-1.33,1.33.6,1.33,1.33,1.33,1.33-.6,1.33-1.33h0Z"/>
    <path class="st0" d="M439.96,279.1c-.74,0-1.33.6-1.33,1.33s.6,1.33,1.33,1.33,1.33-.6,1.33-1.33-.6-1.33-1.33-1.33h0Z"/>
    <path class="st0" d="M436.8,281.08c0-.74-.6-1.33-1.33-1.33s-1.33.6-1.33,1.33.6,1.33,1.33,1.33,1.33-.6,1.33-1.33h0Z"/>
    <path class="st0" d="M432.74,281.72c0-.74-.6-1.33-1.33-1.33s-1.33.6-1.33,1.33.6,1.33,1.33,1.33,1.33-.6,1.33-1.33h0Z"/>
    <path class="st0" d="M324.11,305.24l.69-8.03s-.69-1.59-3.04-.42l-.42,6.09s-1.38,2.28-4.29-.28l.42-6.23s-.97-1.32-2.84-.42l-.49,8.23s3.87,5.19,9.96,1.04h0Z"/>
    <path class="st0" d="M319.35,301.99c.46.03.85-.32.88-.78l.15-2.62c.03-.46-.32-.85-.78-.88-.46-.03-.85.32-.88.78l-.15,2.63c-.03.46.32.85.78.88h0Z"/>
    <path class="st0" d="M335.36,306.91l.66-7.67s-.66-1.52-2.91-.4l-.4,5.82s-1.32,2.18-4.1-.26l.4-5.95s-.93-1.26-2.71-.4l-.46,7.86s3.7,4.96,9.52.99h0Z"/>
    <path class="st0" d="M330.81,303.8c.44.02.81-.31.84-.75l.15-2.51c.03-.44-.31-.81-.75-.84-.44-.02-.81.31-.84.75l-.15,2.51c-.03.44.31.81.75.84h0Z"/>
    <path class="st0" d="M345.41,307.72l.27-4s-.36-2.04-2.31-.62l-.27,1.78s-1.07,1.42-.89-1.07l.18-2.49s-.62-.8-1.24.27l-.09,3.2s-.53.53-1.51-.09l.36-4.53s-.62-1.87-2.49-.44l-.36,7.02s2.76,4.89,8.36.98h0Z"/>
    <path class="st0" d="M319.45,290.74c0-.74-.6-1.33-1.33-1.33s-1.33.6-1.33,1.33.6,1.33,1.33,1.33,1.33-.6,1.33-1.33h0Z"/>
    <path class="st0" d="M326.03,291.72c0-.74-.6-1.33-1.33-1.33s-1.33.6-1.33,1.33.6,1.33,1.33,1.33,1.33-.6,1.33-1.33h0Z"/>
    <path class="st0" d="M331.27,292.61c0-.74-.6-1.33-1.33-1.33s-1.33.6-1.33,1.33.6,1.33,1.33,1.33,1.33-.6,1.33-1.33h0Z"/>
    <path class="st0" d="M324.79,269.49l.09,4.71,3.02,2.58s1.6-5.87-3.11-7.29h0Z"/>
    <path class="st0" d="M329.23,281.76c-.36.44-.98,1.33-1.33-.27-.36-1.6-1.69-1.42-2.4-1.42s-1.69,2.93-2.31.89c-.62-2.04-.98-3.11-3.47-2.67v4.89s12.36,2.76,12.36,2.76c0,0,0-3.29-.53-3.82-.53-.53-1.96-.8-2.31-.36h0Z"/>
    <path class="st0" d="M332.52,288.07s-8.45-2.58-12.53-2.85l-.09,1.96,12.89,3.02s.44-.44-.27-2.13h0Z"/>
    <path class="st0" d="M447.7,304.22l-.48-8.23c-1.87-.9-2.84.42-2.84.42l.41,6.23c-2.91,2.56-4.29.28-4.29.28l-.42-6.09c-2.35-1.18-3.04.41-3.04.41l.69,8.03c6.09,4.15,9.96-1.04,9.96-1.04h0Z"/>
    <path class="st0" d="M441.62,301.22c.03.46.42.81.88.78.46-.03.81-.42.78-.88l-.15-2.63c-.03-.46-.42-.81-.88-.78-.46.03-.81.42-.78.88l.15,2.62h0Z"/>
    <path class="st0" d="M436.01,305.93l-.46-7.87c-1.78-.86-2.71.4-2.71.4l.4,5.95c-2.78,2.44-4.1.26-4.1.26l-.4-5.82c-2.25-1.12-2.91.4-2.91.4l.66,7.67c5.82,3.97,9.52-.99,9.52-.99h0Z"/>
    <path class="st0" d="M430.8,299.72c-.44.03-.77.4-.75.84l.15,2.51c.03.44.4.77.84.75.44-.03.77-.4.75-.84l-.15-2.51c-.03-.44-.4-.77-.84-.75h0Z"/>
    <path class="st0" d="M418.75,304.89l-.27-1.78c-1.96-1.42-2.31.62-2.31.62l.27,4c5.6,3.91,8.36-.98,8.36-.98l-.36-7.02c-1.87-1.42-2.49.44-2.49.44l.36,4.53c-.98.62-1.51.09-1.51.09l-.09-3.2c-.62-1.07-1.25-.27-1.25-.27l.18,2.49c.18,2.49-.89,1.07-.89,1.07h0Z"/>
    <path class="st0" d="M283.54,149.45c.93-.37,1.76-1.13,1.24-2.43l-4.03-10.19-1.08.43,3.9,9.84c.34.85.18,1.21-.38,1.43-.54.21-.92.06-1.25-.79l-3.9-9.84-1.08.43,4.03,10.19c.52,1.3,1.64,1.29,2.54.94h0Z"/>
    <polygon class="st0" points="288.21 147.71 285 136.93 285.03 136.92 289.63 147.29 291.21 146.82 287.6 134.69 286.63 134.98 289.72 145.36 289.69 145.37 285.24 135.39 283.62 135.87 287.23 148 288.21 147.71 288.21 147.71"/>
    <polygon class="st0" points="294.33 146.02 291.22 133.76 290.1 134.04 293.21 146.31 294.33 146.02 294.33 146.02"/>
    <polygon class="st0" points="298.76 144.99 297.42 132.32 296.29 132.57 297.7 144.04 297.66 144.05 294.03 133.08 292.9 133.33 297.11 145.36 298.76 144.99 298.76 144.99"/>
    <polygon class="st0" points="304.57 143.8 304.38 142.83 302.5 143.2 301.51 138.2 303.3 137.85 303.11 136.88 301.32 137.24 300.43 132.71 302.3 132.34 302.11 131.38 299.11 131.98 301.56 144.39 304.57 143.8 304.57 143.8"/>
    <path class="st0" d="M307.53,143.26l-1.04-5.99.76-.13c.54-.09.92,0,1.03.6l.91,5.23,1.14-.2-.93-5.34c-.15-.86-.68-1.02-1.5-.93v-.03c.87-.21,1.17-.6,1-1.56l-.55-3.16c-.22-1.24-.92-1.32-2.01-1.13l-2.12.37,2.17,12.47,1.14-.2h0ZM305.54,131.76l.64-.11c.59-.1.99-.05,1.11.68l.49,2.8c.13.74-.15.95-.69,1.05l-.76.13-.79-4.54h0Z"/>
    <path class="st0" d="M310.86,133.19c.1.64.34,1.03.73,1.52l2.13,2.67c.31.4.45.71.51,1.15l.27,1.75c.09.59-.08.97-.55,1.04-.5.08-.78-.24-.87-.82l-.25-1.65-1.14.18.26,1.71c.19,1.26.89,1.74,2.15,1.55,1.14-.17,1.74-.94,1.56-2.12l-.3-1.97c-.08-.55-.32-1.07-.65-1.46l-2.3-2.84c-.24-.3-.37-.69-.43-1.09l-.2-1.32c-.07-.49,0-.87.53-.95.54-.08.71.26.79.75l.23,1.52,1.14-.17-.24-1.59c-.17-1.14-.79-1.67-2.07-1.47-1.16.18-1.71.88-1.52,2.11l.23,1.51h0Z"/>
    <polygon class="st0" points="318.91 141.48 317.17 128.95 316.02 129.11 317.77 141.64 318.91 141.48 318.91 141.48"/>
    <path class="st0" d="M323.11,140.93c1.57-.2,1.85-1.04,1.69-2.28l-1.07-8.49c-.16-1.23-.64-1.99-2.2-1.79l-1.97.25,1.58,12.56,1.97-.25h0ZM321.45,129.37c.77-.1,1.04.12,1.13.85l1.09,8.66c.09.73-.12,1-.89,1.1l-.61.08-1.33-10.61.61-.08h0Z"/>
    <path class="st0" d="M327.73,136.85l2.02-.22.85,3.43,1.15-.13-3.23-12.38-1.57.17-.47,12.78,1.15-.13.09-3.54h0ZM327.83,128.51h.03s1.67,7.15,1.67,7.15l-1.78.19.08-7.34h0Z"/>
    <path class="st0" d="M335.34,139.59c1.57-.15,1.88-.99,1.76-2.23l-.8-8.52c-.12-1.24-.58-2.01-2.15-1.86l-1.97.19,1.19,12.6,1.97-.19h0ZM334.03,127.99c.77-.07,1.03.15,1.1.88l.82,8.69c.07.73-.15,1-.92,1.07l-.61.06-1.01-10.64.61-.06h0Z"/>
    <polygon class="st0" points="343.35 138.9 342.52 127.68 342.55 127.68 344.83 138.79 346.48 138.67 345.54 126.05 344.53 126.13 345.33 136.93 345.29 136.93 343.08 126.23 341.4 126.36 342.33 138.98 343.35 138.9 343.35 138.9"/>
    <path class="st0" d="M349.41,134.97l2.03-.12.69,3.47,1.15-.07-2.62-12.52-1.57.1-1.09,12.74,1.15-.07.26-3.53h0ZM349.9,126.65h.03s1.32,7.22,1.32,7.22l-1.78.11.43-7.33h0Z"/>
    <path class="st0" d="M356.49,138.19c1.21-.06,1.77-.77,1.72-1.84l-.09-1.8-1.16.06.09,1.77c.03.54-.15.82-.61.84-.46.02-.66-.23-.69-.77l-.46-9.28c-.03-.54.15-.81.61-.84s.66.23.69.77l.08,1.63,1.16-.06-.08-1.66c-.05-1.07-.68-1.72-1.89-1.66-1.21.06-1.77.77-1.72,1.84l.46,9.35c.05,1.07.68,1.72,1.89,1.66h0Z"/>
    <polygon class="st0" points="361.14 137.88 360.62 125.23 359.47 125.28 359.98 137.93 361.14 137.88 361.14 137.88"/>
    <path class="st0" d="M365.38,137.83c1.56-.05,2-.96,1.97-2.2l-.27-8.58c-.04-1.24-.54-2.12-2.1-2.07-1.56.05-2,.96-1.97,2.2l.27,8.58c.04,1.24.54,2.12,2.1,2.07h0ZM365.02,125.96c.74-.02.89.46.91,1.16l.26,8.51c.02.7-.1,1.2-.84,1.22-.74.02-.89-.46-.91-1.16l-.26-8.51c-.02-.7.1-1.2.84-1.22h0Z"/>
    <polygon class="st0" points="370.58 137.59 370.37 126.34 370.41 126.34 372.07 137.57 373.72 137.54 373.48 124.88 372.47 124.9 372.67 135.73 372.63 135.73 371.01 124.93 369.33 124.96 369.57 137.61 370.58 137.59 370.58 137.59"/>
    <path class="st0" d="M376.85,134h2.03s.5,3.49.5,3.49h1.16s-1.94-12.65-1.94-12.65h-1.58s-1.78,12.68-1.78,12.68h1.16s.45-3.52.45-3.52h0ZM377.8,125.72h.03s.92,7.29.92,7.29h-1.79s.83-7.29.83-7.29h0Z"/>
    <polygon class="st0" points="385.2 136.52 383.29 136.51 383.34 124.83 382.18 124.83 382.12 137.48 385.19 137.5 385.2 136.52 385.2 136.52"/>
    <path class="st0" d="M390.59,134.06l2.03.04.4,3.51,1.16.02-1.6-12.69-1.58-.03-2.11,12.61,1.16.02.54-3.49h0ZM391.75,125.81h.03s.73,7.31.73,7.31l-1.79-.04,1.02-7.27h0Z"/>
    <path class="st0" d="M397.58,137.85c1,.03,2.06-.34,2.11-1.74l.35-10.95-1.16-.04-.34,10.58c-.03.91-.32,1.18-.92,1.16-.58-.02-.87-.31-.84-1.22l.34-10.58-1.16-.04-.35,10.95c-.04,1.4.99,1.84,1.96,1.87h0Z"/>
    <polygon class="st0" points="402.63 137.94 403.78 137.99 404.29 126.32 405.58 126.38 405.63 125.4 401.88 125.24 401.84 126.22 403.13 126.27 402.63 137.94 402.63 137.94"/>
    <path class="st0" d="M408.8,138.34c1.56.09,2.08-.78,2.15-2.02l.47-8.58c.07-1.24-.36-2.16-1.91-2.25-1.56-.09-2.08.78-2.15,2.02l-.47,8.58c-.07,1.24.36,2.16,1.91,2.25h0ZM408.04,136.12l.47-8.51c.04-.7.2-1.18.94-1.14.74.04.85.54.81,1.24l-.47,8.51c-.04.7-.2,1.18-.94,1.14-.74-.04-.85-.54-.81-1.24h0Z"/>
    <polygon class="st0" points="414.72 127.32 414.75 127.32 415.44 138.64 417.09 138.76 417.94 126.13 416.93 126.06 416.2 136.87 416.16 136.87 415.48 125.96 413.8 125.85 412.94 138.47 413.96 138.54 414.72 127.32 414.72 127.32"/>
    <path class="st0" d="M421.2,139.18c1.55.13,2.1-.73,2.2-1.97l.7-8.56c.1-1.24-.3-2.17-1.85-2.3-1.55-.13-2.1.73-2.2,1.97l-.7,8.56c-.1,1.24.3,2.17,1.85,2.3h0ZM420.5,136.94l.69-8.49c.06-.7.24-1.18.97-1.12.73.06.83.56.78,1.26l-.69,8.49c-.06.7-.24,1.18-.97,1.12-.73-.06-.83-.56-.78-1.26h0Z"/>
    <polygon class="st0" points="427.47 127.9 427.5 127.9 427.69 139.65 429.12 139.79 431.58 128.3 431.62 128.3 430.48 139.92 431.5 140.02 432.73 127.43 430.95 127.25 428.55 138.4 428.52 138.39 428.33 127 426.55 126.82 425.32 139.42 426.33 139.52 427.47 127.9 427.47 127.9"/>
    <path class="st0" d="M434.96,136.88l2.02.23.07,3.54,1.15.13-.39-12.78-1.57-.18-3.3,12.36,1.15.13.87-3.43h0ZM436.91,128.78h.03s.03,7.35.03,7.35l-1.78-.21,1.71-7.14h0Z"/>
    <polygon class="st0" points="454.38 131.33 454.41 131.33 453.71 143.06 455.13 143.31 458.45 132.04 458.49 132.05 456.47 143.54 457.47 143.72 459.66 131.25 457.9 130.95 454.67 141.87 454.63 141.87 455.31 130.49 453.55 130.18 451.36 142.65 452.36 142.82 454.38 131.33 454.38 131.33"/>
    <polygon class="st0" points="462.5 144.74 462.69 143.77 460.82 143.39 461.84 138.4 463.63 138.76 463.83 137.8 462.04 137.43 462.96 132.92 464.83 133.3 465.03 132.34 462.02 131.72 459.49 144.12 462.5 144.74 462.5 144.74"/>
    <polygon class="st0" points="463.57 144.96 464.7 145.22 467 140.29 467.03 140.29 466.92 145.74 468.04 146 467.92 139.44 470.79 133.65 469.67 133.39 467.53 138.16 467.5 138.15 467.69 132.92 466.56 132.66 466.62 139.14 463.57 144.96 463.57 144.96"/>
    <polygon class="st0" points="470.52 146.66 473.75 134.42 472.64 134.13 469.4 146.36 470.52 146.66 470.52 146.66"/>
    <path class="st0" d="M474.27,147.85c1.16.36,1.93-.12,2.24-1.14l.53-1.73-1.11-.34-.52,1.69c-.16.52-.42.71-.86.58-.44-.13-.54-.44-.38-.96l2.73-8.88c.16-.52.42-.71.86-.58.43.13.54.44.38.96l-.48,1.56,1.11.34.49-1.59c.31-1.02-.05-1.85-1.21-2.21-1.16-.36-1.93.12-2.24,1.14l-2.75,8.95c-.31,1.02.05,1.85,1.21,2.21h0Z"/>
    <path class="st0" d="M479.27,149.61c1.45.59,2.22-.06,2.69-1.22l3.23-7.96c.47-1.15.37-2.16-1.08-2.75-1.44-.59-2.22.06-2.69,1.22l-3.23,7.96c-.47,1.15-.37,2.16,1.08,2.75h0ZM479.28,147.27l3.2-7.89c.26-.65.58-1.05,1.26-.78.68.28.63.78.36,1.43l-3.2,7.89c-.26.65-.58,1.05-1.26.78-.68-.28-.63-.78-.36-1.43h0Z"/>
    <path class="st0" d="M271.33,146.31c2.12,3.07,2.68,3.9,2.68,6.42v.75c-.04,1.93-.07,4.11,1.45,5.65,1.22,1.24,3.25,1.85,6.21,1.85,2.24,0,5.31-.58,8.85-1.25,5.5-1.04,12.23-2.32,18.46-1.8-1.42,1.44-6.1,5.17-15.68,4.13-9.44-1.02-19.56-1.4-23.06,3.56-1.9,2.69-1.58,6.7.94,11.93.07.14.22.2.37.15.07-.02,7.28-2.58,5.68-10.61,2.83.26,5.57,1.16,8.55,2.14.61.2,1.24.41,1.88.61-5.9,1.67-10.64,4.15-10.64,6.76,0,1.6,1.8,2.2,6.06,4.14,4.44,2.02,8.64,3.59,12.5,5.49,10.94,5.4,18.89,10.09,20.06,8.95,1.58-1.54-24.62-11.93-18.44-20.9,3.47-5.04,9.18,1.66,4.47,2.71-4.71,1.05,6.79,12.71,20.29,16.69,0,0,2.35-2.5,4.26-3.47,0,0,2.03-1.53-.96-2.3-2.99-.77-21.51-6.49-13.87-13.55,2.26-2.1,2.48-3.57,1.49-4.58,2.62-1.01,4.82-2.31,6.38-3.87s2.37-3.29,2.37-5.02c0-4.82-6.04-11.48-8.29-13.79,17.62-2.77,40.89-4.78,67.91-4.78,27.9,0,51.79,2.15,69.6,5.07-2.19,2.24-8.37,8.99-8.37,13.87,0,1.74.82,3.47,2.37,5.02,1.09,1.09,2.51,2.06,4.16,2.9-1.93,1.16-3.01,2.44-3.01,3.44,0,4.18,3.73,5.47,3.73,5.47.47,4.8-10.89,9.9-14.02,11.21.73.29,2.25.94,3.91,2.01,10.86-3.15,13.83-8.81,16.04-11.73,2.41-3.18-3.84-1.49-3.84-4.67,0-3.18,9.36-5.5,7.46,3.18-1.71,7.83-12.95,12.75-17.83,14.54.66.53,1.3,1.14,1.89,1.8.27.45.91,1.43,1.37,1.28.58-.19.16-1.88,1.06-1.69.9.19,1.6.58,2.02-.34.43-.92.32-1.83,1.12-1.3.8.53.9,1.01,1.65.72.75-.29-.64-2.41,1.06-1.88,1.7.53,1.97-.43,1.6-1.3-.37-.87.72-.39,1.8.31,1.08.7,1.24-.7.65-1.56-.59-.87.16-1.54,1.17-.58,1.01.96,2.82.67,1.49-.72-1.33-1.4.21-2.6,1.65-1.49,1.44,1.11,1.28.43.48-.92-.8-1.35-.16-1.83,1.65-.67,1.81,1.16,3.03.72,1.06-.82-1.97-1.54-1.17-2.6.85-1.45,2.02,1.16,4.47,1.69,2.23-.29-2.23-1.98-2.93-3.37-.27-1.98,2.66,1.4,4.79,1.11.75-1.4-4.04-2.51,2.13-.19,3.56,1.01,1.44,1.2,1.7-.72-1.06-2.27-2.77-1.54-1.12-2.02,2.55-.19,3.67,1.83,3.67.15.64-1.01-3.03-1.16-4.26-3.33-.53-1.45,3.72,1.88,7.5,2.17,3.72.19-1.7-.89-2.89-1.6-3.45-2.1,1.11-.39,2.52-.07,5.11,1.75,4.94,3.48.19,7.23-4.06,8.85-6.26,2.39-8.78,4.87-15.47,9.64-3.96,2.83-9.16,3.7-12.74,3.94.38.69.69,1.42.92,2.21,5.77-.19,12.45-2.17,16.53-4.66,5.38-3.28,14.6-8.55,21.29-10.14,5.23-1.24,10.1-3.98,2.2-9.64-2.74-1.97-5.44-3.52-8.07-4.73.15-.05.3-.1.45-.15,2.98-.98,5.72-1.88,8.55-2.14-1.6,8.03,5.6,10.59,5.67,10.61.14.05.3-.02.37-.15,2.53-5.22,2.84-9.24.95-11.93-3.5-4.96-13.62-4.59-23.06-3.56-10.62,1.15-15.22-3.56-16.03-4.51,1.22-.12,2.55-.15,4.01-.03,2.93.23,6.33.8,9.62,1.36,7.74,1.31,15.74,2.66,19.36-.1,1.15-.87,1.81-2.12,1.97-3.72.35-3.39,2.08-6.32,3.61-8.89,1.59-2.68,2.96-4.99,2.29-7.07-.45-1.4-1.81-2.57-4.15-3.58-10.41-4.5-26.3-8.58-44.74-11.48-20.42-3.21-43.32-4.91-66.22-4.91-43.97,0-84.88,5.55-106.76,14.49-.16.05-4.37,1.51-5.42,4.58-.5,1.45-.21,3,.86,4.61.84,1.27,1.55,2.31,2.13,3.14h0ZM274.37,135.72s.06-.02.09-.03c21.68-8.86,62.32-14.36,106.06-14.35,53.67,0,92.92,8.75,110.22,16.24,1.77.77,2.85,1.61,3.12,2.45.42,1.29-.76,3.27-2.12,5.56-1.63,2.74-3.47,5.85-3.86,9.65-.11,1.08-.52,1.88-1.25,2.44-.03.03-.07.05-.11.07-.12-.59-.47-1.19-1.07-1.78-7.33-7.34-51.94-15.51-104.22-15.52-26.78,0-53.17,2.08-74.32,5.88-9.38,1.68-17.18,3.63-22.56,5.64-4.53,1.69-7.26,3.38-8.14,5.02-.4-.97-.38-2.23-.37-3.47,0,0,0-.77,0-.77,0-3.1-.76-4.2-3.01-7.47-.57-.83-1.28-1.86-2.11-3.11-.74-1.13-.96-2.1-.66-2.99.62-1.82,3.37-3.13,4.28-3.44h0ZM468.7,157.4c-3.33-.56-6.77-1.15-9.79-1.38-7.61-.59-12.13,2.17-14.53,4.46.64-3.72,5.69-9.55,8.91-12.73,16.94,2.93,27.89,6.54,30.85,9.5.42.42.57.74.57.89,0,.12-.04.25-.11.39-3.75.91-10.14-.17-15.91-1.14h0ZM452.59,158.64l.75.44c.98,1.17,6.09,6.41,17.66,5.16,4.81-.52,15.43-1.67,20,1.5-4.75-.7-8.89.66-13.26,2.1-.82.27-1.65.54-2.48.8-10.14-3.9-18.93-2.78-24.17-.55-2.18-.94-3.83-2.04-4.91-3.11-.68-.68-1.18-1.39-1.48-2.09,1.22-1.46,3.64-3.63,7.77-4.59-.04.13,0,.28.13.35h0ZM488.76,167.39c1.32.03,2.67.22,4.09.63.71,1.86.38,4.44-.98,7.68-1.78-1.11-4.24-3.56-3.11-8.31h0ZM319.44,159.14c-8.58-5.16-20.48-2.91-29.27-1.24-3.46.66-6.44,1.22-8.51,1.22-1.54,0-2.77-.18-3.68-.54-.14-.18-.23-.34-.23-.45,0-.16.15-.47.57-.89,3.06-3.06,14.64-6.8,32.53-9.77,2.95,2.93,7.38,8.01,8.59,11.68h0ZM310.7,168.58c-3.68-1.16-10.21-.98-13.83-.57-1.87.21-3.8.53-5.68.93-1.67-.45-3.27-.97-4.84-1.49-4.37-1.44-8.51-2.8-13.26-2.1,4.57-3.17,15.19-2.02,20-1.49,11.56,1.26,16.67-3.98,17.66-5.15l.75-.44s.03-.02.04-.03c2.97.51,5.76,1.53,8.17,3.29-.47,2.7-3.76,5.42-9,7.06h0ZM272.21,175.33c-1.37-3.25-1.69-5.83-.98-7.69,1.42-.41,2.77-.6,4.09-.63,1.13,4.76-1.33,7.21-3.11,8.31h0Z"/>
    <path class="st0" d="M387.82,183.54c-.09,0-.18.02-.24.08-.06.06-.1.15-.09.24,0,.06.52,6.09,7.39,6.09,6,0,11.43-4.84,12.7-6.06.83,1.34,4.07,6.19,6.93,5.88,1.22-.14,2.19-1.18,2.88-3.08.88.92,3.32,3.14,6.39,2.94,2.5-.17,4.79-1.92,6.8-5.2.07-.11.06-.24-.02-.34-.08-.1-.21-.14-.33-.1-.06.02-5.77,1.77-9.34-.85-1.92-1.41-2.89-3.84-2.89-7.23,0-5.15.32-8.11.91-9.99,1.68.89,3.67,1.59,5.88,1.64,6.4.15,7.62-3.74,7.67-3.9.03-.1,0-.21-.06-.28-.07-.08-.17-.11-.27-.1-2.14.34-3.7.1-4.57-.13,2.95-.98,5.08-1.02,6.18-.09,1.18,1.01.84,2.85.83,2.87-.03.13.04.27.16.33.12.06.27.03.36-.07,2.28-2.51,3.1-4.59,2.53-6.34-.98-3-5.93-4.26-10.49-5.21-6.55-1.37-8.97-8.52-8.99-8.59-.03-.09-.09-.15-.18-.19-.08-.03-.18-.03-.26.02-1.62.91-2.85,1.93-3.72,3.03l-4.42-4.96c-.06-.07-.14-.1-.23-.1-.09,0-.17.04-.23.11-.08.1-1.8,2.35-.77,5.88-.85-.92-2.01-2.47-2.09-4.15,0-.12-.08-.22-.19-.26-.11-.04-.23-.02-.32.06-.05.04-4.53,4.23-.11,10.45-.99.39-4.48,1.36-11.37-.59-.08-.02-.16-.01-.23.03-.07.04-.12.11-.14.19-.02.1-.53,2.38,1.02,4.37,1.32,1.68,3.68,2.61,7.02,2.77-1.13.83-4.22,2.35-10.37.58-.1-.03-.21,0-.29.07-.08.07-.11.18-.09.29.02.08,1.88,7.44,11.31,6.19-1.81,1.63-7.17,5.66-14.06,3.66-.09-.03-.19,0-.27.05-.08.06-.12.15-.12.24,0,.17.13,4.28,3.27,6,2.71,1.48,6.74.68,11.98-2.38-.73,1.97-3.79,7.29-15.49,6.15h0ZM403.9,163.39c.37-.46.44-1.1.19-1.63-.25-.53-.79-.88-1.38-.89-3.09-.04-5.28-.76-6.32-2.07-.28-.35-.48-.74-.6-1.18,7.45,1.69,10.73-.03,11.08-.24.38-.22.65-.6.74-1.03.09-.43-.01-.89-.28-1.24-1.83-2.44-1.99-4.41-1.7-5.78,1.05,1.66,2.39,2.76,2.45,2.81.56.45,1.35.46,1.92.02.57-.44.76-1.21.47-1.87-.5-1.12-.7-2.21-.58-3.25l3.1,3.49c-.13.32-.25.64-.33.97-.49,2.04.21,3.68.53,4.3-5.14,3.35-5.32,6.45-5.06,7.84-.65.99-2.72,3.67-6.35,4.39-3.82.38-6.05-.87-7.32-2.26,6.7.89,9.31-2.24,9.42-2.37h0ZM417.16,148.42c.5,1.01,1.24,2.25,2.25,3.47l-2.53.24-1.63-1.83c.46-.65,1.1-1.28,1.91-1.88h0ZM435.57,162.33c-.18-.25-.39-.49-.62-.69-1.79-1.52-4.68-1.51-8.84.04-.58.22-.97.75-1.01,1.37-.03.62.3,1.2.86,1.47.11.05.94.45,2.38.65-.96.38-2.13.56-3.49.53-1.9-.04-3.66-.68-5.15-1.49.59-.92,1.33-1.45,2.19-2.07.27-.19.55-.39.84-.61,1.46-1.11,2.68-3.3,3.54-5.23.17.04.33.09.5.13,2.51.52,8.38,1.75,9.11,3.97.17.51.06,1.15-.3,1.92h0ZM426.61,186.41c-.95.83-1.94,1.29-2.93,1.36-2.8.2-5.17-2.62-5.19-2.65-.22-.27-.51-.45-.84-.52-.42-.84-.96-2.18-1.22-3.83.19-.01.36-.03.51-.05.61,1.64,1.57,2.94,2.88,3.91,2.12,1.55,4.74,1.86,6.8,1.79h0ZM414.43,152.15l1.18,1.33c.29.33.71.51,1.15.51,0,0,.96-.07,2.03-.15-.2.68-.54,1.17-1.01,1.46-.79.48-1.85.32-2.73.04-.04-.1-.09-.2-.15-.3,0,0-.78-1.26-.47-2.9h0ZM421.6,160.06c-.27.2-.53.39-.79.58-1.09.78-1.99,1.49-2.7,2.6-.27-.19-.53-.38-.77-.57.75-1.19,2-2.27,3.63-3.08,2.01-1.01,2.24-3.15,2.16-4.52.43.24.88.46,1.35.66-.75,1.65-1.76,3.48-2.89,4.34h0ZM409.51,182.89c-.44-.16-1.11-.98-.89-4.53,1.23-.7,2.24-1.82,2.88-2.64-.16,1.76.2,3.09,1.09,3.96.21.2.43.36.67.5-1.14,1.42-2.84,3.06-3.75,2.72h0ZM409.24,171s.01,0,.02,0c.09-.03,1.84-.65,2.97-1.84,0,.47.04,1.04.18,1.62-2.55,4.42-4.87,6.12-6.13,6.23-.11-.59,1.32-3.33,2.96-6h0ZM416.37,178.55c-.97.21-1.69.09-2.12-.38-1.07-1.15-.49-4.2.09-6.16.58-.15,1.31-.36,1.94-.65-.07,1.31-.11,2.81-.11,4.54,0,.94.07,1.83.21,2.65h0ZM414.54,157.13c1.17.36,2.63.55,3.92-.09.84-.41,1.88-1.33,2.26-3.33.11,0,.21-.02.31-.02l.11.46.03.14h0s.64,2.8-1.03,3.63c-1.81.91-3.27,2.14-4.22,3.53-.54-.51-.84-.86-.86-.88-.42-.49-1.11-.68-1.72-.45-.48.18-.83.59-.96,1.08-.08.1-.57.64-2.43,1.17.18-1.12,1.07-3.01,4.47-5.16.04-.02.07-.06.11-.08h0ZM414.73,181.85c.33,1.08.78,2.43,1.26,3.41-.08.12-.14.24-.18.38-.44,1.38-1,2.23-1.5,2.29-.9.1-2.51-1.38-3.92-3.21,1.7-.64,3.14-1.45,4.33-2.86h0ZM414.39,169.82c-.2-.76-.69-2.94-.35-4.85.02-.13-.04-.26-.16-.32-.12-.06-.26-.04-.35.06-.02.02-1.83,1.9-3.4,3.04-.23-.4-.64-1.39-.56-3.18.03-.07.07-.13.1-.2,2.94-.69,3.98-1.62,4.34-2.22.54.57,1.7,1.71,3.3,2.79-.36,1.01-.63,2.27-.82,3.92-.45.31-1.13.68-2.09.96h0ZM404.55,170.41c.27-.3.4-.68.39-1.06.66-.26,1.61-.8,2.61-1.88.1.49.26,1.09.49,1.71-1.39,2.57-3.28,4.82-4.37,6.02-.23.02-.46.09-.66.22-4.88,2.97-8.61,3.91-10.78,2.73-1.01-.55-1.57-1.53-1.89-2.4,8.32,1.08,13.96-5.08,14.2-5.35h0ZM404.77,178.68c.56.25,1.15.36,1.75.33.05.59.2,1.8.51,2.98-.18.08-.35.18-.49.33-.06.06-5.75,5.77-11.65,5.77-2.92,0-4.31-1.32-4.98-2.58,10.08.34,13.65-4.27,14.86-6.84h0Z"/>
    <path class="st0" d="M286.87,300.04c.15-.84.21-1.9-.37-2.15-.53-.23-1.05.44-1.23.66-.01.02-.02.04-.03.06,0,0,0,0,0,0-.03.07-.83,1.65-3.37,1.56-1.69-.06-3.41.75-4.27,2.02-.58.85-.71,1.79-.34,2.63.67,1.57,1.86,2.43,2.5,2.22.13-.04.54-.24.38-.97l-.08-.32c-.08-.33-.17-.72-.17-.9.07.01.21.06.48.2.92.49,1.84.55,2.35.14.21-.17.52-.57.3-1.36-.11-.37-.26-.67-.38-.92-.08-.17-.2-.41-.19-.48.02-.03.18-.16,1.17-.24,2.31-.19,2.93-.32,3.25-2.17h0ZM280.39,302.81c-.13-.03-.25-.04-.37-.05.11-.07.22-.13.35-.19,0,.08.01.16.03.24h0Z"/>
    <path class="st0" d="M497.61,297.75c-.6-.18-.93-.46-1.29-.76-.57-.48-1.17-.98-2.73-1.02-.73-.02-1.26.2-1.56.66-.5.77-.29,2.14.67,4.2.24.51.3.84.31,1.04-1.06-.32-2.15-.65-3.13-1.08-.69-.3-1.29-.28-1.78.07-1.18.84-1.4,3.48-1.32,5.95-2.89.12-5.26,2.2-6.97,3.81.01-1.05-.11-2.29-.69-2.91-.4-.42-1.18-.63-2.15-.56-.95.06-2.14.41-3.32,1.12,0-.54-.02-1.26-.16-1.77-.12-.42-.56-.77-1.18-.94-.8-.22-2.09-.14-3.08.81-.45.43-.6.96-.46,1.54.25.98,1.35,1.98,2.41,2.5-.14.17-.28.35-.42.54-.57.8-.74,1.57-.49,2.29.46,1.36,2.34,2.29,4.28,2.98-2.5,2.4-5.51,4.44-8.67,3.64-.51-.59-3.7-3.92-10.07-2.39l-.68.16c-6.29,1.51-11.26,2.7-13.72,8.85-.76,1.89-1.44,2.76-2.1,3.59-1.52,1.91-2.71,3.43-3.75,15.08-.99.31-5.59,1.8-8.58,3.58-.61.29-1.28.33-1.98.38-1.56.1-3.32.23-5.65,2.89-1.34.98-2.08.86-2.87.72-.83-.14-1.69-.29-3.06.74-.86.46-1.77.57-2.28.58.4-1.01,1.67-3.73,4.13-4.39,2.44-.65,8.37-2.52,10.86-5.7.01-.02.03-.04.04-.06.87-1.85,2.18-2.85,3.23-3.65,1.29-.98,2.4-1.84,1.63-3.68-.54-1.3,0-2.8.52-4.25.51-1.42,1.03-2.87.2-3.83,1.05-.32,3.31-1.11,3.98-2.26.21-.35.26-.71.17-1.07-.14-.54.06-1.47.27-2.45.34-1.57.69-3.2-.08-4.15-.35-.43-.91-.66-1.64-.7-.2-.43-.82-1.52-1.93-1.77-.87-.2-1.82.17-2.82,1.09-.5-.18-1.93-.61-2.89.06-.61.43-.89,1.21-.84,2.32l-1.94,3.09c-.72-.18-2.94-.38-7,2.22l-1.63,1.03c-4.02,2.51-7.19,4.49-8.21,9.24-.51,2.38-.91,3.67-1.18,4.36-.25-.2-.54-.39-.87-.58-.99-.56-1.98-1-2.94-1.42-1.81-.8-3.38-1.49-4.31-2.73-2.05-2.73-4.99-2.93-8.74-.57-4.26,2.67-7.52,2.18-12.05.35-.76-.31-1.65-.65-2.58-1-4.85-1.84-11.49-4.37-13.83-7.73-.45-.65-.86-1.28-1.26-1.89-2.08-3.18-3.72-5.7-8.12-5.83-.44-.19-3.22-1.24-6.35,1.05-.03.02-.05.05-.07.08,0,0-.11.15-.28.16-.18.02-.39-.1-.62-.33-1.05-1.05-1.97-1.3-4.12.21-.19.14-3.76,2.85-5.01,5.53-.17-.1-.31-.23-.39-.43-1.61-3.75-3.43-5.99-5.28-6.48-1.57-.42-2.77-1.87-4.05-3.4-.77-.92-1.57-1.88-2.49-2.67-.77-.66-1.5-.94-2.24-.86-1.41.15-2.49,1.57-3.64,3.08l-.35.45c-1.22,1.59-3.34,3.2-5.22,4.62-.77.58-1.49,1.13-2.1,1.64-.04.04-.1.08-.15.12-.87-.57-1.42-1.15-1.6-1.71-.89-2.67-3.22-5.7-4.35-7.07.3-1.68.18-3.38-.89-4.72,1.3,0,2.25-.79,3.11-2.51.38-.77.42-1.43.1-1.97-.52-.88-1.96-1.36-4.39-1.45-1.96-.07-3.75,1.58-4.65,2.57-1.13-.04-2.49.18-4.21.76.18-.89.05-1.7-.67-2.3-2.74-2.3-7.07,1.86-9.15,3.86-1.56,1.5-1.7,3.13-1.58,4.17-.01,0-.02,0-.03.01-.15.05-.27.09-.36.11-.08,0-.36-.07-.61-.13-.58-.14-1.48-.36-2.51-.45-.4-1.71-1.46-4.83-3.85-4.75-.31.01-.66.05-1.03.12.05-.22.09-.45.09-.68,0-.77-.3-1.5-.85-2.05-.55-.55-1.28-.85-2.05-.85-1.6,0-2.9,1.3-2.9,2.9,0,.77.3,1.5.85,2.05.16.16.34.29.54.41-.61.46-1.08.97-1.3,1.54-.22.57-.28,1.44.68,2.37.81.78,1.81,1.69,2.96,2.71-.34.81-.59,1.74-.73,2.81,0,.02,0,.07-.02.15-.53.2-1.55.72-1.55,1.64,0,.77.76,1.49,1.34,1.93-.02,1.35.03,2.86.25,4.19-.38.54-.74,1.28-.22,1.73.25.22.6.42.96.6.13.23.28.44.45.61.65.65,1.21,1.31,1.76,1.95.12.14.25.29.37.43-.2.87-.35,2.26.57,2.51.56.15,1.32.14,2.01.07.5.4,1.05.8,1.69,1.19.75.45,1.54.97,2.32,1.51-.06.86-.01,2.26.94,2.09.63-.12,1.15-.2,1.53-.26,2.09,1.63,3.71,3.14,3.68,3.59-.7.97-3.42,3.72-4.6,3.72-.5,0-.92.22-1.21.65-.57.84-.57,2.35-.02,3.91-.58.49-2.29,2.09-1.66,3.35.2.41.58.8.94,1.18.44.47.94,1,.87,1.33-.05.19-.31.38-.77.55-1.43.52-3.38,1.42-3.84,3.11-.33,1.21.17,2.62,1.47,4.2.04.05.08.09.12.14l-.76.91s-2.61.62-1.74,2.61c.87,1.99,4.23,2.12,3.61-1l.76-.83c1.48,1.01,3.05,1.37,4.35.92,1.37-.47,2.21-1.74,2.38-3.51,1.44.6,6.61,2.57,11.56,2.35.57.52,1.47,1.12,2.36.82.74-.25,1.11-.8,1.3-1.29,1.12.05,3.69.12,6.06-.08.32.47.89.93,1.85.87.99-.07,1.14-.72,1.06-1.33.54-.14,1-.32,1.34-.54.92-.58,3.47-.94,7.22-1.01.09.21.2.42.32.62,1.15,1.94,1.8,2.64,2.12,2.98q.21.22.11.63c-.13.54-.23,1.17.12,1.67.31.45.95.73,1.99.86h.07c2.01.27,3.34.44,4.29,1.96l.12.19c.48.76.82,1.31,1.42,1.44.59.13,1.29-.13,2.7-1.02,2.24-1.42,4.38-.11,4.74.13.22.38,1.21,1.97,2.37,1.85.71-.07,1.26-.74,1.67-2.02.66-.35,1.23-.36,1.94-.37,1.09-.02,2.45-.03,4.74-1.23.07-.05,4.72-3.09,7.48-4.59.43.75.61,1.59.74,2.37.41,2.47-9.84,7.2-5.88,13.42.5.79,1,.55,1,.55,0,0-.83-2.09.5-3.53,1.11-1.21,6.58.42,9.44-3.05.85,3.61,4.7,3.88,4.74,3.89.16,0,.29-.1.32-.26l1.32-9.22c.51,1.2,1.22,2.06,2.14,2.55,1.14.61,2.24.47,2.71.37,2.87,4.58,6.65,3.38,7.17,3.19,1.74,0,2.63-.3,2.81-.93.07-.27.3-1.09-2.71-2.86-.32-.19-.41-.36-.4-.46.02-.12.25-.28.63-.34,1.16-.17,3.66.57,5.69,4.43,2.84,5.41,8.51,3.77,8.57,3.76.12-.04.21-.15.21-.28,0-.13-.08-.25-.2-.29-1.3-.46-1.72-1.91-1.85-2.78,3.34,2.58,6.46,3.71,9.29,3.35,3.14-.4,4.71-2.51,4.78-2.6.08-.1.08-.24,0-.35-.07-.1-.2-.15-.33-.12-3.56.96-5.14-.42-6.85-2.35,1.52-.27,4.01-1.44,7.1-5.56.68-.2,5.34-1.43,9.94.03.46.15.98.32,1.57.52,5.69,1.91,17.52,5.89,25.46-.32,5.28-4.13,6.56-6.78,6.71-8.28.03-.35,0-.63-.04-.85.96.18,1.67.23,1.74.23.05,0,.1-.01.15-.03,1.72.29,4.08.77,6.09,1.51.4.15.87.33,1.41.54-.44.61-1.3,2.05-.1,2.63,1.53.74,5.24-1.53,5.24.58s1.8,1.8,4.87.48c0,0,1.48-.37,1.64.48.16.85.95,1.75,2.12,1.59.57-.08,1.38-1.03,2.21-1.83,1.05-.01,2.08-.11,3.09-.3,1.04.77,1.94,1,2.59.44.39-.34.58-.98.67-1.53,1.41-.73,2.45-1.72,3.07-2.96.89-1.79.73-3.64.5-4.74.36-.36.98-1.13,1.17-2.25.24-1.45-1.38-1.23-2.46-2.76-.39-.73-.91-1.5-1.63-2.23-.24-.41-.43-.97-.51-1.89-.19-2.23-2.48-3.08-2.89-.5-5.56-2.72-13.19-2.35-18.31-1.13-1.45.35-2.92.78-4.34,1.21-4.46,1.33-8.68,2.57-10.69.48.2-.71,1.45-3.98,7.73-6.21,4.53-1.61,15.18-6.05,17.17-12.66,2.15.12,17.47.78,21.19-4.49,3.3-4.68,6.19-8.8,2.94-12.86,1.49-1.18,2.66-2.42,3.49-3.69.58-.89.75-1.65.5-2.31-.24-.66-.84-1.13-1.67-1.52.25-.41.88-.96,2.49-1.31,1.27-.27,1.49-.95,1.5-1.33.04-1.03-1.23-2.18-2.39-2.53h0ZM300.84,303.52c1.46.05,2.17.25,2.49.38-.79,1.58-1.03,1.66-2.6.91-.5-.24-1-.46-1.49-.67.61-.42,1.15-.64,1.6-.62h0ZM471.56,308.16c-.22-.17-.41-.34-.54-.49.2-.09.38-.12.52-.11.01.18.02.38.02.6h0ZM481.98,354.73c-.02.26.02.53.11.77,0,.02.78,2.2-.16,4.05-.61,1.22-1.88,2.11-3.76,2.66-6.17,1.79-14.32-1.43-18.7-3.16-.59-.23-1.2-.48-1.7-.66-3.91-1.43-8.82-1.95-9.02-1.97-.2-.02-.39,0-.58.04-3-.73-3.34-1.6-3.34-3.78,0-1.75,1.17-2.49,2.07-2.81,2.61.26,5.78-.68,9.06-1.66,1.39-.41,2.83-.84,4.23-1.18,5.11-1.22,12.87-1.56,17.93,1.53,4.04,2.46,3.88,6.03,3.87,6.18h0ZM447.01,359.12c.02.28-.07,2.43-5.91,7-7.04,5.51-17.74,1.91-23.49-.02,0,0-.1-.03-.1-.03-.55-.18-1.06-.36-1.51-.5-4.85-1.54-9.62-.46-10.94-.1.1-1.38.16-3.53-.25-4.83-.45-1.44,1.06-2.82,2-3.51,1.79-.22,3.12-.58,4.09-.96.59,0,1.85-.06,3.15-.65-.45.84-1.22,2.54-.3,2.83,1.22.38,3.96,1,2.96-3.45.94.11,2.22.05,3.92-1.2.1-.08.2-.17.29-.26,1.77-2.03,2.86-2.11,4.24-2.2.83-.06,1.76-.12,2.76-.59.06-.03.1-.05.15-.08,3.14-1.86,8.26-3.42,8.31-3.43.04-.01.07-.03.1-.04,1.27.7,3.94,1.84,6.43.8.02.02.03.05.05.08.42.48.89.84,1.39,1.13-.94.85-1.51,2.13-1.68,3.82-.12,1.2.2,2.26.96,3.14.79.93,1.96,1.56,3.12,1.99-.04.38.05.76.25,1.1h0ZM390.29,372.88c-.63.3-1.03.94-1.03,1.63,0,.62.11,1.3.29,1.95-1.27-.41-2.28-1.3-2.99-2.66-2.4-4.57-5.73-5.84-7.85-5.53-.41.06-.78.19-1.1.36.33-.55.54-1.21.65-1.98,1,.15,4.1.44,5.67-1.07.17.14.35.24.54.31.16.06.35.1.55.11,1.79.96,7.56,4.12,9.76,6.32.52.52,1,1.07,1.46,1.6.73.85,1.53,1.77,2.52,2.51-1.97-.27-4.17-1.37-6.54-3.3-.54-.44-1.29-.53-1.91-.23h0ZM358.9,373.22s-.01,0-.02-.01c0,0,.01,0,.02.01h0ZM359.09,372.67s.04,0,.06,0c0,0,0,0,0,0-.02,0-.04,0-.06-.01h0ZM362.24,373.35c-.02-.27-.11-.51-.24-.73.39-1.63,1.04-4.67.85-6.23-.08-.73-.35-1.19-.79-1.37-.73-.31-1.27.29-1.36.37-.09.07,1.05,7.3-3.41,8.86-1.29.45-3.04.47-4.38.75-1.03.21-2.06.69-2.15.69.49-3.65,6.57-4.79,6.56-8.64,0-3.15-2.99-6.1-3.6-6.66-.18-.19-3.91-4.06-4.62-8.18.07-.07.11-.17.09-.28-.07-.34-.14-.68-.21-1.02,0-.47.05-.93.15-1.39.95-4.21,3.91-8.72,9.16-7.6.27.27,1.59.45,2.63,1.59.58.8.85,1.65.9,2.03.24,2.06-2.66,2.68-2.74,2.65-.03-.05.04-4.12-2.2-4.12-1.89,0-3.9,1.85-4.39,3.8-.54,2.17.56,4.01,2.95,4.93.81.31,1.51.61,2.19.91,1.15.5,2.18.93,3.27,1.22-.11,0-.21,0-.32,0-.13,0-.25.08-.29.21-.02.05-.14.48.19,1,.46.73,1.58,1.22,3.3,1.45,3.66.49,7.4,1.48,7.4,5.12,0,2.87-1.53,4.1-2.2,4.5-.38-1.25-1.96-5.24-7.04-7.08-6.21-2.25-8.49-4.36-9.41-8.69-.02-.09-.08-.17-.16-.21-.11-.06-1.09-.52-1.7-.07-.36.27-.48.78-.35,1.53.05.2,1.2,4.89,5.64,7.05.81.39,1.66.76,2.48,1.12,3.09,1.35,6.04,2.64,7.28,5.11-.5.26-.87.75-.95,1.34l-1.2,8.37c-.79-.5-1.23-1.27-1.32-2.3h0ZM338.3,370.25c-.08-.11-.16-.23-.21-.33-.13-.23-.31-.43-.52-.59-.14-.1-3.55-2.52-7.15-.24-.47.3-.78.47-.99.58-.07-.11-.15-.23-.22-.34l-.12-.2c-1.48-2.35-3.68-2.63-5.8-2.91,0,0-.07,0-.07,0-.12-.02-.22-.03-.32-.05.21-.95.16-1.61-.64-2.46-.26-.28-.81-.87-1.84-2.61-1.72-2.91,1-7.3,1.89-8.74.83-1.35,6.04-4.61,10.79-4.54,3.87.06,10.79,2.51,13.81,3.65.34,5.33,5.13,10.19,5.36,10.43.02.01.45.41.98,1.03-2.69,1.49-6.73,4.12-7.28,4.48-1.8.93-2.78.95-3.73.96-.88.01-1.88.03-3.05.69-.4.23-.69.6-.83,1.04-.02.06-.03.1-.05.15h0ZM299.7,361.56c-5.62,1.65-13.61-1.87-13.69-1.91-.55-.25-1.19-.2-1.7.12-.51.32-.83.87-.84,1.48-.02.63-.17,1.72-.99,2.01-.86.29-2.49-.24-4.03-2.11-.8-.97-1.2-1.83-1.06-2.32.1-.38.63-.99,2.54-1.69,1.17-.43,1.87-1.12,2.09-2.04.34-1.43-.7-2.53-1.38-3.26-.12-.12-.27-.29-.4-.44.2-.31.62-.78,1.07-1.14.62-.5.85-1.33.56-2.07-.35-.91-.37-1.61-.32-1.97,2.6-.47,5.8-4.5,5.83-4.54.34-.47.46-1.06.33-1.66-.57-2.75-9.37-8.23-9.46-8.28-1.89-1.13-2.93-2.35-4.13-3.75-.58-.68-1.17-1.37-1.87-2.07-.78-.78-1.07-5.12-.6-9.09.27-2,.93-3.38,1.98-4.1,1.7-1.16,4.29-.53,5.53-.22.64.16,1.02.25,1.51.15.22-.04.42-.11.63-.18.44-.15.6-.17.66-.17,0,0,0,.01.01.02.4.55.46.74.57,1.09.12.38.27.84.67,1.58.48.87,1.67,2.47,3.04,4.32.99,1.33,2,2.7,2.64,3.65.95,1.42,2.76,4.96,5.09,9.97.32.68.02,3.73-.62,6.41-.08.35-.05.7.06,1.01-.36,1.14-.75,2.72-.2,3.07.74.48,1.66.19,2.61-2.01.3-.13.57-.34.77-.62,0,0,0,0,0,0,.02-.02.58-.55,4.93.32,0,0,.21.04.21.04,1.67.33,4.43,1.47,5.49,2.43.4.36,1.12,1.09,1.95,1.94,1.89,1.92,4.47,4.53,6.27,5.89,1.36,1.02,2.75,1.58,3.91,1.88-.85,1.67-1.72,3.92-1.57,6.13-3.95.11-6.58.56-7.83,1.34-1.16.73-5.9.94-9.63.72-.21-.01-.42.01-.62.07h0ZM274.98,310.05c-.88.13-1.76.41-2.55.95-.39.26-.74.58-1.05.94-1.01-.89-1.88-1.7-2.6-2.39-.08-.07-.12-.13-.14-.16.38-.72,2.79-1.97,4.72-2.03.52-.02,1.21,1.18,1.62,2.69h0ZM283.69,307.82c4.38-4.2,5.85-4.17,6.34-3.77.09.19-.08.91-1.44,3.23-.83,1.42-1.56,2.67-1.53,3.88-1.09.41-2.04.82-2.69,1.11-.13-.3-.32-.66-.7-1.19-.28-.38-.59-.61-.91-.74-.1-.53-.09-1.54.94-2.53h0ZM318.09,315.74s.35-.46.35-.46c.63-.83,1.68-2.21,2.18-2.26.09,0,.34.1.65.37.79.68,1.53,1.56,2.24,2.42,1.44,1.72,2.92,3.5,5.13,4.09.31.08,1.94.72,3.89,5.28.36.84,1.02,1.43,1.93,1.72.1.6.4,1.11.9,1.54,2.25,1.9,4.31,2.14,6.13,2.35,1.41.16,2.62.3,3.56,1.24,2.62,2.62,5.08,4.4,7.32,5.29,1.03.41,2.33,1.38,3.49,2.37-4.18.43-7.55,3.89-8.78,9.36-.02.08-.03.15-.04.23-1.51-.56-3.62-1.3-5.85-1.97.11-.39-.14-1.1-.49-2.01-.63-1.64-2.96-3.54-2.48-1.9,0,0,.21.85.1,1.85-.05.47-.02.93.2,1.33-1.66-.41-3.28-.72-4.66-.82-.02-.35-.2-.81-.56-1.3-.9-1.22-1.16-1-1.27-.42,0,0-.35,1.02.01,1.72-2.06.15-4.16.78-6.01,1.6.18-.56,0-1.45-.19-2.21-.26-1.06-.42-2.17-.85-1.43,0,0-1,1.06-.85,2.49.11.96.41,1.5.82,1.67-2.17,1.11-3.86,2.43-4.44,3.38-.03.05-.06.1-.1.16-.95-.19-2.36-.63-3.73-1.66-1.25-.93-2.95-2.58-4.5-4.13.21-1.02.53-2.87.11-3.33-.53-.57-1.4.11-1.87,1.54-.76-.77-1.4-1.42-1.8-1.78-.26-.24-.59-.48-.96-.72.06-.83.08-2.13-.39-2.27-.55-.17-.97.68-1.14,1.44-1.34-.64-2.85-1.16-4.01-1.39l-.21-.04c-.2-.04-.41-.08-.64-.13.28-.84.65-2.12.22-2.05-.49.08-1.36.92-1.97,1.76-1.43-.18-2.96-.21-3.95.33.26-1.28.69-3.72.59-5.49l.23-.16c2.84-2.2,12.2-9.47,14.04-10.99.57-.48,1.28-1.01,2.03-1.58,1.98-1.5,4.22-3.2,5.61-5.01h0ZM336.79,325.72c.1-.05.15-.15.15-.26v-.15c.83-1.42,2.72-3.27,4.18-4.37.65-.46,1-.59,1.14-.63.05.04.12.1.24.22.88.88,1.75.99,2.32.94.56-.06,1.08-.31,1.5-.71,2.24-1.57,4.09-.77,4.17-.74.22.1.48.16.71.16,3.34.08,4.46,1.79,6.48,4.88.38.59.82,1.25,1.3,1.94,2.13,3.05,6.88,5.34,11.3,7.13-.04.03-.08.06-.11.11,0,0-.77.54,0,1.54.77,1,2.77,3.62,3.08,2.93.28-.64-.41-2.84-.82-3.73.46.18.92.35,1.36.52.88.33,1.78.68,2.54.98,5.06,2.05,8.96,2.63,13.96-.52,3.53-2.22,4.98-1.22,5.94.05,1.27,1.69,3.15,2.52,5.15,3.4.91.4,1.85.81,2.75,1.32.95.54,1.13.96,1.12,1.04,0,0,0,0,0-.02,0,0,0,0,0,0h0s0,.02,0,.03c-.03.07-.07.14-.09.22,0,.02-1,3.38-2.25,7.87-.67,2.41-2.18,2.69-2.84,2.68-7.95-3.26-12.9.58-16.18,3.13-1.24.96-2.51,1.95-3.26,1.95-.7,0-1.2-.16-1.64-.55-.12-.16-.23-.33-.35-.5-.28-.4-.56-.81-.87-1.22-.18-.33-.37-.71-.59-1.13-.55-1.1-1.18-2.35-2.07-3.57-2.1-2.9-8.98-6.81-12.82-8.84-.69-.78-1.64-1.43-2.91-1.81-1.42-1.37-4.13-3.81-6.22-4.65-1.97-.79-4.2-2.41-6.61-4.83-.86-.86-1.8-1.28-2.77-1.52-.18-1.21-.56-3.03-1.18-3.03-.7,0-1.31,1.76-1.57,2.62-1.38-.18-2.8-.51-4.31-1.78-.19-.16-.2-.25-.19-.37,0-.2.07-.44.18-.69l.08-.04h0ZM423.53,324.67s.03,0,.04,0c.11.04.23.06.35.08-.25.56-.59,1.68.69,1.62,1.66-.08,3.02-1.12,1.47-3.05.61-.97,1.73-2.74,1.73-2.74.2-.32.3-.7.27-1.08-.02-.27,0-.44.02-.54.2,0,.6.05.96.21.67.28,1.44.14,1.96-.36.6-.57.96-.69,1.05-.68.1.03.38.34.51.66.28.68.95,1.14,1.68,1.14.09,0,.15,0,.2.01.03.25-.02.87-.33,2.3-.22,1.03-.44,2.08-.32,3.02-.45.38-1.77.98-3.11,1.32-.7.18-1.23.75-1.34,1.46-.11.68.18,1.36.75,1.76,0,.35-.39,1.41-.52,1.79-.6,1.66-1.34,3.72-.48,5.77q.15.35-.97,1.2c-1.05.8-2.62,2.01-3.72,4.18-1.5,1.83-5.12,3.65-9.67,4.88-4.16,1.12-5.67,5.99-5.74,6.2-.12.39-.1.8.04,1.17-1.73.56-5.81,1.56-6.67-.98.99-.57,2-1.62,2.55-3.57,1.18-4.26,2.15-7.53,2.23-7.81.06-.12.24-.55.17-1.14.62-.84,1.2-2.52,1.94-5.94.83-3.88,3.39-5.48,7.27-7.9,0,0,1.65-1.04,1.65-1.04,3.69-2.36,5.35-1.95,5.36-1.95h0ZM363.76,345.38c0-.12-.02-.24-.04-.36,3.64,2.04,8.21,4.86,9.67,6.88.02.02.03.05.05.07-1.22-.35-2.69-.35-4.5.21-5.53,1.71-7.29.95-10.47-.42-.67-.29-1.42-.61-2.28-.94-1.36-.52-1.94-1.37-1.67-2.46.32-1.27,1.62-2.28,2.09-2.22.04,0,1.35.61.76,3.07-.24.99,3.27,1.02,4.68.04.99-.69,1.82-2.07,1.7-3.87h0ZM290.63,321.81c-.67-1-1.7-2.39-2.7-3.74-1.11-1.5-2.25-3.03-2.75-3.85,4.08-1.89,8.23-2.91,9.36-2.27l.07.04c1.34.75,2.3,1.35,2.38,2.13.08.73-.39,2.96-6.12,8.06-.08-.13-.16-.25-.23-.36h0ZM369.56,354.2c3.3-1.02,4.88.27,6.39,2.28.42.77.86,1.45,1.42,2,1.19,1.68,2.52,3.25,4.65,3.5,1.11.13,1.53.36,1.67.45-.01.08-.05.22-.13.5-.03.09-.05.17-.08.25-.03.11-.06.21-.08.31-1.22.75-3.74,1.72-7.55.4-.08-.03-.18-.02-.25.03-.08.05-.8.54-.39,2.2.12.46.1.79-.05,1-.29.41-1.18.53-2.1.59-.37.03-.78.08-1.2.13.88-1.07,1.58-2.67,1.58-5.04,0-5.04-3.21-6.96-8.36-7.61,1.25-.14,2.7-.44,4.48-.99h0ZM295.55,331.34c-1.14-2.44-2.49-5.23-3.62-7.31,2.42-2.12,4.21-3.99,5.4-5.62.87.09,3.25.09,4.33-2.33.21-.47.43-.99.63-1.52,1.09,1.44,2.48,3.47,3.06,5.24.28.85.92,1.66,1.9,2.41-3.26,2.58-9.33,7.29-11.71,9.14h0ZM299.74,315.21c-.27.6-.71.9-1.13,1.03.38-.87.54-1.65.46-2.35-.2-1.92-1.99-2.93-3.44-3.75l-.07-.04c-1.41-.79-3.9-.4-6.26.3.23-.59.66-1.33,1.09-2.06.18-.3.36-.62.54-.95.29-.11.59-.23.89-.35,5.01-1.91,6.14-.82,8.4,1.35,1.22,1.17,1.06,3.34-.49,6.81h0ZM376.44,369.85c-.06.14-.1.28-.13.43-.08.39-.2,1.73,1.39,2.67.04.02.07.04.11.06-.5.17-2.63.64-4.54-2.43.96.05,2.17-.07,3.17-.73h0ZM397.35,371.05s0,0-.01,0c-.05-.02-.09-.03-.14-.05,0,0-.43-.1-.97-.23-1.29-1.28-3.53-2.78-5.64-4.06.08-.46.14-1.23-.16-1.84-.36-.72-1.93-.08-2.61.23-1.13-.63-2.01-1.09-2.33-1.26,0-.03.01-.05.02-.09.02-.06.04-.12.06-.19.17-.54.46-1.45-.07-2.25-.49-.76-1.55-1.22-3.23-1.42-.3-.04-.59-.13-.86-.26,1.2-.3,2.4-1.23,3.75-2.28,3.29-2.56,7.39-5.74,14.37-2.73.03.01.05.02.08.02.01,0,.42.05,1.02-.03.34.91,1.25,2.3,3.74,2.57-1.16,1.22-1.33,2.44-1.1,4.35.16,1.4.2,3.68.2,5.12-3.78,4.87-6.09,4.4-6.11,4.4h0ZM442.71,345.82c-1.13.17-3.4.34-5.03-.59.98-10.91,2.05-12.28,3.29-13.84.72-.91,1.54-1.94,2.41-4.12,2.06-5.15,6.12-6.12,12.26-7.59,0,0,.68-.16.68-.16,4.24-1.02,6.66.53,7.58,1.32-.63,1.08-1.53,3.08-.89,4.93.48,1.4,1.76,2.43,3.78,3.06-2.12,3.45-7.55,6.95-15.11,9.64-6.64,2.36-8.48,5.87-8.97,7.36h0ZM467.64,326.89c-1.48-.42-2.38-1.03-2.65-1.81-.37-1.07.33-2.49.68-3.11,5.72,1.24,10.42-4.09,13.55-7.65.68-.77,1.25-1.42,1.69-1.84,3.21-3.06,5.97-5.15,9.82-2.02,3.78,3.08,2.61,5.5-1.71,11.63-2.26,3.2-12.8,4.03-19.57,3.59-.81-.05-1.55.46-1.81,1.22h0ZM472.49,312.17c1.9-2.66,4.35-3.05,5.1-2.93.14.48.17,1.68.02,2.78-.05.3-.06.63-.03.99-.43.49-.89,1-1.37,1.53-3.09-.99-3.79-1.64-3.91-1.96,0-.04.04-.17.21-.4h0ZM492.06,308.82c-1.1-.9-2.16-1.45-3.16-1.75-.08-2.03.08-3.64.33-4.28,1.05.44,2.15.78,3.21,1.1.72.22,2.82.85,3.22,1.23-.03.08-.09.23-.25.48-.74,1.14-1.82,2.25-3.22,3.33-.04-.04-.08-.07-.13-.11h0ZM494.61,299.94c-.42-.9-.6-1.48-.68-1.84.5.06.69.21,1.04.5.43.36,1.03.86,2.04,1.16.03,0,.06.03.09.04-.87.28-1.58.65-2.13,1.12-.12-.44-.28-.8-.37-.99h0ZM268.89,304.13c.15-.15.35-.23.56-.23s.41.08.56.23c.15.15.23.35.23.56,0,.44-.36.79-.79.79-.21,0-.41-.08-.56-.23-.15-.15-.23-.35-.23-.56s.08-.41.23-.56h0Z"/>
    <path class="st0" d="M310.84,324.11c-1.12.28-3.17,3.17-1.68,3.45,0,0,2.8-1.59,3.26-2.42.47-.84-.47-1.31-1.59-1.03h0Z"/>
    <path class="st0" d="M313.17,328.4c1.21.37,1.87-.56,2.52-1.68.65-1.12.09-2.7-1.03-1.4,0,0-2.7,2.7-1.49,3.08h0Z"/>
    <path class="st0" d="M318.02,330.17c.84-1.12,1.49-2.61,1.21-3.73-.28-1.12-.93-.56-.93-.56,0,0-2.24,2.52-2.05,3.36.19.84.93,2.05,1.77.93h0Z"/>
    <path class="st0" d="M323.71,331.29c1.21-.28.75-1.77.37-3.08-.37-1.31-.65-2.24-1.21-1.68,0,0-.75.93-.75,2.24s.37,2.8,1.58,2.52h0Z"/>
    <path class="st0" d="M354.81,168.94s-1.26.4-1.07,2c.2,1.6.53,2.6,2.66,2.33,2.13-.27.6-3.99.2-4.39-.4-.4-1.8.07-1.8.07h0ZM355.46,171.78c-.05-.09-.13-.33-.22-1.02-.04-.3.03-.37.08-.39.11-.03.23-.06.34-.09.19.48.36,1.15.36,1.53-.35.03-.51,0-.56-.02h0Z"/>
    <path class="st0" d="M354.68,174.16s-.74.64-.6,1.77c.13,1.13,0,2.26,1.73,2.2,1.73-.07,1.93-1.26,1.73-2.66-.2-1.4-1.92-1.95-2.86-1.31h0ZM356.07,176.58s-.14.04-.32.05c-.04,0-.06,0-.09,0-.02-.14-.03-.3-.05-.43-.01-.14-.03-.29-.04-.44-.02-.16.01-.27.05-.36.07,0,.17.02.27.07.14.08.16.17.16.21.08.56.04.81.02.9h0Z"/>
    <path class="st0" d="M354.74,178.99s-1.93,2.2-.6,2.86c1.33.67,2.46,1,3.06-.93.6-1.93-.8-3.19-2.46-1.93h0ZM355.77,180.48c-.06.18-.11.3-.15.37-.07-.02-.16-.05-.29-.1.11-.2.27-.44.43-.64.03-.02.05-.03.07-.04,0,.1-.02.24-.07.41h0Z"/>
    <path class="st0" d="M357.94,166.82s-1.2.2-.87,1.53c.33,1.33.93,3.26,2.6,2.73,1.66-.53,1.34-1.79.74-3.56-.6-1.77-1.6-1.1-2.47-.7h0ZM359.21,169.64s-.02,0-.03,0c-.1-.11-.32-.45-.6-1.48l.22-.11c.05-.02.11-.05.17-.08,0,0,0,0,0,.02.12.35.42,1.22.41,1.57-.04.02-.1.04-.18.07h0Z"/>
    <path class="st0" d="M358.07,173.14s-.6,2.93,1,2.93,2.6-.33,2.53-2.4c-.09-2.75-3.19-3.13-3.53-.53h0ZM360.02,174.46c-.05.02-.2.07-.55.09-.03-.31,0-.76.07-1.12,0-.03.01-.07.02-.11.04-.3.13-.42.16-.44.02,0,.06.01.12.06.07.06.25.27.26.77.02.49-.05.69-.07.74h0Z"/>
    <path class="st0" d="M359.6,176.73s-1.4.4-1.4,1.53-.67,3.19,1,2.93c1.66-.27,3.19-.67,2.8-3.06-.4-2.4-1.26-1.73-2.4-1.4h0ZM360.49,179.24c-.11.15-.51.27-.89.35.01-.12.02-.25.03-.35.03-.29.06-.6.07-.89.07-.06.22-.15.33-.18.15-.04.29-.09.41-.13.02.09.04.2.07.34.08.49.03.77-.03.86h0Z"/>
    <path class="st0" d="M361.47,163.22s-1.33.87-.8,2.93c.53,2.06,1.8,2.2,2.6,1.73.8-.47,1.4-.93.8-2.99-.6-2.06-1.73-2.8-2.6-1.66h0ZM362.3,164.47s0,0,0,0c0,0,0,0-.01,0,0,0,0,0,.01,0h0ZM362.8,166.4s-.12.09-.29.19c0,0,0,0-.01,0-.08-.07-.24-.31-.37-.81-.21-.8.05-1.17.18-1.29.1.19.21.46.32.82.21.71.19,1.01.18,1.09h0Z"/>
    <path class="st0" d="M361.93,170.61c.4,1.46-.07,3.33,1.73,2.46,1.8-.86,1.85-1.56,1.46-3.39-.53-2.53-3.59-.53-3.19.93h0ZM363.81,171.21s-.05.07-.21.18c-.04-.32-.09-.67-.17-1.03.05-.09.15-.19.26-.27.16.77.16,1.04.13,1.12h0Z"/>
    <path class="st0" d="M362.53,175.67c.07,1.8.13,3.39,1.66,3,1.53-.4,2.17-1.27,1.86-3.46-.4-2.86-3.59-1.33-3.53.47h0ZM364.14,177.12c-.07-.43-.09-1.07-.11-1.5,0-.02.03-.13.17-.27.11-.11.23-.17.31-.2.02.06.04.14.06.27.18,1.27,0,1.55-.43,1.71h0Z"/>
    <path class="st0" d="M407.62,184.72c-.46-.09-.92.34-1.64,1.05l-.55.56c-1.01,1.04-3.39,3.47-4.03,3.56-.16.02-.27.16-.26.32.01.16.14.28.3.28h9.73c.11,0,.22-.06.27-.16.05-.1.04-.22-.03-.31-.78-1.06-2.88-3.97-3.16-4.65-.1-.25-.28-.58-.63-.65h0ZM406.36,188.39c.28-.29.58-.59.58-.59l.2-.21c.16.24.34.51.53.79h-1.32Z"/>
    <path class="st0" d="M274.27,280.07c5.93,19.28,10.08,22.84,8.6,11.86-1.48-10.97-3.41-19.57-2.22-21.35,1.19-1.78.45-4.6-.15-7.41-.59-2.82,1.04-3.41-1.19-10.38-2.22-6.97.3-5.19.15-8.75-.15-3.56-1.33-3.41-.89-7.71.45-4.3.59-10.53.59-10.53,0,0-3.71-.15-4.15,2.37-.45,2.52-.45,31.73,1.48,42.11,1.93,10.38-3.41.3-4.15-12.46-.74-12.75-.29-27.28-.29-27.28,0,0,.59-3.41-3.56-4.3,0,0-.15,34.55,5.78,53.83h0Z"/>
    <path class="st0" d="M291.17,271.47c0-7.12-2.67-10.38-1.48-14.68,1.19-4.3,1.93-5.93-.3-9.49-2.22-3.56-1.33-3.26-.74-7.71.59-4.45-.59-10.97-.15-14.53,0,0-2.08-1.63-2.37.3-.3,1.93.59,26.1,1.92,35.74,1.33,9.64-1.19,5.63-2.08-2.52-.61-5.61-2.07-32.33-2.07-32.33,0,0-2.67-2.08-3.26-.15,0,0-.6,32.33,5.48,44.63,6.08,12.31,5.04,7.86,5.04.74h0Z"/>
    <path class="st0" d="M299.48,263.76c-1.04-3.86-1.04-4.6-.74-8.01.3-3.41-1.19-6.08-1.78-10.68-.59-4.6-1.04-15.72-.89-21.8,0,0-.89-1.04-2.52.15,0,0,.15,16.16.89,22.1.74,5.93-2.37-.45-2.52-10.68-.15-10.23,0-12.31-1.93-10.38,0,0-.6,31.29,8.15,41.08,0,0,2.37,2.08,1.33-1.78h0Z"/>
    <path class="st0" d="M298,221.2s-1.04,28.77,6.82,36.63c7.86,7.86,1.93.46,1.93-8.75,0-10.68-2.22-8.3-2.37-10.97,0,0-.44-10.83-.89-14.09-.44-3.26-2.82-4.75-2.08.44.74,5.19,2.22,18.83.29,18.98-1.93.15-1.63-8.6-1.78-13.79-.15-5.19.59-8.16-1.93-8.45h0Z"/>
    <path class="st0" d="M309.12,220.16s-1.33-1.19-.89,3.86c.44,5.04,1.48,9.94-.3,9.79-1.78-.15-1.04-6.38-1.33-8.9-.3-2.52-.74-5.63-1.78-3.71,0,0,.29,19.43,5.63,27.43,5.34,8.01,5.34,1.93,2.82-2.82-2.52-4.75-2.96-10.68-2.96-14.98,0-4.3-1.18-10.68-1.18-10.68h0Z"/>
    <path class="st0" d="M314.31,239.14c3.41,4.75,2.37.74,1.63-4.15-.74-4.89-.74-12.46-.59-16.16,0,0-.89-.89-1.93,0,0,0,1.04,8.75.15,8.6-.89-.15-1.19-3.26-1.48-6.38-.3-3.11-.59-2.22-1.48-1.63,0,0,.29,14.98,3.7,19.72h0Z"/>
    <path class="st0" d="M270.71,196.15s-.99,6.15-1.36,15.26c-.37,9.11.24,10.54,3.71,10.73,4.55.25,5.42-2.89,6.13-10.11.77-7.83.88-11.88.99-12.92.12-1.23-2.46-4.31-2.95.49-.49,4.8-.25,19.69-3.2,19.08-2.95-.62-2.21-8.12-1.6-13.29.62-5.17,2.22-11.32.25-11.82-1.97-.49-1.97,2.58-1.97,2.58h0Z"/>
    <path class="st0" d="M281.79,199.1s-3.82,22.04.12,22.2c5.97.24,5.05-6.08,5.66-12.97.62-6.89,1.23-8.86-.24-8.86s-1.85,6.65-2.09,10.22c-.25,3.57,0,8.25-1.72,8-1.72-.25-1.57-5.31-.98-9.6,1.35-9.85.74-11.08-.74-8.99h0Z"/>
    <path class="st0" d="M290.9,201.56s-.49-.98-1.23-.86c0,0-.7,7.69-.95,12.24-.25,4.55.57,6.59,3.53,6.59s2.71-5.29,2.83-9.6c.12-4.31,1.23-8.12,0-8.49-1.23-.37-1.35,2.83-1.48,5.66-.12,2.83-.37,9.11-1.6,9.11s-1.97-1.48-1.72-6.03c.25-4.55.62-8.62.62-8.62h0Z"/>
    <path class="st0" d="M376.72,219.97c1.05-.26.85-.92,1.7,0,.85.92.98,1.05,2.03.85,1.05-.2,2.35.33,2.94.98.59.65,1.5.52,1.37,1.11-.13.59-1.11,1.24,1.24,1.7,2.35.46,3.27.78,3.92-.07.65-.85,1.7-.85-.26-1.96-1.96-1.11-2.61-.98-4.18-2.55-1.57-1.57-1.37-1.57-2.42-1.96-1.05-.39-2.29-.98-3.86-.52-1.57.46-3.6.46-3.6.46,0,0-.72.52-.2,1.11.52.59.26,1.11,1.31.85h0Z"/>
    <path class="st0" d="M387.18,225.92c-.78-.06-1.24-.65-1.96-.65,0,0-1.18-.13-.52.92.65,1.05,1.24,1.18,1.96.98.72-.2,1.31-1.18.52-1.24h0Z"/>
    <path class="st0" d="M392.8,226.64s1.57-.07,2.42-.52c.85-.46,1.5.2,2.29.33.78.13,1.37.13,1.9-.78.52-.92-.13-1.5-.78-2.16-.65-.65-1.7-.59-2.48-.2-.78.39-.59.65-1.37.78-.78.13-2.94,2.29-1.96,2.55h0Z"/>
    <path class="st0" d="M402.21,227.23c.33-.07,1.31.2,1.7.13.39-.07,1.05-.07.39-1.18-.65-1.11-.39-1.37-1.63-1.18-1.24.2-1.05.65-1.05.65,0,0,.26,1.63.59,1.57h0Z"/>
    <path class="st0" d="M406.98,241.55c.2.2.78.65.98-.13.2-.79.2-2.03-1.5-1.57,0,0-.59.46-.2.85.39.39.52.65.72.85h0Z"/>
    <path class="st0" d="M311.54,206.14c-1.79,13.38,3.46,8.6,3.46,8.6.24-3.34.84-7.88.84-7.88-.48-.72-1.08-.36-1.19,1.31-.12,1.67-.24,5.61-1.55,5.26-1.31-.36-.24-7.29-.84-7.53-.6-.24-.72.24-.72.24h0Z"/>
    <path class="st0" d="M305.09,204.58s-.96,6.57-.96,8.6,1.07,3.58,3.7,3.34c2.63-.24,2.03-3.7,2.27-6.57.24-2.87.48-4.54.48-4.54-1.31-.48-1.19-.12-1.67,3.58-.48,3.7-.36,5.26-2.15,5.37-1.79.12-.83-6.93-.6-8.6.24-1.67-1.08-1.19-1.08-1.19h0Z"/>
    <path class="st0" d="M297.68,202.91s-1.08,6.45-1.08,11.47,5.73,3.58,5.97-.12c.24-3.7,1.31-10.27,1.31-10.27-1.91-1.43-2.03,2.39-2.39,5.73-.36,3.35-.48,5.38-2.27,5.02-1.79-.36-.6-9.44-.48-10.99.12-1.55-1.08-.84-1.08-.84h0Z"/>
    <path class="st0" d="M295.04,321.61c-.88,1.63-.44,2.14.57,2.27,1.01.13,1.26-2.77,1.26-2.77-.31-1.2-.94-1.13-1.82.5h0Z"/>
    <path class="st0" d="M298.94,320.79s-1.32-.19-1.07,1.82c.25,2.01,1.32,2.27,1.82,1.89.5-.38.31-2.2.31-2.64s-.5-1.7-1.07-1.07h0Z"/>
    <path class="st0" d="M301.65,320.35s-.25,1.63.5,2.71c.75,1.07,2.14,1.64,1.7-.63-.44-2.27-.94-2.89-2.2-2.08h0Z"/>
    <path class="st0" d="M280.58,316.7c-.5-.25-1.01-.44-1.38.38,0,0-.44,1.26.82,1.26s1.07-1.38.57-1.64h0Z"/>
    <path class="st0" d="M275.29,319.84v.13s-.06,1.01.63,1.01.76-.31.82-.82c.06-.5-1.07-1.07-1.45-.31h0Z"/>
    <path class="st0" d="M277.05,326.57s-.75.82.19,1.45c.94.63,1.19.44.94-.75-.25-1.2-.63-1.13-1.13-.69h0Z"/>
    <path class="st0" d="M282.97,326.39s.75.44.88.13c.13-.32-.19-.75-.19-.75,0,0-1.2-.31-.69.63h0Z"/>
    <path class="st0" d="M283.97,331.42s-.38,1.19.57,1.32c.94.13,1.07-.88.69-1.26-.38-.38-1.26-.31-1.26-.06h0Z"/>
    <path class="st0" d="M289.13,332.93s.88.19.88,0,.13-.63-.19-.88c-.32-.25-1.13.06-.69.88h0Z"/>
    <path class="st0" d="M288.12,351.42s1.82-4.28-.75-3.46c0,0-1.32.88-.94,2.96,0,0-1.32-.5-.44,1.26.88,1.76,1.51,3.4,3.21,1.76,1.7-1.64-1.07-2.52-1.07-2.52h0Z"/>
    <path class="st0" d="M294.54,354.38s-1.51,1.2-1.07,1.76c.44.57,2.39.82,2.58.06.19-.75-.82-2.39-1.51-1.82h0Z"/>
    <path class="st0" d="M301.08,355.58s-1.7.5-.88,1.38c.82.88,2.45,1.01,2.52.82.06-.19.88-2.71-1.64-2.2h0Z"/>
    <path class="st0" d="M296.05,348.03s-1.89,1.07-1.13,1.82c.75.76,2.14-.63,2.14-.63,0,0,.38-1.45-1.01-1.2h0Z"/>
    <path class="st0" d="M301.96,346.01c1.32.5,1.95-.57,1.95-.57,0,0-.94-2.39-2.14-1.51,0,0-1.13,1.57.19,2.07h0Z"/>
    <path class="st0" d="M309.89,354.57c1.32.63,2.01.06,2.01.06,0,0,.88-1.39-2.58-2.08,0,0-.76,1.38.57,2.01h0Z"/>
    <path class="st0" d="M328.82,353.82c0-1.32-1.51-.82-1.51-.82,0,0-.88.25-.94.82-.06.57,1.13.76,1.13.76,0,0,1.32.57,1.32-.75h0Z"/>
    <path class="st0" d="M328.95,361.43c-.69-.38-1.51.5-1.51.5,0,0-.5,1.7,1.19,1.7s1.57-1.13,1.57-1.13c0,0,.14-.31-1.26-1.07h0Z"/>
    <path class="st0" d="M337.69,358.85c-.06-1.01-1.07-1.57-1.82-1.45,0,0-1.64.13-1.95,1.51-.31,1.38,2.26,1.38,2.26,1.38,0,0,1.57-.44,1.51-1.45h0Z"/>
    <path class="st0" d="M335.74,364.14s.06,1.26,1.51,1.26,1.32-.94,1.32-.94c0,0-2.45-1.38-2.83-.31h0Z"/>
    <path class="st0" d="M344.48,359.23c1.64-.06,1.2-1.26,1.2-1.26,0,0-.5-.69-1.57-.63-1.07.06-1.26,0-1.32.88,0,0,.06,1.07,1.7,1.01h0Z"/>
    <path class="st0" d="M328.49,331.86c.95-.11.21-3.12.21-3.12,0,0-.69-1.8-1.22-1.69,0,0-1.48-.05-.9,2.33.58,2.38.95,2.59,1.9,2.49h0Z"/>
    <path class="st0" d="M332.09,330.54c.63.9,1.16,1,1.96.53.79-.47-1.48-3.91-1.48-3.91,0,0-2.17-1.16-1.96.05,0,0,.85,2.43,1.48,3.33h0Z"/>
    <path class="st0" d="M303.85,329.8c-.69-.05-3.12,1.69-2.22,2.11,0,0,1.27.37,2.12-.58.85-.95.79-1.48.11-1.53h0Z"/>
    <path class="st0" d="M307.71,331.65s-2.86,2.75-1.75,3.33c1.11.58,2.01-1,2.43-2.17.42-1.16-.11-1.69-.69-1.16h0Z"/>
    <path class="st0" d="M310.46,335.99c.32.85,1.11,2.06,1.9-.11.79-2.17.42-2.38-.21-1.74,0,0-2.01,1.01-1.69,1.85h0Z"/>
    <path class="st0" d="M317.49,336.94c.48-2.64.05-2.38-.63-1.75,0,0-1.8,1.48-1.32,2.17.48.69,1.48,2.22,1.96-.42h0Z"/>
    <path class="st0" d="M322.57,340.59c1.43.11,1-2.11.64-3.7-.37-1.59-.79-1.64-1.22-1.64,0,0-.85-.16-.79,1.74.05,1.9-.05,3.49,1.38,3.6h0Z"/>
    <path class="st0" d="M327.59,336.25s-1.43,3.07.48,4.29c1.9,1.22,1.22-1.01.85-2.38-.37-1.38-.9-2.75-1.32-1.9h0Z"/>
    <path class="st0" d="M333.2,335.78s-1.06-.16-.69,1.48c.37,1.64.9,3.12,2.54,2.8,1.64-.32-.85-3.65-1.85-4.28h0Z"/>
    <path class="st0" d="M341.92,339.75c.85-1.64-3.38-4.81-4.07-4.39,0,0-1.27.63,0,2.01,1.27,1.38,3.23,4.02,4.07,2.38h0Z"/>
    <path class="st0" d="M347.11,338.85c1-.63-1.59-3.12-1.59-3.12,0,0-1.9-2.06-2.33-1.53,0,0-1.06,1.16.42,2.7,1.48,1.53,2.49,2.59,3.49,1.96h0Z"/>
    <path class="st0" d="M318.39,343.39s-2.75,3.86-1.06,4.55c1.69.69,1.85-2.75,1.8-4.18-.05-1.43-.74-.37-.74-.37h0Z"/>
    <path class="st0" d="M343.88,342.5s.95,1.96,1.16,2.75c.21.79,1,2.17,1.85.9.85-1.27.32-1.69-.53-2.8-.85-1.11-3.07-1.96-2.49-.85h0Z"/>
    <path class="st0" d="M287.12,187.78s-2.76-.63-3.81,2.4c-1.05,3.03-.33,4.23.3,4.08.62-.14.96-3.03,1.73-2.74.77.29-.86,2.83.19,3.12,1.06.29,1.44-2.88,2.26-2.59.82.29-.82,2.88.38,3.22,1.2.34,2.88-6.39-1.06-7.49h0Z"/>
    <path class="st0" d="M295.03,190.5s-2.53-.48-3.38,2.31c-.85,2.79-.16,3.86.4,3.71.56-.15.78-2.78,1.48-2.55.71.24-.69,2.61.28,2.83.97.23,1.22-2.67,1.97-2.43.75.23-.65,2.65.45,2.91,1.1.27,2.41-5.9-1.2-6.78h0Z"/>
    <path class="st0" d="M279.33,191.98c1.51.51,4.25-7.37-.72-9.04,0,0-3.49-1-5.09,2.52-1.6,3.52-.78,5.02.04,4.91.81-.12,1.49-3.53,2.45-3.11.96.41-1.35,3.31-.02,3.75,1.33.44,2.1-3.31,3.12-2.89,1.02.42-1.29,3.37.22,3.88h0Z"/>
    <path class="st0" d="M302.31,193.21s-2.19-.5-3.02,1.91c-.83,2.41-.26,3.36.24,3.25.5-.11.76-2.41,1.37-2.18.61.23-.69,2.25.15,2.48.84.23,1.15-2.29,1.79-2.06.65.23-.65,2.29.31,2.56.95.27,2.29-5.08-.84-5.96h0Z"/>
    <path class="st0" d="M309.41,200.47c.78.22,1.88-4.18-.69-4.9,0,0-1.8-.41-2.49,1.57-.68,1.98-.21,2.77.2,2.67.41-.09.63-1.98,1.13-1.79.5.19-.57,1.85.13,2.04.69.19.94-1.88,1.48-1.69.53.19-.53,1.88.25,2.1h0Z"/>
    <path class="st0" d="M315.69,201.95c.81.11,1.29-4.4-1.36-4.76,0,0-1.84-.16-2.25,1.9-.4,2.06.17,2.77.56,2.62.39-.15.35-2.05.87-1.93.52.12-.31,1.91.41,2,.71.09.67-2,1.23-1.88.55.11-.27,1.94.54,2.05h0Z"/>
    <path class="st0" d="M274.95,197.68c-.44,2.58-2.49,17.69-1.16,17.96,1.33.27,1.16-6.58,1.51-10.04.36-3.47.98-8.8.98-8.8,0,0-.89-1.69-1.33.89h0Z"/>
    <path class="st0" d="M284.34,200.87c-.34,2.03-1.89,13.94-.88,14.15,1.01.21.88-5.18,1.14-7.91.27-2.73.74-6.93.74-6.93,0,0-.67-1.33-1.01.7h0Z"/>
    <path class="st0" d="M292.04,202.96c-.24,1.62-1.25,11.1-.23,11.21,1.02.11.64-4.14.78-6.31.14-2.17.42-5.51.42-5.51,0,0-.73-1.01-.98.61h0Z"/>
    <path class="st0" d="M299.93,203.97c-.27,1.23-1.4,8.44-.39,8.51,1.02.07.7-3.15.87-4.8.18-1.65.5-4.19.5-4.19,0,0-.72-.76-.98.48h0Z"/>
    <path class="st0" d="M308.22,205.36s-.67-.55-.87.43c-.2.97-.97,6.64-.06,6.63.92,0,.52-2.49.62-3.78.1-1.29.31-3.28.31-3.28h0Z"/>
    <path class="st0" d="M314.2,206.22s-.57-.47-.74.36c-.17.83-.83,5.66-.04,5.66.78,0,.44-2.12.53-3.22.09-1.1.26-2.8.26-2.8h0Z"/>
    <path class="st0" d="M436.75,200.06v4.74s2.37-.2,2.37-.79.99.3.99.3c0,0-.39-2.67-3.36-4.25h0Z"/>
    <path class="st0" d="M440.31,213.41c-.89,0-1.68.3-1.58-1.98.1-2.27.4-3.95-1.78-3.16v7.31s3.26,2.27,5.14,0c0,0,.79-4.45-.59-7.51,0,0-.3-.3-1.09.49,0,0,.79,4.84-.1,4.84h0Z"/>
    <path class="st0" d="M436.95,218.84s-.4,5.44,0,5.44,2.08-.1,1.98-3.46c-.1-3.36-1.28-2.96-1.98-1.98h0Z"/>
    <path class="st0" d="M440.9,218.05s-.69-.1-.69,2.17-.59,3.85.1,3.85,1.29-1.98,1.78-3.95c.49-1.98-.2-2.57-1.19-2.08h0Z"/>
    <path class="st0" d="M437.44,229.22c1.29.1,3.16,0,3.46-2.17.3-2.17-2.17-1.58-4.05.2,0,0-.69,1.88.59,1.98h0Z"/>
    <path class="st0" d="M436.85,231.88s-.3,6.23.1,5.93c.39-.3,2.27-4.15,2.77-5.63.49-1.48-2.37-1.38-2.87-.3h0Z"/>
    <path class="st0" d="M435.89,271.82c.85,3.63.21,3.42-.64,3.42s-1.71-5.13-2.99-1.71c-.74,1.97-1.92,4.91.43,4.7,2.35-.21,8.34.21,6.41-4.49-1.92-4.7-4.06-5.56-3.21-1.92h0Z"/>
    <path class="st0" d="M441.23,286.78s.77-.7.45-2c-.32-1.3-4.22-.46-4.22-.46l-8.76.45s-1.06,1.9-.72,2.21c0,0,12.61.21,13.25-.21h0Z"/>
    <path class="st0" d="M433.31,294.32c-.06-3.44-.71-6.36-3.44-6.23,0,0-3.7-.2-3.83,2.27-.13,2.46-.39,6.1.71,6.1s.26-4.41,1.17-4.48c.91-.06.97,1.75.97,2.98s1.62,1.75,1.49-.13c-.13-1.88-.91-3.31.06-3.05.97.26,1.23.45,1.04,2.21-.19,1.75,1.88,3.76,1.82.33h0Z"/>
    <path class="st0" d="M436.94,291.55c.84-.06.9,1.62.9,2.75s1.5,1.62,1.38-.12c-.12-1.74-.84-3.05.06-2.81.9.24,1.14.42.96,2.04-.18,1.62,1.74,3.47,1.67.3-.06-3.17-.66-5.87-3.17-5.75,0,0-3.41-.18-3.53,2.09-.12,2.27-.36,5.63.66,5.63s.24-4.07,1.08-4.13h0Z"/>
    <path class="st0" d="M347.99,331.07c1.39.08.69-6.62-.85-5.39,0,0-.77.61-.85,2.16-.08,1.54.31,3.16,1.69,3.23h0Z"/>
    <path class="st0" d="M353.38,330.45c-.39-2.54-1.54-3.7-1.62-2.77,0,0-.46,1.54-.08,3.23.39,1.69,2.08,2.08,1.69-.46h0Z"/>
    <path class="st0" d="M358.84,331.15c.38-.39-1.69-4.31-2.54-3.16,0,0-1,.46.15,2,1.15,1.54,2,1.54,2.39,1.16h0Z"/>
    <path class="st0" d="M364.39,338.93c-.15-.54-1.16-1.39-1.54-1.31,0,0-1.08.54-.15,1.46.92.92,1.85.38,1.69-.15h0Z"/>
    <path class="st0" d="M369.09,339.23c1.23-.62-1.23-2.85-2.77-2.77,0,0-.85.08,0,1.31.85,1.23,1.54,2.08,2.77,1.46h0Z"/>
    <path class="st0" d="M374.78,346.94c1.46,1.23,2.54,1.23,1.77-.31-.77-1.54-1.54-2.62-2.16-1.93,0,0-1.08,1,.38,2.23h0Z"/>
    <path class="st0" d="M381.79,345.63c.39-1-2.08-4.31-3.08-4.24,0,0-1.31.16-.15,2.23,1.15,2.08,2.85,3,3.23,2h0Z"/>
    <path class="st0" d="M385.49,344.39c-.08-1-1.85-4.7-2.08-3.54,0,0-.69,2.39.38,3.7,1.08,1.31,1.77.85,1.69-.15h0Z"/>
    <path class="st0" d="M390.49,342.93c-.23-1.46-1.46-3.7-2-3.23,0,0-1.16.54-.15,2.23,1,1.7,2.39,2.46,2.16,1h0Z"/>
    <path class="st0" d="M393.96,341.01c2.46,0-.54-1.93-.77-2.31-.23-.38-1.31-.62-1.23,0,0,0-.46,2.31,2,2.31h0Z"/>
    <path class="st0" d="M393.96,349.02c-.15-.85-.77-1.39-1.39-1.39,0,0-1.62-.15-.54,1.16,1.08,1.31,2.08,1.08,1.92.23h0Z"/>
    <path class="st0" d="M398.35,348.32c-.85-2.31-1.62-3.47-2.46-2.93,0,0-.69,1,.38,2.54,1.08,1.54,2.93,2.7,2.08.39h0Z"/>
    <path class="st0" d="M401.35,345.24c-.31-1.85-3.47-6.39-3.47-4.7,0,0-.31,1.46.77,2.93,1.08,1.46,3,3.62,2.7,1.77h0Z"/>
    <path class="st0" d="M391.42,355.18c-.46.77-1.08,2.93.31,2.31,0,0,2.31-1.31,1.92-2-.38-.69-1.77-1.08-2.23-.31h0Z"/>
    <path class="st0" d="M395.8,359.87c-1.23.31-2.39,1.46-1.69,2.23,0,0,.69,1.31,2.23,0,1.54-1.31.69-2.54-.54-2.23h0Z"/>
    <path class="st0" d="M415.52,362.19s-2.77,2.23-.46,2.39c2.31.15,2.7-.62,2-1.69-.69-1.08-.77-1.16-1.54-.69h0Z"/>
    <path class="st0" d="M430.61,364.19c-.62,0-2.85,1.23-1.93,2.23,0,0,1.85.77,2.77-.54.92-1.31-.23-1.69-.85-1.69h0Z"/>
    <path class="st0" d="M436.54,359.65c-1.08.46-1.69,1.39,0,2.16,0,0,1.16.23,1.85-.92.69-1.16-.77-1.7-1.85-1.23h0Z"/>
    <path class="st0" d="M426.68,358.65s-2.31,2.93.08,3.08c2.39.16,1.15-2,1.15-2,0,0-.85-1.69-1.23-1.08h0Z"/>
    <path class="st0" d="M426.76,353.79c-1.15-1-1.77-.46-2.31.23,0,0-1.54,2.7.31,2.62,1.85-.08,3.16-1.85,2-2.85h0Z"/>
    <path class="st0" d="M435.54,353.26c-.31-1-.62-1.39-1.46-.92,0,0-1.85,1.39-.69,1.85,1.16.46,2.46.08,2.16-.92h0Z"/>
    <path class="st0" d="M408.82,346.94s-.62,1.23.77,1.39c1.39.15,1.46-.77,1.39-1.23-.08-.46-1.46-1.08-2.16-.15h0Z"/>
    <path class="st0" d="M410.98,338.01s-.39,1.77,1.08,2.23c1.46.46,1-1,.85-1.39-.15-.38-2-1.77-1.93-.85h0Z"/>
    <path class="st0" d="M418.52,341.63s-1.31,1.39-.46,1.69c.85.31,2.62-1.23.46-1.69h0Z"/>
    <path class="st0" d="M424.07,337.85c1.23.15,2.08-1.31.31-1.62,0,0-1.54,1.46-.31,1.62h0Z"/>
    <path class="st0" d="M417.22,337.39s-1.69.15-.77,1.08c.92.92,1.31.92,1.69-.23.39-1.16.15-1.08-.92-.85h0Z"/>
    <path class="st0" d="M420.14,331.46s-.38,1.15.62,1.77c1,.62,1,.08,1.08-.61.08-.69-1.69-2.08-1.69-1.16h0Z"/>
    <path class="st0" d="M418.22,328.84s.85.31,1.54-.23c.69-.54-1.77-1.15-1.54.23h0Z"/>
    <path class="st0" d="M432.08,321.84c.77-.69-.92-1.46-1.39-.46,0,0,.62,1.15,1.39.46h0Z"/>
    <path class="st0" d="M476.76,360.04c1.8-.53,3.02-3.6-.16-2.8,0,0-1.48,1.48-1.48,1.9s-.16,1.43,1.64.9h0Z"/>
    <path class="st0" d="M465.23,355.12s-.53,1.85.21,1.75c.74-.11,2.28-.58,1.32-1.48-.95-.9-1.27-.74-1.53-.26h0Z"/>
    <path class="st0" d="M459.83,352.68s-1.59.64-1.64,1.22c-.05.58-.05,1.8,1.43.79,1.48-1,2.38-2.96.21-2.01h0Z"/>
    <path class="st0" d="M453.74,350.57s-1.9.53-1.32,1.27c.58.74,2.06,2.01,2.44.63.37-1.38-.05-2.54-1.11-1.91h0Z"/>
    <path class="st0" d="M466.97,348.08s-1.48.63-1.22,1.22c.26.58,1.11,1.22,1.85.42.74-.79.79-2.28-.63-1.64h0Z"/>
    <path class="st0" d="M471.63,354.17c1.16-.32,2.81-3.23.32-2.81,0,0-.9.32-1.32,1.27-.42.95-.16,1.85,1,1.54h0Z"/>
    <path class="st0" d="M443.94,330.13s.06,1.9,1.35,1.54c1.29-.37.74-1.54.74-1.54,0,0-2.52-1.47-2.09,0h0Z"/>
    <path class="st0" d="M443.75,338.91c-1.17-.61-1.23-.8-1.6-.31,0,0-.98,1.84.12,1.9,1.1.06,2.64-.98,1.47-1.6h0Z"/>
    <path class="st0" d="M449.04,333.38c.18-.8-3.99.98-2.33,1.72,0,0,1.35.68,2.03.31.68-.37.12-1.23.31-2.03h0Z"/>
    <path class="st0" d="M452.97,325.34c1.11-.06,1.04-1.1.68-1.72-.37-.61-2.21-.67-2.09.55,0,0,.31,1.23,1.41,1.17h0Z"/>
    <path class="st0" d="M453.46,328.78c2.39,1.41,1.6-2.46.43-1.78,0,0-1.52,1.14-.43,1.78h0Z"/>
    <path class="st0" d="M457.2,325.89c2.58,0,1.17-2.58.18-2.09,0,0-1.17.92-1.29,1.17-.12.25-.94.92,1.1.92h0Z"/>
    <path class="st0" d="M454.25,333.01c-.06.55.61.86,1.66.55,1.04-.31,1.04-1.72-.25-1.41,0,0-1.35.31-1.41.86h0Z"/>
    <path class="st0" d="M460.03,331.42c.55-.18.37-1.29.43-2.09.06-.8-.31-1.17-1.23-.49,0,0-.61.12-.55.92.06.8.8,1.84,1.35,1.66h0Z"/>
    <path class="st0" d="M481.58,318.34c.86-.8,1.54-2.21-.12-2.39,0,0-1.1,0-1.04,1.17.06,1.17.31,2.03,1.17,1.23h0Z"/>
    <path class="st0" d="M484.22,319.51s1.17.55,1.9.43c.74-.12.37-1.29-.18-1.6-.55-.31-2.7.98-1.72,1.17h0Z"/>
    <path class="st0" d="M488.52,314.72c1.9.37,2.27-1.96,1.41-1.78,0,0-3.32,1.41-1.41,1.78h0Z"/>
    <path class="st0" d="M484.59,314.17c.98-.06,1.66-.37,1.04-.86-.61-.49-1.53-1.47-1.53-.92,0,0-.49,1.84.49,1.78h0Z"/>
    <path class="st0" d="M477.88,192.21c-.15-2-.59-2.45-.74-2.23,0,0-.45,5.5.07,5.65.52.15.82-1.41.67-3.42h0Z"/>
    <path class="st0" d="M450.91,204.61c-1.11.15-1.49-1.56-1.56-2.67-.07-1.11-1.04-1.78-1.56-.37,0,0,.21,4.71,2.45,4.53,2.82-.22,3.57-1.63,2.45-5.35,0,0-.59-1.04-1.49-.3-.89.74.82,4.01-.3,4.16h0Z"/>
    <path class="st0" d="M454.39,199.52s-.46,5.09,1.76,5.19c2.8.12,3.72-1.3,3.15-5.44,0,0-.44-1.2-1.41-.51-.98.69.24,4.42-.88,4.44-1.11.02-1.24-1.87-1.15-3.08.08-1.21-.77-2.05-1.48-.6h0Z"/>
    <path class="st0" d="M461.02,198.02s-.49,5.26,1.55,5.33c2.58.08,3.45-1.4,2.99-5.66,0,0-.39-1.23-1.3-.51-.91.72.15,4.56-.87,4.59-1.03.03-1.11-1.91-1.02-3.16.1-1.25-.68-2.11-1.35-.6h0Z"/>
    <path class="st0" d="M467.26,195.11l-.07,4.53s-.37,3.05,2.9,3.12c3.27.08,2.45-4.16,2.45-5.94s-.22-4.46-1.04-4.31c-.82.15-1.04,1.11-.97,3.05.07,1.93.45,4.23-.59,4.16-1.04-.07-.97-1.49-.97-3.42s-1.49-3.34-1.71-1.19h0Z"/>
    <path class="st0" d="M476.1,190.65s-1.93-1.71-1.93.89-.74,10.03,3.56,10.25c4.31.22,3.64-5.35,3.64-8.84,0-3.49.67-7.21-.74-6.24-1.41.97-1.56,2.01-1.71,4.53-.15,2.53.52,6.61-.74,6.83-1.26.22-2.12-.23-1.93-3.94.15-2.9-.15-3.49-.15-3.49h0Z"/>
    <path class="st0" d="M485.61,193.25c-.22-4.09.07-7.06-.82-7.06,0,0-1.49-.15-1.56,1.93-.07,2.08-.89,10.25,1.86,11.52,2.75,1.26,6.54.52,6.61-2.52.07-3.05.08-9.81.08-11.59s-1.78-2.67-2.15-.15c-.37,2.53,1.11,12.33-1.19,12.18-2.3-.15-2.6-.22-2.82-4.31h0Z"/>
    <path class="st0" d="M487.32,186.86s-.82,7.28.22,7.73c1.04.45.52-4.98.6-6.61.07-1.63-.67-2.45-.82-1.11h0Z"/>
    <path class="st0" d="M476.57,301.51c1.79.21,7.36-12.41,8.73-20.51,1.37-8.1,1.89-9.99,3.47-13.67,1.58-3.68,3.79-18.51,3.79-25.98,0-7.47.42-14.3,0-15.46-.42-1.16-.84-1.58-2.1-.63-1.26.95-2.84.42-2.63,3.79.21,3.37.42,24.3-.74,27.66-1.16,3.37-2.31,8.52-3.26,11.99-.95,3.47-2.1,7.36-1.37.21.74-7.15,2.21-7.36,2.32-11.67.11-4.31,1.16-9.47.95-15.67-.21-6.21.32-14.09.32-14.09,0,0-3.16-4.21-3.26-.42-.11,3.79.21,23.35-.11,25.98-.32,2.63-1.16,6.63-.84,9.26.31,2.63-.95,3.47-1.16,7.78-.21,4.31-1.37,20.62-3.47,25.03-2.1,4.42-2.42,6.21-.63,6.42h0Z"/>
    <path class="st0" d="M473.73,281.84c1.37-.84,6.73-13.57,7.05-32.92.32-19.35,1.05-21.46.21-22.93-.84-1.47-2.63-1.89-2.31,2.1.32,4-.74,31.87-2.11,31.97-1.16.95.95-23.8.42-33.37l-.11-.21s-1.68-4.52-1.79-1.05c-.11,3.47-.21,18.75-.63,19.91-.42,1.16-2.11,7.68-1.58,12.31.53,4.63.94,16.41.31,19.46-.63,3.05-.84,5.57.53,4.73h0Z"/>
    <path class="st0" d="M472.47,238.29c.32-4.1,1.38-12.28,1.06-14.38,0,0-2.28-.74-2.47,1.78-.11,1.48-.17,7.98-.48,10.19-.32,2.21-.32,11.78-1.68,11.67-1.37-.11-.63-4.73-.21-8.84.42-4.1,1.89-8.25.84-14.14,0,0-1.91-2.1-2.02-.2-.11,1.89.23,6.87-.4,7.71-.63.84-1.16,3.58-1.05,6.63.1,3.05.63,7.99-.53,9.89s-.74,4.31-1.16,6.84c-.42,2.52-1.05,8.2-3.26,11.78-2.21,3.58,2.52,4.52,7.26-8.94,4.73-13.46,3.79-15.88,4.1-19.98h0Z"/>
    <path class="st0" d="M459.87,224.53c0,2.1-.23,15.66-1.28,17.97-1.05,2.31-1.37,7.05-2,8.31-.63,1.26-3.05,7.26-4.21,9.15-1.16,1.89-.95,4.21,1.16,2.63,2.1-1.58,8.63-9.99,9.57-17.35.95-7.36,2.11-12.1,2.42-14.09.32-2,.91-7.35.28-7.77-.63-.42-1.89-.84-1.89,1.16s-.6,8.93-1.65,12.29c-1.05,3.37-1.16,4.63-1.26.42-.1-4.21.78-12.49.25-14.49,0,0-1.39-.33-1.39,1.78h0Z"/>
    <path class="st0" d="M452.93,222.31s-.23,1.89-.23,7.78c0,7.36-3.79,14.72-5.89,19.35-2.1,4.63.74,3.37,2.42,1.89,1.68-1.47,4.84-7.05,6.42-10.31,1.58-3.26,3.07-18.51,3.07-18.51-.21-.53-1.68-.95-2.21-.1-.53.84-1.16,1.16-1.58.21-.42-.95-2-.32-2-.32h0Z"/>
    <path class="st0" d="M450.18,236.61c.95-2.52,1.28-13.78,1.28-13.78,0-1.79-.84-2.94-1.05.21-.21,3.16-1.19,1.75-1.72-.99-.53-2.73-1.52,5.29-1.1,8.03.42,2.73-2.35,10.09-3.4,14.82-1.05,4.73,5.04-5.77,5.99-8.29h0Z"/>
    <path class="st0" d="M451.45,209.61c-.43,3.59.17,5.05-1.03,4.62-1.2-.43,0-5.91-.94-5.91s-.77,2.14-.94,3.68c-.17,1.54-.43,5.82,1.8,5.82,3.77,0,2.91-7.1,2.91-8.39s-1.37-3.42-1.8.17h0Z"/>
    <path class="st0" d="M458.99,207.3c-.94,0-1.37.26-1.28,2.31.09,2.05.34,4.11-.69,3.85-1.03-.26-.68-2.57-.6-4.45.09-1.88-.68-1.8-.68-1.8,0,0-.94-.26-.94,1.71s-.43,8.56,1.62,8.73c2.05.17,3.17-1.63,3.34-5.99q.17-4.36-.77-4.36h0Z"/>
    <path class="st0" d="M463.26,219.11c3.51.34,2.82-5.91,2.91-7.45.09-1.54.43-5.13-.43-5.22-.86-.09-.77.94-.77,2.65s-.17,5.73-1.2,5.82c-1.03.09-1.28-1.97-1.03-4.88.26-2.91.26-3.34-.26-3.42,0,0-1.28,0-1.28,2.31s-1.46,9.84,2.05,10.18h0Z"/>
    <path class="st0" d="M473.19,205.85c-1.03-.26-1.71,0-1.71,2.05,0,2.05.26,8.39-.94,8.39s-1.54-1.8-1.54-5.05c0-3.25.86-5.13.26-5.31,0,0-1.71-.94-1.8,2.22-.09,3.17-.6,11.73,1.97,12.15,2.57.43,4.19-2.82,3.94-6.76-.26-3.94.86-7.45-.17-7.7h0Z"/>
    <path class="st0" d="M476.62,205.08s-1.37-.17-1.54,2.4c-.17,2.57.17,7.36.17,9.67,0,2.31.26,4.36,2.48,4.62,2.23.26,3.85-3.34,3.85-7.19,0-3.85.94-9.84-.51-10.1-1.45-.26-1.11,1.11-1.03,2.57.09,1.45,0,10.95-1.71,10.7-1.71-.26-1.97-4.28-1.45-8.47.6-4.88-.26-4.19-.26-4.19h0Z"/>
    <path class="st0" d="M478.33,206.62s-.6-.43-.6,2.05c0,2.48-.6,6.59.34,6.68.94.09.26-2.22.6-4.45.34-2.22.34-4.28-.34-4.28h0Z"/>
    <path class="st0" d="M492.19,203.28c-1.28-.17-1.8-.43-1.88,2.31-.09,2.74-.26,10.95-.26,10.95,0,0,.26,3.25-1.97,3.25s-2.23-1.37-2.22-4.37c0-3,.77-10.95-1.11-11.21,0,0-1.46-.09-1.54,2.65-.09,2.74.08,10.44.08,11.81s.6,4.62,4.28,5.14c3.68.51,4.79-4.79,4.88-10.01.09-5.22,1.03-10.36-.26-10.53h0Z"/>
    <path class="st0" d="M488.08,206.11s-.94-.34-1.03,1.97c-.09,2.31-.52,9.41.34,9.41s1-.43.94-2.4c-.17-5.73.51-8.9-.26-8.99h0Z"/>
    <path class="st0" d="M446.74,139.87l1.19-8.47c.17-1.23-.1-2.08-1.66-2.3l-1.96-.28-1.76,12.53,1.96.28c1.56.22,2.06-.52,2.23-1.76h0ZM443.83,140.54l.65-4.63,1.2.16.16-1.17-1.19-.16.67-4.78.61.09c.76.11.97.38.87,1.11l-1.22,8.64c-.1.73-.38.94-1.14.83l-.61-.09h0Z"/>
    <path class="st0" d="M346.8,202.56s-1.73.15-1.72-1.58v-1.59s3.35,0,3.35,0c1.39,0,2.51-1.04,2.51-2.32s-1.12-2.32-2.51-2.32h-3.35s-1.28,0-1.28,0h-1.63s0,1.16,0,1.16c0,0,.94-.25.94.94v4.83s-.2.84-1.08.84v.89s4.73,0,4.73,0l.05-.84h0ZM347.34,195.61c.65,0,1.18.54,1.18,1.21s-.53,1.21-1.18,1.21h-2.27c0-.91,0-1.79,0-2.42h2.27Z"/>
    <path class="st0" d="M333.66,255.38h4.83s.84.2.84,1.08h.89s0-4.73,0-4.73l-.84-.05s.15,1.72-1.58,1.72h-1.59s0-3.35,0-3.35c0-1.39-1.04-2.51-2.32-2.51s-2.32,1.12-2.32,2.51v3.35s0,1.28,0,1.28v1.63s1.16,0,1.16,0c0,0-.25-.94.94-.94h0ZM332.43,251.15c0-.65.54-1.18,1.21-1.18s1.21.53,1.21,1.18v2.27c-.91,0-1.79,0-2.42,0v-2.27h0Z"/>
    <path class="st0" d="M416.6,293.32s-.41.99-1.37.29c-.96-.69-3.91-2.84-3.91-2.84,0,0-.55-.67.03-1.46l-.72-.52-3.08,4.25h0s-1.09,1.5-1.09,1.5c-.9,1.25-.75,2.9.35,3.7.76.55,1.77.54,2.62.07.04.66.34,1.28.89,1.68,1.04.75,2.55.44,3.38-.71l1.94-2.67.29-.4.55-.75,1.06-1.46-.94-.68h0ZM408.6,296.23c-.57-.41-.69-1.23-.26-1.81l1.3-1.8c.29,0,.61.08.95.33.33.24.78.57,1.29.93l-1.5,2.06c-.43.56-1.22.69-1.78.28h0ZM413.65,297.88c-.39.54-1.15.66-1.69.26-.54-.39-.66-1.15-.27-1.69l1.29-1.77c.73.53,1.45,1.05,1.96,1.42l-1.29,1.78h0Z"/>
    <path class="st0" d="M358.72,194.68c-2.69,0-4.87,2.02-4.87,4.51s2.18,4.51,4.86,4.51,4.87-2.02,4.87-4.51-2.18-4.51-4.86-4.51h0ZM358.72,202.37c-.83,0-1.99-1.56-1.99-3.18s1.17-3.18,1.99-3.18,1.99,1.56,1.99,3.18-1.17,3.18-1.99,3.18h0Z"/>
    <path class="st0" d="M371.91,202.57s-1.72.15-1.72-1.58v-1.59s1.47,0,1.47,0l2.49,4s1.63.34,2.81-1.03l-.39-.59s-1.08.74-1.58-.15c-.37-.66-1.01-1.74-1.32-2.24,1.33-.06,2.38-1.07,2.38-2.31s-1.12-2.32-2.51-2.32h-3.35s-1.28,0-1.28,0h-1.63s0,1.16,0,1.16c0,0,.94-.25.94.94s0,4.83,0,4.83c0,0-.2.84-1.08.84v.89s4.73,0,4.73,0l.05-.84h0ZM372.46,195.62c.65,0,1.18.54,1.18,1.21s-.53,1.21-1.18,1.21h-2.27c0-.91,0-1.79,0-2.42h2.27Z"/>
    <path class="st0" d="M333.57,238.46h4.83s.84.2.84,1.08h.89s0-4.73,0-4.73l-.84-.05s.15,1.72-1.58,1.72h-1.59s0-1.47,0-1.47l4-2.49s.35-1.63-1.03-2.81l-.59.39s.74,1.08-.15,1.58c-.66.37-1.74,1.01-2.24,1.31-.06-1.33-1.07-2.38-2.31-2.38s-2.32,1.13-2.32,2.51v3.35s0,1.28,0,1.28v1.63s1.16,0,1.16,0c0,0-.25-.94.94-.94h0ZM332.34,234.22c0-.65.54-1.18,1.21-1.18s1.21.53,1.21,1.18v2.27c-.91,0-1.79,0-2.42,0v-2.27h0Z"/>
    <path class="st0" d="M378.89,313.52s1.7.33,1.23,1.99c-.11.39-.27.93-.44,1.53l-1.41-.4-1.3-4.53s-1.47-.78-2.98.23l.22.68s1.24-.41,1.48.58c.17.74.5,1.95.65,2.52-1.29-.3-2.59.37-2.93,1.57-.35,1.23.44,2.54,1.78,2.92l4.45,1.27,1.56.45.32-1.11s-.97-.02-.64-1.16c.32-1.14,1.32-4.64,1.32-4.64,0,0,.42-.75,1.27-.51l.24-.85-4.55-1.3-.28.79h0ZM375.66,318.57c.18-.64.84-1.02,1.47-.84l2.18.62c-.25.87-.49,1.72-.66,2.32l-2.18-.62c-.63-.18-.99-.85-.81-1.49h0Z"/>
    <path class="st0" d="M430.08,205.29s.25.94-.94.94h-4.83s-.84-.2-.84-1.08h-.89s0,4.73,0,4.73l.84.05s-.15-1.72,1.58-1.72h1.59s0,1.47,0,1.47l-4,2.49s-.34,1.63,1.03,2.81l.59-.39s-.74-1.08.15-1.58c.66-.37,1.74-1.01,2.24-1.32.06,1.33,1.07,2.38,2.31,2.38s2.32-1.13,2.32-2.51v-3.35s0-1.28,0-1.28v-1.63s-1.16,0-1.16,0h0ZM430.37,210.46c0,.65-.54,1.18-1.21,1.18s-1.21-.53-1.21-1.18v-2.27c.91,0,1.79,0,2.42,0v2.27h0Z"/>
    <polygon class="st0" points="395.22 202.71 394.01 202.71 397.25 197.91 401.92 203.39 406.01 199.03 408.49 202.71 406.96 202.71 406.96 203.44 412.93 203.44 412.93 202.71 412.13 202.71 408.14 196.77 408.18 196.73 408.18 194.94 406.24 194.94 406.24 196.22 402.93 199.75 399.05 194.94 394.82 194.94 394.82 196.34 395.91 196.34 395.92 196.36 391.65 202.71 390.78 202.71 390.78 203.43 395.22 203.43 395.22 202.71 395.22 202.71"/>
    <polygon class="st0" points="420.48 202.09 419.79 202.09 419.79 196.31 420.48 196.31 420.48 194.99 416.45 194.99 416.45 196.31 417.14 196.31 417.14 202.09 416.45 202.09 416.45 203.41 420.48 203.41 420.48 202.09 420.48 202.09"/>
    <polygon class="st0" points="332.89 227.2 338.66 227.2 338.66 227.89 339.99 227.89 339.99 223.86 338.66 223.86 338.66 224.55 332.89 224.55 332.89 223.86 331.56 223.86 331.56 227.89 332.89 227.89 332.89 227.2 332.89 227.2"/>
    <polygon class="st0" points="332.86 210.94 340.29 206.2 332.86 200.41 332.86 198.84 331.63 198.84 331.63 203.05 332.86 203.05 332.86 201.82 337.01 205.06 332.86 207.71 332.86 207.42 331.63 207.42 331.63 212.16 332.86 212.16 332.86 210.94 332.86 210.94"/>
    <polygon class="st0" points="332.4 221.95 334.13 221.95 334.13 221.18 333.3 221.18 333.3 218.82 338.74 218.82 338.74 220.31 339.99 220.31 339.99 214.58 338.74 214.58 338.74 216.07 333.3 216.07 333.3 213.71 334.13 213.71 334.13 212.95 333.3 212.95 333.3 212.95 331.57 212.95 331.57 221.95 332.4 221.95 332.4 221.95 332.4 221.95"/>
    <polygon class="st0" points="332.88 245.68 338.66 245.68 338.66 246.37 339.99 246.37 339.99 242.34 338.66 242.34 338.66 243.03 332.88 243.03 332.88 242.34 331.56 242.34 331.56 246.37 332.88 246.37 332.88 245.68 332.88 245.68"/>
    <path class="st0" d="M408,303.86c-.1.05-.43-.24-.58-.39l-3.55-3.77c-.14-.15-.19-.26-.15-.35.04-.08.27-.33.69-.72l-.73-.77-6.44,6.05,1.07,2.17.8-.75c-.19-.35-.02-1.25-.03-1.31-.01-.15.06-.3.22-.45l2.65-2.49,3.74,3.97c.14.15.43.49.41.56-.01.07-.98,1.01-1.43,1.42l.79.83,4.06-3.82-.78-.83c-.4.37-.65.58-.74.63h0Z"/>
    <path class="st0" d="M347.66,293.53l4.38-2.76c.17-.11.29-.13.37-.08.08.05.27.32.58.81l.89-.56-4.72-7.47-2.34.63.58.92c.38-.12,1.23.22,1.29.22.15.01.29.11.4.3l1.94,3.08-4.62,2.91c-.18.11-.57.33-.63.3-.06-.03-.8-1.16-1.13-1.67l-.97.61,2.97,4.71.97-.61c-.29-.46-.45-.74-.48-.85-.03-.1.32-.38.5-.49h0Z"/>
    <path class="st0" d="M352.3,293.22l.78.96c.41-.18.64-.28.7-.3.2-.09.32-.13.38-.14.13,0,.61.5.72.64l1.59,1.98-2.21,1.76-2.08-2.58-.96.77,2.09,2.59-1.73,1.39-1.79-2.22c-.04-.06-.08-.1-.09-.13-.04-.08-.04-.18.02-.3.02-.05.07-.13.17-.26l.41-.57-.76-.95-1.44,1.9,4.74,5.88.79-.63c-.2-.25-.32-.41-.37-.48-.11-.15-.16-.25-.15-.31,0-.06.08-.14.21-.25l4.42-3.56c.16-.12.27-.17.35-.13.08.04.28.26.6.65l.79-.64-4.93-6.13-2.25,1.03h0Z"/>
    <path class="st0" d="M338.38,276.15l5.38-1.8c.19-.06.31-.06.37,0,.06.06.17.34.33.82l.97-.32-2.49-7.46-2.47.18.39,1.17c.45-.03.7-.04.76-.04.21-.01.35-.01.41,0,.12.04.39.68.45.85l.8,2.41-2.68.88-1.05-3.14-1.16.39,1.05,3.15-2.11.7-.9-2.71c-.02-.07-.04-.12-.04-.16-.01-.09.03-.18.12-.27.03-.04.11-.1.24-.18l.59-.4-.38-1.15-2.01,1.28,2.39,7.16.96-.32c-.1-.3-.16-.49-.18-.58-.05-.17-.06-.29-.03-.34.03-.05.12-.1.28-.16h0Z"/>
    <path class="st0" d="M335.71,267.09c1.02-.1,1.75-1.05,2.21-2.85.13-.58.26-1.16.38-1.73.18-.79.34-1.31.5-1.57.11-.2.51-.34.7-.36.22-.02.4.1.55.37.15.27.25.62.29,1.05.06.64.05,1.59-.11,1.92-.22.45-.95.89-1.7,1.28l.58,1.55c.89-.46,1.69-.79,2.41-1,.22-1.46.35-2.02.22-3.35-.17-1.83-.55-2.61-1.26-3.57-.59-.82-1.26-1.19-2.01-1.12-.61.06-1.12.33-1.5.92-.31.45-.54,1.42-.77,2.33-.04.18-.13.56-.37,1.71-.18.78-.34,1.3-.49,1.57-.08.16-.18.25-.3.26-.33.03-.8-.36-.88-1.23-.06-.59-.19-2.82-.05-3.05.17-.27.87-.59,1.59-.9l-.43-1.33c-.95.39-1.74.66-2.38.82-.2,1.29-.3,1.97-.18,3.26.15,1.54.47,2.75.97,3.63.57,1,1.25,1.46,2.04,1.39h0Z"/>
    <path class="st0" d="M428.8,231.55c.43.13.2.15.26.17.22.09.36.17.42.24.06.07.1.24.1.51v3.16s-6.11-5.4-6.11-5.4c0,0-.87-1.08-.87.7s0,8.41,0,8.41l2.33.68v-1.64c-.66-.21-.42-.38-.57-.52-.12-.11-.18-.34-.18-.7v-2.6s6.13,5.27,6.13,5.27c0,0,.85.58.85-.8s0-8.45,0-8.45l-2.36-.62v1.59h0Z"/>
    <path class="st0" d="M424.1,216.52c-.02-.09-.04-.35-.04-.76h-1.46s0,3.53,0,3.53h1.46c0-.41,0-.65,0-.71v-.03s1.45.75,1.45.75v3.76c-1.2.69-1.48.81-1.48.81,0,0,.02-1.46.02-1.51h-1.46s0,5.73,0,5.73h1.46c0-.43.02-.7.05-.81.04-.11.16-.22.36-.35l6.73-4.03v-2.46s-6.88-3.67-6.88-3.67c-.13-.07-.2-.15-.23-.24h0ZM426.73,220.24l1.88.95-1.88,1.1v-2.04h0Z"/>
    <path class="st0" d="M424.01,242.25c-.02-.09-.04-.34-.04-.76h-1.46s0,3.53,0,3.53h1.46c0-.41,0-.65,0-.71v-.03s1.45.75,1.45.75v3.76c-1.2.69-1.48.81-1.48.81,0,0,.02-1.46.02-1.51h-1.46s0,5.73,0,5.73h1.46c0-.43.02-.7.05-.81.04-.11.16-.22.36-.35l6.72-4.03v-2.46s-6.88-3.67-6.88-3.67c-.13-.07-.2-.15-.23-.24h0ZM426.64,245.97l1.88.95-1.88,1.09v-2.04h0Z"/>
    <path class="st0" d="M396.38,306.81l-.78-1.24-2.99,1.88.78,1.24c.34-.22.55-.34.6-.38.01,0,.02-.01.03-.02l.14,1.63-3.18,2c-1.23-.65-1.48-.82-1.48-.82,0,0,1.24-.76,1.29-.79l-.78-1.24-4.85,3.05.78,1.24c.36-.23.6-.36.71-.39.11-.03.27.01.49.12l6.99,3.55,2.08-1.31-.56-7.78c-.01-.14.02-.25.08-.32.06-.07.27-.22.63-.44h0ZM392.28,312.54l1.73-1.09.2,2.1-1.93-1.01h0Z"/>
    <path class="st0" d="M370.98,308.24l-.85,1.19c.33.24.52.37.58.42,0,0,.02.01.03.02l-1.45.75-3.06-2.19c.14-1.38.2-1.67.2-1.67,0,0,1.17.87,1.22.9l.85-1.19-4.66-3.33-.85,1.19c.35.25.56.42.63.51.07.09.09.26.07.5l-.64,7.81,2,1.43,6.99-3.46c.13-.06.24-.08.33-.04.09.03.3.17.64.41l.85-1.19-2.87-2.06h0ZM365.94,312.02l.2-2.17,1.66,1.19-1.86.98h0Z"/>
    <path class="st0" d="M418.07,277.24c.01-.09.11-.33.28-.71l-1.34-.6-1.44,3.23,1.34.6c.17-.37.26-.59.29-.65,0-.01,0-.02.01-.03l1.02,1.27-1.53,3.44c-1.38.14-1.68.14-1.68.14,0,0,.61-1.32.64-1.37l-1.34-.6-2.33,5.23,1.34.6c.18-.39.3-.63.38-.72.08-.08.24-.14.47-.17l7.78-.95,1-2.25-4.79-6.15c-.09-.11-.12-.22-.11-.31h0ZM420.3,283.33l-2.16.24.83-1.86,1.33,1.63h0Z"/>
    <path class="st0" d="M427.98,265.08c-.05.17-.11.27-.15.3-.05.03-.46-.06-.63-.11l-5.05-1.34c-.2-.05-.31-.12-.32-.2-.01-.08.05-.37.18-.89l-1.04-.28-1.13,4.26,1.04.28c.07-.28.13-.46.15-.52.05-.14.09-.23.13-.25.04-.02.14-.01.3.03l2.13.56-.99,3.75-2.13-.56c-.18-.05-.28-.11-.29-.17-.01-.07.04-.32.15-.76l-1.04-.27-1.13,4.26,1.04.28c.08-.32.14-.52.17-.6.05-.17.1-.27.15-.3.05-.03.16-.02.33.03l5.05,1.34c.2.05.61.2.62.28.01.08-.05.37-.18.88l1.13.3,1.13-4.26-1.13-.3c-.08.28-.13.46-.15.53-.05.14-.09.22-.14.24-.05.02-.45-.07-.6-.11l-1.7-.45.99-3.75,1.7.45c.18.05.58.19.59.25.02.07-.03.32-.15.76l1.13.3,1.13-4.26-1.13-.3c-.08.32-.14.52-.17.6h0Z"/>
  </g>
  <metadata>
    <sfw xmlns="http://ns.adobe.com/SaveForWeb/1.0/">
      <slices/>
      <sliceSourceBounds x="0" y="33.07" width="500" height="433.86" bottomLeftOrigin="true"/>
      <optimizationSettings>
        <targetSettings fileFormat="PNG8Format" targetSettingsID="0">
          <PNG8Format autoReduce="false" ditherAlgorithm="diffusion" ditherPercent="100" interlaced="false" matteColor="#FFFFFF" noMatteColor="false" numColors="256" reductionAlgorithm="perceptual" rolloverMasterPalette="false" transparency="true" webShiftPercent="0">
            <colorTable isExact="false"/>
            <lockedColors/>
            <colorShiftEntries/>
          </PNG8Format>
        </targetSettings>
      </optimizationSettings>
    </sfw>
  </metadata>
</svg>