<?xml version="1.0" encoding="UTF-8"?>
<svg id="Capa_1" xmlns="http://www.w3.org/2000/svg" width="500" height="500" version="1.1" viewBox="0 0 500 500">
  <!-- Generator: Adobe Illustrator 30.1.0, SVG Export Plug-In . SVG Version: 2.1.1 Build 136)  -->
  <path d="M285.22,425.75c37.32,4.4,20.02,66.9-20.44,64.03-28.15-2-46.46-32.57-57.17-55.06-10.01-21.02-17.85-43.1-27.63-64.23-9,3.17-18.57,4.88-27.66,7.69-9.53,2.95-29.13,15.58-30.85-2.95-1.46-15.7,1.25-33,.96-48.74-4.05-4-52.99,19.82-59.35,25.05,2.02-8.27,3.59-16.86,8.34-24.11-8.96,1.31-16.79,6.5-23.66,12.04-2.72-5.7-1.13-11.99.94-17.61l10.65-17.63c-12.68,3.58-25.66,7.01-38.95,7.41l15.76-25.96c-5.52,1.05-11.6,3.18-17.18,3.69-1.34.12-3.84.71-3.21-1.36l20.39-28.3L0,258.33c25.7-18.43,52.73-35.29,77-55.64,8.33-6.99,14.51-16.74,25.98-19.52-18.56-40.98-36.67-83.63-59.23-122.57-5.22-9-19.34-27.15-20.48-36.09-.83-6.54.93-14.04,8.75-14.37,9.37-.4,17.35,16.02,21.59,22.98,28.81,47.22,53.41,97.17,79.48,145.92,1.73,1.53,12.55,1.43,15.77,1.85,14.78,1.93,34.37,8.41,47.31,9.28,2.32.16.24-3.72-.21-5.37-4.16-15.05-12.12-36.82-20.83-49.66-3.29-4.86-12.08-10.87-9.54-16.39,3.69-8.03,35.97-15.95,44.95-18.11,7.35-1.77,58.76-12.21,61.23-9.73.11,9.5-.17,19.79.93,29.21.51,4.39,3.6,11.32,3.71,13.06.14,2.3-1.8,3.76-1.81,5.5,0,.36,2.07,6.52,2.32,6.9.71,1.1,2.66,1.37,3.45,3.05.22.47,3.09,8.98,3.26,9.72,1.55,6.5-5.24,8.5-.29,10.48.77-2.95,6.62-5.55,7.05-6.16,2.26-3.12,2.49-11.22,7.34-16.56,5.22-5.74,11.83-4.84,6.95-16.24-1.35-3.15-6.26-5.38-4.68-8.35,1.99-3.74,9.16-3.07,12.56-1.85,3.6-26.19,19.82-48.55,41.82-62.53,12.11-7.7,24.69-11.42,37.65-17.08,2.15-.94,5.61-3.57,7.25-3.89,1.84-.36,1.25.24,1.41,1.39.19,1.46-.1,9.63,1.45,9.8l34.72-12.1-5.56,22.25,46.38-14.82-16.69,29.67c8.71-1.74,17.53-4,26.43-4.65,1.46-.11,1.59-.14,1.38,1.39l-19.46,29.23c10.04,2.9,18.77-7.08,28.79-4.16,4.88,1.42-1.13,3.97-2.49,5.42-16.17,17.27-30.36,36.14-45.79,53.92-19.14,22.05-38.42,20.41-64.39,24.65-7.77,1.27-15.19,6.86-25.11,7.35-5.41.27-14.62-2.84-17.65-2.39-.52.08-6.84,4.47-9.07,5.36-9.72,3.87-21.61,4.45-31.93,2.8l-2.02,1.33c-.88,3.06,7.06,17.35,8.54,21.87,1.98,6.04,2.21,13.31,3.86,18.41.67,2.08,7.71,10.34,9.61,13.58,6.29,10.68,12.09,25.29,10.43,37.9-1.07,8.11-11.29,4.39-15.81,9.24-.86,3.75,9.38,1.75,11.46,2.44,5.37,6.64-1.92,11.49-4.14,17.03,0,4.27,6.56,5.2,5.08,10.46-1.66,5.92-9.39,4.69-9.67,6.32-.6,3.78,4.73,6.09,5.43,8.45.81,2.72.33,9.04-.95,11.66-3.44,7.04-28.95,12.03-36.72,13.37-22.97,3.95-48.21,6-69.73-4.34l32.3,76.68c3.18,8.59,19.2,27.3,29.19,24.26,9.24-2.81-3.84-28.89-6.77-34.16,4.3.36,9.25-.5,13.45,0ZM24.11,253.22h18.09c18.19-23.66,45.5-43.69,74.66-51.01l-28.49,16.48c-15.02,11.45-30.76,24.53-37.36,42.86,1.74.41,2.21-.97,3.25-1.84,5.66-4.74,10.77-10.77,16.72-15.75,15.28-12.79,32.69-23.79,51.04-31.56l1.57,1.17c.59,3.77,9.28,19.61,7.96,21.85-17.59,11.54-35.92,22.34-53,34.65-5.73,4.13-11.92,8.28-16.4,13.73,10.91-.05,22-6.49,31.56-11.57,7.5-3.99,14.9-8.65,22.16-13.08,4.93-3.01,15.88-11.69,20.11-13.29,1.62-.61,1.14.35,1.5,1.09.49,1.02,2.76,6.73,2.52,7.08-25.99,18.01-54.88,34.98-87.12,38.12,6.85-22.77,29.68-32.01,45.88-46.4,5.05-4.49,12.07-10.56,12.54-17.59-11.86-.42-19.65,11.48-27.81,18.09-15.43,12.5-33.43,21.28-49.17,33.39,3.12.48,5.85-1.82,8.89-2.24,2.55-.36,5.24.05,7.8-.07,2.21,2.09-14.29,22.31-13.9,26.89,7.31-2.04,30.4-10.98,36.47-7.26,5.75,3.53-6.1,8.55-4.01,13.74,29.19.67,60.42-5.63,83.02-25.02l3.78,8.35c-8.97,6.28-18.79,12.13-29.85,13.8-15.4,2.32-30.25,2.33-45.66,6.29-6.71,1.72-15.39,3.96-20.57,8.64,7.92-1.5,23.22-6.16,23.19,6.51,24.75-11.29,52.98-12.92,76.97-25.98.14,4.61,4.47,5.9,5.79,9.53s.89,7.74,1.9,11.08c.82,2.72,3.86,6.17,4.33,9.6.42,2.99-.56,14.78-.89,18.47-.09.99-2.12,12.67-4.62,9.75.52-9.92,3.96-20.1-.01-29.69-6.57,3.08-4.03-3.78-4.7-7.8-.72-4.31-3.18-8.83-2.71-13.53-12.45,1.4-30.24,10.87-32.98,24.07-1.3,6.25-1.07,26.18-.4,32.97.24,2.4,1.79,8.97,3.27,10.64,4.67,5.28,12.34-1.38,17.14-3.2,4.54-1.72,37.1-11.87,38.86-10.61,6.01,15.06,11.92,30.24,18.47,45.08,9.08,20.58,17.78,44.61,34.92,59.69,12.62,11.1,31.01,20.79,46.81,9.66s23.09-44.42-2.72-45.85c5.83,11.64,11.77,35.38-8.82,33.39-11.73-1.13-22.57-13.27-28.1-22.91l-36.92-85.56c-.37-2.31,3.37-1.98,4.35-3.45,5.41-8.17-14.46-19.77-16.76-24.9-.18-.41-.24-1.52.45-1.37,11.42,10.84,28.88-3.83,12.47-13.52l1.91-3.65c3.41-1.29,22.7-.6,23.23-2.93l-.03-6.81-23.2.94c-.21-7.98-1.78-16.35-4.45-23.84-.97-2.72-3.8-4.59-3.02-8.02l3.22-1.49c1.3.26,2.63,9.74,7.07,6.96,3.23-2.02,6.1-19.85-6.92-18.08-10.81,1.47-6.22,17.16-6.05,24.48s-.2,13.96-.03,20.91c-17.15,2.72-7.39-12.1-13.45-20.39-1.07-.01-7.11,10.18-8.81,8.33-.5-1.96.58-2.5,1.36-3.73,2.97-4.67,7.55-8.9,7.84-15.16-4.18-6.41-12.61,8.41-14.76,6.84l-4.29-10.68c2.04-4.25,6.14-7.13,5.2-12.5-3-1.92-8.42,4.83-9.28,4.18-2.71-3.26-1.07-7.79-2.55-11.37-1.16-2.8-4.32-3.47-5.68-5.45s-1.9-6.15-3.68-8.41c-.24-2.43,8.83-5.75,6.88-9.56-2.11-4.14-14.68-3.28-15.33-7.06-.45-2.64,9.95-7.67,7.89-11.5-2.91-5.4-19.17-3.21-19.06-12.97,3.25-.39,5.83-2.09,4.24-5.65l-7.34-1c-25.07-45.26-48.34-92.05-74.65-136.83-4.82-8.21-10.13-18.68-15.55-26.19-1.74-2.42-7.59-10.96-10.11-5.64-3.36,7.08,11.16,24.52,15.11,31.25,26.58,45.23,47.41,93.87,68.85,141.69-9.77,4.71-20.43,8.79-29.09,15.51-6.31,4.9-11.73,11.61-18.34,16.9-13.13,10.52-27.84,17.9-41.36,27.24-.82.57-1.71-.16-1.21,2.07ZM323.72,116.87c1.55.17,3.1-.83,4.11-1.91,3.95-4.22,9.61-16.21,14.05-22.12,9.74-12.97,24.47-27.44,38.49-35.72,3.17-1.87,12.23-5.16,13.83-6.58.85-.76,1.56-1.28.51-2.33-2.83-4.37-15.51,3.19-19.06,5.11-17.76,9.61-32.28,22.59-42.47,40.09-1.81,3.11-11.33,21.36-9.45,23.47ZM412.48,51.19c-3.47.04-25.92,13.31-30.25,16.13-11.58,7.54-23.08,16.85-31.58,27.79-2.82,3.63-16.4,22.24-11.23,26,2.38,1.11,4.9-.19,6.57-1.91,8.6-18.19,20.95-31.46,38.32-41.45,7.43-4.28,27.99-11.85,30.98-19.13,1.18-2.88.78-7.48-2.81-7.44ZM460.06,60.3l-14.81,9.76c-34.59,10.5-61.46,35.22-87.73,58.82-3.24,3.88-2.52,11.56,3.53,11.01,5.49-.5,17.64-10.94,22.47-14.68,18.71-14.49,38.04-27.99,57.32-41.93,3.11-2.25,6.87-3.47,9.87-5.9,5.04-4.09,8.22-10.77,9.35-17.07ZM475.82,78.85c-10.26,1.19-21.74,3.13-30.52,8.89-13.68,8.96-37.85,29.33-50.18,40.72-1.61,1.49-8.58,7.65-6.48,9.75,18.73-2.7,35.28-18.8,49.17-31.06,6.73-5.94,11.42-13.21,19.77-17.34,1.99-.98,5.83-2.9,8.04-2.16-19.43,22.58-43.16,41.39-68.94,56.28-3.88,2.24-28.42,14.06-28.43,16.07,2.78,3.68,10.5,2.65,14.65,1.69,20.08-4.69,66.48-47.42,80.89-63.81,2.42-2.75,9.6-11.32,10.98-14.07.84-1.69,1.33-3.03,1.05-4.97ZM226.32,106.67v21.33l-9.28-14.84v13.91l-3.72-7.42h-1.84s0,14.84,0,14.84l-10.19-14.84,3.24,20.4-12.52-16.69,5.55,19.47-9.26-11.13,3.69,13.91-6.95-5.56c-1.37-.43,3.75,13.89,4.64,13.89,1.09-1.21,2.38-2.01,3.9-2.57,12.58-4.65,27.42-6.11,37.78-14.11,3.89-3,6.8-.55,10.94-1.11,8.11-1.11,18.7-7.84,27.56-8.19l.03-9.24-3.69,4.63-4.19-15.76-2.32,12.98-4.62-7.41-.95,10.2-8.34-12.98v15.77l-6.24-15.55-2.1-3v24.12l-11.13-25.04ZM473.05,111.31c-3.61-.3-7.26.02-10.17,2.36-5.71,4.57-12.89,14.37-19.03,19.93-11.6,10.51-24.67,19.5-37.66,28.19l-13.84,7.95c2.86,0,5.71.2,8.57-.23,19.54-2.97,50.4-27.64,63.33-42.41,1.96-2.24,11.48-13.09,8.8-15.78ZM338.52,122.44c-4.24,1.82-8.76,1.12-12.96-.45-1.14-.43-2.91-2.17-3.25-2.17-.48,0-1.81,1.93-2.98,2.42-5.8,2.44-15.81,1.85-6.26,9.45,6.51,5.18,13.41,3.19,21.06,5.84,12.75,4.42,18.47,13.76,17.4,27.1-.29,3.67-4.32,10.7,2.38,11.62,7.59,1.04,8.1-4.23,10.42-9.03.58-1.2,2.81-3.08,2.81-3.51s-3.12-4.48-3.47-7.52c-.39-3.41.6-5.83.8-9.07-.52-1.53-5.89-1.86-8.15-4.9-1.86-2.5-2.27-5.65-1.99-8.68-6.94.96-14.41-4.18-15.8-11.12ZM287.31,168.99c-13.63,2.58-10.69,24.92,2.43,23.92,15.21-1.17,12.43-26.73-2.43-23.92ZM274.81,172.53c0-1.53-1.24-2.76-2.76-2.76s-2.76,1.24-2.76,2.76,1.24,2.76,2.76,2.76,2.76-1.24,2.76-2.76ZM257.86,189.22c8.82,1.59,3.43,7.86,6.95,12.97,12.06-12.89,1.74-25.89-12.03-30.59-4.31.86,2.21,14.42,4.15,16.69-4.48.22-6.7,1.88-5.16,6.56,1.17,3.54,5.57,3.5,1.44,8.73,1.1,1.99,4.03,1.56,5.33.25,2.88-2.87-.96-8.33-3.46-10.43,1.84-1.28,3.31-1.51,2.78-4.18ZM243.49,176.24c-3.59.94,2.75,9.66,4.61,9.26,3.37-.72-1.49-10.09-4.61-9.26ZM254.14,208.69c-1.64-3.07-8.81-5.71-8.22-9.51.17-1.14,1.46-2.05,1.48-3.75.04-4.64-5.75-14.46-10.42-16.39-7.07,13.57-.89,32.73,17.17,29.65ZM226,191.39c-10.31-10.31-29.71,3.47-19.17,15.93,10.53,12.45,31.18-3.92,19.17-15.93ZM284.75,197.56c-1.18-1.88-5.91-7.38-8.35-6.09-1.32,2.52-17.39,19.42-15.76,20.93,3.31-.34,6.81-.76,10.05-1.54,1.58-.38,14.34-3.88,12.2-6.8-6.13-.58-5.95-1.51-6.48-7.42l8.34.91ZM197.55,243.02c-3.38-11.8-8.72-23.92-15.37-34.24-3.88-6.02-9.67-14.82-17.08-15.84-2.2,2.04,26.91,47.59,32.45,50.08ZM296.57,195.97c-.52-.63-2.64-1.5-3.5-.77l-1,6.91-4.53,1.04c1.92,11.63,14.62-.43,9.03-7.18ZM234.22,204.07c-1.01.84-8.41,7.54-4.64,8.34,2.36.5,7.51-4.77,6.94-6.94l-2.3-1.4ZM251.36,215.18c.95-1.21-11.17-6.32-12.05-5.56l-.94,8.34c-4.9-2.14-21.17,9.55-20.4,13.44,1.01,5.09,6.1-2.49,6.97-3.22,2.55-2.13,11.64-8.09,14.17-9.26,1.8-.83,11.86-3.24,12.26-3.75ZM213.34,220.76c11.01,6.36,11.39-6.17.57-5.28-6.46.53-8.15,12.61-8.81,17.91-.41,3.26-1.49,12.08.39,14.23,4.42,5.06,12.58-.98,8.68-6.83-1.03-1.54-3.15-1.42-3.62-3.79-.97-4.86,1.65-11.5,2.8-16.24ZM289.85,313.51c5.88-1.52,17.95,1.13,24.58,0l-1.49-6.56c-6.08.92-21.69,1.58-26.41-2.18-2.08-1.66-7.19-10.64-8.76-13.5-4.33-7.89-7.45-16.47-11.5-24.51.34-1.52,4.07-2.39,5.49-2.88,12.93-4.45,27.99-5.48,41.07-9.94,3.58-1.9,2.32-3.16,1.02-6.17-1.15-2.66-10.66-16.3-12.62-17.12-6.85-2.87-27.43,2.4-31.13.1-.84-.52.17-2.18-3.38-2.63-12.74-1.6-24.06,5.47-30.96,15.54-5.19,7.58-11.25,20.78-5.28,29.03,2.03-2.3,4.75-3.27,7.81-2.68l10.17,42.22c1.34,12.9-7.94,5.67-9.13,13.89-1.14,7.86,12.01,23.31,14.02,31.77l14.12-.72,16.16-37.8c.62-1.52,5.14-5.58,6.21-5.85ZM196.64,297.74v-16.23c0-1.53-3.34-8.04-6-6.95-3.33,2.32-.16,4.88.22,7.17.8,4.83,1.58,9.65.36,14.43l2.32,2.32,3.1-.74Z"/>
  <path d="M345.97,368.24l-8.35,16.7h-12.99v13.91h19.94l17.16-30.61h33.39l-8.34,16.24c-4.06,1.65-11.93-1.27-14.9,1.79-1.23,1.27-12.22,21.2-12.55,22.77-.26,1.24-.13,1.39.3,2.49,2.21,5.71,8.2,12.97,10.91,18.85h50.55l-14.38-25.95-12.53,22.24-9.98-17.31,16.33-30.62,6.18-9.57,43.14,77.91h-89.51l-17.62-30.61h-18.09v29.68c-2.05-1.49-3.5-4.58-4.8-6.8-1.7-2.91-12.83-22.02-12.83-23.35v-47.77h38.96Z"/>
  <path d="M89.04,292.18l-1.72,5.25,1.39,2.1c22.55-.37,40.99-13.67,57.4-27.76l2.26,1.45c.23,1.12.22,2.18-.41,3.19-.35.56-8.91,7.09-10.37,8.18-11.38,8.51-40.6,26.3-54.44,18.58-1.06-.59-3.52-2.65-3.3-3.92l9.2-7.08Z"/>
  <path d="M155.82,362.67l-3.74-1.56c1.45-8.41-5.57-34.93,0-40.69,1.7-1.76,3.05-1.66,5.04-.32,5.25,3.53,4.67,24.1,3.3,29.99-.81,3.49-5.26,7.86-4.59,12.57Z"/>
  <path d="M131.72,374.73c-2.98-4.16-3.5-45.45-.47-45.45.91.57,1.12,2.33,1.29,3.35,1.29,7.43,2.46,19.16,2.92,26.77.09,1.46.58,18.5-3.74,15.34Z"/>
  <path d="M144.68,360.82c-2.27.29-1.47,0-1.94-1.29-.74-2.02-.95-4.48-1.73-6.62-3.57-9.75-7.65-13.47-2.8-24.54l7.34,25.65-.87,6.81Z"/>
  <path d="M178.07,345.97c1.6,5.07,2.38,9.44,1.87,14.85h-4.64c1.75-4.37.37-9.14.92-13.47.16-1.27.57-2.79,1.85-1.38Z"/>
  <path d="M195.7,325.57c-4.13-4.79-2.69-12.62,4.64-12.99,1.51,6.21-6.11,6.77-4.64,12.99Z"/>
  <path d="M268.05,236.52l-12.05,2.78c7.19.66,15.01-2.73,21.81,0,5.02,4.41-9.21,15.17-13.02,16.7-1.12.45-1.84-.26-1.37-1.37.64-1.48,6.28-5.95,7.88-7.89.62-.75,2.46-1.87.91-2.8-2.29.95-5.87,1.11-7.83,2.37-1.57,1.01-2.14,3.19-3.8,4.55-5.1,4.16-16.14,9.13-21.77,4.22-2.17-4.35,2.83-6.21,3.76-8.38.51-1.19-.53-2.46-.03-3.65,1.54-3.7,18.32-9.12,22.42-9.26,1.93-.07,3.32.46,3.11,2.73Z"/>
  <metadata>
    <sfw xmlns="http://ns.adobe.com/SaveForWeb/1.0/">
      <slices/>
      <sliceSourceBounds x="0" y="10.13" width="500" height="479.74" bottomLeftOrigin="true"/>
      <optimizationSettings>
        <targetSettings fileFormat="PNG8Format" targetSettingsID="0">
          <PNG8Format autoReduce="false" ditherAlgorithm="diffusion" ditherPercent="100" interlaced="false" matteColor="#FFFFFF" noMatteColor="false" numColors="256" reductionAlgorithm="perceptual" rolloverMasterPalette="false" transparency="true" webShiftPercent="0">
            <colorTable isExact="false"/>
            <lockedColors/>
            <colorShiftEntries/>
          </PNG8Format>
        </targetSettings>
      </optimizationSettings>
    </sfw>
  </metadata>
</svg>