<?xml version="1.0" encoding="UTF-8"?>
<svg id="Capa_1" xmlns="http://www.w3.org/2000/svg" width="500" height="500" version="1.1" viewBox="0 0 500 500">
  <!-- Generator: Adobe Illustrator 30.1.0, SVG Export Plug-In . SVG Version: 2.1.1 Build 136)  -->
  <defs>
    <style>
      .st0 {
        stroke: #1b3e90;
        stroke-linecap: round;
        stroke-linejoin: round;
        stroke-width: .22px;
      }

      .st0, .st1 {
        fill-rule: evenodd;
      }
    </style>
  </defs>
  <path class="st1" d="M118.8,329.22s.85-3.92-.6-4.92c-1.46-1-3.37-1.36-5.12-2.26-1.76-.9-1.36-1.71-2.81-1.61-1.46.1-5.27.65-6.98-.6-1.71-1.26-1.81-2.31-2.86-2.31s-11.35.8-11.95.25-.85-.95-1.26-.9c-.4.05-2.76.55-3.16,2.36s-.45,3.37-.45,3.37c0,0-3.72-2.36-3.72-3.67s1.26-4.32,3.82-4.32,3.16-.15,3.72-1.05c.55-.9,3.32-1.05,4.62-1.05s1.81-.2.5-1.46c-1.31-1.26-2.01-2.46-4.02-2.01s-4.52,1.46-4.52,1.46c0,0-1.11-2.06-.35-3.52.75-1.46,5.68-1.31,7.58-1,1.91.3,7.23,1,7.68,1.61.45.6,1.26.3,1.81.1.55-.2,2.76-.15,4.97.5,2.21.65,3.16,1,5.73.95,2.56-.05,2.51.1,2.51.1l1.56,5.58s3.92,2.51,5.37,4.17c1.46,1.66,2.91,4.12,1.81,6.73-1.11,2.61-3.87,3.52-3.87,3.52h0Z"/>
  <path class="st1" d="M130.69,281.1c.78,1.93,2.1,2.71,2.3,3.71.21,1,.04,2.08-1.07,2.31-1.11.23-1.68-.7-1.89-1.7-.21-1,.7-2.23.66-4.31h0Z"/>
  <path class="st1" d="M127.92,285.88c.78,1.93,2.1,2.71,2.3,3.71.21,1,.04,2.08-1.07,2.31-1.11.23-1.68-.7-1.89-1.7-.21-1,.7-2.23.66-4.31h0Z"/>
  <path class="st1" d="M125.09,290.38c.78,1.93,2.1,2.71,2.3,3.71.21,1,.04,2.08-1.07,2.31s-1.68-.7-1.89-1.7c-.21-1,.7-2.23.66-4.31h0Z"/>
  <path class="st1" d="M121.74,295.17c.78,1.93,2.1,2.71,2.3,3.71.21,1,.04,2.08-1.07,2.31s-1.68-.7-1.89-1.7c-.21-1,.7-2.23.66-4.31h0Z"/>
  <path class="st1" d="M119.08,299.47c.78,1.93,2.1,2.71,2.3,3.71.21,1,.04,2.08-1.07,2.31-1.11.23-1.68-.7-1.89-1.7-.21-1,.7-2.23.66-4.31h0Z"/>
  <path class="st1" d="M116.65,303.83c.78,1.93,2.1,2.71,2.3,3.71.21,1,.04,2.08-1.07,2.31-1.11.23-1.68-.7-1.89-1.7-.21-1,.7-2.23.66-4.31h0Z"/>
  <path class="st1" d="M116.37,303.69c-1.87.92-2.55,2.29-3.53,2.56-.99.28-2.07.19-2.38-.9-.31-1.09.58-1.73,1.56-2.01.99-.28,2.28.54,4.35.35h0Z"/>
  <path class="st1" d="M118.86,299.42c-1.87.92-2.55,2.29-3.53,2.56-.99.28-2.07.19-2.38-.9-.31-1.09.58-1.73,1.56-2.01.99-.28,2.28.54,4.35.35h0Z"/>
  <path class="st1" d="M121.51,294.93c-1.87.92-2.55,2.29-3.53,2.56-.99.28-2.07.19-2.38-.9-.31-1.09.58-1.73,1.56-2.01.99-.28,2.28.54,4.35.35h0Z"/>
  <path class="st1" d="M124.88,290c-1.87.92-2.55,2.29-3.53,2.56-.99.28-2.07.19-2.38-.9-.31-1.09.58-1.73,1.56-2.01.99-.28,2.28.54,4.35.35h0Z"/>
  <path class="st1" d="M127.64,285.57c-1.87.92-2.55,2.29-3.53,2.56-.99.28-2.07.19-2.38-.9-.31-1.09.58-1.73,1.56-2.01.99-.28,2.28.54,4.35.35h0Z"/>
  <path class="st1" d="M130.51,280.81c-1.87.92-2.55,2.29-3.53,2.56-.99.28-2.07.19-2.38-.9-.31-1.09.58-1.73,1.56-2.01.99-.28,2.28.54,4.35.35h0Z"/>
  <path class="st1" d="M384.47,329.22s-.85-3.92.6-4.92c1.46-1,3.37-1.36,5.12-2.26,1.76-.9,1.36-1.71,2.81-1.61,1.46.1,5.27.65,6.98-.6,1.71-1.26,1.81-2.31,2.86-2.31s11.35.8,11.95.25c.6-.55.85-.95,1.26-.9.4.05,2.76.55,3.16,2.36s.45,3.37.45,3.37c0,0,3.72-2.36,3.72-3.67s-1.26-4.32-3.82-4.32-3.16-.15-3.72-1.05c-.55-.9-3.31-1.05-4.62-1.05s-1.81-.2-.5-1.46c1.31-1.26,2.01-2.46,4.02-2.01,2.01.45,4.52,1.46,4.52,1.46,0,0,1.1-2.06.35-3.52-.75-1.46-5.68-1.31-7.58-1-1.91.3-7.23,1-7.68,1.61-.45.6-1.26.3-1.81.1-.55-.2-2.76-.15-4.97.5-2.21.65-3.16,1-5.73.95-2.56-.05-2.51.1-2.51.1l-1.56,5.58s-3.92,2.51-5.37,4.17c-1.46,1.66-2.91,4.12-1.81,6.73,1.1,2.61,3.87,3.52,3.87,3.52h0Z"/>
  <path class="st1" d="M372.59,281.1c-.78,1.93-2.1,2.71-2.3,3.71-.21,1-.04,2.08,1.07,2.31,1.11.23,1.68-.7,1.89-1.7.21-1-.7-2.23-.66-4.31h0Z"/>
  <path class="st1" d="M375.35,285.88c-.78,1.93-2.1,2.71-2.3,3.71-.21,1-.04,2.08,1.07,2.31,1.11.23,1.68-.7,1.89-1.7.21-1-.7-2.23-.66-4.31h0Z"/>
  <path class="st1" d="M378.18,290.38c-.78,1.93-2.1,2.71-2.3,3.71-.21,1-.04,2.08,1.07,2.31,1.11.23,1.68-.7,1.89-1.7.21-1-.7-2.23-.66-4.31h0Z"/>
  <path class="st1" d="M381.54,295.17c-.78,1.93-2.1,2.71-2.3,3.71-.21,1-.04,2.08,1.07,2.31,1.11.23,1.69-.7,1.89-1.7.21-1-.7-2.23-.66-4.31h0Z"/>
  <path class="st1" d="M384.19,299.47c-.78,1.93-2.1,2.71-2.3,3.71-.21,1-.04,2.08,1.07,2.31,1.11.23,1.68-.7,1.89-1.7.21-1-.7-2.23-.66-4.31h0Z"/>
  <path class="st1" d="M386.62,303.83c-.78,1.93-2.1,2.71-2.3,3.71-.21,1-.04,2.08,1.07,2.31,1.11.23,1.68-.7,1.89-1.7.21-1-.7-2.23-.66-4.31h0Z"/>
  <path class="st1" d="M386.9,303.69c1.87.92,2.55,2.29,3.53,2.56.99.28,2.07.19,2.38-.9.31-1.09-.58-1.73-1.56-2.01-.99-.28-2.28.54-4.35.35h0Z"/>
  <path class="st1" d="M384.41,299.42c1.87.92,2.55,2.29,3.53,2.56.99.28,2.07.19,2.38-.9.31-1.09-.58-1.73-1.56-2.01-.99-.28-2.28.54-4.35.35h0Z"/>
  <path class="st1" d="M381.76,294.93c1.87.92,2.55,2.29,3.53,2.56.99.28,2.07.19,2.38-.9.31-1.09-.58-1.73-1.56-2.01-.99-.28-2.28.54-4.35.35h0Z"/>
  <path class="st1" d="M378.4,290c1.87.92,2.55,2.29,3.53,2.56.99.28,2.07.19,2.38-.9.31-1.09-.58-1.73-1.56-2.01-.99-.28-2.28.54-4.35.35h0Z"/>
  <path class="st1" d="M375.64,285.57c1.87.92,2.55,2.29,3.53,2.56.99.28,2.07.19,2.38-.9.31-1.09-.58-1.73-1.56-2.01-.99-.28-2.28.54-4.35.35h0Z"/>
  <path class="st1" d="M372.76,280.81c1.87.92,2.55,2.29,3.53,2.56.99.28,2.07.19,2.38-.9.31-1.09-.58-1.73-1.56-2.01-.99-.28-2.28.54-4.35.35h0Z"/>
  <path class="st1" d="M64.72,358.32s4.83-12.08,1.54-36.02c-3.29-23.94-3.37-28.78-3.77-31.19-.4-2.42-.6-8.06.81-10.48l1.41-2.42-.2-16.33s-3.75-1.04-3.25-3.39c.5-2.35,3-5.08,3.2-5.21l.2-.13-.86-10.93s-4.33-2.01-3.02-4.93c1.31-2.92,3.22-5.74,3.22-5.74l-.3-16.11s-3.62,0-5.64,1.21c-2.01,1.21-2.42,1.61-2.42,1.61,0,0-3.62-2.82-5.44-3.02-1.81-.2-4.13,4.03-4.13,4.03,0,0-.73,46.44,5.12,76.28,5.85,29.84,8.87,33.67,9.88,43.35,1.01,9.68,1.21,17.14,2.02,18.15.81,1.01,1.63,1.28,1.63,1.28h0Z"/>
  <path class="st1" d="M72.89,321.79s4.27-6.41,4.83-15.98c.55-9.57.95-33.87.95-33.87l2.45-2.45-.08-20.02s-2.7-1.26-2.37-2.88c.34-1.62,1.55-2.55,1.55-2.55l-.04-13.76s-2.23-1.73-2.27-2.49c-.04-.76-.08-1.2.15-1.56.23-.36,2.23-2.07,2.23-2.07,0,0-.04-15.65-.79-16.24-.75-.59-3.1-.92-4.53.25-1.43,1.17-1.68,2.68-1.68,2.68,0,0-2.1-.67-3.77,0s-3.44,2.6-3.44,5.37.1,25.99,1.94,42.45c1.85,16.46,4.87,30.07,4.87,40.99s-.84,20.66-.84,20.66c0,0,.03,1.24.45,1.36.42.13.39.1.39.1h0Z"/>
  <path class="st1" d="M93.23,299.93s-3.57-17.59-2.47-28.44c1.1-10.86,3.16-14.43,3.16-17.04s-.14-12.09-.14-12.09c0,0-1.7-.76-1.67-2.2.03-1.44.31-1.34.72-1.72.41-.38,1.03-.63,1.03-.63l-.07-19.18s-2.46-1.46-2.31-2.43c.16-.97.75-1.47,1.47-2.06.72-.59,2.5-2.78,2.5-2.78l-.09-9.94s-1.03-2.13-2.41-1.63c-1.38.5-3.47,2.38-3.53,2.91-.06.53-.13.47-.13.47,0,0-.66-1.09-1.81-.81-1.16.28-4.5,2.47-4.57,5.04-.06,2.56-.09,32.83.54,46.04.63,13.21.88,24.66,3.65,33.72,2.77,9.06,4.3,11.35,4.61,11.79.31.44,1.51,1.01,1.51,1.01h0Z"/>
  <path class="st1" d="M99.91,281s4.76-11.77,4.4-19.51c-.36-7.73-1.31-17.84-1.31-17.84,0,0,3.81-1.19,3.92-3.33.12-2.14-.71-7.14-1.43-7.97-.71-.83-.85-1.97-.7-2.81.16-.84,2.63-2.85,2.91-3.47.28-.63.26-14.42.26-14.42,0,0-1.14-.77-.77-1.96.38-1.19,2.5-5.25,2.6-6.6.09-1.34-.26-8.96-.26-8.96,0,0-1.38-1-4.65.75-3.26,1.76-7.16,2.95-7.22,4.9-.06,1.95-1.77,24.07-1.39,36.52.38,12.45,2.64,22.77,2.89,30.19.25,7.42.73,14.5.73,14.5h0Z"/>
  <path class="st1" d="M116.29,252.66s.65-10.95.37-11.2c-.28-.25-1.09-.94-.88-1.59.22-.66,1.5-2.53,1.5-2.53,0,0,1.4-16.5,2.53-24.68,1.13-8.18,3.65-23.15,3.65-23.15,0,0-3.15-.88-4.15,0-1.01.88-.84,1.6-1.42,1.76-.58.16-1.75-.36-2.44-.81-.69-.44-2.55.02-2.8,1.94-.25,1.93-2.14,27.67-1.38,36.85.75,9.18,1.38,17.11,2.26,20.51.88,3.4,1.09,3.32,1.64,3.26.55-.06,1.13-.36,1.13-.36h0Z"/>
  <path class="st1" d="M129.03,237.6s1.23-19.54,3.19-30.44c1.95-10.9,3.91-21.9,3.91-21.9,0,0-3.19-.93-4.32.41-1.13,1.34-1.75,1.85-1.75,1.85,0,0-.82-1.54-2.26-1.23-1.44.31-4.01,6.07-4.01,18.1s1.85,30.13,2.98,31.77c1.13,1.65,2.26,1.44,2.26,1.44h0Z"/>
  <path class="st1" d="M139.21,229.07s3.39-20.05,5.66-27.76c2.26-7.71,5.55-16.25,6.17-18.2.62-1.95-.21-3.19-2.16-2.88s-4.94,2.67-4.94,2.67c0,0-1.54-1.44-3.08-.93-1.54.51-3.39,7.3-3.8,20.67-.41,13.37-.1,23.03.21,24.68.31,1.65,1.95,1.75,1.95,1.75h0Z"/>
  <path class="st1" d="M68.81,161.08s-7.52,35.84-8.21,40.35c-.69,4.51-5.55,9.25-7.52,9.02-1.97-.23-5.56-2.41-5.62-5.31-.06-2.9,1.11-30.3,3.19-35.04,2.08-4.74,3.24-9.13,5.2-9.25,1.97-.12,5.67.69,3.82,2.77-1.85,2.08-5.9,7.52-7.52,18.5-1.62,10.98-2.89,20-.35,20.7,2.54.69,5.09,0,5.78-5.32.69-5.32,5.09-24.86,6.59-30.06,1.5-5.2,1.73-6.71,2.89-6.59,1.16.12,1.73.23,1.73.23h0Z"/>
  <path class="st1" d="M54.94,201.2s2.31-19.31,5.78-28.33c3.47-9.02,3.93-9.83,3.93-9.83,0,0-1.27-1.5-2.77-.23-1.5,1.27-6.47,11.68-7.4,17-.92,5.32-1.97,19.42-1.5,20.46.46,1.04,1.97.92,1.97.92h0Z"/>
  <path class="st1" d="M83.96,161.08s-6.59,25.44-6.82,28.67c-.23,3.24-2.31,11.33-4.86,12.02-2.54.69-4.86.46-5.9-4.74-1.04-5.2-.23-17.69.81-22.89,1.04-5.2,4.16-13.18,4.16-13.18,0,0,3.93-.81,3.47.46-.46,1.27-3.82,10.87-4.74,18.15-.92,7.28-1.04,13.53-.58,15.03.46,1.5,2.08,3.24,3.24.23,1.16-3.01,3.35-15.03,4.39-20.46,1.04-5.43,2.89-13.76,3.82-13.87.92-.12,3.01.58,3.01.58h0Z"/>
  <path class="st1" d="M72.39,191.49s1.16-10.29,2.77-15.72c1.62-5.43,3.58-14.45,3.58-14.45,0,0-1.62-1.27-2.31-.23-.69,1.04-3.58,9.71-4.62,15.49-1.04,5.78-2.08,13.87-1.27,14.45.81.58,1.85.46,1.85.46h0Z"/>
  <path class="st1" d="M97.6,160.32s-5.92,22.83-6.12,25.74c-.21,2.91-2.08,10.17-4.36,10.79-2.28.62-4.36.42-5.29-4.25-.93-4.67-.21-15.88.73-20.55.93-4.67,3.74-11.83,3.74-11.83,0,0,3.53-.73,3.11.42-.42,1.14-3.42,9.75-4.25,16.29-.83,6.54-.93,12.14-.52,13.49.41,1.35,1.87,2.91,2.91.21,1.04-2.7,3.01-13.49,3.94-18.37.93-4.88,2.59-12.35,3.42-12.45.83-.1,2.7.52,2.7.52h0Z"/>
  <path class="st1" d="M110.43,160.1s-5.49,18.19-5.69,20.5c-.19,2.31-1.93,8.1-4.05,8.6-2.12.5-4.05.33-4.92-3.39-.87-3.72-.19-12.65.67-16.37.87-3.72,3.47-9.42,3.47-9.42,0,0,3.27-.58,2.89.33-.39.91-3.18,7.77-3.95,12.98-.77,5.21-.87,9.67-.48,10.75.38,1.07,1.73,2.31,2.7.16.96-2.15,2.8-10.74,3.66-14.63.87-3.89,2.41-9.84,3.18-9.92.77-.08,2.5.41,2.5.41h0Z"/>
  <path class="st1" d="M125.46,160.05s-6.08,16.07-6.3,18.11c-.21,2.04-2.13,7.16-4.48,7.59-2.35.44-4.48.29-5.44-2.99-.96-3.29-.21-11.17.75-14.46.96-3.29,3.84-8.32,3.84-8.32,0,0,3.63-.51,3.2.29-.43.8-3.52,6.86-4.38,11.47-.85,4.6-.96,8.54-.53,9.49.42.95,1.92,2.05,2.99.14,1.07-1.9,3.1-9.49,4.06-12.92.96-3.43,2.67-8.69,3.52-8.76.85-.07,2.77.36,2.77.36h0Z"/>
  <path class="st1" d="M138.18,159.16s-4.28,12.39-4.31,13.96c-.04,1.58-1.38,5.52-3.48,5.86-2.1.34-4.04.23-5.17-2.31-1.13-2.53-1.06-8.61-.44-11.15.62-2.53,2.84-6.42,2.84-6.42,0,0,3.25-.39,2.93.23-.33.62-2.66,5.29-3.08,8.84-.42,3.55-.21,6.59.25,7.32.46.73,1.9,1.58,2.72.11.82-1.46,2.07-7.32,2.68-9.97.61-2.65,1.75-6.7,2.52-6.76.77-.06,2.55.28,2.55.28h0Z"/>
  <path class="st1" d="M147.18,172.6c-.46,1.82-1.64,4.26-3.27,4.52-2.1.34-4.04.23-5.17-2.31-1.13-2.53-1.06-8.61-.44-11.15.38-1.55,1.36-3.61,2.06-4.97l1.69,3.45c-.49,1.37-.91,2.85-1.07,4.17-.42,3.55-.21,6.59.25,7.32.46.73,1.9,1.58,2.72.11.42-.75.96-2.68,1.47-4.72l1.75,3.58h0Z"/>
  <path class="st1" d="M87.22,186.76s.98-8.75,2.36-13.37c1.37-4.62,3.05-12.29,3.05-12.29,0,0-1.38-1.08-1.97-.2-.59.88-3.05,8.26-3.93,13.17-.89,4.92-1.77,11.8-1.08,12.29.69.49,1.57.39,1.57.39h0Z"/>
  <path class="st1" d="M101.58,180.24s.75-6.65,1.79-10.16c1.04-3.51,2.31-9.34,2.31-9.34,0,0-1.05-.82-1.49-.15-.45.67-2.32,6.28-2.99,10.01-.67,3.74-1.34,8.97-.82,9.34.52.37,1.2.3,1.2.3h0Z"/>
  <path class="st1" d="M115.61,177.61s.8-5.85,1.78-8.94c.99-3.09,2.22-8.21,2.22-8.21,0,0-.89-.72-1.3-.13-.41.59-2.16,5.52-2.82,8.81-.67,3.29-1.37,7.89-.92,8.21.45.33,1.04.26,1.04.26h0Z"/>
  <path class="st1" d="M130.27,174.02s.57-5.04,1.36-7.7c.79-2.66,1.75-7.07,1.75-7.07,0,0-.79-.62-1.13-.11-.34.51-1.75,4.75-2.26,7.59-.51,2.83-1.02,6.79-.62,7.08.4.28.91.23.91.23h0Z"/>
  <path class="st1" d="M58.24,150.92s-.64-3.47.94-5.8,8.48-9.23,12.69-8.97c4.22.26,7.27,1.17,7.08,4.41-.19,3.24-2.75,8.06-3.43,8.59-.68.53-3.16.68-3.43.19-.26-.49.34-1.43-.49-1.47-.83-.04-2.22.6-2.79,1.24-.57.64-3.47.15-3.96.19-.49.04.26-.6-.3-1.09-.57-.49-2.37.75-3.32,2-.94,1.24-1.39.9-2,.9s-1.02-.19-1.02-.19h0Z"/>
  <path class="st1" d="M79.04,151.03s-.5-2.75.73-4.6c1.23-1.85,6.59-7.32,9.86-7.11,3.28.21,5.65.93,5.5,3.5-.15,2.57-2.14,6.4-2.66,6.81-.53.42-2.46.54-2.66.15-.21-.39.26-1.13-.38-1.16-.64-.03-1.73.48-2.16.98-.44.51-2.69.12-3.07.15-.38.03.2-.48-.24-.87-.44-.39-1.84.6-2.57,1.58-.73.99-1.08.72-1.55.72s-.79-.15-.79-.15h0Z"/>
  <path class="st1" d="M93.99,152.59s-.46-2.22.68-3.72c1.14-1.5,6.1-5.92,9.14-5.75,3.04.17,5.23.75,5.1,2.82-.14,2.08-1.98,5.17-2.47,5.51-.49.34-2.28.43-2.47.12-.19-.31.24-.92-.35-.94-.59-.02-1.6.39-2,.8-.41.41-2.49.1-2.85.12-.35.02.19-.39-.22-.7-.41-.32-1.71.48-2.38,1.28-.68.8-1,.58-1.44.58s-.73-.12-.73-.12h0Z"/>
  <path class="st1" d="M108.05,153.85s-.4-2.03.59-3.4c.99-1.37,5.3-5.4,7.94-5.25,2.64.15,4.55.68,4.43,2.58-.12,1.9-1.72,4.72-2.15,5.03-.42.31-1.98.4-2.14.11-.17-.29.21-.84-.31-.86-.52-.02-1.39.35-1.74.73-.35.38-2.17.09-2.47.11-.31.02.16-.35-.19-.64-.35-.29-1.48.44-2.07,1.17-.59.73-.87.53-1.25.53s-.64-.11-.64-.11h0Z"/>
  <path class="st1" d="M121.9,153.92s-.33-1.58.49-2.64c.81-1.06,4.36-4.2,6.53-4.08,2.17.12,3.74.53,3.65,2.01-.1,1.47-1.42,3.67-1.77,3.91-.35.24-1.63.31-1.76.08-.14-.22.17-.65-.25-.67-.43-.02-1.14.28-1.43.57-.29.29-1.78.07-2.04.09-.25.02.13-.27-.16-.5-.29-.22-1.22.34-1.7.91-.48.57-.72.41-1.03.41s-.53-.08-.53-.08h0Z"/>
  <path class="st1" d="M133.41,144.5c-3.12.64-7.97.98-14.34-.52-11.83-2.79-23.43-9.82-30.35-11.38-6.92-1.56-26.22-1.9-26.22-1.9,0,0,10.15-14.4,20.2-19.64,10.04-5.24,31.13-11.27,37.16-6.81,6.03,4.46,6.03,8.93,4.35,11.72-1.67,2.79-5.91,4.69-5.91,4.69,0,0,1,8.03,8.03,13.39,7.03,5.36,6.7,5.02,9.15,6.47s3.35,1.79,3.35,1.79l-1.02.68h-5.14l.74,1.52h0ZM114.27,134.16s-8.7-5.58-11.61-9.15c-2.9-3.57-5.02-8.93-3.24-10.27,1.79-1.34,6.14-1.9,6.36.56.22,2.45-.11,3.35-1,4.46-.89,1.12-.33,2.23-.33,2.23,0,0,.78,2.34,4.24,5.91,3.46,3.57,5.58,6.25,5.58,6.25h0Z"/>
  <path class="st1" d="M213.43,95.74s2.15-2.88,1.17-5.22c-.98-2.33-6.07-8.1-6.07-8.1,0,0-1.17-3.37-1.78-4.11-.61-.74-2.88-1.29-3.68-.31-.8.98-1.78,2.03-1.78,2.03,0,0-6.2.18-9.39,1.41-3.19,1.23-7.92,4.54-8.71,5.65-.8,1.1-2.39,2.76-2.39,2.76,0,0-6.87,1.9-9.02,2.58-2.15.67-3.5,1.29-2.27,3.74,1.23,2.45,3.07,4.79,2.82,5.4-.25.61-.98.92-.8,1.66.18.74,9.79,1.9,12.68,1.9s3.7-.12,3.7-.12c0,0,3.7,3.12,4.51,7.05.81,3.93,0,12.26-1.62,14.8-1.62,2.54-1.85,2.77-1.85,2.77,0,0,4.62,3.12,7.05,1.39,2.43-1.73,3.93-11.56,3.12-16.07-.81-4.51-1.97-10.52-1.97-10.52,0,0,6.36-.92,10.06-3.58,3.7-2.66,6.23-5.1,6.23-5.1h0ZM189.63,86.27c1.98,0,3.58,1.6,3.58,3.58s-1.6,3.58-3.58,3.58-3.58-1.6-3.58-3.58,1.6-3.58,3.58-3.58h0Z"/>
  <path class="st1" d="M160.68,103.44s2.31-2.73,4.45-3.77c2.14-1.04,4.22-.75,4.22-.75,0,0-1.33-4.53-2.02-4.88-.69-.35-3.99.35-5.78,2.9-1.79,2.55-1.79,3.08-1.79,4.24s.93,2.26.93,2.26h0Z"/>
  <path class="st1" d="M162,202.83c-.82-.33-3.15-.97-4.56,1.78-1.73,3.38-4.42,13.79-3.56,20.55.87,6.76,2.51,18.21,3.12,23.76.61,5.55.78,12.83-1.3,16.56-2.08,3.73-5.38,10.23-11.53,10.32-6.16.09-9.45-.35-11.62-1.82-2.17-1.47-1.99-1.82-1.99-1.82,0,0,1.91,0,3.12-1.65,1.21-1.65,2.25-5.81-.35-8.15s-7.89-2.25-9.63-.69c-1.73,1.56-3.3,7.89-.09,11.45,3.21,3.56,11.1,7.8,18.47,6.5,7.37-1.3,14.05-3.47,17.26-12.4,3.21-8.93,3.64-17.95,3.82-20.98.17-3.03.26-22.03.87-28.7.38-4.16.52-7.51.39-9.78l-2.41-4.92h0Z"/>
  <path class="st1" d="M339.41,202.77c.92-.34,3.08-.77,4.42,1.84,1.73,3.38,4.42,13.79,3.56,20.55-.87,6.76-2.51,18.21-3.12,23.76-.61,5.55-.78,12.83,1.3,16.56,2.08,3.73,5.38,10.23,11.53,10.32,6.16.09,9.45-.35,11.62-1.82,2.17-1.47,1.99-1.82,1.99-1.82,0,0-1.91,0-3.12-1.65-1.21-1.65-2.25-5.81.35-8.15,2.6-2.34,7.89-2.25,9.63-.69,1.73,1.56,3.3,7.89.09,11.45-3.21,3.56-11.1,7.8-18.47,6.5-7.37-1.3-14.05-3.47-17.26-12.4-3.21-8.93-3.64-17.95-3.82-20.98-.17-3.03-.26-22.03-.87-28.7-.36-4-.51-7.25-.4-9.51l2.57-5.25h0Z"/>
  <path class="st1" d="M434.4,337.65s0-20.16,3.43-39.77c3.43-19.61,15.59-50.54,17.01-64.18,1.42-13.64.87-30.13.87-30.13l-6.82,7.1-6.25-4.26s-.57,16.48-3.98,30.4c-3.41,13.92-9.09,27.55-9.09,29.54s.57,6.53-.57,14.77c-1.14,8.24-3.41,13.92-1.7,29.54,1.7,15.62,3.43,25.76,4.68,26.59,1.25.83,2.43.4,2.43.4h0Z"/>
  <path class="st1" d="M409.32,301.6s10.72-18.63,14.06-29.53c3.34-10.9,8.26-26.37,11.08-37.97,2.81-11.6,6.15-27.6,6.15-27.6,0,0-.53-2.11-2.99-1.76-2.46.35-4.75,1.76-4.75,1.76,0,0-2.81-2.64-4.04-3.16-1.23-.53-2.64.88-3.34,5.98-.7,5.1-5.45,26.37-7.56,32.87-2.11,6.5-4.92,14.42-4.92,14.42,0,0,2.46,4.04,2.11,8.79-.35,4.75-8.09,32.87-8.09,34.63s2.29,1.58,2.29,1.58h0Z"/>
  <path class="st1" d="M392.62,284.37s9.49-11.08,11.6-16.35c2.11-5.27,9.67-32.35,11.95-38.85,2.29-6.5,7.38-25.49,7.38-25.49,0,0-.7-2.29-3.16-2.11-2.46.18-5.27,2.29-5.27,2.29l-4.39-3.34s-1.93,1.23-2.46,2.99c-.53,1.76-3.52,17.93-4.57,21.97-1.05,4.04-4.22,11.25-4.22,11.25,0,0,.18,17.58-1.23,23.91-1.41,6.33-5.63,23.73-5.63,23.73h0Z"/>
  <path class="st1" d="M379.94,258.02s8.32-8.67,10.58-12.66c2.25-3.99,8.15-19.77,9.54-27.92,1.39-8.15,3.3-18.21,3.3-18.21,0,0-5.9,1.04-6.59,2.08-.69,1.04-.87,1.04-.87,1.04l-5.03-4.34s-2.08-.35-2.25,4.86c-.17,5.2-1.73,12.66-2.6,16.3-.87,3.64-1.56,6.07-1.56,6.07,0,0,1.56,5.2,1.04,9.89s-1.56,12.83-3.64,16.13c-2.08,3.3-3.12,5.9-3.12,5.9l1.21.87h0Z"/>
  <path class="st1" d="M359.3,252.99s19.42-26.71,22.55-39.02c3.12-12.31,3.47-16.82,3.47-16.82,0,0-2.6.35-4.34,1.39-1.73,1.04-3.12,1.73-3.12,1.73,0,0-2.95-1.21-3.64-2.08-.69-.87-2.77-1.04-3.12,4.51-.35,5.55-2.77,20.98-4.86,27.23-2.08,6.24-6.76,18.9-7.11,20.46-.35,1.56.17,2.6.17,2.6h0Z"/>
  <path class="st1" d="M348.55,239.81s12.83-10.75,16.3-26.19c3.47-15.43,3.47-16.65,3.47-16.65l-3.82.35s-1.73-1.04-3.12-1.21c-1.39-.17-1.91-.35-2.6,3.99-.69,4.34-1.39,12.31-2.6,16.13-1.21,3.82-6.42,20.29-7.28,21.5-.87,1.21-.35,2.08-.35,2.08h0Z"/>
  <path class="st1" d="M450.35,172.09s1.99-.43,2.25,2.34c.26,2.77,1.47,10.84,1.13,14.13-.35,3.3-1.65,12.14-4.42,13.44-2.77,1.3-2.95,1.47-4.34.17-1.39-1.3-4.16-13.01-4.51-16.65-.35-3.64-1.04-10.32.17-11.36,1.21-1.04,2.6-1.3,3.12-.26.52,1.04.43,5.81.95,9.28.52,3.47,1.21,7.37,1.99,7.11.78-.26,1.73-.43,1.65-4.42-.09-3.99-1.21-11.71-.09-12.66,1.13-.95,2.17-1.3,2.08-1.13h0Z"/>
  <path class="st1" d="M430.4,200.27s4.68-5.12,5.81-10.06c1.13-4.94,3.38-15.7,2.86-16.22s-1.39-.69-2.25.61c-.87,1.3-2.6,8.15-3.47,9.19-.87,1.04-2.6,2.43-3.47.95-.87-1.47-.61-8.67-.69-9.8-.09-1.13-1.73-2.34-2.77-1.56-1.04.78-.78,5.38-.95,8.32-.17,2.95-.26,8.15,1.56,13.01,1.82,4.86,3.38,5.55,3.38,5.55h0Z"/>
  <path class="st1" d="M395.09,193.42s4.98-4,6.18-7.87c1.2-3.87,3.6-12.28,3.04-12.69-.55-.41-1.48-.54-2.4.48-.92,1.02-2.77,6.38-3.69,7.19-.92.81-2.77,1.9-3.69.75-.92-1.15-.65-6.79-.74-7.67-.09-.88-1.84-1.83-2.95-1.22-1.11.61-.83,4.21-1.01,6.52-.18,2.31-.28,6.38,1.66,10.18,1.94,3.8,3.6,4.34,3.6,4.34h0Z"/>
  <path class="st1" d="M412.52,197.15s4.98-4.51,6.18-8.87c1.2-4.36,3.6-13.84,3.04-14.3-.55-.46-1.48-.61-2.4.54-.92,1.15-2.77,7.19-3.69,8.1-.92.92-2.77,2.14-3.69.84-.92-1.3-.65-7.65-.74-8.64-.09-.99-1.84-2.06-2.95-1.38-1.11.69-.83,4.74-1.01,7.34-.18,2.6-.28,7.19,1.66,11.47,1.94,4.28,3.6,4.89,3.6,4.89h0Z"/>
  <path class="st1" d="M378.09,191.69s4.98-3.74,6.18-7.36c1.2-3.62,3.6-11.48,3.04-11.86-.55-.38-1.48-.51-2.4.44-.92.95-2.77,5.96-3.69,6.72-.92.76-2.77,1.78-3.69.7-.92-1.08-.65-6.34-.74-7.17-.09-.82-1.84-1.71-2.95-1.14-1.11.57-.83,3.93-1.01,6.09-.18,2.16-.28,5.96,1.66,9.51,1.94,3.55,3.6,4.06,3.6,4.06h0Z"/>
  <path class="st1" d="M362.83,190.13s4.98-3.42,6.18-6.71c1.2-3.3,3.6-10.48,3.04-10.82-.55-.35-1.48-.46-2.4.41-.92.87-2.77,5.44-3.69,6.14-.92.69-2.77,1.62-3.69.64-.92-.98-.65-5.79-.74-6.54-.09-.75-1.84-1.56-2.95-1.04-1.11.52-.83,3.59-1.01,5.56-.18,1.97-.28,5.44,1.66,8.68,1.94,3.24,3.6,3.7,3.6,3.7h0Z"/>
  <path class="st1" d="M347.05,188.83s4.98-3.27,6.18-6.43c1.2-3.16,3.6-10.03,3.04-10.36-.43-.26-1.08-.38-1.78-.04l-8.09,16.5c.41.25.65.32.65.32h0Z"/>
  <path class="st1" d="M437.92,167.86s4.48-.59,5.38-3.09c.91-2.51.8-9.28.37-11.99-.43-2.72-2.61-10.45-3.04-10.71-.43-.27-2.03-.27-1.92.96.11,1.23,1.65,7.04,1.71,9.86.05,2.83.05,6.4-.75,6.98-.8.59-3.04,1.12-3.68.43-.64-.69-2.4-4.74-2.56-7.36-.16-2.61-.05-9.17-.05-9.17,0,0-2.19-.85-2.83.43-.64,1.28-.64,8.16-.48,10.61.16,2.45.75,7.62,1.49,9.38.75,1.76,2.4,3.68,3.68,3.73s2.67-.05,2.67-.05h0Z"/>
  <path class="st1" d="M420.81,167.22s3.41-.32,4.64-2.13c1.23-1.81,2.72-6.08,2.88-9.06.16-2.99.48-11.03.48-11.03,0,0-1.44-1.44-2.77-.59-1.33.85-.8,2.29-1.01,4-.21,1.71-.75,6.4-1.28,8.74-.53,2.35-.8,3.52-1.87,3.68-1.07.16-1.97.91-2.83-2.45-.85-3.36-.96-7.2-.96-8.48s-.43-1.97-1.23-1.92c-.8.05-1.44.32-1.39,2.29.05,1.97.05,11.83.64,13.81.59,1.97,1.55,2.77,2.24,2.99.69.21,2.45.16,2.45.16h0Z"/>
  <path class="st1" d="M407.51,166.36s3.88-1.1,4.45-3.54c.58-2.44,2.02-11.43,1.79-12.3-.23-.87-1.74-1.39-2.31-.58-.58.81-1.56,6.33-1.91,7.66-.35,1.33-.87,3.31-2.08,3.42-1.21.12-1.79-.06-2.31-.64-.52-.58-.4-7.02-.4-7.02,0,0-2.26-.81-2.43.12-.17.93,0,10.27.29,10.85.29.58,1.62,1.97,2.72,1.97s2.2.06,2.2.06h0Z"/>
  <path class="st1" d="M395.3,167.17s3.7-.12,4.4-2.96c.69-2.84,1.1-9.34.81-9.52-.29-.17-2.02-.35-2.31.99-.29,1.34-1.1,5.57-1.5,6.04-.4.46-1.68.87-2.37,0-.69-.87-.64-5.28-.64-5.28,0,0-2.31-1.51-2.72.35-.4,1.86-.35,7.08-.12,8.01s1.68,2.32,2.43,2.32,2.02.06,2.02.06h0Z"/>
  <path class="st1" d="M382.69,167.17s3.3-.52,4.51-2.61c1.21-2.09,2.02-6.21,1.97-6.79-.06-.58-2.2-1.16-2.43-.41-.23.75-1.16,3.95-1.74,4.53s-2.2,1.51-2.95.35c-.75-1.16-.87-3.66-.87-4.35s-2.08-1.1-2.6-.29-.46,5.05,0,6.33c.46,1.28,1.45,3.19,2.26,3.25.81.06,1.85,0,1.85,0h0Z"/>
  <path class="st1" d="M371.01,168.8s2.78-1.16,3.53-2.5c.75-1.34,1.79-5.51,1.79-6.5v-1.34s-2.49-.35-2.66.52c-.17.87-.98,3.89-1.79,4.3-.81.41-1.85.52-2.49-.23-.64-.75-1.21-4.3-1.21-4.3,0,0-2.08-.7-2.26.17-.17.87.35,4.41.98,6.21.64,1.8,2.37,3.37,2.37,3.37l1.74.29h0Z"/>
  <path class="st1" d="M368.72,147.55s17.57-1.04,25.9-7.05c8.32-6.01,13.53-11.56,16.65-13.99,3.12-2.43,4.39-3.82,4.39-3.82,0,0-3.93-5.67-5.55-4.86-1.62.81-10.64,10.87-14.91,14.22-4.28,3.35-15.49,11.33-18.96,12.6-3.47,1.27-7.52,2.89-7.52,2.89h0Z"/>
  <path class="st1" d="M375.43,136.91s10.52-11.91,11.33-17.23c.81-5.32-.23-8.09-1.27-9.25-1.04-1.16-3.93-.58-4.16.46-.23,1.04.23,3.35,1.73,3.35s.92,0,.92,0c0,0-.58,3.93-1.39,7.52-.81,3.58-4.39,11.21-5.43,12.49-1.04,1.27-1.85,2.66-1.73,2.66h0Z"/>
  <path class="st1" d="M365.6,151.83s18.96,1.39,28.56-2.31c9.6-3.7,26.71-12.26,32.6-13.87,5.9-1.62,6.24-1.62,6.24-1.62,0,0-2.77-12.95-10.29-19.19-7.52-6.24-18.04-13.18-27.29-14.45-9.25-1.27-19.77-1.27-25.32,4.86-5.55,6.13-3.93,8.9-3.47,11.1.46,2.2,6.13,7.28,6.13,7.28,0,0,.35,4.39-2.31,7.75-2.66,3.35-9.36,11.33-9.36,11.33l-.18.29h7.8l-3.89,7.94.78.9h0Z"/>
  <path class="st1" d="M143.49,338.95s5.63.11,7.52-3.42c1.89-3.52,5.58-13.41,5.68-14.52.11-1.1-.63-3.52-2.05-3.42-1.42.11-2.95,2.42-4.05,5.42-1.1,3-2.58,9.1-4,9.41-1.42.32-4.16.53-4.47-1.47-.32-2,.53-5.21,1.79-7.89s2.16-5.15,2.47-5.42c.32-.26-1.26-2.47-3.16-2.1-1.89.37-3.58,2.89-4.73,5.52-1.16,2.63-3.26,8.94-2.26,11.78,1,2.84,2,4.68,3.58,5.31,1.58.63,3.68.79,3.68.79h0Z"/>
  <path class="st1" d="M163.92,341.4s5.75-.77,7.53-4.38c1.78-3.6,5.12-13.46,5.18-14.51.06-1.05-.79-3.21-2.24-2.89-1.44.32-2.9,2.73-3.9,5.72-1,2.99-2.24,8.94-3.68,9.46s-4.22,1.14-4.62-.69c-.41-1.83.32-4.97,1.49-7.69,1.17-2.71,1.98-5.18,2.29-5.47.31-.3-1.39-2.13-3.31-1.49-1.92.64-3.53,3.27-4.6,5.92-1.07,2.65-2.95,8.9-1.81,11.42,1.14,2.51,2.24,4.09,3.87,4.43,1.64.35,3.79.17,3.79.17h0Z"/>
  <path class="st1" d="M186.58,337.37s4.94-1.18,5.95-4.25c1.01-3.07,2.42-11.33,2.31-12.19-.11-.85-1.2-2.51-2.42-2.11-1.22.4-2.13,2.48-2.55,4.98-.42,2.5-.59,7.42-1.78,7.97s-3.54,1.33-4.18-.11c-.64-1.43-.49-4.03.12-6.33.61-2.3.94-4.36,1.17-4.63.23-.27-1.56-1.58-3.14-.88s-2.6,2.98-3.13,5.21c-.53,2.24-1.22,7.45.17,9.36,1.39,1.91,2.6,3.07,4.1,3.19,1.49.12,3.36-.23,3.36-.23h0Z"/>
  <path class="st1" d="M203.67,334.49s4.54-1.12,5.34-4.02c.8-2.9,1.75-10.71,1.61-11.51-.14-.81-1.22-2.37-2.34-1.99-1.12.38-1.87,2.34-2.15,4.7-.28,2.36-.22,7.01-1.3,7.53-1.08.52-3.23,1.25-3.89-.1-.66-1.35-.63-3.81-.16-5.98.47-2.17.69-4.12.89-4.37.2-.25-1.51-1.49-2.96-.83-1.44.66-2.28,2.81-2.68,4.92-.4,2.11-.8,7.04.57,8.85,1.38,1.81,2.55,2.9,3.95,3.02,1.39.11,3.11-.22,3.11-.22h0Z"/>
  <path class="st1" d="M216.89,314.46c.36.15.71.29,1.07.44-.36-.14-.72-.29-1.07-.44h0Z"/>
  <path class="st1" d="M220.55,330.34s1.73-.42,3.25-1.41l-1.91-3.9c-.05.05-.11.09-.17.12-1.08.51-3.23,1.23-3.89-.1-.66-1.33-.63-3.74-.16-5.87.15-.7.28-1.37.39-1.97l-1.39-2.85c-.28-.12-.56-.24-.84-.37-.08.02-.15.05-.22.08-1.44.65-2.28,2.76-2.68,4.83-.4,2.07-.8,6.9.57,8.68,1.38,1.77,2.55,2.85,3.95,2.96,1.39.11,3.11-.21,3.11-.21h0Z"/>
  <path class="st1" d="M145.87,309.18c1.44,0,2.6,1.16,2.6,2.6s-1.16,2.6-2.6,2.6-2.6-1.16-2.6-2.6,1.16-2.6,2.6-2.6h0Z"/>
  <path class="st1" d="M155.81,311.5c1.44,0,2.6,1.16,2.6,2.6s-1.16,2.6-2.6,2.6-2.6-1.16-2.6-2.6,1.16-2.6,2.6-2.6h0Z"/>
  <path class="st1" d="M164.25,312.77c1.44,0,2.6,1.16,2.6,2.6s-1.16,2.6-2.6,2.6-2.6-1.16-2.6-2.6,1.16-2.6,2.6-2.6h0Z"/>
  <path class="st1" d="M175.81,313c1.44,0,2.6,1.16,2.6,2.6s-1.16,2.6-2.6,2.6-2.6-1.16-2.6-2.6,1.16-2.6,2.6-2.6h0Z"/>
  <path class="st1" d="M184.83,312.19c1.44,0,2.6,1.16,2.6,2.6s-1.16,2.6-2.6,2.6-2.6-1.16-2.6-2.6,1.16-2.6,2.6-2.6h0Z"/>
  <path class="st1" d="M193.5,311.15c1.44,0,2.6,1.16,2.6,2.6s-1.16,2.6-2.6,2.6-2.6-1.16-2.6-2.6,1.16-2.6,2.6-2.6h0Z"/>
  <path class="st1" d="M200.56,309.76c1.44,0,2.6,1.16,2.6,2.6s-1.16,2.6-2.6,2.6-2.6-1.16-2.6-2.6,1.16-2.6,2.6-2.6h0Z"/>
  <path class="st1" d="M210.69,311.57c-.48.52-1.16.85-1.92.85-1.44,0-2.6-1.16-2.6-2.6,0-.24.03-.48.1-.7,1.45.86,2.92,1.68,4.43,2.45h0Z"/>
  <path class="st1" d="M146.04,306.18s19.08,6.47,32.6,5.32c13.53-1.16,20.12-2.43,22.08-4.16.41-.36.78-.7,1.09-1.02-1.86-1.26-3.67-2.59-5.42-3.99-.61.04-1.22.09-1.8.15-3.12.35-13.99,3.58-19.31,3.35-5.32-.23-20.58-1.5-23.82-2.43-3.24-.92-4.97-1.16-5.55.23s.12,2.54.12,2.54h0Z"/>
  <path class="st1" d="M159.57,277.37s6.59,2.64,9.6,1.21c1.83-.87,3.66-2.24,4.82-3.17-.53-.99-1.04-1.99-1.54-3.01-.16,0-.33,0-.51.01-2.43.22-11.1-.44-12.26.55-1.16.99-1.04,2.2-1.04,2.75s.92,1.65.92,1.65h0ZM174.88,274.67c.19-.17.3-.27.3-.27,0,0-.33-.91-1.21-1.5.3.59.6,1.18.91,1.76h0Z"/>
  <path class="st1" d="M163.27,269.13s5.01,1.76,8.29,1.38c-.85-1.88-1.64-3.79-2.36-5.74-2.67-.02-5.22.05-5.81.49-1.16.87-1.04,1.93-1.04,2.42s.92,1.45.92,1.45h0Z"/>
  <path class="st1" d="M155.61,281.9s-4.57,8.09-5.4,10.45c-.83,2.35-.97,7.82,1.59,8.65,2.56.83,3.11.76,4.08.28.97-.48,1.59-.97,1.59-.97,0,0,0,1.31.62,1.73.62.42,2.7,1.18,4.43.76,1.73-.42,2.01-1.25,2.01-1.25l.14-.55s.62,1.66,1.8,2.01c1.18.35,4.01.55,4.5.07.48-.48,1.25-1.31,1.25-1.31,0,0,.35,1.73,1.11,2.01.76.28,4.01.69,4.98-.07.97-.76,1.38-1.59,1.38-1.59,0,0,.35.9,1.87,1.25,1.52.35,3.53.28,3.94-.28.42-.55.55-1.25.55-1.25,0,0,.28.97,1.25.97s4.15.21,4.77-.83c.62-1.04.9-1.94.9-1.94l.09-.5c-1.09-.96-2.16-1.95-3.2-2.97.04,1.53.03,2.92-.15,3.12-.42.48-1.04.9-2.01.42-.97-.48-.97-1.52-1.04-2.42-.04-.48.02-2.51.09-4.3-.55-.6-1.1-1.21-1.64-1.82-.01.6,0,1.31.03,2.11.14,3.25-.07,6.02-.21,6.43-.14.42-1.66.9-2.35.48-.69-.42-.83-2.01-.69-4.36.08-1.41.54-4.89.89-7.47-.82-1.02-1.62-2.07-2.39-3.13-.4,3.65-1.03,9.6-.99,10.73.07,1.66-.48,4.5-1.8,4.7s-3.46-.42-3.6-1.87,2.14-9.2,2.49-10.86.42-2.91.42-2.91c0,0-2.14-1.25-2.42-.21-.28,1.04-1.94,9.27-2.42,10.93-.48,1.66-1.38,4.01-2.14,4.43s-2.84.62-3.25-.55c-.42-1.18.28-3.74,1.11-6.02.83-2.28,2.77-8.44,2.77-8.44,0,0-.97-1.8-2.01-1.25-1.04.55-3.25,8.3-4.15,10.1-.9,1.8-1.45,4.57-2.42,4.64s-3.04.14-2.84-1.25c.21-1.38,3.46-7.68,3.46-7.68,0,0,1.94-4.84,2.21-5.53.28-.69.48-1.45.48-1.45,0,0-1.66-1.45-2.35-.69-.69.76-3.94,9.41-4.77,11.21-.83,1.8-1.52,3.18-2.21,3.8-.69.62-3.11.48-3.25-.55s-.35-2.49.76-4.43c1.11-1.94,4.43-8.79,4.43-8.79,0,0-.42-.9-.83-1.31-.42-.42-1.45-.48-1.45-.48h0Z"/>
  <path class="st1" d="M351.16,340.96s-5.22.09-6.61-3.05c-1.39-3.15-3.77-11.98-3.75-12.96.02-.99.95-3.15,2.26-3.05,1.3.09,2.48,2.16,3.19,4.84.71,2.68,1.44,8.13,2.72,8.41,1.28.28,3.79.47,4.29-1.32.5-1.78.05-4.65-.84-7.05-.89-2.4-1.46-4.6-1.73-4.84-.26-.23,1.43-2.21,3.14-1.88,1.72.33,3.01,2.58,3.81,4.93.8,2.35,2.09,7.99.87,10.52-1.22,2.54-2.34,4.18-3.87,4.74-1.53.56-3.49.7-3.49.7h0Z"/>
  <path class="st1" d="M328.47,342.27s-4.89.09-5.37-2.91c-.48-3-.41-11.42-.13-12.36.27-.94,1.7-3,2.89-2.91,1.19.09,1.75,2.06,1.72,4.61-.03,2.55-.76,7.75.36,8.01,1.12.27,3.41.45,4.34-1.25.93-1.7,1.26-4.43,1.05-6.72-.21-2.28-.17-4.39-.35-4.61-.19-.22,1.9-2.1,3.42-1.79,1.51.31,2.14,2.46,2.27,4.7.13,2.24-.12,7.61-1.92,10.03-1.8,2.42-3.26,3.98-4.83,4.52-1.57.54-3.44.67-3.44.67h0Z"/>
  <path class="st1" d="M311.35,339.09s4.65,1.37,6.1-1.24c1.45-2.61,3.2-7.79,3.71-9.34.51-1.54.68-2.91.68-2.91,0,0-2.52-2.18-3.12-.9s-2.56,6.85-3.59,7.67c-1.02.81-2.39,1.24-3.07.47-.68-.77-.77-1.07-.38-2.06.38-.99,2.09-6.17,2.22-6.47.13-.3-1.71-1.67-2.69-1.37-.98.3-3.03,4.37-3.8,5.82-.77,1.46-1.66,4.93-1.07,6.42s2.18,2.83,3.07,3.26c.9.43,1.92.64,1.92.64h0Z"/>
  <path class="st1" d="M295.81,334.42s4.18,1.63,4.95.73c.77-.9,5.51-8.35,5.89-9.81.38-1.46-.04-3.26-1.15-3.3-1.11-.04-2.26.3-2.9,1.37-.64,1.07-2.56,5.4-3.2,5.61s-1.75-.21-1.37-1.11c.38-.9,1.79-3.94,2.22-4.75.43-.81.77-1.5.77-1.5,0,0-1.71-2.01-2.9-1.2-1.2.81-2.39,4.07-3.33,5.78-.94,1.71-2.18,2.91-1.37,4.97.81,2.06,1.32,2.36,1.71,2.57.38.21.64.64.68.64h0Z"/>
  <path class="st1" d="M291.83,318.45s1.87.48,1.08,2.66c-.78,2.18-3.34,7.27-4.95,8.05-1.61.78-5.38,1.39-6.99.52-.76-.41-1.82-1.29-2.73-2.11l1.48-3.02c.26.21.53.37.77.43,1.13.3,3.12,2.26,5.68-.48,2.56-2.74,4.03-5.7,4.03-5.7l1.61-.35h0Z"/>
  <path class="st1" d="M335.92,317.13s8.03-.23,10.59-.58l2.56-.35s1.4-2.21-.23-3.84c-1.63-1.63-4.54-4.3-8.38-2.91-3.84,1.4-5.58,3.02-5.93,4.42-.35,1.4.12,3.26.12,3.26h1.28Z"/>
  <path class="st1" d="M317.27,316.52h14.23s.23-3.25-1.45-4.88c-1.68-1.63-6.31-2.03-6.31-2.03,0,0-4.34.52-5.44,2.15-1.1,1.63-1.04,4.76-1.04,4.76h0Z"/>
  <path class="st1" d="M298.35,314.78h14.46s-.17-3.6-2.26-5.28c-2.08-1.68-5.84-2.26-7.93-1.92-2.08.35-4.17,3.08-4.4,4.06-.23.99.12,3.13.12,3.13h0Z"/>
  <path class="st1" d="M306.87,303.87s15.03,2.43,24.97,1.73c9.94-.69,16.65-3.24,16.65-3.24,0,0-.92-3.47-1.85-4.51-.92-1.04-2.54-2.54-2.54-2.54,0,0-10.87,2.66-14.68,2.08-3.82-.58-10.06-.35-12.26-.69-2.2-.35-3.58-.35-3.58-.35l-6.71,7.52h0Z"/>
  <path class="st1" d="M339.93,287.68c1.85,0,3.35,1.5,3.35,3.35s-1.5,3.35-3.35,3.35-3.35-1.5-3.35-3.35,1.5-3.35,3.35-3.35h0Z"/>
  <path class="st1" d="M328.95,287.56c1.85,0,3.35,1.5,3.35,3.35s-1.5,3.35-3.35,3.35-3.35-1.5-3.35-3.35,1.5-3.35,3.35-3.35h0Z"/>
  <path class="st1" d="M319.35,286.75c1.85,0,3.35,1.5,3.35,3.35s-1.5,3.35-3.35,3.35c-1.72,0-3.13-1.29-3.33-2.96,1.03-1.22,2.02-2.46,2.99-3.73.11-.01.23-.02.34-.02h0Z"/>
  <path class="st1" d="M332.42,268.37c1.85,0,3.35,1.5,3.35,3.35s-1.5,3.35-3.35,3.35-3.35-1.5-3.35-3.35,1.5-3.35,3.35-3.35h0Z"/>
  <path class="st1" d="M325.71,283.63s3.58,2.2,6.82,1.97c3.24-.23,5.43-.58,6.59-1.73,1.16-1.16,1.39-4.62,1.39-4.62l-13.18-.23s-2.08,2.31-2.08,3.01.46,1.62.46,1.62h0Z"/>
  <path class="st1" d="M340.35,263.41s-.93,2.15-.23,4.06c.69,1.92,2.49,3.13,3.3,3.77.81.64,1.27,1.86.87,2.61-.4.75-.75,2.44-2.14,2.44s-5.09-2.38-5.32-5.86c-.23-3.48.35-5.34,1.16-6.09.81-.75,2.37-.93,2.37-.93h0Z"/>
  <path class="st1" d="M176.03,142.66s6.88-6.46,8.96-7.96c2.08-1.51,2.85-1.89,2.85-1.89,0,0,.67.64.26,1.61-.42.96-1.92,3.92-3.3,5.36-1.38,1.45-2.37,2.86-2.69,3.12-.05.04-.18.07-.36.09h-4.87l-.85-.32h0Z"/>
  <path class="st1" d="M192.48,132.95s-2.28,1.87-4.7,5.6c-2.04,3.14-2.9,4.18-3.12,4.43h5.7c.38-.41.9-1.27,1.5-3.05,1.31-3.87,1.25-4.77,1.18-5.33-.07-.55-.55-1.66-.55-1.66h0Z"/>
  <path class="st1" d="M201.41,132.95s-2.91,2.28-4.91,5.19-2.14,2.7-1.94,3.94c.07.41.31.7.61.9h5.45c.5-.71,1.58-2.39,1.68-3.88.14-1.94.21-4.29-.07-5.05-.28-.76-.83-1.11-.83-1.11h0Z"/>
  <path class="st1" d="M206.87,132.81s-2.42,1.73-2.84,4.08c-.42,2.35-.55,5.4.42,6.02.04.03.08.05.12.07h4.53c.66-.68,1-2.24.95-3.39-.07-1.52-.55-4.7-1.25-5.6-.69-.9-1.94-1.18-1.94-1.18h0Z"/>
  <path class="st1" d="M214.27,132.12s-1.59,1.73-1.66,3.94.07,4.91,1.11,6.02c.4.43.79.72,1.13.9h4.04c.19-.73.51-2.29.16-3.67-.48-1.87-2.01-5.33-2.77-6.16-.76-.83-2.01-1.04-2.01-1.04h0Z"/>
  <path class="st1" d="M220.64,132.05s-.42,1.66.07,3.8c.48,2.14.9,4.7,1.8,5.67.9.97,1.25,1.25,1.25,1.25,0,0,5.6.21,6.3.21s1.31-.9.07-2.08c-1.25-1.18-5.53-5.05-6.36-5.95-.83-.9-3.11-2.91-3.11-2.91h0Z"/>
  <path class="st1" d="M223.61,130.39s-.42.07,1.73,3.53c2.14,3.46,5.33,7.13,7.06,7.89,1.5.66,3.37,1.01,4.1,1.18h1.79c-.18-.59-.81-2.34-2.22-3.53-1.73-1.45-8.37-8.03-9.89-8.86-1.52-.83-2.56-.21-2.56-.21h0Z"/>
  <path class="st1" d="M203.53,126.37c1.26,0,2.28,1.02,2.28,2.28s-1.02,2.28-2.28,2.28-2.28-1.02-2.28-2.28,1.02-2.28,2.28-2.28h0Z"/>
  <path class="st1" d="M203.96,120.65c1.26,0,2.28,1.02,2.28,2.28s-1.02,2.28-2.28,2.28-2.28-1.02-2.28-2.28,1.02-2.28,2.28-2.28h0Z"/>
  <path class="st1" d="M203.84,114.93c1.26,0,2.28,1.02,2.28,2.28s-1.02,2.28-2.28,2.28-2.28-1.02-2.28-2.28,1.02-2.28,2.28-2.28h0Z"/>
  <path class="st1" d="M203.96,109.69c1.26,0,2.28,1.02,2.28,2.28s-1.02,2.28-2.28,2.28-2.28-1.02-2.28-2.28,1.02-2.28,2.28-2.28h0Z"/>
  <path class="st1" d="M203.05,103.48c1.26,0,2.28,1.02,2.28,2.28s-1.02,2.28-2.28,2.28-2.28-1.02-2.28-2.28,1.02-2.28,2.28-2.28h0Z"/>
  <path class="st1" d="M209.62,100.68c1.26,0,2.28,1.02,2.28,2.28s-1.02,2.28-2.28,2.28-2.28-1.02-2.28-2.28,1.02-2.28,2.28-2.28h0Z"/>
  <path class="st1" d="M211.39,106.52c1.26,0,2.28,1.02,2.28,2.28s-1.02,2.28-2.28,2.28-2.28-1.02-2.28-2.28,1.02-2.28,2.28-2.28h0Z"/>
  <path class="st1" d="M212.3,112.92c1.26,0,2.28,1.02,2.28,2.28s-1.02,2.28-2.28,2.28-2.28-1.02-2.28-2.28,1.02-2.28,2.28-2.28h0Z"/>
  <path class="st1" d="M212.73,118.76c1.26,0,2.28,1.02,2.28,2.28s-1.02,2.28-2.28,2.28-2.28-1.02-2.28-2.28,1.02-2.28,2.28-2.28h0Z"/>
  <path class="st1" d="M212.91,125.58c1.26,0,2.28,1.02,2.28,2.28s-1.02,2.28-2.28,2.28-2.28-1.02-2.28-2.28,1.02-2.28,2.28-2.28h0Z"/>
  <path class="st1" d="M215.17,97.21c1.26,0,2.28,1.02,2.28,2.28s-1.02,2.28-2.28,2.28-2.28-1.02-2.28-2.28,1.02-2.28,2.28-2.28h0Z"/>
  <path class="st1" d="M217.72,103.11c1.26,0,2.28,1.02,2.28,2.28s-1.02,2.28-2.28,2.28-2.28-1.02-2.28-2.28,1.02-2.28,2.28-2.28h0Z"/>
  <path class="st1" d="M219.45,108.66c1.26,0,2.28,1.02,2.28,2.28s-1.02,2.28-2.28,2.28-2.28-1.02-2.28-2.28,1.02-2.28,2.28-2.28h0Z"/>
  <path class="st1" d="M220.49,114.55c1.26,0,2.28,1.02,2.28,2.28s-1.02,2.28-2.28,2.28-2.28-1.02-2.28-2.28,1.02-2.28,2.28-2.28h0Z"/>
  <path class="st1" d="M220.95,120.1c1.26,0,2.28,1.02,2.28,2.28s-1.02,2.28-2.28,2.28-2.28-1.02-2.28-2.28,1.02-2.28,2.28-2.28h0Z"/>
  <path class="st1" d="M221.07,125.54c1.26,0,2.28,1.02,2.28,2.28s-1.02,2.28-2.28,2.28-2.28-1.02-2.28-2.28,1.02-2.28,2.28-2.28h0Z"/>
  <path class="st1" d="M317.21,128.77s1.64.19,6.18,3.93c4.54,3.74,7.02,4.69,10.22,5.07,3.2.38,3.85,1.03,3.97,2.36.11,1.34.11,2.48-.84,2.59-.95.11-10.45.95-13.88-2.71-3.43-3.66-6.22-8.54-6.18-9.69.04-1.14.53-1.56.53-1.56h0Z"/>
  <path class="st1" d="M312.37,129.42s2.82,3.05,4.5,5.15c1.68,2.1,4.69,4.39,4.81,5.65s-.42,1.6-.99,1.79c-.57.19-3.85.69-5.23-1.34-1.37-2.02-4.2-7.71-3.81-9.23s.72-2.02.72-2.02h0Z"/>
  <path class="st1" d="M290.18,142.98c1.08-.23,2.06-.54,2.83-.97,4.08-2.28,7.33-4.77,7.33-6.02s-2.42-4.08-4.43-4.01c-2.01.07-4.91,2.35-6.78,3.8-1.87,1.45-7.33,4.01-9.27,4.64-1.94.62-2.91,2.01-2.42,2.49.03.03.05.05.08.07h12.66Z"/>
  <path class="st1" d="M294.25,128.31s-4.91,6.36-12.59,7.54c-7.68,1.18-14.04.83-16.6-.55-2.56-1.38-3.04-2.7-3.04-2.7,0,0,10.65-.35,14.04-2.08,3.39-1.73,11-7.06,13.28-8.92,2.28-1.87,3.32-1.94,3.46-.62.14,1.31.14,1.66-.76,2.7-.9,1.04-1.52,2.28-1.52,2.28,0,0,.6,1.02,1.88,1.3,1.28.28,1.85,1.05,1.85,1.05h0Z"/>
  <path class="st1" d="M292.65,111.02s.9,4.36-.14,6.02c-1.04,1.66-3.8,4.5-10.31,4.01-6.5-.48-11.35-2.01-11.97-3.04-.62-1.04-.55-1.38,1.04-1.59s8.86.14,13.28-2.14c4.43-2.28,8.09-3.25,8.09-3.25h0Z"/>
  <path class="st1" d="M272.18,105.55s6.99,1.11,11.9-.9c4.91-2.01,10.17-4.43,11.14-5.05.97-.62,1.66-.76,1.66-.76,0,0-.28,2.28-1.38,3.87-1.11,1.59-1.8,2.35-1.8,2.35,0,0,1.04.9.97,1.45-.07.55-3.11,2.42-4.77,3.04-1.66.62-12.25,1.11-14.11.35-1.87-.76-3.32-.9-3.6-2.14s0-2.21,0-2.21h0Z"/>
  <path class="st1" d="M277.99,90.33s3.53,4.43,8.02,6.64c4.5,2.21,7.82,2.91,8.79,2.49.97-.42,2.01-.97,2.01-.97l2.49-7.19s-3.18,1.04-6.85.9c-3.67-.14-7.13-.62-9.82-1.38-2.7-.76-4.64-.48-4.64-.48h0Z"/>
  <path class="st1" d="M298.81,76.77s-.62,2.77,2.01,6.02c2.63,3.25,3.18,4.22,3.18,4.22,0,0-.35,3.11-1.8,3.32-1.45.21-2.84-.07-3.32-1.18-.48-1.11-2.7-4.84-2.56-7.4.14-2.56,2.49-4.98,2.49-4.98h0Z"/>
  <path class="st1" d="M311.26,74.28s-1.87,2.77-1.87,4.15,1.04,5.81,1.31,6.92.21,2.01.21,2.01c0,0-4.5.9-4.84.21-.35-.69-1.52-5.05-.62-6.99.9-1.94,2.35-5.12,3.67-5.74,1.31-.62,2.14-.55,2.14-.55h0Z"/>
  <path class="st1" d="M316.45,76.64s2.49.62,2.91,2.97c.42,2.35.35,6.43,0,7.06-.35.62-5.53.21-5.53.21,0,0,1.31-1.87,1.94-4.43.62-2.56.69-5.81.69-5.81h0Z"/>
  <path class="st1" d="M315.58,142.98c-.71-.9-4.74-6.16-5.5-10.38-.83-4.64-.97-8.03-.97-8.03,0,0-2.01-.48-2.91.21-.9.69-1.04,1.73-.9,2.56.14.83.21,1.18.21,1.18l-4.01-2.42s-1.38,1.38-.55,4.43c.83,3.04,3.25,8.3,4.64,9.82.92,1.01,2.47,2.04,3.41,2.63h6.58Z"/>
  <path class="st1" d="M312.16,114.55s-.21,1.45-.97,2.97c-.76,1.52-3.18,4.08-5.81,5.74-2.63,1.66-5.4,3.39-6.02,2.56-.62-.83-1.73-1.94.14-5.12,1.87-3.18,3.46-6.5,3.87-8.03.42-1.52,5.67-3.39,7.19-4.22,1.52-.83,3.6-1.45,3.6-1.45,0,0,.97.35,0,1.25-.97.9-7.33,6.09-8.51,7.47-1.18,1.38-2.28,4.5-.14,3.04,2.14-1.45,4.91-4.29,5.67-4.22.76.07.97,0,.97,0h0Z"/>
  <path class="st1" d="M314.43,119.22s2.05-1.01,4.1-2.89c2.05-1.88,3.47-4.07,3.47-5.05s-1.25-.87-2.12-.59c-.87.28-1.91.28-2.5.1-.59-.17-.42-.8-.49-1.25-.07-.45-1.7-.45-2.36.52-.66.98-.94,2.82-.8,5.08.14,2.26.69,4.07.69,4.07h0Z"/>
  <path class="st1" d="M301.51,107.14s2.21,2.01,4.84.55c2.63-1.45,5.05-2.91,5.19-4.22.14-1.31-2.42-1.73-2.97-1.94-.55-.21-.83-.48-.83-.48,0,0,.07-.07.97-.55s1.25-.97.35-1.52c-.9-.55-2.63.28-3.67,1.45-1.04,1.18-3.8,3.94-4.01,5.19-.21,1.25.14,1.52.14,1.52h0Z"/>
  <path class="st1" d="M303.1,97.53s1.45.83,4.29-.07c2.84-.9,3.74-2.01,3.74-2.01,0,0-.42-.69-1.04-.97-.62-.28-.83-.48-.83-.48,0,0-.76-.28.21-.97.97-.69,1.18-1.25.28-1.66-.9-.42-2.56-1.04-4.22.83-1.66,1.87-2.42,5.33-2.42,5.33h0Z"/>
  <path class="st1" d="M317.94,107.38s6.28,1.71,10.38,0c4.1-1.71,8.16-4.25,9.06-5.47s.97-1.57.97-1.57c0,0,1.18.03,1.87.66.69.63.76.87.76.87,0,0,1.18-.84,1.18-1.95s.38-4.46-1.7-5.82c-2.08-1.36-8.26-1.64-8.85-1.64h-.59s-.14-.59-.8-.87c-.66-.28-4.86-.17-5.55.31-.69.49-.97.91-.97.91,0,0-.45,4.63-1.46,6.55-1.01,1.92-2.43,4.39-3.61,5.54s-2.01,2.16-2.01,2.16l1.32.31h0Z"/>
  <path class="st1" d="M315.46,88.91s-1.8,1.44-1.4,2.91c.4,1.47,1.57,3.04,2.57,3.11,1,.07,1.34.8,3.11-.87,1.77-1.67,2.24-2.24,2.17-3.21-.07-.97-.47-1.47-1.04-1.64-.57-.17-1.34-.2-1.34-.2,0,0,0-.47.47-.53.47-.07,2.64-.2,3.37.13.73.33,1.3,1.44.87,2.2-.43.77-2.91,3.47-3.98,4.41-1.07.94-2.84,1.27-4.28.8-1.44-.47-4.01-2.81-3.91-3.84.1-1.04.07-1.94,1.07-2.77,1-.84,1.2-.87,1.44-.84s.87.33.87.33h0Z"/>
  <path class="st1" d="M210.77,499.36s-5.41-4.93-1.43-9.54c3.97-4.61,8.9-8.74,9.06-12.4.16-3.66-6.99-13.35-9.22-20.67-2.23-7.31-6.04-19.39-.95-25.12,5.09-5.72,7.47-9.22,13.35-8.11,5.88,1.11,11.45,4.61,9.86,10.33-1.59,5.72-3.18,8.43-5.25,8.58-2.07.16-4.13.16-4.45-2.38-.32-2.54-.48-3.82-1.27-4.45-.79-.64-3.5.64-3.5,3.34s.79,8.43,4.93,9.54c4.13,1.11,17.01-.64,20.35,0,3.34.64,9.06,4.61,13.99,10.33,4.93,5.72,6.68,7.79,7.63,7.95.95.16,2.86.95,1.43,2.54-1.43,1.59-1.59,2.07-1.59,2.07,0,0,3.18,2.07,5.09,2.07s2.86-1.11,3.82-.95,2.23,2.23,2.23,3.82-.16,1.59-.16,1.59c0,0,2.86.32,4.61,1.91,1.75,1.59,6.52,10.49,10.65,12.4,4.13,1.91,8.43,1.91,8.43,1.91,0,0-3.5,6.04-6.36,5.88-2.86-.16-10.33-2.07-11.92-3.5-1.59-1.43-4.77-3.82-4.77-3.82,0,0-.32,1.75,1.11,3.34,1.43,1.59,1.91,2.7,1.91,2.7,0,0-.79,1.75-3.34.64-2.54-1.11-4.13-.79-5.72-3.02-1.59-2.23-5.09-9.06-8.9-11.29-3.82-2.23-3.66-1.91-3.66-1.91,0,0-.95.79.79,3.97,1.75,3.18,1.91,4.77,1.91,4.77,0,0-8.58.95-10.49-1.11s-5.56-4.77-5.56-4.77c0,0-2.38-.64-3.34-.95s-2.23-1.75-2.23-1.75c0,0-1.43,3.82-2.54,5.09-1.11,1.27-1.91,1.75-1.75,3.18.16,1.43,1.27,5.72,1.27,5.72,0,0-2.07.32-4.13-1.11s-4.61-5.25-4.61-5.25c0,0-1.11,1.75-4.13,2.38-3.02.64-8.58-.48-9.54,1.43s-1.59,4.61-1.59,4.61h0ZM252.43,479.49s6.04-1.27,9.7,1.91c3.66,3.18,7.47,9.22,7.95,11.13s1.27,2.38,1.27,2.38v-8.58s2.86,1.43,5.41,3.5,3.97,3.34,6.04,3.5c2.07.16,2.86-.16,2.86-.16,0,0-5.41-5.25-7.79-8.11-2.38-2.86-7.15-7.95-12.4-9.06-5.25-1.11-9.54-1.75-11.76-.95-2.23.79-1.27,4.45-1.27,4.45h0ZM214.59,489.35s6.68-6.2,7.47-10.33c.79-4.13-4.77-15.1-7.15-18.92-2.38-3.82-6.36-11.45-6.04-17.33.32-5.88,2.38-10.81,4.93-12.72s8.11-5.09,10.17-1.43c2.07,3.66,2.23,5.56,1.91,6.36-.32.79-.95,1.11-.95,1.11,0,0-.64-2.38-2.23-3.82-1.59-1.43-5.25-2.7-7.63.95-2.38,3.66-3.18,8.11-1.75,11.29,1.43,3.18,5.88,8.9,11.29,8.74,5.41-.16,13.83-2.07,17.49-.95,3.66,1.11,6.04,1.91,8.58,6.68,2.54,4.77,3.66,6.68,6.2,7.47,2.54.79,4.77,1.11,4.77,1.11,0,0-1.59,2.86-4.93,2.7-3.34-.16-5.72-.16-5.72-.16,0,0-.16,5.41-2.7,7.95-2.54,2.54-5.41,3.5-5.41,3.5,0,0,.32-.64,2.54-4.13,2.23-3.5,2.7-10.65.95-13.19-1.75-2.54-4.61-7.63-9.7-8.58-5.09-.95-11.61.16-11.61.16,0,0-2.23,1.75,2.23,2.7,4.45.95,8.11-.48,11.76,3.66,3.66,4.13,5.56,5.88,4.61,9.06-.95,3.18-.95,3.34-.95,3.34l-1.11.64s.95-.16-2.7-4.13c-3.66-3.97-13.04-7.95-16.53-11.45-3.5-3.5-9.22-9.54-9.54-11.76-.32-2.23-.95-2.86-.95-2.86,0,0-1.59,7.15,1.27,10.17,2.86,3.02,9.7,9.86,14.31,11.61,4.61,1.75,4.77,1.11,5.25,4.61.48,3.5,1.43,9.7-.16,14.31-1.59,4.61-1.75,6.2-1.75,6.2,0,0-1.11-2.07-.95-5.56.16-3.5.79-10.81.16-12.24-.64-1.43-2.54-3.02-3.02-1.91-.48,1.11,0,.79,0,4.45s.48,6.99-3.18,10.33c-3.66,3.34-4.61,3.34-6.2,3.34s-3.02-.95-3.02-.95h0Z"/>
  <path class="st1" d="M247.53,482.96s-.35,2.17,1.47,3.73c1.82,1.56,2.17,2.25,3.38,1.99,1.21-.26,1.91,0,1.47-1.47s-.52-1.73-2.25-3.03c-1.73-1.3-4.08-1.21-4.08-1.21h0Z"/>
  <path class="st1" d="M259.24,462.3c1.87-.8,5.36-2.48,9.05-5.21,5.45-4.03,8.5-7.41,8.5-7.41,0,0,4.9-1.31,10.03,1.09,1.68.79,3.06,1.56,4.17,2.32-.69-1.62-.7-3.46-.14-4.73-1.58-1.2-3.5-2.15-5.88-2.49-6.87-.98-7.96.54-13.41,3.38-5.45,2.83-9.92,5.78-12.64,6.97-1.25.55-2.34,1.35-3.15,2.06.16.18.32.36.47.54,1.17,1.36,2.16,2.51,3,3.48h0Z"/>
  <path class="st1" d="M285.92,488.72c1.02.03,2.42-.27,4.17-1.44,3.83-2.55,6.3-4.58,8.85-10.84-2.39-.28-3.4-.53-3.4-.53,0,0-.83-1.12-1.68-2.5.37,2.25.73,4.3-.39,5.49-1.63,1.74-2.72,4.58-6.32,4.58-2.53,0-4.52-.32-5.48-.52,1.22,1.77,2.7,3.94,4.25,5.77h0Z"/>
  <path class="st1" d="M295.54,475.91s2.77.69,10.06,1.04c7.28.35,8.09.46,8.09.46,0,0,11.1,6.94,16.76,6.94s12.6,2.08,21.04-2.43c8.44-4.51,15.49-14.45,16.65-18.61.28-1.02.45-2.28.55-3.62-.13.02-.21.03-.21.03,0,0-2.41-.08-4.94-.3.29.19.55.4.78.65,1.73,1.85.35,3.01-3.12,8.32-3.47,5.32-12.14,9.71-19.54,11.79-7.4,2.08-18.73-2.43-21.39-3.47s-6.36-3.82-9.37-4.05c-3.01-.23-14.11-1.5-14.11-1.5,0,0-.46-.92-.69-1.62-.23-.69-.58-1.97,1.5-6.24,2.08-4.28,6.36-4.39,12.02-5.9,5.67-1.5,10.17-2.66,13.99-5.55s13.3-8.67,21.04-10.98c7.75-2.31,10.06-2.77,12.83-1.16.49.29.86.56,1.15.82,1.42-.83,3.09-1.04,4.51-1.05-.53-.72-1.07-1.32-1.61-1.73h0c-.02.51.01.82.01.82,0,0-3.6.42-7.35-.42-2.87-.64-5.5-.87-6.57-2.39-1.56.3-3.14.76-4.71,1.4-7.4,3.01-15.72,8.09-22.89,11.68-4.49,2.25-9.71,4.04-13.86,5.29-.34.24-1.12.85-2.34,1.87-1.7,1.42-3.68,1.28-6.23,1.42-.19.01-.39.01-.58,0-1.83,1.41-3.12,3.31-3.8,4.6-1.04,1.97-1.73,5.67-1.04,7.98.69,2.31,3.35,5.9,3.35,5.9h0Z"/>
  <path class="st1" d="M368.49,459.72s3.47-.69,6.13,1.62c2.66,2.31,10.17,6.47,15.26,9.25,5.09,2.77,17.69,4.28,22.43,2.31,4.74-1.97,10.64-6.94,11.79-12.26,1.16-5.32-1.5-19.42-7.17-22.89-5.67-3.47-12.37-6.59-20.23-5.32-7.86,1.27-13.18,4.28-19.19,5.32-6.01,1.04-11.33,1.73-14.22,1.73s-6.94.81-7.63,6.01c-.69,5.2.58,12.6,3.35,13.3,2.77.69,9.48.92,9.48.92h0ZM360.4,450.47s-.81,3.24,1.97,3.82,7.28.23,10.75,1.97c3.47,1.73,14.68,10.52,19.89,12.02,5.2,1.5,12.26,3.93,18.5,1.04,6.24-2.89,10.41-7.98,10.29-12.37-.12-4.39-3.24-12.14-6.24-14.8-3.01-2.66-7.17-4.97-14.45-5.43-7.28-.46-10.64,1.16-17.11,3.93-6.47,2.77-10.06,4.39-12.02,4.39s-7.17-1.39-9.37.58c-2.2,1.97-2.2,4.86-2.2,4.86h0Z"/>
  <path class="st1" d="M278.33,452.82c-.68-.68-2.27-.18-3.56,1.1-1.29,1.29-1.78,2.88-1.1,3.56.68.68,2.27.18,3.56-1.1,1.29-1.29,1.78-2.88,1.1-3.56h0Z"/>
  <path class="st1" d="M307.27,434.57c-.82-.49-2.25.37-3.18,1.93-.94,1.56-1.03,3.22-.21,3.72.82.49,2.25-.37,3.18-1.93.94-1.56,1.03-3.22.21-3.72h0Z"/>
  <path class="st1" d="M317.98,456.87c-.68-.68-2.27-.18-3.56,1.1-1.29,1.29-1.78,2.88-1.1,3.56.68.68,2.27.18,3.56-1.1,1.29-1.29,1.78-2.88,1.1-3.56h0Z"/>
  <path class="st1" d="M316.94,467.74c-.68-.68-2.27-.18-3.56,1.1-1.29,1.29-1.78,2.88-1.1,3.56.68.68,2.27.18,3.56-1.1s1.78-2.88,1.1-3.56h0Z"/>
  <path class="st1" d="M333.13,451.43c-.68-.68-2.27-.18-3.56,1.1-1.29,1.29-1.78,2.88-1.1,3.56.68.68,2.27.18,3.56-1.1,1.29-1.29,1.78-2.88,1.1-3.56h0Z"/>
  <path class="st1" d="M334.63,462.19c-.68-.68-2.27-.18-3.56,1.1-1.29,1.29-1.78,2.88-1.1,3.56.68.68,2.27.18,3.56-1.1,1.29-1.29,1.78-2.88,1.1-3.56h0Z"/>
  <path class="st1" d="M346.54,448.54c-.68-.68-2.27-.18-3.56,1.1-1.29,1.29-1.78,2.88-1.1,3.56.68.68,2.27.18,3.56-1.1,1.29-1.29,1.78-2.88,1.1-3.56h0Z"/>
  <path class="st1" d="M350.94,463c-.68-.68-2.27-.18-3.56,1.1-1.29,1.29-1.78,2.88-1.1,3.56.68.68,2.27.18,3.56-1.1,1.29-1.29,1.78-2.88,1.1-3.56h0Z"/>
  <path class="st1" d="M339.37,472.13c-.68-.68-2.27-.18-3.56,1.1-1.29,1.29-1.78,2.88-1.1,3.56.68.68,2.27.18,3.56-1.1,1.29-1.29,1.78-2.88,1.1-3.56h0Z"/>
  <path class="st1" d="M359.24,420.53c-.77-.23-1.75.76-2.19,2.21-.44,1.46-.18,2.83.58,3.06.77.23,1.75-.76,2.19-2.21.44-1.46.18-2.83-.58-3.06h0Z"/>
  <path class="st1" d="M387.24,449.01c-.68-.68-2.27-.18-3.56,1.1-1.29,1.29-1.78,2.88-1.1,3.56.68.68,2.27.18,3.56-1.1,1.29-1.29,1.78-2.88,1.1-3.56h0Z"/>
  <path class="st1" d="M399.26,439.29c-.68-.68-2.27-.18-3.56,1.1-1.29,1.29-1.78,2.88-1.1,3.56.68.68,2.27.18,3.56-1.1,1.29-1.29,1.78-2.88,1.1-3.56h0Z"/>
  <path class="st1" d="M397.53,452.82c-.68-.68-2.27-.18-3.56,1.1-1.29,1.29-1.78,2.88-1.1,3.56.68.68,2.27.18,3.56-1.1,1.29-1.29,1.78-2.88,1.1-3.56h0Z"/>
  <path class="st1" d="M407.47,447.73c-.68-.68-2.27-.18-3.56,1.1s-1.78,2.88-1.1,3.56c.68.68,2.27.18,3.56-1.1,1.29-1.29,1.78-2.88,1.1-3.56h0Z"/>
  <path class="st1" d="M415.57,459.64c-.68-.68-2.27-.18-3.56,1.1-1.29,1.29-1.78,2.88-1.1,3.56.68.68,2.27.18,3.56-1.1,1.29-1.29,1.78-2.88,1.1-3.56h0Z"/>
  <path class="st1" d="M306.39,454.03s0-5.24,6.94-9.49c6.94-4.25,7.51-3.26,9.63-4.53,2.13-1.28,13.88-15.58,15.02-21.82,1.13-6.23,2.41-14.45,1.7-15.3l-.71-.85s5.38-3.4,6.8-6.23c1.42-2.83,3.12-9.49,1.28-12.47-1.84-2.98-3.4-6.66-7.51-5.38-4.11,1.28-5.81,3.54-7.37,6.38-1.56,2.83-3.12,5.38-3.12,5.38,0,0-7.79-1.13-12.89,3.54-5.1,4.68-12.61,14.88-15.16,23.09-2.55,8.22-2.27,15.3-3.68,18.56-1.42,3.26-4.82,11.33-5.95,12.61-1.13,1.28-1.28,3.97-.14,6.09,1.13,2.13,3.83,3.97,6.38,3.83,2.55-.14,4.53,0,6.23-1.42,1.7-1.42,2.54-2.05,2.55-1.98h0ZM300.06,455.11s2.41-.2,3.17-2c.76-1.8,1.18-5.88,4.08-8.3,2.91-2.42,9.62-6.52,13.91-9.57,4.3-3.05,12.75-14.83,14.55-21.76,1.8-6.93,1.66-8.32,1.66-8.32l-3.33-1.94s4.85-4.3,7.21-7.76c2.36-3.46,3.05-7.21,2.63-9.84-.42-2.63-3.19-5.68-5.41-3.19-2.22,2.49-4.71,2.36-4.57,5.41.14,3.05.14,4.3,1.25,5.27l1.11.97s-3.88,1.66-4.16,3.05c-.28,1.39-.97,2.08-.97,2.08,0,0-3.6-4.85-6.51-4.85s-11.78,7.48-15.38,14.28c-3.6,6.79-7.9,16.08-8.32,21.34-.42,5.27-.39,6.95-1.15,8.89-.76,1.94-2.35,4.57-3.87,7.82-1.52,3.25-2.28,3.39-1.8,5.6.48,2.21,1.04,2.14,2.42,2.49s3.47.34,3.47.34h0Z"/>
  <path class="st1" d="M310.04,419.31c-.82-.49-2.25.37-3.18,1.93-.94,1.56-1.03,3.22-.21,3.72.82.49,2.25-.37,3.18-1.93.94-1.56,1.03-3.22.21-3.72h0Z"/>
  <path class="st1" d="M318.92,417.1c-.82-.49-2.25.37-3.18,1.93-.94,1.56-1.03,3.22-.21,3.72.82.49,2.25-.37,3.18-1.93.94-1.56,1.03-3.22.21-3.72h0Z"/>
  <path class="st1" d="M324.47,406.55c-.82-.49-2.25.37-3.18,1.93-.94,1.56-1.03,3.22-.21,3.72.82.49,2.25-.37,3.18-1.93.94-1.56,1.03-3.22.21-3.72h0Z"/>
  <path class="st1" d="M321.41,398.23c-.82-.49-2.25.37-3.18,1.93-.94,1.56-1.03,3.22-.21,3.72.82.49,2.25-.37,3.18-1.93.94-1.56,1.03-3.22.21-3.72h0Z"/>
  <path class="st1" d="M330.57,415.71c-.82-.49-2.25.37-3.18,1.93-.94,1.56-1.03,3.22-.21,3.72.82.49,2.25-.37,3.18-1.93.94-1.56,1.03-3.22.21-3.72h0Z"/>
  <path class="st1" d="M320.58,427.08c-.82-.49-2.25.37-3.18,1.93-.94,1.56-1.03,3.22-.21,3.72.82.49,2.25-.37,3.18-1.93.94-1.56,1.03-3.22.21-3.72h0Z"/>
  <path class="st1" d="M341.67,384.08c-.82-.49-2.25.37-3.18,1.93-.94,1.56-1.03,3.22-.21,3.72.82.49,2.25-.37,3.18-1.93.94-1.56,1.03-3.22.21-3.72h0Z"/>
  <path class="st1" d="M361.57,438.57s-.69-5.96,5.82-9.56c6.51-3.6,14-6.24,20.24-9.56s12.75-13.72,13.44-17.46c.08-.41.11-.91.1-1.5-1.18-.01-2.17-.03-2.88-.03-.49,0-.95-.07-1.38-.2-.05,1.16-.22,2.3-.56,3.39-1.11,3.6-3.05,4.71-9.98,9.29-6.93,4.57-13.86,8.04-18.71,10.53-4.85,2.49-10.95,11.37-10.95,11.37,0,0-3.74.97-4.44.55-.69-.42-.69-3.74-.97-7.35-.28-3.6,0-6.24,2.22-13.58,2.22-7.35,6.79-15.8,9.84-19.96,3.05-4.16,11.09-9.7,16.08-10.26,4.99-.55,10.39,0,12.2,1.39.55.42,1.09.93,1.6,1.52.36-.52.84-1.03,1.45-1.52.39-.31.81-.55,1.26-.75-.76-.96-1.6-1.75-2.51-2.3-5.54-3.33-9.29-6.51-20.37-.69-11.09,5.82-17.88,15.11-21.34,24.67-3.46,9.56-4.57,24.25-4.57,27.44s3.33,3.33,7.07,4.16c3.74.83,7.35.42,7.35.42h0Z"/>
  <path class="st1" d="M362.98,403.2c-.77-.23-1.75.76-2.19,2.21-.44,1.46-.18,2.83.58,3.06.77.23,1.75-.76,2.19-2.21.44-1.46.18-2.83-.58-3.06h0Z"/>
  <path class="st1" d="M367.7,412.07c-.77-.23-1.75.76-2.19,2.21-.44,1.46-.18,2.83.58,3.06.77.23,1.75-.76,2.19-2.21.44-1.46.18-2.83-.58-3.06h0Z"/>
  <path class="st1" d="M379.75,408.05c-.77-.23-1.75.76-2.19,2.21-.44,1.46-.18,2.83.58,3.06.77.23,1.75-.76,2.19-2.21.44-1.46.18-2.83-.58-3.06h0Z"/>
  <path class="st1" d="M377.81,398.08c-.77-.23-1.75.76-2.19,2.21-.44,1.46-.18,2.83.58,3.06.77.23,1.75-.76,2.19-2.21.44-1.46.18-2.83-.58-3.06h0Z"/>
  <path class="st1" d="M375.32,389.62c-.77-.23-1.75.76-2.19,2.21-.44,1.46-.18,2.83.58,3.06.77.23,1.75-.76,2.19-2.21.44-1.46.18-2.83-.58-3.06h0Z"/>
  <path class="st1" d="M382.11,390.87c-.77-.23-1.75.76-2.19,2.21-.44,1.46-.18,2.83.58,3.06.77.23,1.75-.76,2.19-2.21.44-1.46.18-2.83-.58-3.06h0Z"/>
  <path class="st1" d="M386.27,400.85c-.77-.23-1.75.76-2.19,2.21-.44,1.46-.18,2.83.58,3.06.77.23,1.75-.76,2.19-2.21.44-1.46.18-2.83-.58-3.06h0Z"/>
  <path class="st1" d="M392.2,395.19s1.94,5.27,6.1,5.27,18.02.55,24.53-2.36c6.51-2.91,16.77-10.95,18.16-15.52s1.8-15.25-.55-18.43l-.07-.09c-1.35.52-2.7.07-4.3-.38,0,0-2.49-.95-3.61-1.78-1.13-.83-1.18-2.19-1.66-3.73-.05-.15-.08-.32-.11-.51-1.28,0-2.66.31-4.1,1.08-3.65,1.94-6.12,4.58-8.37,7.47.13.51.21.85.21.85,0,0,.17.72-.3,1.54-.47.81-1.88,2.94-3.2,4.14-1.04.94-1.84,1.43-2.91,1.66-3.61,4.82-3.96,8.12-7.18,9.03-3.46.97-7.48.14-10.12,2.22-2.63,2.08-2.63,4.57-2.63,6.24s.14,3.33.14,3.33h0ZM395.52,395.05s13.03,1.66,18.43.55c5.41-1.11,15.38-5.13,18.99-9.56,3.6-4.44,6.1-9.15,5.96-12.75-.14-3.6-.14-5.82-3.05-7.48-2.91-1.66-6.1-2.49-9.01-.14-2.91,2.36-7.9,6.1-12.47,11.5-4.57,5.41-7.21,10.26-10.53,11.23s-8.18.69-8.73,2.08c-.55,1.39-.14,3.33-.14,3.33,0,0,.69,1.25.55,1.25h0Z"/>
  <path class="st1" d="M421.2,376.32c-.77-.23-1.75.76-2.19,2.21-.44,1.46-.18,2.83.58,3.06.77.23,1.75-.76,2.19-2.21.44-1.46.18-2.83-.58-3.06h0Z"/>
  <path class="st1" d="M427.57,369.52c-.77-.23-1.75.76-2.19,2.21-.44,1.46-.18,2.83.58,3.06.77.23,1.75-.76,2.19-2.21.44-1.46.18-2.83-.58-3.06h0Z"/>
  <path class="st1" d="M427.99,381.72c-.77-.23-1.75.76-2.19,2.21-.44,1.46-.18,2.83.58,3.06.77.23,1.75-.76,2.19-2.21.44-1.46.18-2.83-.58-3.06h0Z"/>
  <path class="st1" d="M434.92,370.36c-.77-.23-1.75.76-2.19,2.21-.44,1.46-.18,2.83.58,3.06.77.23,1.75-.76,2.19-2.21.44-1.46.18-2.83-.58-3.06h0Z"/>
  <path class="st1" d="M436.06,363.67c1.9.53,3.44,1.07,5.03,0,1.6-1.07,4.92-4.26,5.15-5.98.24-1.72-2.72-4.98-2.84-5.39-.12-.41-.65-1.66.53-2.96,1.18-1.3.89-2.01,1.9-2.01s2.67.18,3.14-1.24c.47-1.42.77-2.78-1.42-3.02-2.19-.24-2.84-.41-4.03-1.9-1.18-1.48-1.84-2.25-2.9-1.72s-1.18,1.18-.36,2.55c.83,1.36,1.6,2.9.95,3.79-.65.89-1.01,2.31-2.19,2.25-1.18-.06-2.72-1.54-4.15-1.42-1.42.12-4.26,1.24-4.15,4.09.12,2.84-.41,5.92.06,7.46.47,1.54.53,2.9,1.66,3.73,1.13.83,3.61,1.78,3.61,1.78h0ZM437.06,360.95s1.24.59,2.61-.41c1.36-1.01,2.96-2.37,3.2-3.02.24-.65-1.24-1.9-1.9-2.61-.65-.71-2.49-2.37-3.91-2.37s-2.55.36-2.55,1.24.18,3.73.18,4.44.89,1.95,1.3,2.13c.41.18,1.07.59,1.07.59h0Z"/>
  <path class="st1" d="M418.4,367.05s-1.02-4.39-1.83-6.01-1.02-2.39-2.39-2.17c-1.36.21-2.86,1.79-2.86,1.79,0,0-3.28.81-4.01.26-.73-.55-1.28-1.24-1.11-1.83.17-.6.26-1.88.04-2.77-.21-.9-1.07-1.58-1.49-1.15-.43.43-1.88,2.35-2.94,2.99-1.07.64-1.83,1.11-1.02,1.83.81.73,1.54.98,2.81,1.62,1.28.64,1.66.72,1.75,1.36.09.64.51,2-.17,2.6-.68.6-2.09,1.83-1.83,3.58.26,1.75.21,4.99,2.43,5.2,2.22.21,3.62.3,5.25.17,1.62-.13,2.56-.6,3.88-1.79,1.32-1.19,2.73-3.33,3.2-4.14.47-.81.3-1.54.3-1.54h0ZM415.07,370.81s.3-2.35-.09-3.33-1.54-3.37-1.83-3.75c-.3-.38-1.07-1.07-1.92-.3-.85.77-1.92,2.64-2.73,3.45-.81.81-1.62,1.62-.72,2.35.9.73,2,1.19,3.03,1.49,1.02.3,1.79.26,2.6.34.81.09,1.66-.26,1.66-.26h0Z"/>
  <path class="st1" d="M217.03,472.99l-3.35.1s-7.33,5.53-8.12,6.88c-.79,1.35-1.01,2.03-2.37,1.35-1.35-.68-1.13-1.24-2.48-.45s-2.26,1.92-4.17,2.03c-1.92.11-2.71.45-2.71.45,0,0-.56,1.35-1.24,2.37-.68,1.01-2.37.79-2.93-.23-.56-1.01-.9-1.47-.9-1.47,0,0-4.62-.34-7.22.11-2.59.45-1.58,1.13-3.38.79-1.8-.34-2.14-.9-2.93-1.92-.79-1.01-6.77-3.61-7.78-5.07-1.01-1.47-7.78-10.83-8.12-13.42-.34-2.59-.56-11.28.79-15.45,1.35-4.17,4.17-7.89,8.01-9.92,3.83-2.03,11.28-4.17,17.82-3.16,6.54,1.01,12.07,3.38,15.22,5.19,2.42,1.38,4.11,1.97,4.77,2.17.21,1.77.56,3.57.98,5.33-1.34-.83-4.39-2.61-9.25-4.79-6.77-3.04-8.57-2.59-16.13-2.71-7.56-.11-10.49,1.58-14.44,4.85-3.95,3.27-4.74,8.68-3.61,17.37,1.13,8.68,6.88,10.71,12.86,14.66,5.98,3.95,18.72.79,23.57-1.13,4.85-1.92,12.41-8.46,12.41-8.46l.77-2.98c1.43,2.7,2.9,5.31,3.93,7.5h0Z"/>
  <path class="st1" d="M201.28,457.53c1.81,0,3.27,1.04,3.27,2.31s-1.46,2.31-3.27,2.31-3.27-1.04-3.27-2.31,1.46-2.31,3.27-2.31h0Z"/>
  <path class="st1" d="M186.28,458.2c1.81,0,3.27,1.04,3.27,2.31s-1.46,2.31-3.27,2.31-3.27-1.04-3.27-2.31,1.46-2.31,3.27-2.31h0Z"/>
  <path class="st1" d="M174.55,448.28c1.81,0,3.27,1.04,3.27,2.31s-1.46,2.31-3.27,2.31-3.27-1.04-3.27-2.31,1.46-2.31,3.27-2.31h0Z"/>
  <path class="st1" d="M175.34,464.07c1.81,0,3.27,1.04,3.27,2.31s-1.46,2.31-3.27,2.31-3.27-1.04-3.27-2.31,1.46-2.31,3.27-2.31h0Z"/>
  <path class="st1" d="M189.21,469.59c1.81,0,3.27,1.04,3.27,2.31s-1.46,2.31-3.27,2.31-3.27-1.04-3.27-2.31,1.46-2.31,3.27-2.31h0Z"/>
  <path class="st1" d="M161.37,446.09c-.77-.45-1.61-.93-2.49-1.42-4.85-2.72-8.54-8.93-11.45-12.61-2.91-3.69-6.21-9.7-12.22-9.7s-12.61.58-12.61.58c0,0,0-9.51-1.55-15.72-1.55-6.21-5.43-22.31-9.31-27.75-3.88-5.43-10.28-14.94-14.75-15.33-4.46-.39-13-.19-15.13,7.57-2.13,7.76-2.91,19.6,1.55,26.2,4.46,6.6,10.09,14.94,14.75,18.43,4.66,3.49,8.34,10.09,8.34,10.09,0,0-7.18,2.33-8.54,6.79-1.36,4.46-2.91,15.52.39,19.99,3.3,4.46,8.73,12.61,18.43,15.13,9.7,2.52,20.37,2.52,25.03.97,4.66-1.55,6.4-4.07,10.28-4.27,2.8-.14,5.59.22,7.52.44-.15-.38-.25-.7-.28-.96-.07-.53-.13-1.33-.18-2.28-.8.06-1.68.09-2.59.09-4.27,0-9.12,1.75-21.15,3.3-12.03,1.55-19.4-.78-26.39-5.04-6.99-4.27-7.96-8.34-8.34-17.85-.39-9.51,10.67-13.19,10.67-14.36s-1.36-6.6-6.4-11.25c-5.05-4.66-12.22-13.39-17.08-20.96-4.85-7.57-3.88-14.16-3.69-19.21.19-5.05,5.82-7.76,9.31-8.34,3.49-.58,8.54,4.46,11.25,7.76,2.72,3.3,8.93,20.76,11.45,29.11,2.52,8.34,3.49,25.81,3.49,25.81,0,0,3.69-3.49,9.7-4.66,6.02-1.16,9.12,2.13,12.42,5.43,3.3,3.3,10.28,13.78,12.03,15.72.88.98,3.49,2.1,5.86,2.98.12-.62.26-1.18.42-1.69.33-1.03.75-2.02,1.26-2.98h0Z"/>
  <path class="st1" d="M148.51,449.08c1.48,1.03,2.09,2.72,1.36,3.77-.73,1.05-2.52,1.06-4,.03-1.48-1.03-2.09-2.72-1.36-3.77.73-1.05,2.52-1.06,4-.03h0Z"/>
  <path class="st1" d="M133.76,454.52c1.48,1.03,2.09,2.72,1.36,3.77-.73,1.05-2.52,1.06-4,.03-1.48-1.03-2.09-2.72-1.36-3.77.73-1.05,2.52-1.06,4-.03h0Z"/>
  <path class="st1" d="M122.12,451.41c1.48,1.03,2.09,2.72,1.36,3.77-.73,1.05-2.52,1.06-4,.03-1.48-1.03-2.09-2.72-1.36-3.77.73-1.05,2.52-1.06,4-.03h0Z"/>
  <path class="st1" d="M124.64,438.99c1.48,1.03,2.09,2.72,1.36,3.77-.73,1.05-2.52,1.06-4,.03-1.48-1.03-2.09-2.72-1.36-3.77.73-1.05,2.52-1.06,4-.03h0Z"/>
  <path class="st1" d="M134.35,431.42c1.48,1.03,2.09,2.72,1.36,3.77-.73,1.05-2.52,1.06-4,.03-1.48-1.03-2.09-2.72-1.36-3.77.73-1.05,2.52-1.06,4-.03h0Z"/>
  <path class="st1" d="M111.26,447.92c1.48,1.03,2.09,2.72,1.36,3.77-.73,1.05-2.52,1.06-4,.03-1.48-1.03-2.09-2.72-1.36-3.77.73-1.05,2.52-1.06,4-.03h0Z"/>
  <path class="st1" d="M106.27,405.97c1.04.72,1.46,1.9.95,2.64-.51.73-1.77.74-2.8.02-1.04-.72-1.46-1.9-.95-2.64.51-.73,1.77-.74,2.8-.02h0Z"/>
  <path class="st1" d="M103.95,393.94c1.04.72,1.46,1.9.95,2.64-.51.73-1.77.74-2.8.02-1.04-.72-1.46-1.9-.95-2.64.51-.73,1.77-.74,2.8-.02h0Z"/>
  <path class="st1" d="M95.02,396.07c1.04.72,1.46,1.9.95,2.64-.51.73-1.77.74-2.8.02-1.04-.72-1.46-1.9-.95-2.64.51-.73,1.77-.74,2.8-.02h0Z"/>
  <path class="st1" d="M98.71,376.48c1.04.72,1.46,1.9.95,2.64-.51.73-1.77.74-2.8.02-1.04-.72-1.46-1.9-.95-2.64.51-.73,1.77-.74,2.8-.02h0Z"/>
  <path class="st1" d="M91.92,380.74c1.04.72,1.46,1.9.95,2.64-.51.73-1.77.74-2.8.02-1.04-.72-1.46-1.9-.95-2.64.51-.73,1.77-.74,2.8-.02h0Z"/>
  <path class="st1" d="M113.26,406.36c1.04.72,1.46,1.9.95,2.64-.51.73-1.77.74-2.8.02-1.04-.72-1.46-1.9-.95-2.64.51-.73,1.77-.74,2.8-.02h0Z"/>
  <path class="st1" d="M92.73,477.42s.71-2.65.33-3.55l-.38-.9s1.52-1.85,2.08-2.27c.57-.43,1.04-.57,1.04-.57,0,0,.95.85,2.23,1.47,1.28.62,2.13.95,3.22-.14,1.09-1.09,2.46-3.84,3.08-6.11.46-1.69.81-2.92.94-3.7-3.05-2.95-5.28-6.16-6.95-8.42-.14-.19-.28-.4-.4-.61-.8.53-2.16,1.45-3.07,2.27-1.37,1.23-5.26,4.5-5.16,6.4.09,1.9,1.56,3.55,2.23,4.31.66.76.76,1,.76,1l-2.23,3.03s.05.24-.76-.28-2.75,0-2.51,1.18c.24,1.18,1.18,4.26,2.08,5.07.9.81,3.46,1.85,3.46,1.85h0ZM101.31,465.38s.47-3.51.38-4.69c-.09-1.18.19-1.66-.28-2.27-.47-.62-2.32-1.52-3.22-1.42-.9.09-2.75.33-3.27,2.04-.52,1.71-1.14,2.37.19,3.36,1.33,1,1.99,1.56,3.27,2.32,1.28.76,2.94.66,2.94.66h0Z"/>
  <path class="st1" d="M90.84,364.32c.1-.9.13-1.96.02-3.11-.35-3.68-.23-6.56-.63-6.91-.4-.35-7.2-.06-7.48-.17-.29-.12-.98-1.84-.75-2.76.23-.92.92-1.61,1.32-2.25.4-.63.17-1.73.17-1.73,0,0-.4-.92-2.42-.92s-3.63,1.96-4.55,3.51c-.92,1.55-1.84,2.88-.12,3.34,1.73.46,1.9-.69,2.59.75.69,1.44,1.04,1.96.29,2.65-.75.69-3.91,3.17-3.68,5.7.23,2.53,2.13,4.89,3.57,6.22,1.12,1.03,1.79,2.07,2.88,2.42.57-1.68,1.46-2.96,2.55-3.95-.67-.4-1.26-1.21-2.38-2.09-1.38-1.09-1.5-1.9-1.09-2.99s3.28-3.05,4.09-3.17c.81-.12,1.15.12,1.84.92.63.73.73,3.78.53,5.46,1.05-.44,2.15-.73,3.25-.91h0Z"/>
  <path class="st1" d="M299.33,423.49c-2.66-1.81-9.93-6.8-12.23-8.77-2.83-2.43-5.39-5.12-7.95-5.53-2.56-.4-3.37-1.21-7.68,2.29-4.31,3.51-7.95,5.53-12.27,4.31-4.31-1.21-19.68-4.58-26.29-13.62-6.61-9.03-13.21-18.47-14.69-19.82-1.48-1.35-5.66-2.29-8.9-2.43-3.24-.13-6.07,1.08-7.55,1.89-1.48.81-.94,1.35-4.04.81-3.1-.54-4.58-.54-7.95,4.85-3.37,5.39-4.58,7.41-4.58,7.41l2.16,4.04,1.35,2.29s1.48-4.31,3.1-8.36c1.62-4.04,4.18-5.93,4.18-5.93,0,0,5.39.94,6.74.13,1.35-.81,2.16-1.75,2.16-1.75,0,0,9.98-1.62,10.78,0,.81,1.62,8.36,11.86,11.59,15.64,3.24,3.77,14.83,12.81,20.63,15.91,5.8,3.1,13.75,4.18,19.28,2.02,5.53-2.16,6.2-4.04,9.3-3.91s1.89-1.48,4.85.94c2.97,2.43,9.17,7.95,12.67,9.84,2.38,1.28,3.96,1.82,4.72,2.03.18-1.33.37-2.78.63-4.31h0Z"/>
  <path class="st1" d="M258.53,456.4c-1.84-3.73-6.88-13.47-11.29-17.5-5.52-5.03-20.94-17.85-28.24-22.88-7.3-5.03-17.2-15.09-18.34-15.58s-4.87.65-7.79,0c-2.92-.65-3.08-.65-3.08-.65,0,0-4.71-8.11-7.63-11.68-2.92-3.57-2.6-5.84-5.84-8.6-3.25-2.76-7.63-4.54-7.63-6.17s-.49-4.22-1.62-5.03c-1.14-.81-4.22-3.41-6.98-1.14-2.76,2.27-2.43,3.89-2.43,3.89,0,0-1.3-1.3-2.43,2.11l-1.14,3.41-1.3.81s-5.19,2.43-8.11,6.17c-2.92,3.73-7.47,9.58-12.98,14.44-4.46,3.94-8.92,7.13-10.72,8.9l.08.32c.45,1.79.77,3.84.99,5.87,1.92-2.01,5.44-5.59,8.03-7.62,3.73-2.92,15.42-16.07,21.1-20.61,5.68-4.54,6.82-6.33,7.14-8.11.32-1.79,1.46-3.57,2.76-4.54,1.3-.97,1.3-2.11,1.3-2.11,0,0,3.08.49,3.89,3.25.81,2.76,2.11,4.87,2.11,4.87,0,0,4.87,1.95,6.82,4.71,1.95,2.76,10.87,17.04,12.33,19.15,1.46,2.11,7.3,1.46,9.58,2.11,2.27.65,7.3,3.73,12.17,8.6,2.61,2.61,7.87,6.75,13.19,10.94,4.52,1.05,8.65,3.52,9.2,7.35,1.14.95,2.19,1.84,3.09,2.65,6.49,5.84,12.01,10.06,14.12,14.28,1.55,3.09,2.57,5.05,3.39,6.71,1.18,1.08,2.37,2.28,3.52,3.58.73-.63,1.68-1.34,2.76-1.88h0Z"/>
  <path class="st1" d="M144.12,384.26c-1.31-1.94-3.33-5.12-3.64-6.75-.47-2.44-2.56-4.54-4.07-6.05-1.51-1.51-3.26-4.54-3.26-4.54,0,0-2.91.81-3.96,3.61-1.05,2.79-.58,4.19-1.16,4.42-.58.23-2.56.47-2.79-.23-.23-.7-.81-2.56-.81-2.56,0,0-.58-.93-4.07,3.72-2.39,3.19-4.5,7.41-5.6,9.75.51,1.33,1.01,2.76,1.5,4.23.32-.54.62-1.18.85-1.89.7-2.21,5.12-9.54,6.4-9.66,1.28-.12.93.47,2.33.81,1.4.35,5-1.86,5.47-3.96.47-2.09.7-3.26.7-3.26,0,0,.81,0,1.51,1.4.7,1.4,2.56,1.51,2.68,3.26.12,1.74.35,3.37,1.63,5.47,1.28,2.09,3.49,4.54,4.07,4.77.05.02.12.03.2.03.74-.92,1.43-1.79,2.05-2.58h0Z"/>
  <path class="st1" d="M96.28,356.22s1.28-2.91,2.09-3.14c.81-.23,2.44.35,3.14-1.4.7-1.74-.35-4.54,1.16-4.89,1.51-.35,5.12-.58,6.28-2.68,1.16-2.09,1.28-4.89.23-4.54-1.05.35-2.09,1.74-3.61,3.02-1.51,1.28-2.56.93-4.54.81-1.98-.12-3.72-1.4-4.89,1.74-1.16,3.14-1.86,4.65-1.86,6.05s1.98,5,1.98,5h0Z"/>
  <path class="st1" d="M133.2,366.99c.21-1.65.27-4.51-1.09-7.52-2.09-4.65-3.72-5-2.33-6.51,1.4-1.51,3.37-2.68,3.72-1.05.35,1.63.35,4.07.47,4.77.12.7,1.16,1.28,2.09.7.93-.58,2.33-5.58.93-7.33-1.4-1.74-1.4-2.79-5.23-2.33s-7.1,4.19-7.45,4.77c-.35.58-3.96,1.16-5.7,1.63-1.74.47-3.14,1.28-3.02-.47.12-1.74,0-1.86.35-3.26.35-1.4.58-3.26-1.16-3.61-1.74-.35-3.72,1.05-4.65,2.33s-8.14,2.21-9.42,6.28c-1.23,3.93-2.14,7.86-1.79,9.38,2.17,1.16,4.59,3.75,6.9,6.63.12-.02.24-.04.36-.08,3.84-1.05,7.33-3.02,10.7-3.49,3.37-.47,6.86-3.37,6.86-.7,0,1.98.25,3.83.39,4.94.24-.05.31.06.31.06,0,0,.58,1.86.81,2.56.13.38.77.48,1.42.46.22-1.73.61-5.16.44-6.86-.23-2.33-.81-5.23-4.07-5.12-3.26.12-7.79,1.28-10.35,2.68-2.56,1.4-6.4,3.61-8.26,2.09-1.86-1.51-3.96-5.12-2.09-7.56,1.86-2.44,1.4-2.91,3.72-3.72s2.68-1.16,3.84-2.09c1.16-.93,1.98-1.16.23,2.09-1.74,3.26-3.37,4.65-1.98,6.63,1.4,1.98,1.51,2.68,3.49-.35,1.98-3.02,4.77-5,7.68-5.93,2.91-.93,8.61-1.51,9.54,3.61.93,5.12.58,5.35,1.63,7.68.03.06.05.11.08.16,1.21-1.17,2.6-1.56,2.6-1.56l.04.07h0Z"/>
  <path class="st1" d="M286.56,424.89c.98-.41,2.84,1.8,4.17,4.93,1.33,3.14,1.62,6.02.64,6.43-.97.41-2.84-1.8-4.17-4.93-1.33-3.14-1.62-6.02-.64-6.43h0Z"/>
  <path class="st1" d="M282.56,433.73c.98-.41,2.84,1.8,4.17,4.93,1.33,3.14,1.62,6.02.64,6.43-.97.41-2.84-1.8-4.17-4.93-1.33-3.14-1.62-6.02-.64-6.43h0Z"/>
  <path class="st1" d="M276.9,438c.58-.25,1.7,1.07,2.49,2.94.79,1.87.96,3.59.38,3.84-.58.25-1.7-1.07-2.49-2.94-.79-1.87-.96-3.59-.38-3.83h0Z"/>
  <path class="st1" d="M276.4,420.32c.58-.25,1.7,1.07,2.49,2.94.79,1.87.96,3.59.38,3.84-.58.25-1.7-1.07-2.49-2.94-.79-1.87-.96-3.59-.38-3.83h0Z"/>
  <path class="st1" d="M270.65,422.66c.73-.31,2.13,1.35,3.13,3.7,1,2.35,1.21,4.51.48,4.82-.73.31-2.13-1.35-3.13-3.7-1-2.35-1.21-4.52-.48-4.82h0Z"/>
  <path class="st1" d="M262.47,424.83c.73-.31,2.13,1.35,3.13,3.7,1,2.35,1.21,4.51.48,4.82-.73.31-2.13-1.35-3.13-3.7-1-2.35-1.21-4.52-.48-4.82h0Z"/>
  <path class="st1" d="M254.74,426.01c.92-.39,2.67,1.69,3.92,4.63,1.25,2.95,1.52,5.65.6,6.04-.92.39-2.67-1.69-3.92-4.63-1.25-2.95-1.52-5.65-.6-6.04h0Z"/>
  <path class="st1" d="M248.42,431.92c.65-.28,1.9,1.2,2.79,3.3.89,2.1,1.08,4.03.43,4.31-.65.28-1.9-1.2-2.79-3.3-.89-2.1-1.08-4.03-.43-4.3h0Z"/>
  <path class="st1" d="M230.07,417.58c.65-.28,1.9,1.2,2.79,3.3.89,2.1,1.08,4.03.43,4.31-.65.28-1.9-1.2-2.79-3.3-.89-2.1-1.08-4.03-.43-4.3h0Z"/>
  <path class="st1" d="M236.07,416.08c.65-.28,1.9,1.2,2.79,3.3.89,2.1,1.08,4.03.43,4.31-.65.28-1.9-1.2-2.79-3.3-.89-2.1-1.08-4.03-.43-4.3h0Z"/>
  <path class="st1" d="M242.91,414.74c.65-.28,1.9,1.2,2.79,3.3.89,2.1,1.08,4.03.43,4.31-.65.28-1.9-1.2-2.79-3.3-.89-2.1-1.08-4.03-.43-4.3h0Z"/>
  <path class="st1" d="M219.73,398.9c.65-.28,1.9,1.2,2.79,3.3.89,2.1,1.08,4.03.43,4.31-.65.28-1.9-1.2-2.79-3.3-.89-2.1-1.08-4.03-.43-4.3h0Z"/>
  <path class="st1" d="M213.62,398.66c.69-.14,1.62,1.56,2.08,3.79.45,2.24.25,4.16-.44,4.3-.69.14-1.62-1.56-2.07-3.8-.45-2.24-.25-4.17.44-4.3h0Z"/>
  <path class="st1" d="M205.2,395.21c.95-.19,2.22,2.13,2.83,5.18.61,3.05.34,5.68-.61,5.87-.07.01-.13.01-.2,0-.39-.36-.78-.71-1.15-1.05-.58-.94-1.13-2.42-1.48-4.13-.61-3.05-.34-5.68.6-5.87h0Z"/>
  <path class="st1" d="M197.86,394.21c.95-.19,2.22,2.13,2.83,5.18.08.41.15.81.2,1.2-.1-.07-.17-.12-.23-.14-.58-.25-1.83-.08-3.31.07-.03-.14-.06-.29-.09-.43-.61-3.05-.34-5.68.6-5.87h0Z"/>
  <path class="st1" d="M165.97,412.71c1.11,0,2,2.58,2,5.75s-.9,5.75-2,5.75-2-2.58-2-5.75.9-5.75,2-5.75h0Z"/>
  <path class="st1" d="M167.13,394.86c1.11,0,2,2.58,2,5.75s-.9,5.75-2,5.75-2-2.58-2-5.75.9-5.75,2-5.75h0Z"/>
  <path class="st1" d="M170.3,429.89c1.11,0,2,2.58,2,5.75,0,.63-.04,1.24-.1,1.8-1.34.44-2.55.94-3.56,1.43-.22-.92-.35-2.03-.35-3.23,0-3.18.9-5.75,2-5.75h0Z"/>
  <path class="st1" d="M182.48,430.06c1.11,0,2,2.58,2,5.75h0c-1.32-.11-2.67-.11-4-.02,0-3.17.9-5.74,2-5.74h0Z"/>
  <path class="st1" d="M160.07,428.37c1.09.18,1.55,2.87,1.02,6.01-.53,3.13-1.84,5.53-2.93,5.34-1.09-.18-1.55-2.87-1.02-6.01.53-3.13,1.84-5.53,2.93-5.34h0Z"/>
  <path class="st1" d="M149.73,425.37c1.09.18,1.55,2.87,1.02,6.01-.24,1.43-.64,2.7-1.11,3.65-.78-1.08-1.51-2.09-2.2-2.96-.23-.29-.46-.6-.7-.91.02-.14.04-.29.07-.43.53-3.13,1.84-5.53,2.93-5.34h0Z"/>
  <path class="st1" d="M141.39,420.36c1.03.17,1.49,2.57,1.1,5.47-1.02-1.03-2.14-1.94-3.41-2.56.64-1.84,1.53-3.04,2.32-2.9h0Z"/>
  <path class="st1" d="M132.73,415.08c1.02.42.88,3.14-.31,6.08-.18.44-.37.85-.57,1.24-1.41.04-2.77.1-4,.17.16-.89.44-1.89.86-2.92,1.2-2.94,3-4.99,4.02-4.58h0Z"/>
  <path class="st1" d="M143.95,406.81c.71.43.27,2.42-.96,4.45-1.24,2.03-2.81,3.32-3.52,2.89-.71-.43-.27-2.42.96-4.45,1.24-2.03,2.81-3.32,3.52-2.89h0Z"/>
  <path class="st1" d="M137.44,401.48c.71.43.27,2.42-.96,4.45-1.24,2.03-2.81,3.32-3.52,2.89-.71-.43-.27-2.42.96-4.45,1.24-2.03,2.81-3.32,3.52-2.89h0Z"/>
  <path class="st1" d="M150.72,409.27c.75.34.58,2.37-.4,4.54-.97,2.17-2.37,3.65-3.12,3.31-.75-.34-.58-2.37.4-4.54.97-2.17,2.37-3.65,3.12-3.31h0Z"/>
  <path class="st1" d="M158.13,412.43c.79.26.82,2.3.08,4.55-.74,2.26-1.98,3.88-2.76,3.62-.79-.26-.82-2.3-.08-4.55.74-2.26,1.98-3.88,2.76-3.62h0Z"/>
  <path class="st1" d="M175.06,415.11c.88,0,1.59,2.05,1.58,4.58,0,2.53-.72,4.57-1.6,4.57-.88,0-1.59-2.05-1.58-4.58,0-2.53.72-4.57,1.6-4.57h0Z"/>
  <path class="st1" d="M182.86,413.39c1-.22,2.33,1.93,2.96,4.81.63,2.88.34,5.39-.66,5.61-1,.22-2.33-1.93-2.96-4.81-.63-2.88-.34-5.39.66-5.61h0Z"/>
  <path class="st1" d="M190.6,413.36c.95-.39,2.63,1.5,3.75,4.23,1.12,2.73,1.26,5.25.31,5.64-.95.39-2.62-1.5-3.75-4.23-1.12-2.72-1.26-5.25-.31-5.64h0Z"/>
  <path class="st1" d="M199.72,411.67c1.01-.57,3.14,1.32,4.78,4.21,1.63,2.89,2.14,5.7,1.13,6.26-1.01.57-3.14-1.32-4.78-4.21-1.63-2.89-2.14-5.7-1.13-6.26h0Z"/>
  <path class="st1" d="M200.89,426.18c1.01-.57,3.14,1.32,4.78,4.21.61,1.08,1.06,2.14,1.33,3.08-.49.97-.82,2.05-1.03,3.21-1.11-.36-2.68-1.99-3.95-4.24-1.63-2.89-2.14-5.7-1.13-6.26h0Z"/>
  <path class="st1" d="M191.36,428.57c1-.22,2.33,1.93,2.96,4.81.43,1.95.43,3.74.07,4.75-.83-.29-1.71-.58-2.61-.84-.43-.83-.82-1.91-1.09-3.11-.63-2.88-.34-5.39.66-5.61h0Z"/>
  <path class="st1" d="M180.52,396.38c1-.22,2.33,1.93,2.96,4.81.63,2.88.34,5.39-.66,5.61-1,.22-2.33-1.93-2.96-4.81-.63-2.88-.34-5.39.66-5.61h0Z"/>
  <path class="st1" d="M174.31,396.6c1.02,0,1.84,2.38,1.84,5.31,0,2.93-.84,5.3-1.85,5.3-1.02,0-1.84-2.38-1.84-5.31,0-2.93.84-5.3,1.85-5.3h0Z"/>
  <path class="st1" d="M162.03,394.28c.97.43.74,3.04-.51,5.83-1.25,2.79-3.05,4.69-4.02,4.26-.97-.43-.74-3.04.51-5.83,1.25-2.78,3.05-4.69,4.02-4.25h0Z"/>
  <path class="st1" d="M154.62,392.97c.71.43.27,2.42-.96,4.45-1.24,2.03-2.81,3.32-3.52,2.89-.71-.43-.27-2.42.96-4.45,1.24-2.03,2.81-3.32,3.52-2.89h0Z"/>
  <path class="st1" d="M149.28,390.3c.71.43.27,2.42-.96,4.45-1.24,2.03-2.81,3.32-3.52,2.89-.71-.43-.27-2.42.96-4.45,1.24-2.03,2.81-3.32,3.52-2.89h0Z"/>
  <path class="st1" d="M127.87,382.69c.88,0,1.6,2.05,1.6,4.59s-.71,4.59-1.6,4.59-1.6-2.05-1.6-4.59.71-4.59,1.6-4.59h0Z"/>
  <path class="st1" d="M124.37,382.59c.75.34.58,2.37-.4,4.54-.97,2.17-2.37,3.65-3.12,3.31-.75-.34-.58-2.37.4-4.54.97-2.17,2.37-3.65,3.12-3.31h0Z"/>
  <path class="st1" d="M133.32,381.37c1-.22,2.33,1.93,2.96,4.81.63,2.88.34,5.39-.66,5.61-1,.22-2.33-1.93-2.96-4.81-.63-2.88-.34-5.39.66-5.61h0Z"/>
  <path d="M82.66,99.12l-22.83-36.53,4.83-3.02,22.83,36.53-4.83,3.02h0ZM96.64,88.87l-16.83-39.65,5.38-2.28,34.04,22.29-13.21-31.13,5.03-2.14,16.83,39.65-5.38,2.28-34.05-22.32,13.23,31.16-5.03,2.14h0ZM153.66,50.21l-1.22-4.89,17.69-4.44,3.87,15.5c-2.17,2.85-4.57,5.17-7.19,6.99-2.62,1.81-5.45,3.1-8.49,3.85-4.11,1.02-8.06,1.08-11.85.15-3.79-.91-6.96-2.83-9.5-5.72-2.54-2.9-4.33-6.41-5.35-10.51-1.01-4.07-1.1-8.08-.28-12.02.81-3.95,2.61-7.18,5.38-9.69,2.77-2.5,6.23-4.27,10.4-5.31,3.02-.75,5.87-.95,8.56-.57,2.69.36,4.94,1.25,6.76,2.66,1.83,1.4,3.45,3.42,4.88,6.05l-4.65,2.62c-1.16-1.97-2.36-3.45-3.59-4.44-1.24-.98-2.81-1.62-4.73-1.92-1.9-.3-3.92-.19-6.03.33-2.53.63-4.62,1.57-6.27,2.79-1.66,1.23-2.88,2.61-3.71,4.15-.82,1.54-1.35,3.13-1.61,4.79-.42,2.84-.25,5.78.5,8.81.93,3.73,2.35,6.68,4.26,8.87s4.24,3.58,7,4.19c2.76.61,5.51.57,8.26-.12,2.4-.6,4.62-1.65,6.67-3.14,2.06-1.49,3.54-2.9,4.45-4.24l-1.94-7.79-12.28,3.06h0ZM185.44,59.99l-5.25-42.76,30.91-3.8.62,5.05-25.26,3.1,1.61,13.09,23.65-2.9.62,5.02-23.65,2.9,1.79,14.55,26.25-3.22.62,5.05-31.91,3.92h0ZM226.24,55.16V12.08h5.85l22.63,33.82V12.08h5.47v43.08h-5.85l-22.63-33.85v33.85h-5.47ZM272.14,55.55l3.01-42.97,5.68.4-3,42.97-5.68-.4h0ZM289.39,57.03l6-42.66,30.84,4.33-.71,5.04-25.2-3.54-1.84,13.06,23.6,3.32-.7,5.01-23.6-3.32-2.04,14.52,26.19,3.68-.71,5.04-31.83-4.47h0ZM330.2,63.61l11.15-41.61,18.45,4.94c3.71.99,6.43,2.13,8.16,3.39,1.73,1.26,2.92,2.99,3.57,5.19.64,2.21.66,4.45.04,6.74-.79,2.95-2.41,5.18-4.87,6.69-2.45,1.51-5.75,2.01-9.89,1.49,1.28,1.09,2.2,2.07,2.77,2.96,1.21,1.9,2.24,4.16,3.09,6.76l4.2,13.26-6.93-1.86-3.18-10.14c-.94-2.92-1.75-5.19-2.45-6.79-.68-1.61-1.36-2.78-2.05-3.53-.68-.75-1.42-1.34-2.21-1.79-.6-.29-1.59-.64-3.02-1.02l-6.38-1.71-4.95,18.47-5.5-1.47h0ZM341.93,41.84l11.84,3.17c2.51.67,4.56.94,6.11.8,1.56-.14,2.86-.69,3.91-1.63,1.04-.95,1.74-2.09,2.1-3.43.53-1.97.25-3.77-.84-5.43-1.08-1.65-3.17-2.89-6.26-3.71l-13.17-3.53-3.69,13.77h0ZM373.94,77.63l15.44-40.22,5.32,2.04-15.44,40.22-5.32-2.04h0ZM386.15,81.59l35.87-29.03,5.32,3.07-6.27,46.12-5.63-3.25,2.17-13.81-15.6-9.01-10.62,8.94-5.25-3.03h0ZM405.76,72.48l12.66,7.31,2.06-12.58c.63-3.82,1.23-6.91,1.83-9.26-1.86,2.12-3.9,4.11-6.13,5.97l-10.41,8.57h0Z"/>
  <path class="st1" d="M250.13,222.51c6.8,0,12.31,5.51,12.31,12.31s-5.51,12.31-12.31,12.31-12.31-5.51-12.31-12.31,5.51-12.31,12.31-12.31h0ZM250.13,224.72c5.58,0,10.11,4.53,10.11,10.11s-4.53,10.11-10.11,10.11-10.11-4.53-10.11-10.11,4.53-10.11,10.11-10.11h0Z"/>
  <path class="st1" d="M263.43,243.2c1.53-2.42,2.42-5.3,2.42-8.37,0-3.7-1.28-7.11-3.43-9.79l14.93-14.05c5.58,6.37,8.97,14.71,8.97,23.84,0,8.51-2.94,16.34-7.86,22.52l-15.03-14.14h0Z"/>
  <path class="st1" d="M237.14,225.98c-1.72,2.52-2.72,5.56-2.72,8.84s.98,6.26,2.67,8.76l-15,14.11c-5.09-6.23-8.15-14.2-8.15-22.87s3.08-16.7,8.21-22.94l14.99,14.1h0Z"/>
  <path class="st1" d="M303.95,293.91c-13.51,12.32-31.27,20.06-50.81,20.78v-18.28c14.5-.7,27.69-6.41,37.88-15.44l12.93,12.93h0Z"/>
  <path class="st1" d="M192.3,290.8l15.96-16.86s7.91,7.16,12.43,9.04c4.52,1.88,4.71,2.07,4.71,2.07l6.46-14.67c-11.25-5.8-19.4-16.77-21.28-29.78h-10.18v2h-11.35v-2h-6.02v-2.24h-13.31c.88,20.35,9.32,38.74,22.59,52.44h0Z"/>
  <path class="st1" d="M252.85,293.1c1.41.02,4.75-.1,9.29-1.34,6.11-1.66,9.07-3.93,9.07-3.93l-7.11-16.36c-3.54,1.4-7.31,2.32-11.25,2.69v18.94h0Z"/>
  <polygon class="st1" points="205.16 208.06 205.16 171.16 227.69 171.16 227.69 177.41 211.8 177.41 211.8 186.13 225.52 186.13 225.52 192.38 211.8 192.38 211.8 208.06 205.16 208.06 205.16 208.06"/>
  <path class="st1" d="M253.13,154.83c41.76,1.54,75.36,35.09,76.98,76.84h-5.7v-.91h-2.04v.91h-2.78v-.91h-2.05v.91h-4.37v-.91h-1.99v.91h-2.73v-.91h-1.99v.91h-5.45v-.91h-1.99v.91h-9.1c-1.53-19.58-17.19-35.19-36.79-36.65v-40.18h0ZM286.59,206.88v-35.72h7.45v35.72h-7.45Z"/>
  <path class="st0" d="M241.29,247.68c2.54,1.67,5.57,2.63,8.83,2.63,3.43,0,6.61-1.07,9.23-2.9l15.44,14.52c-6.56,5.84-15.2,9.38-24.67,9.38s-17.8-3.42-24.31-9.07l15.48-14.57h0ZM242.01,248.61c2.34,1.53,5.13,2.42,8.13,2.42,3.16,0,6.09-.99,8.49-2.67l14.21,13.37c-6.04,5.37-13.99,8.64-22.7,8.64s-16.38-3.15-22.38-8.35l14.25-13.41h0Z"/>
  <path class="st0" d="M250.14,198.29c8.86,0,17,3.1,23.4,8.26l-15.7,14.77c-2.29-1.24-4.91-1.95-7.7-1.95-3.24,0-6.25.95-8.78,2.59l-15.55-14.63c6.53-5.64,15.04-9.04,24.34-9.04h0ZM250.11,199.06c8.28,0,15.89,2.89,21.87,7.72l-14.67,13.8c-2.14-1.16-4.59-1.82-7.2-1.82-3.03,0-5.84.89-8.21,2.42l-14.54-13.67c6.1-5.27,14.05-8.45,22.74-8.45h0Z"/>
  <path class="st0" d="M248.16,315.83c-20.47-.93-39.04-9.19-53.15-22.2l13.61-13.61c10.61,9.55,24.37,15.66,39.54,16.55v19.25h0ZM246.35,314.61c-18.87-.86-35.99-8.47-48.99-20.46l12.54-12.55c9.78,8.8,22.47,14.43,36.45,15.26v17.75h0Z"/>
  <path class="st0" d="M246.75,293.1c-1.41.02-4.75-.1-9.29-1.34-6.11-1.66-9.07-3.93-9.07-3.93l7.11-16.36c3.54,1.4,7.31,2.32,11.25,2.68v18.94h0ZM245.4,291.51c-1.2.02-4.05-.09-7.92-1.14-5.21-1.41-7.74-3.35-7.74-3.35l6.06-13.95c3.02,1.2,6.24,1.98,9.6,2.29v16.15h0Z"/>
  <path class="st0" d="M246.44,195.07c-19.28,1.77-34.59,17.25-36.11,36.59h-3.97v-.44h-5.97v-2.82h-11.35v3.11h-4.54v.15h-14.36c1.61-41.52,34.85-74.93,76.3-76.81v40.22h0ZM244.73,194.99c-18.41,1.69-33.05,16.48-34.49,34.96l-9.85.02v-1.57h-11.35v1.4h-3.48v.14h-13.72c1.54-39.66,33.29-71.58,72.89-73.38v38.42h0Z"/>
  <path class="st0" d="M267.89,270.58l8.29,14.61s9.79-5.59,12.58-8.06l2.8-2.47s10.32,10,12.37,11.94c1.28,1.21,2.94,2.68,4,3.61,13.02-13.59,21.3-31.75,22.17-51.83h-5.68v1.06h-2.05v-.18h-2.78v.18h-2.05v-1.06h-4.37v1.06h-1.99v-.18h-2.73v.18h-1.99v-1.06h-5.45v1.06h-1.99v-1.06h-9.14c-1.24,14.15-9.87,26.18-22,32.22h0ZM269.49,270.26l7.86,13.86s9.28-5.3,11.94-7.65l2.65-2.35s9.79,9.49,11.73,11.32c1.21,1.15,2.79,2.54,3.8,3.42,12.35-12.89,20.21-30.12,21.04-49.17h-38.15c-1.18,13.42-9.36,24.83-20.87,30.56h0Z"/>
  <path class="st1" d="M332.95,210.59c2.25,7.69,3.46,15.82,3.46,24.23,0,47.64-38.64,86.28-86.28,86.28s-86.28-38.64-86.28-86.28c0-8.93,1.36-17.53,3.87-25.63l.74,1.5c-2.26,7.65-3.48,15.75-3.48,24.13,0,47.01,38.13,85.14,85.14,85.14s85.14-38.13,85.14-85.14c0-7.87-1.07-15.48-3.07-22.71l.75-1.52h0Z"/>
  <path class="st1" d="M235.29,150.98c-30.98,5.45-56.19,27.65-65.94,56.91l-.71-1.44c10.16-29.18,35.56-51.24,66.66-56.63v1.16h0Z"/>
  <path class="st1" d="M265.02,149.83c31.55,5.49,57.22,28.13,67.06,57.95l-.72,1.46c-9.42-29.92-34.9-52.71-66.33-58.26v-1.16h0Z"/>
  <path class="st1" d="M249.21,322.23c-9.74-.11-19.06-1.92-27.71-5.13l27.71,55.8v-50.68h0Z"/>
  <path class="st1" d="M252.41,373.45l28.35-57.09c-8.8,3.52-18.35,5.57-28.35,5.84v51.25h0ZM253.93,368.79l24.61-49.57c-7.64,3.06-15.93,4.84-24.61,5.07v44.5h0Z"/>
  <path class="st1" d="M184.5,231.51h4.54v7.98h-4.54v-7.98h0ZM185.52,232.54h3.52v6.63h-3.52v-6.63h0Z"/>
  <path class="st1" d="M189.04,228.4h5.06v14.2h-5.06v-14.2h0ZM190.23,229.35h3.87v12.27h-3.87v-12.27h0Z"/>
  <path class="st1" d="M194.1,228.4h6.29v2.82h-.32v8.56h.32v2.82h-6.29v-14.2h0ZM195.27,229.42h4.97v1.8h-.17v8.56h.17v1.9h-4.97v-12.27h0Z"/>
  <path class="st1" d="M200.07,231.22h6.29v8.56h-6.29v-8.56h0ZM201.1,232.47h3.85v6.63h-3.85v-6.63h0Z"/>
  <polygon class="st1" points="301.02 233.43 306.47 233.43 306.47 236.74 301.02 236.74 301.02 233.43 301.02 233.43"/>
  <polygon class="st1" points="299.03 230.75 301.02 230.75 301.02 239.42 299.03 239.42 299.03 230.75 299.03 230.75"/>
  <polygon class="st1" points="322.38 230.75 324.42 230.75 324.42 239.42 322.38 239.42 322.38 230.75 322.38 230.75"/>
  <polygon class="st1" points="317.55 230.75 319.59 230.75 319.59 239.42 317.55 239.42 317.55 230.75 317.55 230.75"/>
  <polygon class="st1" points="313.17 233.22 317.55 233.22 317.55 236.95 313.17 236.95 313.17 233.22 313.17 233.22"/>
  <polygon class="st1" points="311.19 230.75 313.17 230.75 313.17 239.42 311.19 239.42 311.19 230.75 311.19 230.75"/>
  <polygon class="st1" points="306.47 230.75 308.46 230.75 308.46 239.42 306.47 239.42 306.47 230.75 306.47 230.75"/>
  <polygon class="st1" points="324.42 233.64 329.25 233.64 329.25 236.53 324.42 236.53 324.42 233.64 324.42 233.64"/>
  <polygon class="st1" points="308.46 236.35 311.19 236.35 311.19 239.24 308.46 239.24 308.46 236.35 308.46 236.35"/>
  <polygon class="st1" points="319.59 236.35 322.38 236.35 322.38 239.24 319.59 239.24 319.59 236.35 319.59 236.35"/>
  <path class="st1" d="M333.88,214.05l34.83-71.07h-236.04l34.09,69.56c.3-1.14.62-2.27.97-3.38l-31.07-63.9h228.06l-31.77,65.33c.33,1.14.64,2.29.93,3.46h0Z"/>
  <path class="st1" d="M250.69,383.8l34.33-70.05c-.93.41-1.86.81-2.8,1.18l-31.53,64.84-31.27-64.3c-.93-.35-1.85-.72-2.76-1.1l34.03,69.43h0Z"/>
  <path class="st1" d="M235.23,149.83h-94.13l27.53,56.62c10.16-29.16,35.53-51.21,66.6-56.62h0Z"/>
  <path class="st1" d="M332.09,207.81l28.19-57.98h-95.25c31.56,5.5,57.23,28.14,67.06,57.98h0Z"/>
  <path class="st1" d="M235.23,149.83h-94.13l27.53,56.62c.95-2.73,2.04-5.4,3.25-8v-.02c3.24-6.93,7.36-13.36,12.23-19.14h0c.91-1.08,1.84-2.14,2.8-3.17l.04-.04c.95-1.02,1.92-2.01,2.91-2.98l.07-.07c.98-.95,1.98-1.88,3-2.79l.14-.12c1.03-.91,2.08-1.79,3.15-2.65l.08-.06c.36-.29.72-.57,1.09-.86h.02c.73-.58,1.48-1.14,2.23-1.68l.04-.03c.37-.27.74-.53,1.11-.79l.14-.09c1.11-.77,2.24-1.52,3.39-2.24l.21-.13c1.12-.7,2.26-1.37,3.41-2.02l.3-.17c1.14-.63,2.29-1.24,3.45-1.82l.33-.16c1.16-.57,2.33-1.12,3.52-1.64.12-.05.25-.11.37-.16.38-.17.77-.33,1.15-.49l.2-.08c.76-.31,1.52-.61,2.28-.9.11-.04.22-.08.33-.13.39-.15.78-.29,1.18-.43.11-.04.22-.08.33-.12.74-.26,1.49-.51,2.24-.76.11-.04.22-.07.33-.11.39-.12.77-.24,1.16-.36.16-.05.32-.09.47-.14.72-.21,1.45-.42,2.18-.61.12-.03.24-.07.36-.1.38-.1.76-.2,1.15-.29.18-.04.35-.09.53-.13,1.23-.3,2.47-.57,3.71-.81.19-.04.38-.07.57-.11.39-.07.77-.15,1.16-.21h0Z"/>
  <path class="st1" d="M332.09,207.81l28.19-57.98h-95.25c31.56,5.5,57.23,28.14,67.06,57.98h0Z"/>
  <path class="st1" d="M247.61,0c89.6,0,168.44,25.86,214.07,64.98l-32.38,52.26c-41.24-31.96-106.61-52.61-180.19-52.61s-134.12,19.16-175.53,49.13l-35.26-52.72C84.56,24.13,161.06,0,247.61,0h0ZM247.75,2.71c88.05,0,165.2,24.87,207.95,62.12l-30.81,46.92c-38.97-30.63-103.16-50.63-175.72-50.63s-132.39,18.67-171.67,47.56l-31.94-48.64C89.29,25.47,163.53,2.71,247.75,2.71h0Z"/>
  <path class="st1" d="M316.68,127.72s-1.15-2.5-1.77-4.9c-.63-2.4-.52-2.61-.52-2.61,0,0-1.98,1.25-1.98,2.29s-.73,3.75.73,4.69c1.46.94,3.54.52,3.54.52h0Z"/>
  <metadata>
    <sfw xmlns="http://ns.adobe.com/SaveForWeb/1.0/">
      <slices/>
      <sliceSourceBounds x="38.32" y="0" width="423.36" height="500" bottomLeftOrigin="true"/>
      <optimizationSettings>
        <targetSettings fileFormat="PNG8Format" targetSettingsID="0">
          <PNG8Format autoReduce="false" ditherAlgorithm="diffusion" ditherPercent="100" interlaced="false" matteColor="#FFFFFF" noMatteColor="false" numColors="256" reductionAlgorithm="perceptual" rolloverMasterPalette="false" transparency="true" webShiftPercent="0">
            <colorTable isExact="false"/>
            <lockedColors/>
            <colorShiftEntries/>
          </PNG8Format>
        </targetSettings>
      </optimizationSettings>
    </sfw>
  </metadata>
</svg>