<?xml version="1.0" encoding="UTF-8"?>
<svg id="Capa_1" xmlns="http://www.w3.org/2000/svg" width="500" height="388" version="1.1" viewBox="0 0 500 388">
  <!-- Generator: Adobe Illustrator 30.1.0, SVG Export Plug-In . SVG Version: 2.1.1 Build 136)  -->
  <defs>
    <style>
      .st0 {
        fill: #1d1d1b;
      }
    </style>
  </defs>
  <path class="st0" d="M16.43,189.96c3.83,4.45,8.05,7.88,12.66,10.3,4.62,2.42,10.36,4.03,17.23,4.84,6.87.81,13.21,1.22,19.02,1.22,10.04,0,18.66-1.33,25.82-3.99,5.16-1.9,10.08-5.2,14.78-9.89,4.69-4.69,8.14-10.18,10.34-16.44s3.3-12.93,3.3-19.98v-71.13h-36.81v72.82c0,6.62-1.81,11.73-5.42,15.35-3.61,3.61-8.59,5.41-14.95,5.41s-11.42-1.83-15.03-5.5c-3.61-3.66-5.42-8.75-5.42-15.26v-72.82H5.15v71.14c0,5.86,1.14,12.59,3.42,20.18,1.41,4.72,4.03,9.31,7.86,13.76h0Z"/>
  <rect class="st0" x="145.49" y="84.89" width="36.98" height="119.4"/>
  <polygon class="st0" points="238.74 113.22 261.98 204.29 289.32 204.29 312.61 113.22 312.61 204.29 342.83 204.29 342.83 84.89 294.33 84.89 275.76 157.53 257.04 84.89 208.52 84.89 208.52 204.29 238.74 204.29 238.74 113.22"/>
  <rect class="st0" x="-2.15" y="215.69" width="345.11" height="27.1"/>
  <path class="st0" d="M499.79,238.35c-2.38-8.34-4.87-16.66-7.32-24.97.16-.34.27-.68.27-1.05,0-3.41-7.54-6.09-18.9-7.99,2.28-4.35,4.57-8.7,6.86-13.05,1.06-2.03,2.16-4.19,2.01-6.47-.06-.96-.35-1.92-.26-2.88.11-1.22.81-2.3,1.29-3.43,1.01-2.38,1.03-5.17.06-7.57-.56-1.39-1.44-2.64-2.06-4-.94-2.09-1.26-4.41-1.64-6.67-3.2-19.42-11.59-36.92-23.05-52.77-.48-.66-1.29-1.26-1.59-1.7-.77-1.11-.86-3.13-1.38-4.43-.74-1.87-1.43-3.77-2.14-5.65-.05-.13-.27-.7-.46-1.19-.22-.58-.51-1.12-.88-1.62-.82-1.15-2.62-3.33-6.02-6.16-2.07-1.71-4.63-2.78-7.38-2.82s-5.57.31-8.17-.56c-3.23-1.09-5.52-3.91-7.06-6.87-.62-1.19-1.21-2.49-2.38-3.19-.67-.39-1.45-.55-2.24-.56-.26,0-.52,0-.78.02-4.17.27-7.78,2.79-11.13,5.21-3.56,2.58-7.28,5.33-9.1,9.26-.46,1-.79,2.04-1.3,3.02-.65,1.25-1.59,2.34-2.39,3.51-2.28,3.34-3.39,7.29-4.39,11.17-2.47,9.65-4.49,19.46-8.21,28.71-2.33,5.8-5.3,11.34-7.44,17.19-2.14,5.86-3.43,12.19-2.23,18.29,1.1,5.53,4.17,10.59,4.95,16.16.58,4.19-.17,8.43-.23,12.64-.03,2.14.15,4.36.74,6.42-11.16,1.89-18.55,4.55-18.55,7.93,0,.36.11.7.27,1.05-2.43,8.24-4.86,16.48-7.27,24.71-.16.57-.34,1.17-.22,1.76.29,1.52,2.16,2.05,3.68,2.29,41.92,6.34,84.19,8.05,126.32,2.5,5.73-.75,11.6-1.41,17.22-2.75,1.08-.26,2.33-.7,2.63-1.77.16-.58,0-1.19-.17-1.76h.01s.01.01.01.01ZM405.02,190.01c.89-1.43,2.14-2.8,3.81-3.21,1.14-.28,2.35-.09,3.48-.37,2.18-.53,3.54-2.64,4.18-4.72.63-2.08.78-4.3,1.66-6.29,1.62-3.63,5.52-6.08,6.66-9.87.36-1.18.26-2.72-.87-3.28-.52-.26-1.14-.24-1.73-.21l-9.48.45c-.77.04-1.6.06-2.24-.36-.96-.63-1.06-1.95-.92-3.06.73-5.88,5.28-10.6,7.43-16.15,3.79-9.84.18-22.16,7.09-30.27.96-1.13,2.4-2.36,3.95-1.61,3.3,1.6,2.14,6.63,2.06,9.49-.18,6.45,2.06,12.64,4.45,18.52,2.44,6.01,4.23,12.43,6.21,18.62.24.75.26,1.58-.01,2.33-.82,2.25-3.2,1.54-4.83,2.42-1.43.77-1.94,2.58-2.04,4.21-.1,1.63.07,3.33-.58,4.83-.62,1.43-1.9,2.46-3.07,3.5-2.49,2.23-4.68,4.8-6.47,7.62-.72,1.13-1.4,2.57-.25,3.72.62.61,1.51.86,2.37.75,4.29-.53,8.64-.64,12.96-.34,1.66.12,3.41.34,4.69,1.38,2.18,1.78,2.12,5.12,1.47,7.86-.42,1.81-.97,3.67-1.07,5.5-6.2-.29-12.58-.44-18.89-.44-7.69,0-15.48.22-22.91.65.08-4.12.73-8.19,2.9-11.67h-.01ZM376.25,205.54c.58,1.58,1.41,3.04,2.62,4.26,4.36,4.41,11.64,4.21,17.86,3.13,1.92-.34,4.06-.88,5.02-2.51.67-1.14.58-2.51.5-3.81-.08-1.24-.13-2.51-.13-3.77,7.01-.4,14.67-.64,22.92-.64,6.71,0,13.01.16,18.91.43.04.55.1,1.09.29,1.62.55,1.6,1.74,2.89,2.89,4.13,2.25,2.42,4.97,5.02,8.26,4.81,2.02-.13,3.86-1.33,5.88-1.47,2.6-.18,5.38,1.41,7.69.19,1.24-.66,1.97-1.98,2.63-3.23.57-1.08,1.14-2.16,1.71-3.25,11.63,1.92,18.29,4.45,18.29,6.9,0,4.9-26.73,10.14-66.53,10.14s-66.53-5.24-66.53-10.14c0-2.4,6.47-4.89,17.75-6.8h-.01ZM478.32,219.49c2.37-.49,4.51-1.02,6.37-1.6-1.86.6-4.01,1.13-6.37,1.6Z"/>
  <path class="st0" d="M80.03,264.04h-3.69v10.11c0,1.45-.06,2.48-.16,3.1-.11.62-.43,1.15-.96,1.58-.53.42-1.32.64-2.37.64s-1.85-.23-2.44-.68c-.59-.45-.97-1.05-1.13-1.8-.09-.46-.14-1.48-.14-3.06v-9.89h-3.69v9.75c0,2.04.12,3.59.36,4.64.17.71.51,1.38,1.03,2.02.53.65,1.24,1.17,2.14,1.57.9.41,2.23.61,3.97.61,1.45,0,2.62-.18,3.51-.55.89-.37,1.62-.87,2.15-1.49.54-.62.91-1.39,1.1-2.29.2-.91.3-2.45.3-4.65v-9.59h0Z"/>
  <polygon class="st0" points="87.55 264.04 83.96 264.04 83.96 282.3 87.38 282.3 87.38 270.39 94.75 282.3 98.45 282.3 98.45 264.04 95.02 264.04 95.02 276.23 87.55 264.04"/>
  <rect class="st0" x="102.24" y="264.04" width="3.69" height="18.27"/>
  <path class="st0" d="M119.64,264.39c-.8-.23-1.96-.35-3.48-.35h-6.74v18.27h6.94c1.36,0,2.45-.13,3.27-.39,1.09-.35,1.95-.84,2.59-1.46.85-.82,1.5-1.9,1.96-3.23.37-1.09.56-2.38.56-3.89,0-1.71-.2-3.15-.6-4.32s-.98-2.16-1.74-2.96-1.68-1.36-2.75-1.68h0ZM120.55,276.53c-.25.82-.58,1.4-.96,1.76-.39.36-.89.62-1.49.76-.46.12-1.2.18-2.23.18h-2.75v-12.1h1.66c1.5,0,2.51.06,3.02.18.69.15,1.26.43,1.71.86s.79,1.01,1.05,1.77c.25.75.37,1.85.37,3.25s-.12,2.52-.37,3.34h0Z"/>
  <path class="st0" d="M137.02,264.04h-3.9l-7.12,18.27h3.91l1.51-4.15h7.3l1.6,4.15h4.01l-7.31-18.27h0ZM132.56,275.08l2.47-6.78,2.52,6.78h-4.98Z"/>
  <path class="st0" d="M161.03,277.23c.37-1.09.56-2.38.56-3.89,0-1.71-.2-3.15-.6-4.32s-.98-2.16-1.74-2.96-1.68-1.36-2.75-1.68c-.8-.23-1.96-.35-3.48-.35h-6.74v18.27h6.94c1.36,0,2.45-.13,3.27-.39,1.09-.35,1.95-.84,2.59-1.46.85-.82,1.5-1.9,1.96-3.23h0ZM157.4,276.53c-.25.82-.58,1.4-.96,1.76-.39.36-.89.62-1.49.76-.46.12-1.2.18-2.23.18h-2.75v-12.1h1.66c1.5,0,2.51.06,3.02.18.69.15,1.26.43,1.71.86s.79,1.01,1.05,1.77c.25.75.37,1.85.37,3.25s-.12,2.52-.37,3.34h0Z"/>
  <path class="st0" d="M186.55,277.23c.37-1.09.56-2.38.56-3.89,0-1.71-.2-3.15-.6-4.32s-.98-2.16-1.74-2.96-1.68-1.36-2.75-1.68c-.8-.23-1.96-.35-3.48-.35h-6.74v18.27h6.94c1.36,0,2.45-.13,3.27-.39,1.09-.35,1.95-.84,2.59-1.46.85-.82,1.5-1.9,1.96-3.23h0ZM182.92,276.53c-.25.82-.58,1.4-.96,1.76-.39.36-.89.62-1.49.76-.46.12-1.2.18-2.23.18h-2.75v-12.1h1.66c1.5,0,2.51.06,3.02.18.69.15,1.26.43,1.71.86s.79,1.01,1.05,1.77c.25.75.37,1.85.37,3.25s-.12,2.52-.37,3.34h0Z"/>
  <polygon class="st0" points="203.77 267.12 203.77 264.04 190.23 264.04 190.23 282.3 204.13 282.3 204.13 279.22 193.92 279.22 193.92 274.25 203.09 274.25 203.09 271.18 193.92 271.18 193.92 267.12 203.77 267.12"/>
  <rect class="st0" x="214.23" y="264.04" width="3.69" height="18.27"/>
  <polygon class="st0" points="224.89 270.39 232.26 282.3 235.96 282.3 235.96 264.04 232.54 264.04 232.54 276.23 225.05 264.04 221.47 264.04 221.47 282.3 224.89 282.3 224.89 270.39"/>
  <polygon class="st0" points="241.99 264.04 237.99 264.04 244.52 282.3 248.45 282.3 255 264.04 251.08 264.04 246.61 277.56 241.99 264.04"/>
  <polygon class="st0" points="270.42 267.12 270.42 264.04 256.88 264.04 256.88 282.3 270.77 282.3 270.77 279.22 260.57 279.22 260.57 274.25 269.74 274.25 269.74 271.18 260.57 271.18 260.57 267.12 270.42 267.12"/>
  <path class="st0" d="M286.95,279.92c.58-.91.88-1.89.88-2.94,0-1.15-.24-2.12-.73-2.91s-1.16-1.4-2.02-1.86c-.86-.45-2.19-.89-3.98-1.31s-2.92-.83-3.39-1.22c-.36-.31-.55-.68-.55-1.11,0-.48.19-.85.58-1.13.61-.44,1.45-.66,2.52-.66s1.82.21,2.34.62c.52.41.86,1.08,1.01,2.02l3.69-.16c-.06-1.68-.67-3.02-1.83-4.03-1.15-1.01-2.89-1.51-5.17-1.51-1.4,0-2.6.21-3.6.63s-1.76,1.04-2.28,1.85c-.53.81-.79,1.68-.79,2.61,0,1.45.56,2.67,1.68,3.67.8.72,2.19,1.32,4.16,1.81,1.53.38,2.52.65,2.96.8.63.22,1.07.49,1.33.79s.38.67.38,1.1c0,.68-.3,1.26-.91,1.76-.6.5-1.5.75-2.69.75-1.12,0-2.01-.29-2.67-.85-.66-.56-1.1-1.45-1.31-2.66l-3.59.35c.24,2.04.98,3.6,2.22,4.67s3.01,1.6,5.32,1.6c1.59,0,2.91-.22,3.98-.67,1.06-.44,1.88-1.12,2.47-2.04h0Z"/>
  <polygon class="st0" points="289.61 267.12 295.02 267.12 295.02 282.3 298.72 282.3 298.72 267.12 304.12 267.12 304.12 264.04 289.61 264.04 289.61 267.12"/>
  <rect class="st0" x="306.39" y="264.04" width="3.69" height="18.27"/>
  <path class="st0" d="M330.04,272.51h-7.95v3.08h4.22v2.32c-.55.43-1.22.8-2,1.1-.77.3-1.55.46-2.32.46-1.56,0-2.82-.55-3.79-1.62-.96-1.08-1.45-2.71-1.45-4.88,0-2.01.48-3.53,1.43-4.55.95-1.02,2.23-1.53,3.84-1.53,1.06,0,1.95.26,2.66.78s1.19,1.22,1.45,2.12l3.67-.68c-.37-1.68-1.19-2.99-2.46-3.94s-3.05-1.43-5.31-1.43c-1.74,0-3.2.3-4.38.91-1.53.79-2.7,1.92-3.5,3.4-.8,1.48-1.19,3.17-1.19,5.07,0,1.76.36,3.37,1.07,4.87.72,1.49,1.78,2.64,3.2,3.44,1.42.8,3.09,1.2,5,1.2,1.5,0,2.99-.29,4.45-.86,1.46-.56,2.59-1.22,3.36-1.98v-7.27h0Z"/>
  <path class="st0" d="M349.91,282.3l-7.31-18.27h-3.9l-7.12,18.27h3.91l1.51-4.15h7.3l1.6,4.15h4.01ZM338.13,275.08l2.47-6.78,2.52,6.78h-4.98Z"/>
  <path class="st0" d="M362.03,278.53c-.7.62-1.55.93-2.53.93-1.33,0-2.41-.49-3.24-1.47s-1.25-2.63-1.25-4.93c0-2.18.42-3.75,1.26-4.72.84-.98,1.95-1.46,3.3-1.46.98,0,1.81.27,2.5.82.68.55,1.14,1.29,1.35,2.24l3.65-.88c-.42-1.46-1.04-2.59-1.87-3.37-1.4-1.32-3.21-1.98-5.44-1.98-2.56,0-4.62.84-6.2,2.52-1.57,1.68-2.35,4.04-2.35,7.08,0,2.87.78,5.14,2.35,6.8s3.56,2.49,5.98,2.49c1.96,0,3.58-.48,4.85-1.45,1.27-.96,2.19-2.45,2.73-4.44l-3.58-1.14c-.31,1.34-.81,2.32-1.52,2.94h0Z"/>
  <rect class="st0" x="370.18" y="264.04" width="3.69" height="18.27"/>
  <polygon class="st0" points="384.95 259.26 383.23 262.99 385.44 262.99 388.87 259.26 384.95 259.26"/>
  <path class="st0" d="M379.17,266.09c-.72.74-1.29,1.58-1.7,2.5-.56,1.26-.83,2.82-.83,4.68,0,2.9.8,5.19,2.4,6.85s3.77,2.49,6.48,2.49,4.83-.83,6.43-2.5,2.4-3.98,2.4-6.92-.81-5.3-2.42-6.96c-1.62-1.67-3.77-2.5-6.46-2.5-1.49,0-2.8.24-3.94.72-.86.36-1.64.91-2.36,1.64h0ZM385.5,266.88c1.52,0,2.74.51,3.66,1.55s1.38,2.59,1.38,4.68-.48,3.71-1.41,4.77c-.94,1.06-2.15,1.59-3.62,1.59s-2.68-.54-3.64-1.6c-.96-1.07-1.43-2.64-1.43-4.71s.46-3.67,1.4-4.72c.93-1.05,2.16-1.56,3.68-1.56h0Z"/>
  <polygon class="st0" points="408.06 282.3 411.76 282.3 411.76 264.04 408.34 264.04 408.34 276.23 400.86 264.04 397.27 264.04 397.27 282.3 400.7 282.3 400.7 270.39 408.06 282.3"/>
  <polygon class="st0" points="49.02 307.11 45.7 294.65 40.18 294.65 40.18 312.92 43.61 312.92 43.61 298.54 47.22 312.92 50.77 312.92 54.4 298.54 54.4 312.92 57.82 312.92 57.82 294.65 52.29 294.65 49.02 307.11"/>
  <path class="st0" d="M72.33,304.76c0,1.45-.06,2.48-.16,3.1-.11.62-.43,1.15-.96,1.58-.53.42-1.32.64-2.37.64s-1.85-.23-2.44-.68c-.59-.45-.97-1.05-1.13-1.8-.09-.46-.14-1.48-.14-3.06v-9.89h-3.69v9.75c0,2.04.12,3.59.36,4.64.17.71.51,1.38,1.03,2.02.53.65,1.24,1.17,2.14,1.57.9.41,2.23.61,3.97.61,1.45,0,2.62-.18,3.51-.55.89-.37,1.62-.87,2.15-1.49.54-.62.91-1.39,1.1-2.29.2-.91.3-2.45.3-4.65v-9.59h-3.69v10.11h0Z"/>
  <polygon class="st0" points="83.7 294.8 80.01 294.8 80.01 312.92 92.87 312.92 92.87 309.84 83.7 309.84 83.7 294.8"/>
  <polygon class="st0" points="92.31 297.74 97.72 297.74 97.72 312.92 101.41 312.92 101.41 297.74 106.82 297.74 106.82 294.65 92.31 294.65 92.31 297.74"/>
  <rect class="st0" x="109.08" y="294.65" width="3.69" height="18.27"/>
  <path class="st0" d="M129.24,296.68c-.76-.81-1.68-1.36-2.75-1.68-.8-.23-1.96-.35-3.48-.35h-6.74v18.27h6.94c1.36,0,2.45-.13,3.27-.39,1.09-.35,1.95-.84,2.59-1.46.85-.82,1.5-1.9,1.96-3.23.37-1.09.56-2.38.56-3.89,0-1.71-.2-3.15-.6-4.32s-.98-2.16-1.74-2.96h0ZM127.4,307.15c-.25.82-.58,1.4-.96,1.76-.39.36-.89.62-1.49.76-.46.12-1.2.18-2.23.18h-2.75v-12.1h1.66c1.5,0,2.51.06,3.02.18.69.15,1.26.43,1.71.86s.79,1.01,1.05,1.77c.25.75.37,1.85.37,3.25s-.12,2.52-.37,3.34h0Z"/>
  <rect class="st0" x="134.61" y="294.65" width="3.69" height="18.27"/>
  <path class="st0" d="M152.97,302.83c-.86-.45-2.19-.89-3.98-1.31s-2.92-.83-3.39-1.22c-.36-.31-.55-.68-.55-1.11,0-.48.19-.85.58-1.13.61-.44,1.45-.66,2.52-.66s1.82.21,2.34.62c.52.41.86,1.08,1.01,2.02l3.69-.16c-.06-1.68-.67-3.02-1.83-4.03-1.15-1.01-2.89-1.51-5.17-1.51-1.4,0-2.6.21-3.6.63-1,.42-1.76,1.04-2.28,1.85s-.79,1.68-.79,2.61c0,1.45.56,2.67,1.68,3.67.8.72,2.19,1.32,4.16,1.81,1.53.38,2.52.65,2.96.8.63.22,1.07.49,1.33.79s.38.67.38,1.1c0,.68-.3,1.26-.91,1.76s-1.5.75-2.69.75c-1.12,0-2.01-.29-2.67-.85-.66-.56-1.1-1.45-1.31-2.66l-3.59.35c.24,2.04.98,3.6,2.22,4.67s3.01,1.6,5.32,1.6c1.59,0,2.91-.22,3.98-.67,1.06-.44,1.88-1.12,2.47-2.04.58-.91.88-1.89.88-2.94,0-1.15-.24-2.12-.73-2.91s-1.16-1.4-2.02-1.86h0Z"/>
  <path class="st0" d="M168.99,309.14c-.7.62-1.55.93-2.53.93-1.33,0-2.41-.49-3.24-1.47s-1.25-2.63-1.25-4.93c0-2.18.42-3.75,1.26-4.72.84-.98,1.95-1.46,3.3-1.46.98,0,1.81.27,2.5.82.68.55,1.14,1.29,1.35,2.24l3.65-.88c-.42-1.46-1.04-2.59-1.87-3.37-1.4-1.32-3.21-1.98-5.44-1.98-2.56,0-4.62.84-6.2,2.52-1.57,1.68-2.35,4.04-2.35,7.08,0,2.87.78,5.14,2.35,6.8s3.56,2.49,5.98,2.49c1.96,0,3.58-.48,4.85-1.45,1.27-.96,2.19-2.45,2.73-4.44l-3.58-1.14c-.31,1.34-.81,2.32-1.52,2.94h0Z"/>
  <rect class="st0" x="177.14" y="294.65" width="3.69" height="18.27"/>
  <path class="st0" d="M194.65,294.93c-.68-.18-2.14-.28-4.39-.28h-5.92v18.27h3.69v-6.89h2.4c1.67,0,2.95-.09,3.82-.26.65-.14,1.29-.43,1.92-.86.63-.44,1.15-1.03,1.55-1.8s.61-1.71.61-2.83c0-1.45-.36-2.64-1.06-3.56-.71-.92-1.59-1.52-2.63-1.79h0ZM194.11,301.74c-.28.41-.66.7-1.15.89s-1.46.29-2.92.29h-2.02v-5.18h1.78c1.33,0,2.21.04,2.66.12.6.11,1.09.38,1.48.81.39.43.58.98.58,1.64,0,.54-.14,1.01-.42,1.42h0Z"/>
  <polygon class="st0" points="205.15 294.8 201.46 294.8 201.46 312.92 214.32 312.92 214.32 309.84 205.15 309.84 205.15 294.8"/>
  <rect class="st0" x="216.83" y="294.65" width="3.69" height="18.27"/>
  <polygon class="st0" points="235.14 306.85 227.66 294.65 224.08 294.65 224.08 312.92 227.5 312.92 227.5 301.01 234.87 312.92 238.57 312.92 238.57 294.65 235.14 294.65 235.14 306.85"/>
  <path class="st0" d="M247.72,294.65l-7.12,18.27h3.91l1.51-4.15h7.3l1.6,4.15h4.01l-7.31-18.27h-3.9ZM247.16,305.69l2.47-6.78,2.52,6.78h-4.98Z"/>
  <path class="st0" d="M272.99,306.39c-.52-.56-1.18-1.07-1.98-1.53,1.6-.23,2.81-.79,3.61-1.69s1.21-2.02,1.21-3.39c0-1.08-.27-2.04-.79-2.88-.53-.84-1.24-1.42-2.12-1.75s-2.3-.49-4.26-.49h-7.76v18.27h3.69v-7.62h.75c.85,0,1.46.06,1.86.2s.76.39,1.11.76c.35.37,1,1.27,1.95,2.69l2.66,3.98h4.41l-2.23-3.56c-.88-1.42-1.58-2.41-2.1-2.97h-.01ZM267.32,302.38h-2.73v-4.64h2.88c1.49,0,2.39.02,2.69.06.6.1,1.06.34,1.39.72.32.38.49.88.49,1.49,0,.55-.12,1.01-.37,1.38-.25.36-.59.62-1.03.77s-1.55.22-3.32.22h0Z"/>
  <rect class="st0" x="279.21" y="294.65" width="3.69" height="18.27"/>
  <path class="st0" d="M291.66,294.65l-7.12,18.27h3.91l1.51-4.15h7.3l1.6,4.15h4.01l-7.31-18.27h-3.9ZM291.1,305.69l2.47-6.78,2.52,6.78h-4.98Z"/>
  <path class="st0" d="M315.34,294.65l-7.12,18.27h3.91l1.51-4.15h7.3l1.6,4.15h4.01l-7.31-18.27h-3.9ZM314.78,305.69l2.47-6.78,2.52,6.78h-4.98Z"/>
  <path class="st0" d="M338.82,294.93c-.68-.18-2.14-.28-4.39-.28h-5.92v18.27h3.69v-6.89h2.4c1.67,0,2.95-.09,3.82-.26.65-.14,1.29-.43,1.92-.86.63-.44,1.15-1.03,1.55-1.8s.61-1.71.61-2.83c0-1.45-.36-2.64-1.06-3.56-.71-.92-1.59-1.52-2.63-1.79h0ZM338.29,301.74c-.28.41-.66.7-1.15.89s-1.46.29-2.92.29h-2.02v-5.18h1.78c1.33,0,2.21.04,2.66.12.6.11,1.09.38,1.48.81.39.43.58.98.58,1.64,0,.54-.14,1.01-.42,1.42h0Z"/>
  <polygon class="st0" points="349.32 294.8 345.63 294.8 345.63 312.92 358.49 312.92 358.49 309.84 349.32 309.84 349.32 294.8"/>
  <rect class="st0" x="361.01" y="294.65" width="3.69" height="18.27"/>
  <path class="st0" d="M378.37,309.14c-.7.62-1.55.93-2.53.93-1.33,0-2.41-.49-3.24-1.47s-1.25-2.63-1.25-4.93c0-2.18.42-3.75,1.26-4.72.84-.98,1.95-1.46,3.3-1.46.98,0,1.81.27,2.5.82.68.55,1.14,1.29,1.35,2.24l3.65-.88c-.42-1.46-1.04-2.59-1.87-3.37-1.4-1.32-3.21-1.98-5.44-1.98-2.56,0-4.62.84-6.2,2.52-1.57,1.68-2.35,4.04-2.35,7.08,0,2.87.78,5.14,2.35,6.8s3.56,2.49,5.98,2.49c1.96,0,3.58-.48,4.85-1.45,1.27-.96,2.19-2.45,2.73-4.44l-3.58-1.14c-.31,1.34-.81,2.32-1.52,2.94h0Z"/>
  <path class="st0" d="M391.89,294.65l-7.12,18.27h3.91l1.51-4.15h7.3l1.6,4.15h4.01l-7.31-18.27h-3.9ZM391.33,305.69l2.47-6.78,2.52,6.78h-4.98Z"/>
  <path class="st0" d="M418.02,296.68c-.76-.81-1.68-1.36-2.75-1.68-.8-.23-1.96-.35-3.48-.35h-6.74v18.27h6.94c1.36,0,2.45-.13,3.27-.39,1.09-.35,1.95-.84,2.59-1.46.85-.82,1.5-1.9,1.96-3.23.37-1.09.56-2.38.56-3.89,0-1.71-.2-3.15-.6-4.32s-.98-2.16-1.74-2.96h0ZM416.18,307.15c-.25.82-.58,1.4-.96,1.76-.39.36-.89.62-1.49.76-.46.12-1.2.18-2.23.18h-2.75v-12.1h1.66c1.5,0,2.51.06,3.02.18.69.15,1.26.43,1.71.86s.79,1.01,1.05,1.77c.25.75.37,1.85.37,3.25s-.12,2.52-.37,3.34h0Z"/>
  <path class="st0" d="M428.75,294.65l-7.12,18.27h3.91l1.51-4.15h7.3l1.6,4.15h4.01l-7.31-18.27h-3.9ZM428.19,305.69l2.47-6.78,2.52,6.78h-4.98Z"/>
  <metadata>
    <sfw xmlns="http://ns.adobe.com/SaveForWeb/1.0/">
      <slices/>
      <sliceSourceBounds x="-2.15" y="130.77" width="502.15" height="240.47" bottomLeftOrigin="true"/>
      <optimizationSettings>
        <targetSettings fileFormat="PNG8Format" targetSettingsID="0">
          <PNG8Format autoReduce="false" ditherAlgorithm="diffusion" ditherPercent="100" interlaced="false" matteColor="#FFFFFF" noMatteColor="false" numColors="256" reductionAlgorithm="perceptual" rolloverMasterPalette="false" transparency="true" webShiftPercent="0">
            <colorTable isExact="false"/>
            <lockedColors/>
            <colorShiftEntries/>
          </PNG8Format>
        </targetSettings>
      </optimizationSettings>
    </sfw>
  </metadata>
</svg>