<?xml version="1.0" encoding="UTF-8"?>
<svg id="Capa_1" xmlns="http://www.w3.org/2000/svg" width="500" height="458" version="1.1" viewBox="0 0 500 458">
  <!-- Generator: Adobe Illustrator 30.1.0, SVG Export Plug-In . SVG Version: 2.1.1 Build 136)  -->
  <defs>
    <style>
      .st0 {
        fill: #1d1d1b;
      }
    </style>
  </defs>
  <g>
    <g>
      <path class="st0" d="M239.14,183.3c2.09-6.3,4.15-12.64,6.33-18.92,9.45-27.19,18.77-54.69,28.89-81.63.43-1.14,1.32-2.26,1.5-2.69.26-.6-.95-1.29,1.06-1.5l55.99.06,36.46,104.28h-41.37l-4.03-11.16-39.32.21c-1.16.7-2.62,9.88-4.15,11.35h-41.37ZM293.37,141.89h21.77l-7.16-25.04-6.51-.07-8.1,25.11Z"/>
      <path class="st0" d="M424,78.59l11.07,49.89c.4.66,2.24.73,2.78.08,4.1-16.5,7.73-33.3,11.09-49.97h51.06v104.32h-38.79v-35.04h-3.16s-6.82,34.95-6.82,34.95c-.62.44-1.35.44-2.07.51-6.89.59-17.97.41-24.97,0-.69-.04-2.21.04-2.55-.72l-6.69-34.51-3.21-.23v34.84s-.55.6-.59.6h-37.8v-104.71h50.67Z"/>
    </g>
    <g>
      <path class="st0" d="M195.59,125.97v-46.78s.55-.6.59-.6h38.99l.4,104.71h-45.92c-8.11-15.83-16.83-31.37-25.77-46.74-.85-1.18-2.63-.48-3.92-.64v47.38h-39.58v-104.71h46.51l24.42,45.51c1.3,2.2,1.64,2.02,4.28,1.87Z"/>
      <path class="st0" d="M41.61,78.59v61.51c0,5.64,5.86,11.39,11.32,12.11,10.34,1.37,19.56-3.39,19.56-14.9v-58.73h40.77v60.71c.04,43.05-39.62,52.18-74.82,45.8C-15.02,175.42,4.17,119.16.42,79.96c-.09-.41.29-1.37.61-1.37h40.57Z"/>
    </g>
  </g>
  <path class="st0" d="M389.85,378.69c-.93.99-3.54,1.13-3.86-.49l.6-43.6c-1.89,4.21-3.02,8.77-4.88,13.01-3.69,8.39-14.48,24.09-24.75,23.58-12.68-.63-6.63-14.02-2.01-20.23,3.38-4.55,12-11.45,17.83-11.54,1.2-.02,4.95,1.23,5.62.27.89-3.75,2.45-7.28,3.53-10.97,3.56-12.16,5.68-25.46,9.5-37.43.55-1.73.7-2.24,2.69-2.09,2.29.17,3.84,2.38,3.79,4.6-.13,6.09-1.45,13.32-2.01,19.51-1.25,13.79-2.48,27.91-3.61,41.76-.5,6.1-.84,12.53-1.55,18.75-.11.98-.45,4.41-.89,4.88ZM376.5,342.57c-1.78-1.37-11.64,8.31-13.05,10.16-2.81,3.68-5.69,8.64-5.94,13.33,8.67-4.88,15.44-14.29,19-23.49Z"/>
  <path class="st0" d="M32.9,221.92l-.79.6-4.81,54.49c-2.49,1.82-4.86.31-5.7-2.51-1.16-3.87-.8-10.81-.57-14.95.82-14.97,2.35-32.14,4.35-46.98.16-1.22.42-3.93,1.35-4.61,1.68-1.21,7.2,1.49,8.23,3.33,6.02,15.8,10.72,34.99,19.94,49.22,5.4,8.34,6.85,5.16,7.68-2.96.9-8.76,1.22-17.89,1.6-26.66.3-6.93-.38-15.57.43-22.27.1-.81.41-2.47,1.14-2.85,5.15-2.7,3.19,11.72,3.15,13.54-.2,11.17-.31,22.31-.79,33.44-.18,4.06.46,11.58-1.79,14.92-1.99,2.96-6.24,4-9.57,2.91-4.9-1.61-12.77-17.09-14.94-22-3.7-8.39-6.82-17.75-8.92-26.67Z"/>
  <path class="st0" d="M142.01,360.74c13.49-13.26,19.18-36.8,26.47-54,.6-1.42,2.85-7.14,4.02-7.5,5.01-1.55,3.25,4.68,2.52,7.31-1.93,6.97-5.4,15.7-8.03,22.58-6.15,16.12-18.7,50.41-41.57,42.4-23.16-8.11-17.29-51.07-10.6-68.99,1.38-3.69,3.66-8.46,8.13-4.97,2.51,1.96.16,3.52-.51,5.08-1.06,2.48-1.82,6.81-2.35,9.58-2.42,12.64-5.8,45.56,4.67,54.79,4.81,4.24,13.66-2.76,17.24-6.27Z"/>
  <g>
    <path class="st0" d="M320.28,276.07c1.71-.17,3.67-.68,5.35-.79,13.03-.84,24.86-1.82,37.98-1.58,18.31.33,38.14-.15,56.24,1.16,5.75.42,13.82,3.11,18.66,3.05,1.31-.02,2.55-.66,3.87-.66,3.01,0,9.73,1.44,12.99,2.1,9.22,1.86,23.4,5.52,30.9,11.12,2.5,1.87,4.37,3.35,3.8,6.88-.88,5.45-7.16-2.64-9.48-2.97.06-1.67-.03-4-1.91-4.73-1.89-.74-3.8-.57-4.43,1.55-4.13-.52-8.11-2.16-12.18-3.08-3.92-.89-8.7-1.81-12.67-2.39-4.54-.65-10.68-.41-14.75-1.49-5.3-1.4-6.37-1.03-11.66-1.41-4.8-.35-10.32-1.65-15.09-1.55-2.56.05-5.41,1.03-7.86,1.17-16.14.93-31.16.15-47.14-.43-1.28-.05-3.52,1.23-4.34-.39-.74-1.48.76-1.78-2.39-1.59-1.47.09-3.05.8-4.36.82-2.24.04-1.14-.71-3.24.37-1.16.6-6.66,1.7-7.56,1.14-.28-.18-.56-1.95-.95-2.23-1.01-.73-7.44-.52-7.43.11.01,1.07,1.17.86,1.86,1.14.14.06.12.66.36.65.31,0,.82-.54.95-.4.81.87-1.48,1.79-1.72,2.02-.56.54-1.84,2.33-2.24,2.55-1.05.58-3.18.29-4.35,1,1.09-3.7,1.74-7.65,2.77-11.15Z"/>
    <path class="st0" d="M296.53,285.63c-4.28,1.16-12.77-.15-16.06,1.17-1.58.63-2.06,2.71-3.83,3.3-3.94,1.32-8.41-.55-9.79,4.9,7.63-1.27,2.57,3.9-1.99,2.98l1.18-2.38c-1.01-.14-2.88,1.04-3.69.44s-2.62-6.19-3.28-6.39c-2.22.18-10.01,4.09-11.61,3.38-2.15-.95-6.33-9.32-5.1-11.3.28-.45,7.79-3,8.88-3.24,2.49-.55,2.99-.63,5.63-1.47,6.98-2.2,15.57-3.29,22.82-4.12,1.89-.21,7.46-1.59,8.93-.61.71.48,1.53,5.64,2.22,5.81l14.78-.81c-.67.64-1.48,1.47-2.22,2.16-1.45,1.36-5.42,5.81-6.88,6.2Z"/>
  </g>
  <path class="st0" d="M218.95,261.34c.9.92,6.16-4.73,6.93-5.57,3.69-4.03,6.56-8.76,10.27-12.77.53-.54,3.95-.51,4.15-.32.12.12-.07.77.11,1.03.24.34,1.24.3,1.85,1.16.54.76.77,2.18.85,3.12.66,7.6-1.18,16.17-2.19,23.71-1.48,1.04-3.26.31-3.68-1.49l-1.28-16.04c-4.96,3.23-10.97,14.08-16.82,14.73-3.32.37-8.1-.6-8.52-4.57-1.06-9.99,9.07-31.1,19.78-33.08,2.93-.54,10.71.05,8.82,4.5-1.33,3.13-2.71-.79-3.68-.54-2.41.63-6.86,5.8-8.38,7.92-3.72,5.18-6.97,11.93-8.22,18.2Z"/>
  <path class="st0" d="M422.53,339.65c-.33-.24-.24-1.1-1.04-1.03-.33.03-2.92,1.81-3.4,2.19-3.19,2.54-6.04,6.69-8.02,10.25-1.01,1.81-6.18,12.52-5.08,13.8.87-.04,1.73-.85,2.38-1.39,5.54-4.54,9.7-11.37,14.14-16.91,1.29-.74,3.21-1.02,4.59-.42.45.2.18.87.38,1.06.58.56,1.34.68,1.82,1.59,1.03,1.97.3,12.58.05,15.47-.12,1.4-1.15,9.75-1.55,10.31-.06.08-1.64,1.03-1.74,1.01-1.03-.24-1.9-1.3-2.08-2.33l-.97-15.95c-.92-.24-.66.21-.91.5-2.33,2.78-5.03,5.24-7.61,7.85-1.66,1.69-2.98,4.02-5.21,5.51-4.1,2.75-12,1.46-12.04-4.51-.09-11.37,11.61-36.08,25.78-31.86.75.22,2.47,1.18,2.95,1.82,1.25,1.66-.3,4.6-2.45,3.04Z"/>
  <path class="st0" d="M179.36,219.53c.46.46,9.07-2.03,8.74,1.39-.06.59-.24.67-.69.93-1.3.77-8.35,1.4-8.79,2.71-.22,5.12-.15,10.36-.45,15.47-.48,7.97-1,16.8-1.98,24.69-.24,1.94-.26,7.16-2.92,6.6-1.23-.26-.95-10.61-1.02-12.19-.04-.94-.4-1.81-.43-2.75-.3-10.27-.02-20.6-.38-30.87-.48-.51-10.79,4.02-10.3-.59.28-2.59,9.77-3.07,10.5-4.58l1.87-18.42c.51-4.5,5.47-3.79,6.94-.41.2,6.01-.65,12.04-1.1,18.03Z"/>
  <path class="st0" d="M99.74,271.64c-.41.25-2.19.11-2.72-.14-2.82-1.33-.31-12.97-1.59-15.73-4.71,5.33-7.05,14.96-15.93,13.44-7.61-1.3-7.45-10.75-7.02-16.82.16-2.26,1.85-12.21,3.64-13.26.67-.39,3.99-.33,4.19.99.36,5.84-1.11,12.05-.73,17.85.13,1.95.32,6.24,3.07,5.06,1.28-.55,7.59-9.86,8.91-11.76,3.06-4.42,4.71-11.19,11.22-6.25l-3.05,26.61Z"/>
  <path class="st0" d="M330.91,332.27c.29.46.13,1.73-.34,2.13-2.63,1.83-5.26,3.72-7.7,5.79-1.15.97-8.68,7.6-8.91,8.16-.28.67.65.8,1.08.88,4.99.95,18.04-.42,12.93,8.83-1.6,2.91-4.77,6.11-6.88,8.7-1.64,2.01-3.82,5.62-5.75,7.27-2.01,1.73-6.16.87-4.74-2.38l10.41-15.81.46-2.12c-2.14-.58-4.4-.18-6.48-.45-2.83-.36-10.49-1.55-9.05-5.81.49-1.44,6-7.53,7.41-8.88,2.61-2.5,9.22-7.73,12.74-7.8.83-.02,4.52,1.01,4.82,1.5Z"/>
  <path class="st0" d="M215.32,232.73c.19.12.6,1.66.43,1.9-.07.09-.93.21-1.3.48-9.34,7.03-18.78,17.59-22.06,29.19-.46,1.63-.77,6.3-1.53,7.22-1.12,1.36-6.34.14-6.75-2.03-.39-2.07-.14-7.97,0-10.34.28-4.86,1.27-14.04,2.47-18.61.56-2.12,1.32-3.29,3.65-3.12,5.21.39,2.71,6.68,2.97,10.19.03.44-.23,1.32.59.99.72-.29,4.43-5.68,5.53-6.78,1.24-1.24,3.38-2.82,4.84-3.89,1.83-1.35,9.13-6.47,11.15-5.19Z"/>
  <path class="st0" d="M285.45,352.12c.57.75,2.22-2.42,2.37-2.59,3.46-4.22,7.65-7.86,12.31-10.71,1.45-.89,7.9-4.98,7.91-1.22l-7.74,5.78c-8.16,8.45-15.73,19.38-16.85,31.43-1.97.23-5.34,1-6.74-.95-.33-.46-.8-6.84-.78-8.01.07-4.63,1.3-12.29,2.06-17.05.29-1.8.9-7.43,2.91-7.82,1.18-.23,4.55.37,4.55,1.79,0,1.3-.28,8.98,0,9.36Z"/>
  <path class="st0" d="M165.09,229.11c.33.47-.22,1.21-.55,1.6-1.61,1.93-6.98,5.29-9.34,7.33-1.2,1.04-6.7,5.87-7.06,6.83-.1.26-.24.92.15.94,4.9.92,17.27-.34,13.94,8.06-1.05,2.64-9.63,13.01-11.97,15.44-1.55,1.61-2.67,3.16-5.06,1.89-1.37-.73-1.29-1.64-.77-2.98,1.82-4.7,8.54-11.41,10.8-16.21.45-.96.69-1.59-.62-1.82-3.86-.68-8.29-.13-12.08-1.78-5.49-2.4-1.6-6.4.99-9.37,3.2-3.68,12.08-11.91,17.02-11.55.62.05,4.4,1.42,4.54,1.62Z"/>
  <path class="st0" d="M228.06,362.07c1.55-1.3,2.63-3.13,3.72-4.81,1.61-2.47,7.9-14.43,9.45-15.21.78-.39,1.65-.05,1.81.77.17.91-6.74,14.81-7.79,16.73-.96,1.75-4.22,7.68-5.35,8.76-1.66,1.58-5.09,1.54-6.81.15-1.46-1.18-2.33-9.17-2.55-11.37-.38-3.89-.61-8.39-.81-12.32-.17-3.34-.5-5.1,3.4-3.82,3.25,1.06,3.23,6,3.68,9.04.59,3.99.85,8.08,1.25,12.09Z"/>
  <path class="st0" d="M340.33,339.09c4.14-.42,3.85,3.54,3.7,6.45-.34,6.73-1.98,21.42-3.74,27.7-.48,1.74-.97,2.08-2.78,1.98-5.45-.3-1.87-7.82-2.58-11.36,1.5-8.07,2.06-16.44,4.35-24.3.3-.24.65-.44,1.04-.48Z"/>
  <path class="st0" d="M209.54,339.47c1.15-.99,4.32.11,4.63,2.13.55,3.53-.74,11.52-1.21,15.45-.47,3.98-1.32,12.89-2.43,16.27-.78,2.37-3.99,2.58-5.23,1.09-1.14-1.36-.05-11.33.23-13.68.31-2.52,3.19-20.56,4-21.26Z"/>
  <path class="st0" d="M212.1,328.71c7.2-1.64,4.91,10.87-2.24,5.67-2.17-1.58.16-5.19,2.24-5.67Z"/>
  <path class="st0" d="M341.94,328.71c3.59-.82,4.92,2.13,3.99,5.22-.78,2.61-6.86,1.31-7.39-.8-.34-1.35,2.06-4.11,3.4-4.41Z"/>
  <path class="st0" d="M273.28,294.52c-.26.08-1.24,2.11-1.68-.92,4.15-.65,6.77-3.75,11.3-3.21,1.65.2,2.06,1.26.4,2.04-2.75,1.3-7.24,1.18-10.03,2.09Z"/>
  <ellipse class="st0" cx="331.59" cy="284.63" rx="1.31" ry="1.32"/>
  <g>
    <path class="st0" d="M416.24,212.94c-9.05,4.97-17.85,20.24-21.73,29.7-.66,1.62-4.25,11.01-3.37,11.94.56.11.98-.12,1.47-.31,3.39-1.28,14.7-15.05,17.51-18.62,2.21-2.81,6.47-10.19,9.25-11.41,1.39-.61,6.11-.86,7,.08.79.85-.99.63-.79,1.18,3.91,1,4.54,4.18,4.77,7.75.27,4.17-.11,10.1-.42,14.35-.19,2.67-2.41,23.14-3.25,24-.24.24-2,.53-2.47.51-2.07-.09-3.19-1.19-3.6-3.18-.89-4.32-1.04-11.48-1.36-16.15-.24-3.49-.27-7.05-.4-10.55-3.57,3.74-7.5,7.26-11.06,10.97-7.1,7.4-12.07,17.11-24.38,12.93-5.77-1.95-6.57-5.68-6.11-11.36,1.39-17.29,15.55-47.96,35.07-49.93,3.07-.31,9.31,1.16,11.45,3.52,1.91,2.1-.16,7.33-2.58,6.19-2.28-1.07-1.09-3.77-4.99-1.62Z"/>
    <path class="st0" d="M451.31,234.66c.91.23.65-.17.9-.5,2.87-3.74,9.39-12.61,13.35-14.43,6.19-2.85,10.95.79,12.55,6.89,2.55,9.74.23,31.5-2.43,41.48-1.06,3.97-2.82,5.17-6.92,3.35-4.12-1.83-4.25-5.1-3.95-9.06.71-9.29,3.94-19.55,4.69-28.72.09-1.05.32-5.37-.59-5.76-.39-.17-1.05-.11-1.11.48-4.95,7.35-10.61,14.78-14.59,22.73-2.31,4.61-3.69,9.64-6.04,14.23-2,2.2-7.93-.72-9.27-2.67-1.95-2.87-.45-9.91,0-13.42,1.27-9.84,3.04-23.17,5.6-32.59.96-3.54,3.07-6.97,7.17-4.26,2.09,1.38,1.54,9.89,1.44,12.52-.05,1.35-1.11,9.35-.81,9.74Z"/>
    <path class="st0" d="M345.13,271.2c-.96.96-5.44.47-6.85.11-2.52-.65-4.13-1.91-4.5-4.63-.61-4.48-.02-11.65.36-16.29.55-6.67,2.52-27.59,5.22-32.58.97-1.79,1.61-2.17,3.68-2.28,9.78-.55,5.49,11.12,6.13,16.96.04.4.19,1.37.61,1.37.49,0,5.25-6.76,6.13-7.77,2.69-3.09,6.3-6.21,9.54-8.72,3.27-2.53,13.41-9.72,17.21-9.8,1.59-.04,4.11,1.35,2.98,3.02-9.17,5.66-16.51,12.51-22.92,21.15-6.05,8.16-12.86,19.21-15.4,29.11-.52,2.02-1.28,9.44-2.18,10.34Z"/>
    <g>
      <path class="st0" d="M305.64,277.27c.64-.61,2.75-1.2,2.89-2.87l5.42-22.61-1.41.37c-7.43,8.21-13.86,17.85-26.29,12.16-11.54-5.28-5.24-23.02-.17-31.22,4.67-7.54,12.11-14.77,21.35-15.56,2.31-.2,13.97-.54,12.41,4.11-.27.81-7.88,3.9-9.41,4.88-7.21,4.57-18.08,19.33-18.99,27.88-.13,1.24-.02,2.49-.05,3.73.19.22,2.62-1.32,2.97-1.59,4.3-3.37,10.58-11.99,13.98-16.6,2.34-3.18,6.42-10.63,8.98-12.87,2.17-1.9,5.64-.97,7.86.47,1.68,1.09,3.51,4.52,3.44,6.48-2.08,11.35-3.51,22.91-5.97,34.17-.47,2.16-1.61,5.36-2.35,7.86-1.03,3.5-1.68,7.45-2.77,11.15-4,13.62-10.07,28.47-21.19,37.81-6.47,5.44-18.34,9.59-26.12,4.8-8.96-5.51.87-16.75,5.15-21.91,6.55-7.9,14.15-14.88,21.18-22.29,1.46-.4,5.43-4.84,6.88-6.2.74-.69,1.55-1.52,2.22-2.16ZM304.05,288.81c.32-.95.68-.8.77-1.08.17-.53.25-2.21.22-2.89-2.29.98-3.28,2.84-4.95,4.38-8.12,7.45-18.24,16.88-23.67,26.55-4.79,8.53-3.81,15.81,6.45,8.08,10.84-8.16,16.88-22.39,21.19-35.03Z"/>
      <path class="st0" d="M300.1,289.21c1.67-1.54,2.66-3.4,4.95-4.38.03.68-.05,2.37-.22,2.89-.09.28-.45.14-.77,1.08l-3.96.4Z"/>
    </g>
  </g>
  <path class="st0" d="M474.27,291.2c.63-2.12,2.54-2.29,4.43-1.55,1.87.73,1.96,3.06,1.91,4.73-.79,23.76-4.79,48.85-6.72,72.67-.18,2.27.3,5.05.02,7.19-.1.74-.75.53-.82.84-.27,1.22.64,3.51-1.08,4.03-.98.29-2.84.35-2.89-.91l.59-43.59c-2.45,5.14-3.77,10.83-6.32,15.94-3.13,6.27-12.91,18.73-19.91,20.18-7.25,1.5-12.71-1.86-10.51-9.77,2.41-8.65,13.45-21.41,22.92-21.53,1.11-.01,4.85,1.25,5.35.52,5.28-14.67,8.47-30.01,12.5-45.07.31-1.14.26-2.82.51-3.66ZM459.23,342.57c-.73-.75-7.2,4.37-8.1,5.18-4.78,4.33-9.8,11.38-10.5,17.9,1.37,1.4,9.65-7.72,10.68-8.97,1.38-1.67,9.39-12.61,7.92-14.12Z"/>
  <path class="st0" d="M114.07,267.7c6.22-.51,11.27-4.62,15.22-9.14,1.3-1.49,4.01-7.08,6.47-5.52,1.75,1.11-1.85,5.82-2.72,6.9-4.45,5.47-15.34,14.82-22.68,10.89-7.38-3.96-1.37-18.54,1.64-24.08,2.39-4.41,8.55-12.4,13.26-14.14,5.73-2.12,10.59,1.81,9.51,7.97-1.15,6.59-6.67,13.59-13.19,15.4-1.36.38-5.72.53-6.16.98-.96.98-2.45,9.98-1.35,10.75ZM127.9,238.25c-.92-.92-5.46,4.75-6.1,5.61-.74.99-5.25,8.06-4.58,8.72,5.7-2.29,10.39-7.96,10.68-14.33Z"/>
  <path class="st0" d="M251.84,360.12c-.45,2.34-1.44,4.96-1.61,7.33-.24,3.17-.14,3.84,3.18,3.2,5.92-1.16,11.56-7.58,15.29-11.89.66-.76,1.52-3.95,3.53-2.29,1.68,1.38-1.62,5.6-2.63,6.89-3.72,4.78-13.59,12.61-19.87,11.75-12.28-1.68-3.5-21.51.42-27.64,3-4.7,10.08-13.34,16.23-11.79,8.51,2.15,4.41,12.88.63,17.61-3.84,4.8-9.1,6.84-15.17,6.84ZM264.47,341.77c-.7-.73-4.55,3.49-5.13,4.19-2.34,2.8-4.3,6.31-5.55,9.74,5.65-1.52,10.42-8.12,10.68-13.93Z"/>
  <path class="st0" d="M184.9,351.32c.66.14.8-.21,1.18-.6,2.94-3.04,6.81-10.43,12.02-7.3,4.79,2.88,3.5,14.69,2.97,19.59-.27,2.51-.8,6.19-1.31,8.64-.66,3.14-1.69,5.2-5.11,3.1-2.17-1.34-1.96-3.41-1.83-5.71.16-2.8,3.6-19.56,2.76-20.51-1.13.15-2.21,1.88-2.93,2.82-3.02,3.92-6.12,9.53-8.22,14.03-.53,1.13-1.95,5.68-2.4,6.14-1.79,1.84-6.68-1.19-6.65-4.46.03-4.52,2.94-21.52,4.39-25.88.25-.74.68-2.29,1.42-2.55,1.1-.38,3.7-.12,3.7,1.33v11.35ZM184.71,351.72v.4c.26-.13.26-.27,0-.4Z"/>
  <metadata>
    <sfw xmlns="http://ns.adobe.com/SaveForWeb/1.0/">
      <slices/>
      <sliceSourceBounds x="0" y="99.57" width="500" height="300.86" bottomLeftOrigin="true"/>
      <optimizationSettings>
        <targetSettings fileFormat="PNG8Format" targetSettingsID="0">
          <PNG8Format autoReduce="false" ditherAlgorithm="diffusion" ditherPercent="100" interlaced="false" matteColor="#FFFFFF" noMatteColor="false" numColors="256" reductionAlgorithm="perceptual" rolloverMasterPalette="false" transparency="true" webShiftPercent="0">
            <colorTable isExact="false"/>
            <lockedColors/>
            <colorShiftEntries/>
          </PNG8Format>
        </targetSettings>
      </optimizationSettings>
    </sfw>
  </metadata>
</svg>