<?xml version="1.0" encoding="UTF-8"?>
<svg id="Capa_1" xmlns="http://www.w3.org/2000/svg" width="500" height="500" version="1.1" viewBox="0 0 500 500">
  <!-- Generator: Adobe Illustrator 30.1.0, SVG Export Plug-In . SVG Version: 2.1.1 Build 136)  -->
  <path d="M168.13,237.95c-.47,0-.86.07-.81.14l.31.37c2.97,3.53,5.76,7.13,9.22,10.21,3.96,3.53,7.15,5.82,11.57,8.71,6.29,3.69,12.58,6.72,19.52,9.02,7.77,2.56,15.48,4.28,23.8,5.49v20.72c-5.82-.55-11.31-1.63-16.95-3.09-5.97-1.41-11.55-3.15-17.24-5.42-6.7-2.37-12.76-5.43-18.96-8.91-10.5-5.89-20.17-12.78-28.91-21.1-11.88-11.3-21.95-24.26-29.55-38.79-4-7.64-7.29-15.25-9.86-23.46-2.38-7.61-4.23-15.15-5.41-23.06-.89-5.97-1.62-13.92-1.65-19.9-.03-8.2.46-16.23,1.71-24.42,1.39-9.13,4.61-21.52,7.95-30.09,2.42-6.21,5.08-12.09,8.3-17.94,8.15-14.77,18.59-27.88,31.14-39.16,4.91-4.41,10.03-8.23,15.44-11.99,11.31-7.86,23.63-13.59,36.66-18.05,6.79-2.32,13.41-3.77,20.45-5.04,16.58-2.98,34.87-2.88,51.43.15,6.65,1.22,12.9,2.56,19.33,4.75,8.87,3.02,17.4,6.5,25.56,11.09,3.79,2.13,7.34,4.18,10.89,6.65,5.61,3.9,10.97,7.88,16.05,12.46,10.81,9.75,21.25,22.08,28.55,34.66,2.1,3.61,4.04,7.07,5.88,10.85,10.16,20.96,15.1,44.02,14.59,67.3-.79,36.19-14.61,70.53-39.36,96.89-7.24,7.71-14.55,14.37-23.37,20.39-20.24,13.83-40.96,22.1-65.36,25.24-.15-.11-.47-.55-.47-.73v-20c16.16-2.35,30.06-6.35,43.98-14.82l6.63-4.67c5.34-3.76,9.47-8.75,13.55-13.82.13-.17.39-.4.28-.43s-.58-.19-.73-.19h-164.18ZM168.83,184.21c-3.78-14.48-5.15-24.88.06-38.91,2.9-7.82,7.69-14.36,13.06-20.52,2.15-2.46,4.33-4.61,6.7-6.92l14.76-14.34,18.54-18.4,17.59-17.44,13.4-13.39c4.43-4.43,7.87-9.55,9.84-15.5,3.18-9.61.07-19.19-6.75-26.24-2.15-2.23-4.22-4.12-6.61-6.09.85,8.99-2.12,17.39-6.8,24.78-2.34,3.69-4.85,7.03-7.95,10.13l-9.74,9.74-8.25,8.1-8.13,8-8.16,8.01-15.56,15.43-16.78,16.81c-7.18,7.19-13.7,17.75-16.1,27.7-4.53,18.74,3.98,36.19,16.89,49.07ZM186.5,185.81c.28-7.95,4.82-18.28,9.12-24.81,6.07-9.23,13.15-17.51,21.2-25.09l11.51-10.83,15.02-14.62,45.3-45.27c2.73-2.73,4.75-5.63,6.73-8.84,3.27-5.31,5.15-11.16,5.35-17.46-.31-9.08-4-16-10.36-22.48-.61,6.4-2.44,11.86-5.63,17.14-2.96,4.92-6.29,9.36-10.07,13.66-1.5,1.8-2.86,3.48-4.52,5.14l-14.1,14.09-52.91,51.79c-6.08,5.95-11.91,11.88-16.56,19.03-11.39,17.53-13.32,35.24-.21,52.47l.14-3.91ZM212.13,213.07c.58-7,2.1-13.8,4.85-20.26,1.86-4.37,3.84-8.32,6.37-12.27,5.23-8.16,11.39-15.28,18.32-22.07l27.33-26.79,16.33-16.2,14.4-14.4c3.04-3.04,5.57-6.3,7.84-9.91,7.62-12.07,7.33-25.92,1.72-38.93-2.49,11.17-18.98,27.69-27.19,35.72l-7.34,7.17-53.94,52.95c-7.57,7.43-13.59,16.22-17.71,26-2.57,6.1-4.11,12.38-4.77,18.97-1.43,14.25,4.23,29.59,15.95,37.79-1.81-5.71-2.63-12.16-2.17-17.76ZM240.83,222.57c1.83,2.93,3.9,5.49,6.11,8.25l-.43-4.6c-.46-4.91.61-9.75,2.07-14.53,3.57-11.64,13.75-26.34,22.18-34.82l12.15-12.22,35.13-34.28,16.63-16.6c3.21-3.2,5.67-6.64,7.83-10.58,1.05-1.92,2.06-3.71,2.75-5.84,3.45-10.61,1.65-20.65-2.43-30.36-.96,2.65-1.89,4.77-3.34,6.93-4.82,7.19-10.47,14.25-16.61,20.4l-16.62,16.63-9.77,9.48-11.38,11.25-22.36,21.91-12.85,12.83c-1.95,1.94-3.45,4.01-5.16,6.15-6.96,8.79-11.62,19.19-10.77,30.64.47,6.3,3.54,14.03,6.85,19.35ZM283.26,219.98l3.19-6.57c5.55-8.83,12-16.93,19.45-24.22l7.29-7.13,7.02-6.87c4.8-4.7,9.5-9.25,13.88-14.31,5.36-6.17,9.26-15.27,9.7-23.4.31-5.75-.28-11.32-1.6-17-1.37,3.45-4.48,7.4-7.23,10.15l-9.51,9.51-34.38,32.72c-4.95,4.72-8.88,9.87-12.08,15.9-6.97,13.16-9.91,30.31,1.06,42.19.59-3.99,1.48-7.46,3.19-10.98Z"/>
  <path d="M167.17,427.21l-21.21,48.87c-.76.25-1.88.29-2.48-.09l-19.53-47.77-1.48,27.12c-.26,4.74-.21,9.19.11,13.86.26,2.23,1.87,3.79,4.07,4.12l4.2.62-.12,3.03h-21.68c-.09-1.14-.08-2.21.02-3.04,3.41-.43,6.83-1.21,7.45-4.93.57-3.42,1.02-6.73,1.31-10.24l1.54-18.94c.4-4.91.66-9.67.6-14.63-.05-4.17-4.7-5.04-8.06-5.14l.06-3.06h17.63s18.96,42.52,18.96,42.52l19.24-42.53,17.38.02-.04,3.05c-2.48.32-4.66.26-6.6,1.85-.75.61-1.15,2.4-1.13,3.59l.75,36.95c.05,2.49.31,4.75.52,7.12.18,1.99,1.57,3.53,3.56,3.86l4.06.69-.07,2.87h-25.91s-.12-2.9-.12-2.9c2.1-.25,4.02-.3,5.7-1.47,1.33-.92,1.62-2.85,1.62-4.53v-31.28c-.01-3.23-.02-6.09-.32-9.55Z"/>
  <path d="M360.48,394.66c3.15,10.2-6.24,18.88-15.08,21.45-6.76,1.97-14.72,2.03-20.57-2.26-1.55-1.14-2.89-2.89-3.63-4.52-1.43-3.15-.6-6.11,1.9-8.22,2.29-1.93,4.59-3.67,7.08-5.22-4.24-2.2-5.09-2.12-7.41-6.27-.54-.96-.63-2.28-.69-3.4,3.39-1.41,6.49-3.05,8.87-5.92-2.73-.94-4.92-2.68-6.49-5.11-3.35-5.19-2.65-11.8,1.43-16.48,5.36-6.26,16.22-7.49,23.31-3.34l12.58-1.19c.18-.02.68.13.81.23.37.28-2.38,5.16-3.92,5.67l-5.08-.29c4.55,6.6,2.34,15.11-4.2,19.14-4.41,2.72-9.34,3.08-14.51,2.49-1.82-.21-2.95,2.7-2.06,4.01,1.18,1.72,2.99,2.13,4.97,2.16,4.89.07,9.68-.21,14.47.54,3.23.5,7.07,2.85,8.2,6.53ZM344.45,375.73c1.57-2.54,1.69-5.34,1.71-8.17.03-3.44-.65-6.81-2.91-9.42-1.23-1.42-3.06-2.25-4.87-1.95-1.6.26-3.07,1.38-3.91,3.01-2.01,3.9-2.16,8.39-1,12.64.52,1.93,1.29,3.78,2.76,5.2,2.42,2.33,6.38,1.67,8.22-1.3ZM352.17,407.31c2.02-3.58,1.06-7.98-2.54-9.79-2.63-1.31-5.54-1.27-8.45-1.36-2.72-.09-5.48-.27-7.85,1.13-2.72,1.61-4.42,4.67-3.67,7.79s3.11,5.33,5.99,6.38c5.11,1.87,13.34,1.48,16.52-4.15Z"/>
  <path d="M5.91,472.86c-3.84-3.71-5.8-8.29-6.01-13.49-.14-3.32.26-6.51,1.66-9.64,4.7-10.54,16.23-15.9,27.61-13.82l-.04-14.07c0-1.81-1.06-3.11-2.71-3.49l-3.77-.62.06-2.51c5.58-.66,10.76-1.85,16.61-3.24v53.5c.02,2.94.06,5.53,2.83,5.95l3.5.54c.52.46.45,2.11,0,2.73-5.53.87-10.76,1.71-16.38,3.46l-.16-5.52-4.32,2.65c-1.72,1.06-3.81,2.29-5.87,2.53-4.92.57-9.47-1.53-13-4.95ZM14.7,467.22c3.87,4.95,9.56,5.53,14.47,2.13v-25.54c-1.76-3.19-5.01-5.21-8.75-4.57-2.28.4-4.63,1.99-5.94,3.96-3.06,4.56-3.28,9.04-3.07,14.39.14,3.52,1,6.7,3.29,9.63Z"/>
  <path d="M70.15,391.63l-.16,2.88h-28.36s-.04-2.88-.04-2.88c2.24-.34,6.87-.31,7.91-2.61.64-1.42.84-2.93.84-4.57l.02-45.71c-3.36.19-11.63-.25-13.8,2.04-1.18,1.24-2.3,2.86-2.77,4.47l-1.4,4.78c-.92.14-1.86.16-3.13.04l.97-15.98h51.08s.96,16.17.96,16.17l-3.04.07-1.61-5.31c-.36-1.17-1.09-2.42-1.81-3.51-2.26-3.44-11.09-2.62-14.88-2.7v43.56s.27,4.01.27,4.01c.33,5.22,4.87,4.64,8.95,5.24Z"/>
  <path d="M265.75,449.84c0-2.39-.75-4.71-2.29-6.26-3.4-3.41-9.65-1.02-12.8,1.96l.03,22.4c0,2.74.13,5.48,2.78,5.93l2.14.37-.03,2.7h-21.29c-.09-.76-.13-1.82-.13-2.66l3.74-.78c1.76-.37,2.58-1.89,2.58-3.64v-24.43c0-1.8-.98-3.38-2.73-3.77l-2.27-.51-.04-2.38c5.15-.98,9.96-2.05,15.18-3.62l.09,6.96,6.63-4.55c5.43-3.73,13.17-2.71,16.42,3.06,1.17,2.07,2.13,4.61,2.14,7.11l.07,20.03c0,2.35-.02,5.36,2.31,5.81l3,.59c.17.71.17,1.78.04,2.77h-20.22c-.29-.73-.3-1.73-.2-2.71l1.63-.34c1.98-.41,3.2-1.78,3.2-3.89v-20.17Z"/>
  <path d="M181.88,361.57c-3.26-3.93-9.96-1.71-13.1,1.51l.02,22.19.14,2.87c.09,1.81.92,2.96,2.67,3.3l1.96.39v2.53s-21.23,0-21.23,0l-.07-2.56,3.75-.74c2.41-.48,2.6-3.43,2.6-5.75l-.02-22.33c0-1.73-.82-3.14-2.46-3.56l-2.73-.7-.04-2.38,15.37-3.61.11,6.94,6.69-4.75c3.77-2.68,10.38-2.83,14.04.58,2.66,2.48,4.25,6.25,4.28,10.07l.13,20.04c.01,1.67.2,3.78,1.33,4.94.95.98,2.63.78,4.03,1.18l.05,2.64h-20.51c-.09-.91-.07-1.86.07-2.67,1.65-.35,3.5-.33,4.27-1.95.49-1.04.63-2.82.63-4.13v-18.09c0-2.08-.62-4.32-1.99-5.97Z"/>
  <path d="M231.67,456.77c0,11.75-9.53,21.28-21.28,21.28s-21.28-9.53-21.28-21.28,9.53-21.28,21.28-21.28,21.28,9.53,21.28,21.28ZM209.36,474.26c3.88,1.11,7.26-.68,8.66-4.23,3.15-8,2.72-28.68-6.45-30.98-3.18-.8-6.22.33-7.84,3.15-3.78,6.61-3.33,15.58-1.51,22.82.85,3.36,3.57,8.21,7.14,9.24Z"/>
  <path d="M470.66,374.32c0,11.76-9.53,21.29-21.29,21.29s-21.29-9.53-21.29-21.29,9.53-21.29,21.29-21.29,21.29,9.53,21.29,21.29ZM455.24,390.3c3.5-3.43,3.58-11.84,3.51-16.35-.1-6.81-2.75-19.47-12.07-17.39-3.18.71-5.41,5.17-6.06,8.22-1.39,6.47-.9,12.87,1.09,19.23.78,2.49,2.36,4.85,4.34,6.55,2.57,2.2,6.72,2.17,9.19-.26Z"/>
  <path d="M245.56,374.31c0,11.75-9.52,21.27-21.27,21.27s-21.27-9.52-21.27-21.27,9.52-21.27,21.27-21.27,21.27,9.52,21.27,21.27ZM230.15,390.25c2.23-2.26,2.84-5.36,3.2-8.28.74-6.2.52-15.27-2.53-20.66-1.94-3.44-5.17-5.8-9.16-4.76-3.21.84-5.35,4.99-6.06,8.04-1.69,7.26-1.02,14.94,1.99,21.77.47,1.06,1.23,1.98,1.95,2.9,2.5,3.19,7.57,4.07,10.61.99Z"/>
  <path d="M316.23,374.31c0,11.75-9.52,21.27-21.27,21.27s-21.27-9.52-21.27-21.27,9.52-21.27,21.27-21.27,21.27,9.52,21.27,21.27ZM293.86,391.79c3.91,1.17,7.39-.65,8.83-4.31,1.49-3.79,1.65-7.86,1.65-12.01,0-5.02-.71-9.94-2.98-14.35-1.85-3.6-5.56-5.67-9.39-4.39-1.63.54-2.89,1.66-3.74,3.15-3.84,6.75-3.15,15.62-1.36,23,.75,3.09,3.54,7.89,6.99,8.92Z"/>
  <path d="M500.12,439.04c-3.85.6-5.85,2.16-7.46,5.98l-11.4,27.09c-3.49,8.3-6.67,16.39-9.34,24.96-.34,1.08-1.15,2.31-2.11,2.67-1.71.66-3.26-.03-4.66-.93-1.66-1.05-3.27-3.15-2.37-5.26.68-1.61,2.54-2.65,3.95-3.56,3.24-2.08,4.99-5.22,6.65-8.54,1.01-2.02,1.71-3.84.83-6.15l-12.44-32.45c-.39-1.02-1.65-2.29-2.53-2.67-1.3-.55-2.43-.76-3.82-1.2l.08-2.68h21.17s.03,2.72.03,2.72l-3.24.98c-.69.62-.94,1.59-.61,2.55l7.72,22.48c2.91-7.33,5.35-14.26,7.71-21.54.22-.69.17-1.71-.03-2.33-.19-.55-1.11-1.2-1.79-1.39l-2.97-.81.04-2.66,16.59-.02v2.73Z"/>
  <path d="M344.21,466.22c.67.69,1.13,1.36,1.65,2.23-5.32,7.44-13.91,11.74-22.98,8.31-7.84-2.97-11.27-9.92-11.57-18.12-.18-4.92,1.23-9.98,4.22-13.92,4.76-6.27,11.96-10.79,19.95-8.81,3.33.82,5.88,2.83,7.84,5.45,1.75,2.33,2.55,4.66,2.88,7.6.19,1.71-.24,3.81-2.39,4.04-7.52.8-15,1.09-22.73,1.44.19,6.49,2.8,13.94,10.07,15.56,4.67,1.03,9.25-.32,13.06-3.77ZM333.93,450.1c.68-.01,1.62-.36,2.1-.71.71-4.08-1.51-10.05-5.73-10.45-5.3-.5-8.36,6.39-8.61,11.36l6.21-.1,6.04-.1Z"/>
  <path d="M82.77,466.27c.65.63,1.1,1.29,1.62,2.18-5.27,7.38-13.7,11.67-22.75,8.39-5.45-1.97-9.4-6.36-10.88-11.97-2.69-10.21.62-19.84,9.31-26.02,6.67-4.75,15.97-4.87,21.29,1.84,2.24,2.83,3.58,5.92,3.42,9.59-.06,1.38-1.08,2.59-2.59,2.74-7.48.77-14.83,1.07-22.51,1.39-.04,3.65.91,7.34,2.87,10.48,4.38,7.03,14.32,6.96,20.23,1.37ZM71.12,450.15c1.25-.02,2.57-.1,3.39-.74.81-4.08-1.47-10.05-5.69-10.47-5.32-.52-8.43,6.54-8.6,11.34l10.89-.14Z"/>
  <path d="M452.56,466.19l1.62,2.24c-4.69,6.57-12.29,11.02-20.5,9.11-5.91-1.38-10.64-5.31-12.68-11.1-2.54-7.19-1.76-15.5,2.75-21.63,4.67-6.34,12.12-10.91,20.08-8.87,10.1,2.58,13.43,16.5,8.37,17.05-7.58.82-15.07,1.09-22.82,1.45.03,4.31,1.26,8.66,4,12.02,1.57,1.93,3.77,2.87,6.1,3.59,4.73.85,9.37-.3,13.07-3.85ZM442.47,450.12c.62,0,1.52-.49,1.85-.85.66-3.86-1.52-9.83-5.61-10.3-5.48-.63-8.57,6.53-8.72,11.35l12.48-.19Z"/>
  <path d="M108.25,383.79l1.53,2.14c-5.29,7.57-13.91,11.79-23.01,8.35-3-1.13-5.74-3.12-7.69-5.77-4.64-6.3-5.04-16.51-1.42-23.31,2.92-5.48,8.73-10.81,14.99-11.94,5.52-1,10.81.81,14.26,5.17,2.13,2.7,3.16,5.52,3.19,8.99.01,1.51-.52,2.75-2.3,3.15l-9.46.75-13.3.67c.17,4.43,1.21,8.78,4.12,12.08,3.29,3.74,8.67,4.63,13.31,3.08,2.16-.72,3.61-1.9,5.77-3.37ZM98.52,367.65c.77-.01,1.43-.64,1.53-1.19.18-2.43-.35-4.53-1.37-6.63-1.31-2.68-4.05-3.96-6.96-3.08-4.2,2.05-5.62,6.55-6.08,11.1l12.89-.2Z"/>
  <path d="M247.83,394.38l-.13-2.55,4-.85c1.49-.32,2.36-2.27,2.36-3.88v-47.77c0-1.36-.58-2.97-1.83-3.35-1.32-.41-2.42-.56-3.91-.82-.21-.69-.21-1.73.05-2.48,5.33-.75,10.15-1.75,15.85-3.16l.03,55.18.16,3.22c.19,3.67,3.63,3.31,6.17,3.88l-.03,2.57h-22.71Z"/>
  <path d="M309.33,473.46l-7.2,3.56c-3.79,1.87-9.79,1.25-12.44-3.18-1.16-1.94-1.7-4.29-1.7-6.63l-.04-26.63-5.44-.06c-.2,0-.7-.26-.78-.4-.12-.19-.03-.74.12-.92l2.45-2.87h3.61s.1-6.58.1-6.58l8.51-6.48c.21-.16.86-.21,1.03-.14.23.09.55.59.55.84l.04,12.33,9.39.04c.46.47.66,1.45.67,2.05.02,1.37-.75,2.16-2.03,2.16h-8.06s.04,23.85.04,23.85c0,1.84.35,3.65,1.18,5.11,2.13,3.72,5.67,2.24,9.14,1.27l.87,2.68Z"/>
  <path d="M365.22,468.54c0,1.48.13,3.42,1.18,4.13,1.9,1.28,3.9,1.13,6.28,1.5.09.76.11,1.71.06,2.78h-23.52c-.32-.69-.33-1.8-.18-2.72l3.37-.62c1.68-.31,2.56-1.7,2.56-3.44v-24.91c0-1.87-1.1-3.26-2.83-3.61l-2.33-.48.05-2.39,6.54-1.23c2.98-.56,5.79-1.45,8.74-2.4l.1,9.96c2.37-3,5.68-9.43,10.33-9.65,2.6-.12,5.16,1,6.05,3.48,1.14,3.2-.82,6.74-3.99,7.71-1.14.35-1.94-.02-2.77-.72-1.38-1.16-3.25-1.95-5.06-1.15-2.63,1.16-3.43,3.32-4.62,5.79l.03,17.97Z"/>
  <path d="M401.73,471.31c.29,2.55,4.83,2.49,7.12,2.89l.04,2.76h-23.62s-.05-2.71-.05-2.71l3.09-.57c2.68-.49,2.99-2.73,2.99-5.63v-22.44c0-.85-.34-2.19-.83-2.76-1.02-1.18-2.69-1.29-4.2-1.59-.46-.42-.45-1.81-.18-2.49l6.69-1.24c2.91-.54,5.62-1.45,8.51-2.38l.11,10.06c3.56-4.8,1.87-3.43,5.93-7.59,2.66-2.73,7.15-3.07,9.72-.02,1.33,1.58,1.31,3.83.46,5.72-.72,1.58-2.15,3.15-4.39,3.44-.77.1-1.79-.55-2.43-1.06-2-1.58-4.58-1.76-6.45.23-1.06,1.14-2.81,3.12-2.82,4.87l-.09,15.85c0,1.57.22,3.06.4,4.65Z"/>
  <path d="M136.69,387.79c4.74.78,8.17-1.09,11.69-4.01l1.68,2c-2.48,3.53-5.69,6.46-9.61,8.31-2.82,1.34-5.49,1.64-8.53,1.29-2.46-.28-4.75-.76-6.86-1.95-7.08-3.98-10.62-10.76-10.04-18.74.53-7.28,4.25-12.92,10.24-16.97,4.91-3.32,10.56-5.28,16.58-4.61,2.03.23,4.07,1.07,5.56,2.3,1.99,1.64,1.82,3.99.32,5.93-.7.9-2.17,2.25-3.4,1.34l-3.98-2.94c-3.84-2.84-9.89-3.31-12.96,1.76s-3.08,11.7-1.2,17.24c1.53,4.5,5.72,8.26,10.51,9.05Z"/>
  <path d="M401.76,378.74c2.54,7.44,11.58,11.88,18.77,7.5,1.24-.75,2.15-1.54,3.42-2.46l1.67,2c-2.38,3.42-5.48,6.24-9.2,8.12-3.1,1.57-6.09,1.84-9.48,1.44-2.62-.31-4.84-.97-7.04-2.32-6.79-4.16-9.73-10.55-9.33-18.32.18-3.54,1.28-6.69,3.1-9.7s4.18-5.29,7.14-7.28c4.76-3.21,10.23-5.17,16.07-4.66,2.52.22,6.78,1.73,7.34,4.19.45,1.96-.5,3.73-1.92,5.05-.52.48-1.94.81-2.48.39-1.41-1.08-2.52-1.99-3.92-2.95-4.27-2.94-9.95-3.2-12.95,1.76s-3.08,11.71-1.2,17.23Z"/>
  <path d="M364.87,394.38c-.29-.66-.29-1.55-.24-2.6l3-.53c2.02-.36,3.03-1.83,3.03-3.94v-24.31c0-1.7-.82-3.31-2.5-3.68l-2.79-.63.04-2.47c3.28-.5,6.13-.99,9.25-1.79l6.16-1.57.03,31.32.18,3.69c.09,1.8,1.1,3.03,2.86,3.35l2.9.53c.4.5.33,1.88.08,2.62h-22Z"/>
  <path d="M294.58,349.17l-2.88-.99,5.22-15.04c1.65-.55,8.41-1.51,9.18-.66.25.27-.05,1.01-.32,1.38l-11.2,15.31Z"/>
  <circle cx="375.19" cy="340.4" r="5.8"/>
  <metadata>
    <sfw xmlns="http://ns.adobe.com/SaveForWeb/1.0/">
      <slices/>
      <sliceSourceBounds x="-0.12" y="0" width="500.25" height="500" bottomLeftOrigin="true"/>
      <optimizationSettings>
        <targetSettings fileFormat="PNG8Format" targetSettingsID="0">
          <PNG8Format autoReduce="false" ditherAlgorithm="diffusion" ditherPercent="100" interlaced="false" matteColor="#FFFFFF" noMatteColor="false" numColors="256" reductionAlgorithm="perceptual" rolloverMasterPalette="false" transparency="true" webShiftPercent="0">
            <colorTable isExact="false"/>
            <lockedColors/>
            <colorShiftEntries/>
          </PNG8Format>
        </targetSettings>
      </optimizationSettings>
    </sfw>
  </metadata>
</svg>