<?xml version="1.0" encoding="UTF-8"?>
<svg id="Capa_1" xmlns="http://www.w3.org/2000/svg" width="771.71" height="214" version="1.1" viewBox="0 0 771.71 214">
  <!-- Generator: Adobe Illustrator 30.1.0, SVG Export Plug-In . SVG Version: 2.1.1 Build 136)  -->
  <defs>
    <style>
      .st0 {
        fill: #161617;
      }
    </style>
  </defs>
  <path class="st0" d="M206.46,49.91c2.6,0,5.09-.05,7.69-.17.9,0,1.25-.17,1.3-1.07,0-2.92-1.53-5.73-4.02-5.73-2.32,0-4.47,2.53-4.98,6.96M221.4,60.91c-3.45,4.77-7.69,5.89-9.84,5.89-7.3,0-11.43-5.56-11.43-12.01,0-4.1,1.64-7.63,4.02-9.99,2.43-2.53,5.54-4.04,8.54-4.04,5.04,0,8.94,4.32,8.94,8.81,0,1.12-.34,1.8-1.53,1.96-1.02.17-7.98.67-13.91.9.17,6.62,3.9,9.71,7.92,9.71,2.21,0,4.36-.78,6.34-2.58l.96,1.35h-.01Z"/>
  <path class="st0" d="M246.48,60.85c-2.54,3.48-6.28,5.95-9.67,5.95-7.52,0-11.94-5.78-11.94-11.84,0-4.21,2.04-8.08,5.71-10.83,3.39-2.53,7.02-3.37,9.22-3.37s3.96.62,4.92,1.4c.79.62,1.02,1.18,1.02,1.91-.05,1.46-1.41,2.86-2.26,2.86-.34,0-.68-.17-1.19-.62-2.09-1.85-3.96-2.69-5.71-2.69-2.77,0-5.54,2.47-5.54,8.47,0,7.58,5.37,10.05,8.09,10.05,2.37,0,4.07-.62,6.33-2.58,0,0,1.02,1.29,1.02,1.29Z"/>
  <path class="st0" d="M265.13,66.13v-1.68c2.71-.34,3.05-.62,3.05-4.6v-9.43c0-3.99-1.75-5.67-4.35-5.67-1.75,0-3.39.9-4.92,2.13v13.41c0,3.59.34,3.82,3,4.15v1.68h-13.12v-1.68c3.62-.45,3.9-.62,3.9-4.32v-11.62c0-3.48-.28-3.65-3.17-4.21v-1.51c3-.39,6.34-1.18,9.39-2.19v4.27c1.13-.79,2.26-1.63,3.62-2.47,1.64-1.06,2.88-1.63,4.52-1.63,4.53,0,7.3,3.25,7.3,8.81v10.67c0,3.65.34,3.82,3.45,4.21v1.68h-12.67,0Z"/>
  <path class="st0" d="M287.27,52.38c0,6.96,2.55,12.35,6.5,12.35,2.66,0,5.15-1.79,5.15-9.88,0-7.35-2.26-12.07-6.33-12.07-2.77,0-5.32,3.2-5.32,9.6M305.99,53.33c0,9.04-6.62,13.47-12.84,13.47-8.48,0-12.95-6.29-12.95-12.46,0-9.15,7.24-13.58,13.13-13.58,7.58,0,12.67,5.78,12.67,12.57"/>
  <path class="st0" d="M308.2,66.13v-1.68c3.45-.45,3.79-.73,3.79-4.38v-25.99c0-3.54-.28-3.7-3.56-4.04v-1.57c3.11-.33,7.07-1.18,9.79-1.96v33.57c0,3.76.4,4.04,3.91,4.38v1.68h-13.93Z"/>
  <path class="st0" d="M335.03,37.84c.85-2.41,2.71-8.03,3.11-9.09.57-.34,4.75-.79,5.6-.62l.28.56-7.35,9.94-1.64-.79h0ZM331.13,52.38c0,6.96,2.54,12.35,6.5,12.35,2.66,0,5.15-1.79,5.15-9.88,0-7.35-2.26-12.07-6.34-12.07-2.77,0-5.32,3.2-5.32,9.6M349.86,53.33c0,9.04-6.62,13.47-12.84,13.47-8.49,0-12.95-6.29-12.95-12.46,0-9.15,7.24-13.58,13.13-13.58,7.58,0,12.67,5.78,12.67,12.57"/>
  <path class="st0" d="M360.59,49.12c0,4.04,1.59,7.18,4.41,7.24,2.32-.06,3.84-2.3,3.84-6.51,0-3.93-1.53-7.18-4.41-7.18-1.98,0-3.85,2.24-3.85,6.45M360.25,68.32c-1.02.95-1.75,2.02-1.75,3.37,0,2.86,3,5.39,7.35,5.39,4.7,0,7.3-2.47,7.3-5.61,0-1.97-1.19-3.25-2.94-3.76-1.47-.45-2.83-.56-5.04-.56-2.77,0-4.02.28-4.92,1.18M378.97,41.94c-.4.95-1.47,2.64-2.43,3.2l-3.22-.22c.9,1.18,1.53,2.64,1.53,4.54,0,5.95-5.2,8.87-10.47,8.87-.96,0-1.92-.17-2.83-.28-.51.45-1.08,1.18-1.08,1.85,0,.95.96,2.13,3.56,2.13,1.93,0,3.68-.11,5.49-.11,3.56,0,8.48,1.07,8.48,6.79,0,6.17-7.18,11.39-14.71,11.39-6.96,0-10.3-3.71-10.3-6.85,0-1.29.57-2.25,1.58-3.09,1.3-1.12,3.05-2.24,4.41-3.2-2.21-.79-3.45-1.91-4.19-3.14-.57-.84-.85-2.08-.73-2.75,2.66-1.01,4.47-2.53,5.49-3.59-3.11-1.12-5.37-3.87-5.37-7.47,0-6.34,5.83-9.26,10.69-9.26,2.15,0,3.85.45,5.82,1.46,2.89-.11,5.83-.45,7.98-.73l.28.45h.02Z"/>
  <path class="st0" d="M384.4,33.18c0-2.02,1.7-3.59,3.62-3.59,2.04,0,3.62,1.57,3.62,3.59,0,1.91-1.58,3.54-3.68,3.54-1.87,0-3.57-1.63-3.57-3.54M381.57,66.13v-1.68c3.39-.39,3.73-.62,3.73-4.55v-11.28c0-3.59-.34-3.82-3.28-4.27v-1.57c3.22-.39,6.62-1.12,9.5-2.08v19.2c0,3.82.29,4.16,3.79,4.55v1.68h-13.75,0Z"/>
  <path class="st0" d="M418.89,60.85c-2.55,3.48-6.28,5.95-9.67,5.95-7.52,0-11.93-5.78-11.93-11.84,0-4.21,2.04-8.08,5.71-10.83,3.39-2.52,7.02-3.37,9.22-3.37s3.96.62,4.92,1.4c.79.62,1.02,1.18,1.02,1.91-.06,1.46-1.41,2.86-2.26,2.86-.34,0-.68-.17-1.19-.62-2.09-1.85-3.96-2.69-5.71-2.69-2.77,0-5.55,2.47-5.55,8.47,0,7.58,5.37,10.05,8.09,10.05,2.37,0,4.07-.62,6.33-2.58l1.02,1.29h0Z"/>
  <path class="st0" d="M428.52,52.38c0,6.96,2.55,12.35,6.5,12.35,2.66,0,5.15-1.79,5.15-9.88,0-7.35-2.26-12.07-6.34-12.07-2.77,0-5.31,3.2-5.31,9.6M447.24,53.33c0,9.04-6.62,13.47-12.84,13.47-8.49,0-12.96-6.29-12.96-12.46,0-9.15,7.24-13.58,13.13-13.58,7.58,0,12.67,5.78,12.67,12.57"/>
  <path class="st0" d="M479.72,45.92c-1.08-1.96-2.89-2.92-4.75-2.92s-6.28,1.74-6.28,10.11c0,6.85,4.07,9.71,7.07,9.71,1.36,0,2.66-.45,3.97-1.29v-15.6h-.01ZM489.95,64.67c-1.3.22-6.22.9-10.24,2.19v-3.42l-3.45,2.13c-1.69,1.01-2.77,1.23-3.39,1.23-4.75,0-11.2-3.98-11.2-12.18,0-7.69,6.79-13.86,15.16-13.86.56,0,1.58.11,2.89.39v-7.18c0-3.25-.34-3.48-4.02-3.87v-1.63c3.4-.39,7.64-1.18,10.24-1.96v32.78c0,3.09.34,3.32,2.6,3.59l1.41.17v1.63h0Z"/>
  <path class="st0" d="M498.43,49.91c2.6,0,5.09-.06,7.69-.17.91,0,1.24-.17,1.3-1.07,0-2.92-1.53-5.73-4.02-5.73-2.32,0-4.47,2.53-4.98,6.96M513.36,60.91c-3.45,4.77-7.7,5.9-9.85,5.9-7.29,0-11.42-5.56-11.42-12.01,0-4.1,1.64-7.63,4.02-9.99,2.43-2.53,5.54-4.04,8.54-4.04,5.04,0,8.94,4.32,8.94,8.81,0,1.12-.34,1.8-1.53,1.96-1.02.17-7.98.67-13.91.9.17,6.62,3.9,9.71,7.92,9.71,2.21,0,4.36-.79,6.34-2.58l.96,1.35h-.01Z"/>
  <path class="st0" d="M558.11,66.13v-1.8c4.41-.45,4.64-.84,4.64-6.29l-.17-22.06h-.23l-12.95,29.75h-1.47l-11.94-29.13h-.17l-.74,15.16c-.23,4.66-.23,7.18-.05,9.15.17,2.58,1.36,3.03,5.15,3.37v1.85h-13.46v-1.85c3.23-.28,4.3-1.18,4.64-3.26.34-1.85.74-4.6,1.19-10.5l.85-11.28c.51-6.74.11-7.3-4.86-7.75v-1.85h10.86l11.6,25.82,11.82-25.82h10.75v1.85c-4.69.45-4.98.73-4.86,5.84l.57,20.71c.11,5.44.34,5.84,4.98,6.29v1.8h-16.15Z"/>
  <path class="st0" d="M583.91,52.38c0,6.96,2.54,12.35,6.5,12.35,2.66,0,5.15-1.79,5.15-9.88,0-7.35-2.26-12.07-6.34-12.07-2.77,0-5.32,3.2-5.32,9.6M602.64,53.33c0,9.04-6.62,13.47-12.84,13.47-8.49,0-12.95-6.29-12.95-12.46,0-9.15,7.24-13.58,13.12-13.58,7.58,0,12.67,5.78,12.67,12.57"/>
  <path class="st0" d="M621.99,66.13v-1.68c2.72-.34,3.05-.62,3.05-4.6v-9.43c0-3.99-1.75-5.67-4.36-5.67-1.75,0-3.39.9-4.92,2.13v13.41c0,3.59.34,3.82,3,4.15v1.68h-13.12v-1.68c3.62-.45,3.9-.62,3.9-4.32v-11.62c0-3.48-.28-3.65-3.17-4.21v-1.51c3-.39,6.33-1.18,9.39-2.19v4.27c1.13-.79,2.26-1.63,3.62-2.47,1.64-1.06,2.88-1.63,4.52-1.63,4.53,0,7.3,3.25,7.3,8.81v10.67c0,3.65.34,3.82,3.45,4.21v1.68h-12.67,0Z"/>
  <path class="st0" d="M648.33,66.13c-.96.45-1.87.67-2.32.67-4.08,0-6.4-2.08-6.4-6.96v-15.89h-3.68l-.28-.68,1.58-1.85h2.37v-4.1l5.43-4.15.73.28v7.97h5.88c.62.56.51,2.07-.34,2.52h-5.54v14.03c0,4.43,2.04,5.05,3.28,5.05,1.13,0,2.15-.33,3.05-.73l.57,1.74-4.36,2.07.03.03Z"/>
  <path class="st0" d="M661.04,49.91c2.6,0,5.09-.06,7.69-.17.9,0,1.25-.17,1.3-1.07,0-2.92-1.53-5.73-4.02-5.73-2.32,0-4.47,2.53-4.98,6.96M675.98,60.91c-3.45,4.77-7.69,5.9-9.85,5.9-7.3,0-11.43-5.56-11.43-12.01,0-4.1,1.64-7.63,4.02-9.99,2.43-2.53,5.54-4.04,8.54-4.04,5.03,0,8.94,4.32,8.94,8.81,0,1.12-.34,1.8-1.53,1.96-1.02.17-7.98.67-13.91.9.17,6.62,3.9,9.71,7.92,9.71,2.2,0,4.35-.79,6.33-2.58l.96,1.35h0Z"/>
  <path class="st0" d="M688.97,46.71c1.92-3.31,4.24-5.95,6.56-5.95,2.15,0,3.62,1.51,3.62,3.25,0,1.63-1.08,3.09-2.43,3.59-.74.28-1.3.17-1.65-.17-.96-.79-1.64-1.18-2.54-1.18-1.24,0-2.6,1.07-3.68,3.65v10.38c0,3.54.28,3.82,4.64,4.15v1.68h-14.59v-1.68c3.22-.34,3.73-.62,3.73-4.15v-12.07c0-3.14-.34-3.37-3.22-3.93v-1.46c3.17-.45,6.22-1.13,9.45-2.19v6.06h.11v.02Z"/>
  <path class="st0" d="M710.58,46.71c1.92-3.31,4.24-5.95,6.56-5.95,2.15,0,3.62,1.51,3.62,3.25,0,1.63-1.08,3.09-2.43,3.59-.73.28-1.3.17-1.64-.17-.96-.79-1.64-1.18-2.54-1.18-1.24,0-2.6,1.07-3.68,3.65v10.38c0,3.54.28,3.82,4.64,4.15v1.68h-14.6v-1.68c3.23-.34,3.74-.62,3.74-4.15v-12.07c0-3.14-.34-3.37-3.23-3.93v-1.46c3.17-.45,6.22-1.13,9.45-2.19v6.06h.11v.02Z"/>
  <path class="st0" d="M728.77,49.91c2.6,0,5.09-.06,7.7-.17.9,0,1.24-.17,1.3-1.07,0-2.92-1.53-5.73-4.02-5.73-2.32,0-4.47,2.53-4.98,6.96M743.7,60.91c-3.45,4.77-7.69,5.9-9.84,5.9-7.3,0-11.43-5.56-11.43-12.01,0-4.1,1.64-7.63,4.02-9.99,2.43-2.53,5.55-4.04,8.54-4.04,5.03,0,8.94,4.32,8.94,8.81,0,1.12-.34,1.8-1.53,1.96-1.02.17-7.98.67-13.91.9.17,6.62,3.9,9.71,7.92,9.71,2.21,0,4.36-.79,6.34-2.58l.96,1.35h-.01Z"/>
  <path class="st0" d="M771.71,43.06c-2.83.51-3.34,1.01-4.81,4.1-1.41,2.92-3.22,7.63-6.73,15.94-3.79,9.04-4.98,12.4-5.88,15.55-.4,1.18-1.13,1.46-1.98,1.46-1.58,0-3.73-1.51-3.73-3.26,0-.9.45-1.4,1.53-2.13,2.04-1.12,3.28-2.3,4.47-4.38.73-1.29,1.07-2.13,1.3-2.86.28-.84.17-1.63-.17-2.58-2.66-7.52-5.6-15.04-6.9-18.07-1.07-2.64-1.7-3.31-4.53-3.76v-1.63h13.13v1.63c-2.55.51-2.89.9-2.27,2.81l4.58,13.02c1.41-3.42,3.51-9.37,4.58-12.68.68-1.97.17-2.64-2.77-3.14v-1.63h10.18v1.63-.02Z"/>
  <path class="st0" d="M169.73,29.07c-.15,3.27-.42,6.63-.61,9.88h1.92c.68-2.69,1.3-4.49,2.15-5.45.8-1.07,1.87-1.57,6.51-1.57h2.55v26.89c0,4.66-.57,5.11-5.43,5.5v1.79h17.65v-1.79c-5.15-.39-5.66-.84-5.66-5.5v-26.89h3.06c3.68,0,4.92.34,5.94,1.46.85.96,1.53,2.7,2.2,5.5l1.87-.11c-.23-2.9-.47-6.62-.54-9.71h-31.61,0Z"/>
  <path class="st0" d="M198.04,110.35c-.33,2.16-1.41,7.17-1.9,8.79h-27.15v-1.72c4.73-.38,5.21-.75,5.21-5.28v-20.96c0-4.74-.49-4.96-4.45-5.28v-1.78h25.03c.06,1.08.33,4.85.54,7.98l-1.85.27c-.49-2.05-1.14-3.61-2.01-4.64-.87-1.02-2.33-1.4-5.7-1.4h-3.15c-1.9,0-2.06.11-2.06,1.83v11.69h4.18c4.67,0,5.21-.32,5.92-4.04h1.85v10.67h-1.85c-.71-3.88-1.25-4.09-5.92-4.09h-4.18v9.59c0,2.59.27,3.83,1.3,4.42.98.54,2.88.6,5.11.6,3.31,0,5.11-.38,6.35-1.78,1.03-1.13,2.01-2.91,2.93-5.17l1.79.32v-.02Z"/>
  <path class="st0" d="M215.98,102.16c-1.3-3.29-3.1-5.44-5.7-5.44-1.69,0-3.04,1.35-3.04,3.23s1.57,3.18,4.24,4.31c4.29,1.83,7.17,3.72,7.17,7.76,0,5.17-4.94,7.76-9.45,7.76-2.82,0-5.59-1.02-6.63-1.83-.38-.81-.87-4.58-.87-6.95l1.52-.16c1.14,3.45,3.64,6.95,6.9,6.95,1.85,0,3.31-1.35,3.31-3.23s-1.09-3.12-4.18-4.63c-2.77-1.29-6.9-3.29-6.9-7.76,0-4.04,3.37-7.38,8.85-7.38,2.39,0,3.86.43,5.05.92.54,1.24,1.14,4.85,1.3,6.04l-1.57.43v-.02Z"/>
  <path class="st0" d="M242.7,114.07c-2.44,3.34-6.03,5.71-9.29,5.71-7.22,0-11.46-5.55-11.46-11.37,0-4.04,1.95-7.76,5.49-10.4,3.26-2.43,6.73-3.24,8.85-3.24s3.8.59,4.73,1.35c.76.59.98,1.13.98,1.83-.06,1.4-1.36,2.75-2.17,2.75-.32,0-.65-.16-1.14-.59-2.01-1.78-3.8-2.59-5.49-2.59-2.66,0-5.33,2.37-5.33,8.14,0,7.27,5.16,9.65,7.77,9.65,2.28,0,3.91-.59,6.09-2.48l.98,1.24h0Z"/>
  <path class="st0" d="M272.58,117.84c-2.93.43-6.03,1.13-9.23,1.94l-.38-.38v-3.45c-1.09.81-1.9,1.56-3.2,2.32-1.58.97-2.93,1.51-4.51,1.51-4.23,0-7-2.64-7-7.81v-10.89c0-2.75-.16-2.96-3.1-3.61v-1.51c3.04-.11,6.08-.43,9.23-.92-.11,2.05-.16,4.69-.16,8.03v7.6c0,3.99,2.06,5.23,4.13,5.23,1.63,0,3.15-.49,4.62-1.89v-12.93c0-2.86-.22-3.07-3.75-3.61v-1.51c3.15-.11,6.35-.38,9.72-.92v17.68c0,2.8.32,3.23,2.33,3.45l1.31.11v1.56h0Z"/>
  <path class="st0" d="M280.77,103.56c2.5,0,4.89-.05,7.39-.16.87,0,1.2-.16,1.25-1.02,0-2.8-1.47-5.5-3.86-5.5-2.22,0-4.29,2.42-4.78,6.68M295.11,114.13c-3.32,4.58-7.39,5.66-9.45,5.66-7,0-10.97-5.33-10.97-11.53,0-3.94,1.58-7.33,3.86-9.59,2.34-2.43,5.33-3.88,8.2-3.88,4.83,0,8.58,4.15,8.58,8.46,0,1.08-.33,1.72-1.47,1.89-.98.16-7.66.65-13.36.86.16,6.36,3.75,9.32,7.6,9.32,2.12,0,4.18-.75,6.08-2.48l.93,1.3h0Z"/>
  <path class="st0" d="M297.02,119.14v-1.62c3.31-.43,3.64-.7,3.64-4.2v-24.95c0-3.39-.27-3.56-3.42-3.88v-1.51c2.99-.32,6.79-1.13,9.4-1.89v32.22c0,3.61.38,3.88,3.75,4.2v1.62h-13.37Z"/>
  <path class="st0" d="M325.72,106.2c-1.09.59-2.55,1.35-3.69,1.94-1.85.86-2.82,1.89-2.82,3.77,0,2.91,2.06,4.09,3.48,4.09.97,0,2.06-.49,3.04-1.24v-8.57h-.01ZM330.28,119.78c-1.25,0-2.34-.48-3.04-1.08-.71-.7-1.09-1.4-1.36-2.16-2.12,1.4-4.67,3.23-5.92,3.23-4.34,0-7.06-3.45-7.06-6.79,0-2.75,1.36-4.2,4.23-5.23,3.2-1.13,7.33-2.48,8.58-3.56v-1.35c0-3.56-1.52-5.55-3.8-5.55-.81,0-1.52.32-2.01.97-.65.76-1.14,2-1.57,3.67-.32,1.24-1.03,1.62-2.06,1.62-1.25,0-2.99-1.18-2.99-2.59,0-.86.65-1.56,1.85-2.37,1.85-1.35,5.59-3.23,8.69-3.83,2.01,0,3.64.48,5,1.51,2.17,1.67,2.71,3.99,2.71,6.9v9.32c0,2.48.87,3.18,1.79,3.18.65,0,1.3-.22,1.85-.49l.6,1.62-5.48,2.96v.02Z"/>
  <path class="st0" d="M364.21,100.34c-1.03-1.83-2.77-2.71-4.56-2.71s-6.03,1.62-6.03,9.4c0,6.37,3.91,9.03,6.79,9.03,1.3,0,2.55-.42,3.8-1.2v-14.52ZM374.04,117.78c-1.25.21-5.98.83-9.83,2.04v-3.19l-3.31,1.99c-1.63.94-2.66,1.15-3.26,1.15-4.56,0-10.75-3.71-10.75-11.33,0-7.15,6.52-12.9,14.56-12.9.54,0,1.52.1,2.77.36v-6.68c0-3.03-.32-3.24-3.85-3.6v-1.52c3.26-.36,7.33-1.09,9.83-1.83v30.5c0,2.87.33,3.08,2.5,3.34l1.36.16v1.52h-.02Z"/>
  <path class="st0" d="M382.1,103.56c2.5,0,4.89-.05,7.39-.16.87,0,1.2-.16,1.25-1.02,0-2.8-1.47-5.5-3.86-5.5-2.23,0-4.29,2.42-4.78,6.68M396.43,114.13c-3.32,4.58-7.39,5.66-9.45,5.66-7,0-10.97-5.33-10.97-11.53,0-3.94,1.58-7.33,3.86-9.59,2.34-2.43,5.33-3.88,8.2-3.88,4.83,0,8.58,4.15,8.58,8.46,0,1.08-.33,1.72-1.47,1.89-.98.16-7.66.65-13.36.86.16,6.36,3.75,9.32,7.6,9.32,2.12,0,4.18-.75,6.08-2.48l.93,1.3h0Z"/>
  <path class="st0" d="M427.16,92.14h-.16c-1.58,4.15-3.05,8.35-4.56,12.39h9.01l-4.29-12.39ZM432.05,119.14v-1.72c3.26-.49,3.58-1.08,2.82-3.34-.6-1.78-1.52-4.31-2.5-6.9h-10.81c-.71,2-1.47,4.04-2.12,6.2-.92,2.91-.65,3.56,3.31,4.04v1.72h-12v-1.72c3.53-.49,4.23-.97,6.08-5.6l11.13-27.86,2.39-.65c3.48,9.38,6.9,19.08,10.43,28.35,1.79,4.74,2.5,5.34,5.98,5.76v1.72h-14.72,0Z"/>
  <path class="st0" d="M459.88,100.49c1.85-3.18,4.07-5.71,6.3-5.71,2.06,0,3.48,1.45,3.48,3.13,0,1.56-1.03,2.96-2.34,3.45-.71.27-1.25.16-1.57-.16-.92-.75-1.57-1.13-2.44-1.13-1.19,0-2.5,1.02-3.53,3.5v9.97c0,3.39.27,3.66,4.45,3.99v1.62h-14.01v-1.62c3.1-.32,3.58-.59,3.58-3.99v-11.59c0-3.02-.32-3.23-3.1-3.77v-1.4c3.05-.43,5.98-1.08,9.07-2.1v5.82h.11Z"/>
  <path class="st0" d="M488.06,99.2c-1.14-1.4-2.88-2.26-4.29-2.26-2.88,0-6.14,3.13-6.14,9.65s4.29,9.97,7.72,9.97c1.08,0,1.9-.22,2.71-.59v-16.76h0ZM483.61,131.75v-1.62c3.96-.43,4.45-.59,4.45-4.09v-8.25l-4.89,1.99c-8.42,0-12.17-6.14-12.17-11.42,0-7.65,7-13.63,14.93-13.58,2.12.16,3.26.49,3.85.7.76.27,1.14.32,1.69.32.43,0,1.3-.16,2.44-.65l.27.21c-.05,1.08-.22,2.1-.22,5.77v24.95c0,3.45.33,3.67,3.86,4.04v1.62h-14.23.02Z"/>
  <path class="st0" d="M526.08,117.84c-2.93.43-6.03,1.13-9.23,1.94l-.38-.38v-3.45c-1.09.81-1.9,1.56-3.2,2.32-1.58.97-2.93,1.51-4.51,1.51-4.23,0-7-2.64-7-7.81v-10.89c0-2.75-.16-2.96-3.1-3.61v-1.51c3.04-.11,6.08-.43,9.23-.92-.11,2.05-.16,4.69-.16,8.03v7.6c0,3.99,2.06,5.23,4.13,5.23,1.63,0,3.15-.49,4.62-1.89v-12.93c0-2.86-.22-3.07-3.75-3.61v-1.51c3.15-.11,6.35-.38,9.72-.92v17.68c0,2.8.32,3.23,2.33,3.45l1.31.11v1.56h-.01Z"/>
  <path class="st0" d="M531.82,87.5c0-1.94,1.63-3.45,3.48-3.45,1.95,0,3.48,1.51,3.48,3.45,0,1.83-1.52,3.4-3.53,3.4-1.79,0-3.42-1.56-3.42-3.4M529.1,119.14v-1.62c3.26-.38,3.58-.59,3.58-4.37v-10.83c0-3.45-.32-3.66-3.15-4.09v-1.51c3.1-.38,6.35-1.08,9.13-1.99v18.43c0,3.67.27,3.99,3.64,4.37v1.62h-13.2Z"/>
  <path class="st0" d="M555.25,119.14c-.92.43-1.79.65-2.23.65-3.91,0-6.14-2-6.14-6.68v-15.25h-3.53l-.27-.65,1.52-1.78h2.28v-3.93l5.21-3.99.71.27v7.65h5.65c.6.54.49,1.99-.32,2.43h-5.32v13.47c0,4.26,1.95,4.85,3.15,4.85,1.09,0,2.06-.32,2.93-.7l.54,1.67-4.18,1.99h0Z"/>
  <path class="st0" d="M567.39,103.56c2.5,0,4.89-.05,7.39-.16.87,0,1.2-.16,1.25-1.02,0-2.8-1.47-5.5-3.86-5.5-2.23,0-4.29,2.42-4.78,6.68M581.73,114.13c-3.31,4.58-7.39,5.66-9.45,5.66-7.01,0-10.97-5.33-10.97-11.53,0-3.94,1.57-7.33,3.86-9.59,2.34-2.43,5.32-3.88,8.2-3.88,4.83,0,8.58,4.15,8.58,8.46,0,1.08-.32,1.72-1.47,1.89-.98.16-7.65.65-13.36.86.16,6.36,3.75,9.32,7.6,9.32,2.12,0,4.18-.75,6.08-2.48l.92,1.3h0Z"/>
  <path class="st0" d="M605.68,114.07c-2.44,3.34-6.03,5.71-9.28,5.71-7.22,0-11.46-5.55-11.46-11.37,0-4.04,1.96-7.76,5.49-10.4,3.26-2.43,6.74-3.24,8.85-3.24s3.8.59,4.73,1.35c.76.59.98,1.13.98,1.83-.05,1.4-1.36,2.75-2.17,2.75-.33,0-.66-.16-1.14-.59-2.01-1.78-3.8-2.59-5.49-2.59-2.66,0-5.32,2.37-5.32,8.14,0,7.27,5.16,9.65,7.77,9.65,2.28,0,3.91-.59,6.08-2.48l.98,1.24h-.02Z"/>
  <path class="st0" d="M620,119.14c-.92.43-1.79.65-2.23.65-3.91,0-6.14-2-6.14-6.68v-15.25h-3.53l-.27-.65,1.52-1.78h2.28v-3.93l5.21-3.99.71.27v7.65h5.65c.6.54.49,1.99-.33,2.43h-5.32v13.47c0,4.26,1.95,4.85,3.15,4.85,1.08,0,2.06-.32,2.93-.7l.54,1.67-4.18,1.99h0Z"/>
  <path class="st0" d="M654.12,117.84c-2.93.43-6.02,1.13-9.23,1.94l-.38-.38v-3.45c-1.08.81-1.9,1.56-3.2,2.32-1.57.97-2.93,1.51-4.51,1.51-4.23,0-7.01-2.64-7.01-7.81v-10.89c0-2.75-.16-2.96-3.09-3.61v-1.51c3.04-.11,6.08-.43,9.23-.92-.11,2.05-.16,4.69-.16,8.03v7.6c0,3.99,2.06,5.23,4.13,5.23,1.63,0,3.15-.49,4.61-1.89v-12.93c0-2.86-.22-3.07-3.75-3.61v-1.51c3.15-.11,6.36-.38,9.72-.92v17.68c0,2.8.32,3.23,2.33,3.45l1.3.11v1.56h.01Z"/>
  <path class="st0" d="M666.81,100.49c1.85-3.18,4.07-5.71,6.3-5.71,2.07,0,3.48,1.45,3.48,3.13,0,1.56-1.03,2.96-2.33,3.45-.71.27-1.25.16-1.57-.16-.92-.75-1.58-1.13-2.44-1.13-1.2,0-2.5,1.02-3.53,3.5v9.97c0,3.39.27,3.66,4.45,3.99v1.62h-14.01v-1.62c3.1-.32,3.58-.59,3.58-3.99v-11.59c0-3.02-.33-3.23-3.1-3.77v-1.4c3.04-.43,5.97-1.08,9.07-2.1v5.82h.11,0Z"/>
  <path class="st0" d="M691.86,106.2c-1.09.59-2.55,1.35-3.7,1.94-1.84.86-2.82,1.89-2.82,3.77,0,2.91,2.07,4.09,3.48,4.09.98,0,2.07-.49,3.05-1.24v-8.57h0ZM696.42,119.78c-1.25,0-2.34-.48-3.05-1.08-.7-.7-1.09-1.4-1.36-2.16-2.12,1.4-4.67,3.23-5.92,3.23-4.35,0-7.06-3.45-7.06-6.79,0-2.75,1.35-4.2,4.23-5.23,3.2-1.13,7.33-2.48,8.58-3.56v-1.35c0-3.56-1.52-5.55-3.8-5.55-.81,0-1.52.32-2.01.97-.65.76-1.14,2-1.57,3.67-.33,1.24-1.03,1.62-2.07,1.62-1.25,0-2.98-1.18-2.98-2.59,0-.86.65-1.56,1.85-2.37,1.85-1.35,5.59-3.23,8.69-3.83,2.01,0,3.64.48,5,1.51,2.17,1.67,2.71,3.99,2.71,6.9v9.32c0,2.48.87,3.18,1.79,3.18.65,0,1.3-.22,1.85-.49l.6,1.62-5.48,2.96v.02Z"/>
  <path class="st0" d="M713.88,117.52c0,4.74-4.4,7.44-8.47,8.46l-.65-1.72c3.09-1.29,4.67-2.8,4.67-5.01,0-1.89-1.47-3.34-3.75-3.83-.27-.11-.76-.65-.76-1.72,0-1.56,1.52-2.64,3.1-2.64,2.5,0,5.86,2.53,5.86,6.46"/>
  <path class="st0" d="M184.95,147.1h-.16c-1.57,4.15-3.04,8.35-4.56,12.39h9.02l-4.29-12.39h-.01ZM189.84,174.1v-1.72c3.26-.49,3.58-1.08,2.82-3.34-.59-1.78-1.52-4.31-2.5-6.9h-10.81c-.71,2-1.47,4.04-2.12,6.2-.93,2.91-.66,3.56,3.31,4.04v1.72h-12v-1.72c3.53-.49,4.24-.97,6.08-5.61l11.14-27.86,2.39-.65c3.48,9.38,6.9,19.08,10.43,28.35,1.79,4.74,2.5,5.33,5.97,5.76v1.72h-14.72,0Z"/>
  <path class="st0" d="M217.67,155.46c1.85-3.18,4.07-5.71,6.3-5.71,2.07,0,3.48,1.45,3.48,3.13,0,1.56-1.03,2.96-2.33,3.45-.71.27-1.25.16-1.58-.16-.92-.75-1.57-1.13-2.44-1.13-1.2,0-2.5,1.02-3.53,3.5v9.97c0,3.39.27,3.66,4.45,3.99v1.62h-14.01v-1.62c3.09-.32,3.58-.59,3.58-3.99v-11.59c0-3.02-.33-3.23-3.1-3.77v-1.4c3.04-.43,5.97-1.08,9.07-2.1v5.82h.11Z"/>
  <path class="st0" d="M242,174.1c-.92.43-1.79.65-2.23.65-3.91,0-6.14-2-6.14-6.68v-15.25h-3.53l-.27-.65,1.52-1.78h2.28v-3.93l5.21-3.99.71.27v7.65h5.65c.6.54.49,1.99-.32,2.42h-5.32v13.47c0,4.26,1.95,4.85,3.15,4.85,1.09,0,2.06-.32,2.93-.7l.54,1.67-4.18,1.99h0Z"/>
  <path class="st0" d="M254.13,158.53c2.5,0,4.89-.05,7.39-.16.87,0,1.2-.16,1.25-1.02,0-2.8-1.47-5.5-3.86-5.5-2.23,0-4.29,2.42-4.78,6.68M268.47,169.09c-3.31,4.58-7.39,5.66-9.45,5.66-7.01,0-10.97-5.33-10.97-11.53,0-3.94,1.57-7.33,3.86-9.59,2.34-2.43,5.32-3.88,8.2-3.88,4.83,0,8.58,4.15,8.58,8.46,0,1.08-.32,1.72-1.47,1.89-.98.16-7.65.65-13.36.86.16,6.36,3.75,9.32,7.6,9.32,2.12,0,4.18-.76,6.09-2.48l.92,1.3h0Z"/>
  <path class="st0" d="M307.89,151.95c-2.72.49-3.2.97-4.62,3.93-1.35,2.8-3.09,7.33-6.46,15.3-3.64,8.68-4.78,11.91-5.65,14.93-.38,1.13-1.09,1.4-1.9,1.4-1.52,0-3.58-1.45-3.58-3.13,0-.86.44-1.35,1.47-2.05,1.95-1.08,3.15-2.21,4.29-4.2.71-1.24,1.03-2.05,1.25-2.75.27-.81.16-1.56-.16-2.48-2.55-7.22-5.38-14.44-6.63-17.35-1.03-2.53-1.63-3.18-4.34-3.61v-1.56h12.6v1.56c-2.45.49-2.77.86-2.17,2.69l4.4,12.5c1.36-3.29,3.37-9,4.4-12.18.65-1.89.16-2.53-2.66-3.02v-1.56h9.78v1.56l-.02.02Z"/>
  <path class="st0" d="M331.93,166.72c0,3.94,1.19,5.17,4.99,5.17,8.31,0,13.25-6.46,13.25-15.68,0-5.34-1.79-9.65-4.94-12.13-2.33-1.99-5.27-2.97-8.96-2.97-2.12,0-3.31.38-3.75.76-.43.43-.6,1.24-.6,3.02v21.82h.01ZM337.09,139.07c6.84,0,12.06,1.4,15.48,4.63,2.72,2.53,4.73,6.42,4.73,11.53,0,6.52-2.6,11.26-6.74,14.39-4.02,3.07-9.61,4.47-16.34,4.47h-13.58v-1.72c4.46-.38,4.94-.7,4.94-5.28v-20.96c0-4.63-.49-4.96-4.45-5.28v-1.78h15.96,0Z"/>
  <path class="st0" d="M363.93,142.47c0-1.94,1.63-3.45,3.48-3.45,1.95,0,3.48,1.51,3.48,3.45,0,1.83-1.52,3.39-3.53,3.39-1.79,0-3.42-1.56-3.42-3.39M361.21,174.1v-1.62c3.26-.38,3.58-.59,3.58-4.37v-10.83c0-3.45-.32-3.67-3.15-4.1v-1.51c3.1-.38,6.35-1.08,9.13-1.99v18.43c0,3.67.27,3.99,3.64,4.37v1.62h-13.2Z"/>
  <path class="st0" d="M391.68,157.13c-1.31-3.29-3.1-5.44-5.71-5.44-1.68,0-3.04,1.35-3.04,3.23s1.57,3.18,4.23,4.31c4.29,1.83,7.17,3.72,7.17,7.76,0,5.17-4.94,7.76-9.45,7.76-2.82,0-5.59-1.02-6.62-1.83-.38-.81-.87-4.58-.87-6.95l1.52-.16c1.14,3.45,3.64,6.95,6.9,6.95,1.85,0,3.31-1.35,3.31-3.23s-1.09-3.13-4.18-4.63c-2.77-1.3-6.89-3.29-6.89-7.76,0-4.04,3.36-7.38,8.85-7.38,2.39,0,3.86.43,5.06.92.54,1.24,1.14,4.85,1.3,6.04l-1.57.43v-.02Z"/>
  <path class="st0" d="M403.83,158.53c2.5,0,4.89-.05,7.39-.16.87,0,1.2-.16,1.25-1.02,0-2.8-1.47-5.5-3.86-5.5-2.23,0-4.29,2.42-4.78,6.68M418.17,169.09c-3.32,4.58-7.39,5.66-9.45,5.66-7,0-10.97-5.33-10.97-11.53,0-3.94,1.58-7.33,3.86-9.59,2.34-2.43,5.33-3.88,8.2-3.88,4.83,0,8.58,4.15,8.58,8.46,0,1.08-.33,1.72-1.47,1.89-.98.16-7.66.65-13.36.86.16,6.36,3.75,9.32,7.6,9.32,2.12,0,4.18-.76,6.08-2.48l.93,1.3h0Z"/>
  <path class="st0" d="M426.79,145.38c1.19-3.77,2.99-5.39,4.78-5.39.92,0,1.69.27,3.31,1.08,1.25.65,2.06,1.08,3.05,1.08,1.08,0,1.9-1.08,2.55-2.48l1.47.76c-1.31,4.53-3.21,5.44-4.56,5.44-1.19,0-2.34-.54-3.59-1.24-1.2-.65-1.9-.97-2.88-.97-.92,0-1.79.75-2.66,2.69l-1.47-.97h0ZM436.35,174.1v-1.62c2.61-.32,2.93-.59,2.93-4.42v-9.05c0-3.83-1.68-5.44-4.18-5.44-1.69,0-3.26.86-4.73,2.05v12.88c0,3.45.33,3.67,2.88,3.99v1.62h-12.6v-1.62c3.48-.43,3.75-.59,3.75-4.15v-11.16c0-3.34-.27-3.5-3.04-4.04v-1.45c2.88-.38,6.09-1.13,9.02-2.1v4.1c1.09-.76,2.17-1.56,3.48-2.37,1.57-1.02,2.77-1.56,4.35-1.56,4.34,0,7,3.13,7,8.46v10.24c0,3.5.33,3.67,3.31,4.04v1.62h-12.17v-.02Z"/>
  <path class="st0" d="M457.54,160.9c0,6.68,2.45,11.86,6.24,11.86,2.55,0,4.94-1.72,4.94-9.49,0-7.06-2.17-11.58-6.08-11.58-2.66,0-5.11,3.07-5.11,9.21M475.52,161.82c0,8.68-6.35,12.93-12.32,12.93-8.15,0-12.44-6.04-12.44-11.96,0-8.79,6.95-13.04,12.6-13.04,7.28,0,12.17,5.55,12.17,12.07"/>
  <path class="st0" d="M118.27,88.94c-5.23,5.21-15.59,15.06-23.91,23.26-19.63,17.82-19.94,29.31-18.89,34.68-14.46-16.86-2.99-29.49,4.36-36.64,3.37-3.29,24.19-23.66,28.96-28.18,16.86-16.01,16.86-20.8,16.86-20.8,6.41,15.05-2.16,22.47-7.39,27.67M117.77,113.91c-5.13,5-3.07,3-11.39,11.1-13.52,13.13-13.6,21.88-13.6,21.88-7.55-8.23-2.91-21.9,5.2-29.79,3.38-3.29,9.66-9.2,14.13-13.41,9.14-8.61,11.99-11.13,13.28-14.45,3.5,14.43-4.19,21.03-7.62,24.68M61.79,103.52c3.75-3.6,27.6-26.89,32.15-31.29,14.78-14.28,14.12-18.76,14.12-18.76,6.38,15.06-2.37,23.28-7.63,28.44-5.73,5.63-20.23,19.77-28.59,27.93-20.99,20.47-13.46,37.05-13.46,37.05-13.32-9.8-10.33-30.04,3.41-43.37M53.08,87.45c3.77-3.7,24.04-23.42,30.9-30.05,14.4-13.92,13.57-19.45,14.22-22.35,10.09,10.27,3.9,20.7-1.57,26.11-4.79,4.75-27.3,27.3-36.45,35.58-2.33,2.11-17.48,15.9-16.49,28.68-8.46-10.62-6.19-24.09,9.39-37.98M34.56,81.81c3.39-3.51,29.16-28.45,33.52-32.82,10.66-10.61,8.55-19.18,8.55-19.18,12.33,9.32,7.8,19.37,1.11,25.8-5.43,5.24-24.67,24.44-33.56,32.9-14.1,13.45-12.39,24.55-9.72,34.06-10.34-10.53-15.03-25.14.09-40.77M77.12,26.5C34.53,26.5,0,60.75,0,103.02c0,39.02,29.44,71.22,67.49,75.93v-10.83c-12.72-1.9-25.4-6.17-33.85-17.67h86.96c-8.46,11.51-21.14,15.78-33.85,17.67v10.83c38.05-4.7,67.48-36.9,67.48-75.93,0-42.26-34.52-76.52-77.12-76.52"/>
  <metadata>
    <sfw xmlns="http://ns.adobe.com/SaveForWeb/1.0/">
      <slices/>
      <sliceSourceBounds x="-135.86" y="169.5" width="771.71" height="161.01" bottomLeftOrigin="true"/>
      <optimizationSettings>
        <targetSettings fileFormat="PNG8Format" targetSettingsID="0">
          <PNG8Format autoReduce="false" ditherAlgorithm="diffusion" ditherPercent="100" interlaced="false" matteColor="#FFFFFF" noMatteColor="false" numColors="256" reductionAlgorithm="perceptual" rolloverMasterPalette="false" transparency="true" webShiftPercent="0">
            <colorTable isExact="false"/>
            <lockedColors/>
            <colorShiftEntries/>
          </PNG8Format>
        </targetSettings>
      </optimizationSettings>
    </sfw>
  </metadata>
</svg>